; NON-PLATED HOLES START AT T1
; THROUGH (PLATED) HOLES START AT T100
M48
INCH
T1C0.086614
T100C0.015748
T101C0.038194
T102C0.040000
T103C0.039370
T104C0.035433
T105C0.038000
%
T1
X000800Y000784
X046469Y000784
X000800Y030705
X046469Y030705
T100
X034712Y021893
X011312Y021293
X008812Y030593
X024212Y008193
X035612Y021293
X033712Y008193
X029712Y014093
X029712Y015893
X009512Y026493
X008812Y023593
X017212Y008293
X028012Y014093
X024212Y011293
X014212Y021893
X019912Y023593
X016212Y026493
X039512Y008193
X028012Y015893
T101
X007212Y022093
X027812Y025093
X021212Y006093
X033212Y006093
X007212Y008093
X007212Y023093
X020212Y025093
X024212Y025093
X007212Y013093
X023213Y025093
X007212Y012093
X007212Y019093
X014212Y006093
X007212Y017093
X006212Y013093
X031812Y025093
X006212Y012093
X006212Y022093
X006212Y018093
X006212Y016093
X008213Y006093
X007212Y018093
X006212Y008093
X007212Y010093
X035812Y025093
X007212Y009093
X007212Y024093
X024212Y006093
X007212Y011093
X007212Y016093
X009212Y006093
X007212Y015093
X017212Y025093
X012212Y006093
X012212Y025093
X006212Y015093
X015212Y006093
X029812Y025093
X007212Y021093
X028212Y006093
X018213Y006093
X011212Y025093
X036813Y025093
X006212Y024093
X015212Y025093
X006212Y020093
X006212Y021093
X026212Y025093
X006212Y023093
X034812Y025093
X020212Y006093
X022212Y006093
X016212Y025093
X030812Y025093
X006212Y009093
X027212Y006093
X029212Y006093
X006212Y010093
X031212Y006093
X019212Y025093
X010212Y006093
X007212Y014093
X013213Y006093
X007212Y025093
X014212Y025093
X023213Y006093
X013213Y025093
X010212Y025093
X007212Y020093
X032812Y025093
X030212Y006093
X006212Y014093
X006212Y019093
X019212Y006093
X021212Y025093
X025212Y025093
X011212Y006093
X006212Y011093
X028812Y025093
X017212Y006093
X026212Y006093
X033812Y025093
X032212Y006093
X006212Y017093
X006212Y025093
X022212Y025093
T102
X038238Y018695
X035238Y018695
X016368Y018695
X031238Y012695
X014368Y018695
X033238Y012695
X013368Y018695
X017368Y012695
X036238Y012695
X011368Y018695
X014368Y012695
X012368Y012695
X036238Y018695
X010368Y012695
X010368Y018695
X037238Y018695
X012368Y018695
X035238Y012695
X032238Y018695
X015368Y012695
X037238Y012695
X034238Y018695
X032238Y012695
X038238Y012695
X031238Y018695
X017368Y018695
X034238Y012695
X013368Y012695
X015368Y018695
X033238Y018695
X011368Y012695
X016368Y012695
T103
X043312Y020693
X034912Y028393
X032944Y028393
X013257Y028393
X034867Y003554
X015226Y028393
X043312Y018724
X043359Y010578
X013212Y003593
X043359Y012547
X032899Y003554
X015181Y003593
T104
X003934Y022570
X001374Y022570
T105
X023212Y002093
X020817Y027866
X026772Y022582
X002112Y017093
X040512Y028593
X040312Y003993
X002112Y018093
X026212Y002093
X040512Y027093
X024817Y027866
X028772Y022582
X024212Y002093
X003112Y016093
X006712Y027093
X021817Y027866
X040512Y029593
X020884Y022614
X019817Y027866
X007712Y001493
X007712Y003993
X002112Y013093
X021884Y022614
X007712Y027093
X041512Y027093
X027772Y022582
X029772Y022582
X027817Y027866
X002112Y015093
X002812Y011093
X002112Y016093
X002812Y008093
X002112Y014093
X007712Y002993
X018884Y022614
X027212Y002093
X028817Y027866
X007712Y029593
X006712Y001493
X022817Y027866
X003112Y015093
X002812Y009093
X005712Y027093
X040312Y001493
X042512Y027093
X019884Y022614
X003112Y017093
X002812Y010093
X003112Y018093
X007712Y028593
X023817Y027866
X041312Y001493
X005712Y001493
X025817Y027866
X003112Y013093
X026817Y027866
X040312Y002993
X042312Y001493
X003112Y014093
T00
M30
