G04 MADE WITH FRITZING*
G04 WWW.FRITZING.ORG*
G04 DOUBLE SIDED*
G04 HOLES PLATED*
G04 CONTOUR ON CENTER OF CONTOUR VECTOR*
%ASAXBY*%
%FSLAX23Y23*%
%MOIN*%
%OFA0B0*%
%SFA1.0B1.0*%
%ADD10R,4.724420X3.149610X4.708420X3.133610*%
%ADD11C,0.008000*%
%ADD12C,0.012000*%
%ADD13C,0.006000*%
%ADD14R,0.001000X0.001000*%
%LNSILK0*%
G90*
G70*
G54D11*
X4Y3146D02*
X4720Y3146D01*
X4720Y4D01*
X4Y4D01*
X4Y3146D01*
D02*
G54D12*
X721Y734D02*
X721Y714D01*
D02*
X721Y714D02*
X621Y714D01*
D02*
X621Y714D02*
X621Y734D01*
D02*
X721Y2559D02*
X721Y2584D01*
D02*
X721Y2584D02*
X621Y2584D01*
D02*
X621Y2584D02*
X621Y2559D01*
G54D13*
D02*
X946Y659D02*
X896Y659D01*
D02*
X896Y659D02*
X871Y634D01*
D02*
X871Y634D02*
X871Y584D01*
D02*
X871Y584D02*
X896Y559D01*
D02*
X1071Y634D02*
X1046Y659D01*
D02*
X1046Y659D02*
X996Y659D01*
D02*
X996Y659D02*
X971Y634D01*
D02*
X971Y634D02*
X971Y584D01*
D02*
X971Y584D02*
X996Y559D01*
D02*
X996Y559D02*
X1046Y559D01*
D02*
X1046Y559D02*
X1071Y584D01*
D02*
X946Y659D02*
X971Y634D01*
D02*
X971Y584D02*
X946Y559D01*
D02*
X896Y559D02*
X946Y559D01*
D02*
X1246Y659D02*
X1196Y659D01*
D02*
X1196Y659D02*
X1171Y634D01*
D02*
X1171Y634D02*
X1171Y584D01*
D02*
X1171Y584D02*
X1196Y559D01*
D02*
X1171Y634D02*
X1146Y659D01*
D02*
X1146Y659D02*
X1096Y659D01*
D02*
X1096Y659D02*
X1071Y634D01*
D02*
X1071Y634D02*
X1071Y584D01*
D02*
X1071Y584D02*
X1096Y559D01*
D02*
X1096Y559D02*
X1146Y559D01*
D02*
X1146Y559D02*
X1171Y584D01*
D02*
X1371Y634D02*
X1346Y659D01*
D02*
X1346Y659D02*
X1296Y659D01*
D02*
X1296Y659D02*
X1271Y634D01*
D02*
X1271Y634D02*
X1271Y584D01*
D02*
X1271Y584D02*
X1296Y559D01*
D02*
X1296Y559D02*
X1346Y559D01*
D02*
X1346Y559D02*
X1371Y584D01*
D02*
X1246Y659D02*
X1271Y634D01*
D02*
X1271Y584D02*
X1246Y559D01*
D02*
X1196Y559D02*
X1246Y559D01*
D02*
X1546Y659D02*
X1496Y659D01*
D02*
X1496Y659D02*
X1471Y634D01*
D02*
X1471Y634D02*
X1471Y584D01*
D02*
X1471Y584D02*
X1496Y559D01*
D02*
X1471Y634D02*
X1446Y659D01*
D02*
X1446Y659D02*
X1396Y659D01*
D02*
X1396Y659D02*
X1371Y634D01*
D02*
X1371Y634D02*
X1371Y584D01*
D02*
X1371Y584D02*
X1396Y559D01*
D02*
X1396Y559D02*
X1446Y559D01*
D02*
X1446Y559D02*
X1471Y584D01*
D02*
X1571Y634D02*
X1571Y584D01*
D02*
X1546Y659D02*
X1571Y634D01*
D02*
X1571Y584D02*
X1546Y559D01*
D02*
X1496Y559D02*
X1546Y559D01*
D02*
X846Y659D02*
X796Y659D01*
D02*
X796Y659D02*
X771Y634D01*
D02*
X771Y634D02*
X771Y584D01*
D02*
X771Y584D02*
X796Y559D01*
D02*
X846Y659D02*
X871Y634D01*
D02*
X871Y584D02*
X846Y559D01*
D02*
X796Y559D02*
X846Y559D01*
D02*
X1846Y659D02*
X1796Y659D01*
D02*
X1796Y659D02*
X1771Y634D01*
D02*
X1771Y634D02*
X1771Y584D01*
D02*
X1771Y584D02*
X1796Y559D01*
D02*
X1971Y634D02*
X1946Y659D01*
D02*
X1946Y659D02*
X1896Y659D01*
D02*
X1896Y659D02*
X1871Y634D01*
D02*
X1871Y634D02*
X1871Y584D01*
D02*
X1871Y584D02*
X1896Y559D01*
D02*
X1896Y559D02*
X1946Y559D01*
D02*
X1946Y559D02*
X1971Y584D01*
D02*
X1846Y659D02*
X1871Y634D01*
D02*
X1871Y584D02*
X1846Y559D01*
D02*
X1796Y559D02*
X1846Y559D01*
D02*
X2146Y659D02*
X2096Y659D01*
D02*
X2096Y659D02*
X2071Y634D01*
D02*
X2071Y634D02*
X2071Y584D01*
D02*
X2071Y584D02*
X2096Y559D01*
D02*
X2071Y634D02*
X2046Y659D01*
D02*
X2046Y659D02*
X1996Y659D01*
D02*
X1996Y659D02*
X1971Y634D01*
D02*
X1971Y634D02*
X1971Y584D01*
D02*
X1971Y584D02*
X1996Y559D01*
D02*
X1996Y559D02*
X2046Y559D01*
D02*
X2046Y559D02*
X2071Y584D01*
D02*
X2271Y634D02*
X2246Y659D01*
D02*
X2246Y659D02*
X2196Y659D01*
D02*
X2196Y659D02*
X2171Y634D01*
D02*
X2171Y634D02*
X2171Y584D01*
D02*
X2171Y584D02*
X2196Y559D01*
D02*
X2196Y559D02*
X2246Y559D01*
D02*
X2246Y559D02*
X2271Y584D01*
D02*
X2146Y659D02*
X2171Y634D01*
D02*
X2171Y584D02*
X2146Y559D01*
D02*
X2096Y559D02*
X2146Y559D01*
D02*
X2446Y659D02*
X2396Y659D01*
D02*
X2396Y659D02*
X2371Y634D01*
D02*
X2371Y634D02*
X2371Y584D01*
D02*
X2371Y584D02*
X2396Y559D01*
D02*
X2371Y634D02*
X2346Y659D01*
D02*
X2346Y659D02*
X2296Y659D01*
D02*
X2296Y659D02*
X2271Y634D01*
D02*
X2271Y634D02*
X2271Y584D01*
D02*
X2271Y584D02*
X2296Y559D01*
D02*
X2296Y559D02*
X2346Y559D01*
D02*
X2346Y559D02*
X2371Y584D01*
D02*
X2471Y634D02*
X2471Y584D01*
D02*
X2446Y659D02*
X2471Y634D01*
D02*
X2471Y584D02*
X2446Y559D01*
D02*
X2396Y559D02*
X2446Y559D01*
D02*
X1746Y659D02*
X1696Y659D01*
D02*
X1696Y659D02*
X1671Y634D01*
D02*
X1671Y634D02*
X1671Y584D01*
D02*
X1671Y584D02*
X1696Y559D01*
D02*
X1746Y659D02*
X1771Y634D01*
D02*
X1771Y584D02*
X1746Y559D01*
D02*
X1696Y559D02*
X1746Y559D01*
D02*
X1596Y2459D02*
X1646Y2459D01*
D02*
X1646Y2459D02*
X1671Y2484D01*
D02*
X1671Y2484D02*
X1671Y2534D01*
D02*
X1671Y2534D02*
X1646Y2559D01*
D02*
X1471Y2484D02*
X1496Y2459D01*
D02*
X1496Y2459D02*
X1546Y2459D01*
D02*
X1546Y2459D02*
X1571Y2484D01*
D02*
X1571Y2484D02*
X1571Y2534D01*
D02*
X1571Y2534D02*
X1546Y2559D01*
D02*
X1546Y2559D02*
X1496Y2559D01*
D02*
X1496Y2559D02*
X1471Y2534D01*
D02*
X1596Y2459D02*
X1571Y2484D01*
D02*
X1571Y2534D02*
X1596Y2559D01*
D02*
X1646Y2559D02*
X1596Y2559D01*
D02*
X1296Y2459D02*
X1346Y2459D01*
D02*
X1346Y2459D02*
X1371Y2484D01*
D02*
X1371Y2484D02*
X1371Y2534D01*
D02*
X1371Y2534D02*
X1346Y2559D01*
D02*
X1371Y2484D02*
X1396Y2459D01*
D02*
X1396Y2459D02*
X1446Y2459D01*
D02*
X1446Y2459D02*
X1471Y2484D01*
D02*
X1471Y2484D02*
X1471Y2534D01*
D02*
X1471Y2534D02*
X1446Y2559D01*
D02*
X1446Y2559D02*
X1396Y2559D01*
D02*
X1396Y2559D02*
X1371Y2534D01*
D02*
X1171Y2484D02*
X1196Y2459D01*
D02*
X1196Y2459D02*
X1246Y2459D01*
D02*
X1246Y2459D02*
X1271Y2484D01*
D02*
X1271Y2484D02*
X1271Y2534D01*
D02*
X1271Y2534D02*
X1246Y2559D01*
D02*
X1246Y2559D02*
X1196Y2559D01*
D02*
X1196Y2559D02*
X1171Y2534D01*
D02*
X1296Y2459D02*
X1271Y2484D01*
D02*
X1271Y2534D02*
X1296Y2559D01*
D02*
X1346Y2559D02*
X1296Y2559D01*
D02*
X996Y2459D02*
X1046Y2459D01*
D02*
X1046Y2459D02*
X1071Y2484D01*
D02*
X1071Y2484D02*
X1071Y2534D01*
D02*
X1071Y2534D02*
X1046Y2559D01*
D02*
X1071Y2484D02*
X1096Y2459D01*
D02*
X1096Y2459D02*
X1146Y2459D01*
D02*
X1146Y2459D02*
X1171Y2484D01*
D02*
X1171Y2484D02*
X1171Y2534D01*
D02*
X1171Y2534D02*
X1146Y2559D01*
D02*
X1146Y2559D02*
X1096Y2559D01*
D02*
X1096Y2559D02*
X1071Y2534D01*
D02*
X971Y2484D02*
X971Y2534D01*
D02*
X996Y2459D02*
X971Y2484D01*
D02*
X971Y2534D02*
X996Y2559D01*
D02*
X1046Y2559D02*
X996Y2559D01*
D02*
X1696Y2459D02*
X1746Y2459D01*
D02*
X1746Y2459D02*
X1771Y2484D01*
D02*
X1771Y2484D02*
X1771Y2534D01*
D02*
X1771Y2534D02*
X1746Y2559D01*
D02*
X1696Y2459D02*
X1671Y2484D01*
D02*
X1671Y2534D02*
X1696Y2559D01*
D02*
X1746Y2559D02*
X1696Y2559D01*
D02*
X2931Y2534D02*
X2906Y2559D01*
D02*
X2906Y2559D02*
X2856Y2559D01*
D02*
X2856Y2559D02*
X2831Y2534D01*
D02*
X2831Y2534D02*
X2831Y2484D01*
D02*
X2831Y2484D02*
X2856Y2459D01*
D02*
X2856Y2459D02*
X2906Y2459D01*
D02*
X2906Y2459D02*
X2931Y2484D01*
D02*
X3106Y2559D02*
X3056Y2559D01*
D02*
X3056Y2559D02*
X3031Y2534D01*
D02*
X3031Y2534D02*
X3031Y2484D01*
D02*
X3031Y2484D02*
X3056Y2459D01*
D02*
X3031Y2534D02*
X3006Y2559D01*
D02*
X3006Y2559D02*
X2956Y2559D01*
D02*
X2956Y2559D02*
X2931Y2534D01*
D02*
X2931Y2534D02*
X2931Y2484D01*
D02*
X2931Y2484D02*
X2956Y2459D01*
D02*
X2956Y2459D02*
X3006Y2459D01*
D02*
X3006Y2459D02*
X3031Y2484D01*
D02*
X3231Y2534D02*
X3206Y2559D01*
D02*
X3206Y2559D02*
X3156Y2559D01*
D02*
X3156Y2559D02*
X3131Y2534D01*
D02*
X3131Y2534D02*
X3131Y2484D01*
D02*
X3131Y2484D02*
X3156Y2459D01*
D02*
X3156Y2459D02*
X3206Y2459D01*
D02*
X3206Y2459D02*
X3231Y2484D01*
D02*
X3106Y2559D02*
X3131Y2534D01*
D02*
X3131Y2484D02*
X3106Y2459D01*
D02*
X3056Y2459D02*
X3106Y2459D01*
D02*
X3406Y2559D02*
X3356Y2559D01*
D02*
X3356Y2559D02*
X3331Y2534D01*
D02*
X3331Y2534D02*
X3331Y2484D01*
D02*
X3331Y2484D02*
X3356Y2459D01*
D02*
X3331Y2534D02*
X3306Y2559D01*
D02*
X3306Y2559D02*
X3256Y2559D01*
D02*
X3256Y2559D02*
X3231Y2534D01*
D02*
X3231Y2534D02*
X3231Y2484D01*
D02*
X3231Y2484D02*
X3256Y2459D01*
D02*
X3256Y2459D02*
X3306Y2459D01*
D02*
X3306Y2459D02*
X3331Y2484D01*
D02*
X3531Y2534D02*
X3506Y2559D01*
D02*
X3506Y2559D02*
X3456Y2559D01*
D02*
X3456Y2559D02*
X3431Y2534D01*
D02*
X3431Y2534D02*
X3431Y2484D01*
D02*
X3431Y2484D02*
X3456Y2459D01*
D02*
X3456Y2459D02*
X3506Y2459D01*
D02*
X3506Y2459D02*
X3531Y2484D01*
D02*
X3406Y2559D02*
X3431Y2534D01*
D02*
X3431Y2484D02*
X3406Y2459D01*
D02*
X3356Y2459D02*
X3406Y2459D01*
D02*
X3706Y2559D02*
X3656Y2559D01*
D02*
X3656Y2559D02*
X3631Y2534D01*
D02*
X3631Y2534D02*
X3631Y2484D01*
D02*
X3631Y2484D02*
X3656Y2459D01*
D02*
X3631Y2534D02*
X3606Y2559D01*
D02*
X3606Y2559D02*
X3556Y2559D01*
D02*
X3556Y2559D02*
X3531Y2534D01*
D02*
X3531Y2534D02*
X3531Y2484D01*
D02*
X3531Y2484D02*
X3556Y2459D01*
D02*
X3556Y2459D02*
X3606Y2459D01*
D02*
X3606Y2459D02*
X3631Y2484D01*
D02*
X3731Y2534D02*
X3731Y2484D01*
D02*
X3706Y2559D02*
X3731Y2534D01*
D02*
X3731Y2484D02*
X3706Y2459D01*
D02*
X3656Y2459D02*
X3706Y2459D01*
D02*
X2806Y2559D02*
X2756Y2559D01*
D02*
X2756Y2559D02*
X2731Y2534D01*
D02*
X2731Y2534D02*
X2731Y2484D01*
D02*
X2731Y2484D02*
X2756Y2459D01*
D02*
X2806Y2559D02*
X2831Y2534D01*
D02*
X2831Y2484D02*
X2806Y2459D01*
D02*
X2756Y2459D02*
X2806Y2459D01*
D02*
X2746Y659D02*
X2696Y659D01*
D02*
X2696Y659D02*
X2671Y634D01*
D02*
X2671Y634D02*
X2671Y584D01*
D02*
X2671Y584D02*
X2696Y559D01*
D02*
X2871Y634D02*
X2846Y659D01*
D02*
X2846Y659D02*
X2796Y659D01*
D02*
X2796Y659D02*
X2771Y634D01*
D02*
X2771Y634D02*
X2771Y584D01*
D02*
X2771Y584D02*
X2796Y559D01*
D02*
X2796Y559D02*
X2846Y559D01*
D02*
X2846Y559D02*
X2871Y584D01*
D02*
X2746Y659D02*
X2771Y634D01*
D02*
X2771Y584D02*
X2746Y559D01*
D02*
X2696Y559D02*
X2746Y559D01*
D02*
X3046Y659D02*
X2996Y659D01*
D02*
X2996Y659D02*
X2971Y634D01*
D02*
X2971Y634D02*
X2971Y584D01*
D02*
X2971Y584D02*
X2996Y559D01*
D02*
X2971Y634D02*
X2946Y659D01*
D02*
X2946Y659D02*
X2896Y659D01*
D02*
X2896Y659D02*
X2871Y634D01*
D02*
X2871Y634D02*
X2871Y584D01*
D02*
X2871Y584D02*
X2896Y559D01*
D02*
X2896Y559D02*
X2946Y559D01*
D02*
X2946Y559D02*
X2971Y584D01*
D02*
X3171Y634D02*
X3146Y659D01*
D02*
X3146Y659D02*
X3096Y659D01*
D02*
X3096Y659D02*
X3071Y634D01*
D02*
X3071Y634D02*
X3071Y584D01*
D02*
X3071Y584D02*
X3096Y559D01*
D02*
X3096Y559D02*
X3146Y559D01*
D02*
X3146Y559D02*
X3171Y584D01*
D02*
X3046Y659D02*
X3071Y634D01*
D02*
X3071Y584D02*
X3046Y559D01*
D02*
X2996Y559D02*
X3046Y559D01*
D02*
X3346Y659D02*
X3296Y659D01*
D02*
X3296Y659D02*
X3271Y634D01*
D02*
X3271Y634D02*
X3271Y584D01*
D02*
X3271Y584D02*
X3296Y559D01*
D02*
X3271Y634D02*
X3246Y659D01*
D02*
X3246Y659D02*
X3196Y659D01*
D02*
X3196Y659D02*
X3171Y634D01*
D02*
X3171Y634D02*
X3171Y584D01*
D02*
X3171Y584D02*
X3196Y559D01*
D02*
X3196Y559D02*
X3246Y559D01*
D02*
X3246Y559D02*
X3271Y584D01*
D02*
X3371Y634D02*
X3371Y584D01*
D02*
X3346Y659D02*
X3371Y634D01*
D02*
X3371Y584D02*
X3346Y559D01*
D02*
X3296Y559D02*
X3346Y559D01*
D02*
X2646Y659D02*
X2596Y659D01*
D02*
X2596Y659D02*
X2571Y634D01*
D02*
X2571Y634D02*
X2571Y584D01*
D02*
X2571Y584D02*
X2596Y559D01*
D02*
X2646Y659D02*
X2671Y634D01*
D02*
X2671Y584D02*
X2646Y559D01*
D02*
X2596Y559D02*
X2646Y559D01*
D02*
X2496Y2459D02*
X2546Y2459D01*
D02*
X2546Y2459D02*
X2571Y2484D01*
D02*
X2571Y2484D02*
X2571Y2534D01*
D02*
X2571Y2534D02*
X2546Y2559D01*
D02*
X2371Y2484D02*
X2396Y2459D01*
D02*
X2396Y2459D02*
X2446Y2459D01*
D02*
X2446Y2459D02*
X2471Y2484D01*
D02*
X2471Y2484D02*
X2471Y2534D01*
D02*
X2471Y2534D02*
X2446Y2559D01*
D02*
X2446Y2559D02*
X2396Y2559D01*
D02*
X2396Y2559D02*
X2371Y2534D01*
D02*
X2496Y2459D02*
X2471Y2484D01*
D02*
X2471Y2534D02*
X2496Y2559D01*
D02*
X2546Y2559D02*
X2496Y2559D01*
D02*
X2196Y2459D02*
X2246Y2459D01*
D02*
X2246Y2459D02*
X2271Y2484D01*
D02*
X2271Y2484D02*
X2271Y2534D01*
D02*
X2271Y2534D02*
X2246Y2559D01*
D02*
X2271Y2484D02*
X2296Y2459D01*
D02*
X2296Y2459D02*
X2346Y2459D01*
D02*
X2346Y2459D02*
X2371Y2484D01*
D02*
X2371Y2484D02*
X2371Y2534D01*
D02*
X2371Y2534D02*
X2346Y2559D01*
D02*
X2346Y2559D02*
X2296Y2559D01*
D02*
X2296Y2559D02*
X2271Y2534D01*
D02*
X2071Y2484D02*
X2096Y2459D01*
D02*
X2096Y2459D02*
X2146Y2459D01*
D02*
X2146Y2459D02*
X2171Y2484D01*
D02*
X2171Y2484D02*
X2171Y2534D01*
D02*
X2171Y2534D02*
X2146Y2559D01*
D02*
X2146Y2559D02*
X2096Y2559D01*
D02*
X2096Y2559D02*
X2071Y2534D01*
D02*
X2196Y2459D02*
X2171Y2484D01*
D02*
X2171Y2534D02*
X2196Y2559D01*
D02*
X2246Y2559D02*
X2196Y2559D01*
D02*
X1896Y2459D02*
X1946Y2459D01*
D02*
X1946Y2459D02*
X1971Y2484D01*
D02*
X1971Y2484D02*
X1971Y2534D01*
D02*
X1971Y2534D02*
X1946Y2559D01*
D02*
X1971Y2484D02*
X1996Y2459D01*
D02*
X1996Y2459D02*
X2046Y2459D01*
D02*
X2046Y2459D02*
X2071Y2484D01*
D02*
X2071Y2484D02*
X2071Y2534D01*
D02*
X2071Y2534D02*
X2046Y2559D01*
D02*
X2046Y2559D02*
X1996Y2559D01*
D02*
X1996Y2559D02*
X1971Y2534D01*
D02*
X1871Y2484D02*
X1871Y2534D01*
D02*
X1896Y2459D02*
X1871Y2484D01*
D02*
X1871Y2534D02*
X1896Y2559D01*
D02*
X1946Y2559D02*
X1896Y2559D01*
D02*
X2596Y2459D02*
X2646Y2459D01*
D02*
X2646Y2459D02*
X2671Y2484D01*
D02*
X2671Y2484D02*
X2671Y2534D01*
D02*
X2671Y2534D02*
X2646Y2559D01*
D02*
X2596Y2459D02*
X2571Y2484D01*
D02*
X2571Y2534D02*
X2596Y2559D01*
D02*
X2646Y2559D02*
X2596Y2559D01*
D02*
X746Y2559D02*
X771Y2534D01*
D02*
X771Y2534D02*
X771Y2484D01*
D02*
X771Y2484D02*
X746Y2459D01*
D02*
X746Y2459D02*
X771Y2434D01*
D02*
X771Y2434D02*
X771Y2384D01*
D02*
X771Y2384D02*
X746Y2359D01*
D02*
X746Y2359D02*
X771Y2334D01*
D02*
X771Y2334D02*
X771Y2284D01*
D02*
X771Y2284D02*
X746Y2259D01*
D02*
X746Y2259D02*
X771Y2234D01*
D02*
X771Y2234D02*
X771Y2184D01*
D02*
X771Y2184D02*
X746Y2159D01*
D02*
X746Y2159D02*
X771Y2134D01*
D02*
X771Y2134D02*
X771Y2084D01*
D02*
X771Y2084D02*
X746Y2059D01*
D02*
X746Y2059D02*
X771Y2034D01*
D02*
X771Y2034D02*
X771Y1984D01*
D02*
X771Y1984D02*
X746Y1959D01*
D02*
X746Y2559D02*
X596Y2559D01*
D02*
X596Y2559D02*
X571Y2534D01*
D02*
X571Y2534D02*
X571Y2484D01*
D02*
X571Y2484D02*
X596Y2459D01*
D02*
X596Y2459D02*
X571Y2434D01*
D02*
X571Y2434D02*
X571Y2384D01*
D02*
X571Y2384D02*
X596Y2359D01*
D02*
X596Y2359D02*
X571Y2334D01*
D02*
X571Y2334D02*
X571Y2284D01*
D02*
X571Y2284D02*
X596Y2259D01*
D02*
X596Y2259D02*
X571Y2234D01*
D02*
X571Y2234D02*
X571Y2184D01*
D02*
X571Y2184D02*
X596Y2159D01*
D02*
X596Y2159D02*
X571Y2134D01*
D02*
X571Y2134D02*
X571Y2084D01*
D02*
X571Y2084D02*
X596Y2059D01*
D02*
X596Y2059D02*
X571Y2034D01*
D02*
X571Y2034D02*
X571Y1984D01*
D02*
X571Y1984D02*
X596Y1959D01*
D02*
X596Y1959D02*
X571Y1934D01*
D02*
X571Y1934D02*
X571Y1884D01*
D02*
X571Y1884D02*
X596Y1859D01*
D02*
X596Y1859D02*
X571Y1834D01*
D02*
X571Y1834D02*
X571Y1784D01*
D02*
X571Y1784D02*
X596Y1759D01*
D02*
X596Y1759D02*
X571Y1734D01*
D02*
X571Y1734D02*
X571Y1684D01*
D02*
X571Y1684D02*
X596Y1659D01*
D02*
X596Y1659D02*
X571Y1634D01*
D02*
X571Y1634D02*
X571Y1584D01*
D02*
X571Y1584D02*
X596Y1559D01*
D02*
X596Y1559D02*
X571Y1534D01*
D02*
X571Y1534D02*
X571Y1484D01*
D02*
X571Y1484D02*
X596Y1459D01*
D02*
X596Y1459D02*
X571Y1434D01*
D02*
X571Y1434D02*
X571Y1384D01*
D02*
X596Y1359D02*
X571Y1384D01*
D02*
X596Y1359D02*
X571Y1334D01*
D02*
X571Y1284D02*
X571Y1334D01*
D02*
X571Y1284D02*
X596Y1259D01*
D02*
X596Y1259D02*
X571Y1234D01*
D02*
X571Y1184D02*
X571Y1234D01*
D02*
X571Y1184D02*
X596Y1159D01*
D02*
X596Y1159D02*
X571Y1134D01*
D02*
X571Y1084D02*
X571Y1134D01*
D02*
X571Y1084D02*
X596Y1059D01*
D02*
X596Y1059D02*
X571Y1034D01*
D02*
X571Y984D02*
X571Y1034D01*
D02*
X571Y984D02*
X596Y959D01*
D02*
X596Y959D02*
X571Y934D01*
D02*
X571Y884D02*
X571Y934D01*
D02*
X571Y884D02*
X596Y859D01*
D02*
X596Y859D02*
X571Y834D01*
D02*
X571Y784D02*
X571Y834D01*
D02*
X571Y784D02*
X596Y759D01*
D02*
X746Y759D02*
X771Y784D01*
D02*
X771Y784D02*
X771Y834D01*
D02*
X746Y859D02*
X771Y834D01*
D02*
X746Y859D02*
X771Y884D01*
D02*
X771Y884D02*
X771Y934D01*
D02*
X746Y959D02*
X771Y934D01*
D02*
X746Y959D02*
X771Y984D01*
D02*
X771Y1034D02*
X771Y984D01*
D02*
X771Y1034D02*
X746Y1059D01*
D02*
X746Y1059D02*
X771Y1084D01*
D02*
X771Y1134D02*
X771Y1084D01*
D02*
X771Y1134D02*
X746Y1159D01*
D02*
X746Y1159D02*
X771Y1184D01*
D02*
X771Y1184D02*
X771Y1234D01*
D02*
X746Y1259D02*
X771Y1234D01*
D02*
X746Y1259D02*
X771Y1284D01*
D02*
X771Y1284D02*
X771Y1334D01*
D02*
X746Y1359D02*
X771Y1334D01*
D02*
X746Y1359D02*
X771Y1384D01*
D02*
X771Y1384D02*
X771Y1434D01*
D02*
X746Y1459D02*
X771Y1434D01*
D02*
X746Y1459D02*
X771Y1484D01*
D02*
X771Y1484D02*
X771Y1534D01*
D02*
X746Y1559D02*
X771Y1534D01*
D02*
X746Y1559D02*
X771Y1584D01*
D02*
X771Y1584D02*
X771Y1634D01*
D02*
X746Y1659D02*
X771Y1634D01*
D02*
X746Y1659D02*
X771Y1684D01*
D02*
X771Y1684D02*
X771Y1734D01*
D02*
X746Y1759D02*
X771Y1734D01*
D02*
X746Y1759D02*
X771Y1784D01*
D02*
X771Y1784D02*
X771Y1834D01*
D02*
X746Y1859D02*
X771Y1834D01*
D02*
X746Y1859D02*
X771Y1884D01*
D02*
X771Y1884D02*
X771Y1934D01*
D02*
X746Y1959D02*
X771Y1934D01*
D02*
X596Y2459D02*
X746Y2459D01*
D02*
X596Y2359D02*
X746Y2359D01*
D02*
X596Y2259D02*
X746Y2259D01*
D02*
X596Y2159D02*
X746Y2159D01*
D02*
X596Y2059D02*
X746Y2059D01*
D02*
X596Y1959D02*
X746Y1959D01*
D02*
X596Y1859D02*
X746Y1859D01*
D02*
X596Y1759D02*
X746Y1759D01*
D02*
X596Y1659D02*
X746Y1659D01*
D02*
X596Y1559D02*
X746Y1559D01*
D02*
X596Y1459D02*
X746Y1459D01*
D02*
X596Y1359D02*
X746Y1359D01*
D02*
X596Y1259D02*
X746Y1259D01*
D02*
X596Y1159D02*
X746Y1159D01*
D02*
X596Y1059D02*
X746Y1059D01*
D02*
X596Y959D02*
X746Y959D01*
D02*
X596Y859D02*
X746Y859D01*
D02*
X596Y759D02*
X746Y759D01*
G54D14*
X623Y2610D02*
X4388Y2610D01*
X622Y2609D02*
X4392Y2609D01*
X621Y2608D02*
X4395Y2608D01*
X620Y2607D02*
X4397Y2607D01*
X619Y2606D02*
X4399Y2606D01*
X618Y2605D02*
X4401Y2605D01*
X617Y2604D02*
X4403Y2604D01*
X616Y2603D02*
X4404Y2603D01*
X615Y2602D02*
X625Y2602D01*
X4388Y2602D02*
X4406Y2602D01*
X614Y2601D02*
X624Y2601D01*
X4392Y2601D02*
X4407Y2601D01*
X613Y2600D02*
X623Y2600D01*
X4395Y2600D02*
X4408Y2600D01*
X612Y2599D02*
X622Y2599D01*
X4397Y2599D02*
X4409Y2599D01*
X611Y2598D02*
X621Y2598D01*
X4399Y2598D02*
X4410Y2598D01*
X610Y2597D02*
X620Y2597D01*
X4400Y2597D02*
X4411Y2597D01*
X609Y2596D02*
X619Y2596D01*
X4402Y2596D02*
X4412Y2596D01*
X608Y2595D02*
X618Y2595D01*
X4403Y2595D02*
X4413Y2595D01*
X607Y2594D02*
X617Y2594D01*
X4404Y2594D02*
X4413Y2594D01*
X606Y2593D02*
X616Y2593D01*
X4405Y2593D02*
X4414Y2593D01*
X605Y2592D02*
X615Y2592D01*
X4406Y2592D02*
X4415Y2592D01*
X604Y2591D02*
X614Y2591D01*
X4407Y2591D02*
X4415Y2591D01*
X603Y2590D02*
X613Y2590D01*
X4407Y2590D02*
X4416Y2590D01*
X602Y2589D02*
X612Y2589D01*
X4408Y2589D02*
X4416Y2589D01*
X601Y2588D02*
X611Y2588D01*
X4409Y2588D02*
X4417Y2588D01*
X600Y2587D02*
X610Y2587D01*
X4409Y2587D02*
X4417Y2587D01*
X599Y2586D02*
X609Y2586D01*
X4410Y2586D02*
X4418Y2586D01*
X598Y2585D02*
X608Y2585D01*
X4410Y2585D02*
X4418Y2585D01*
X597Y2584D02*
X607Y2584D01*
X4411Y2584D02*
X4418Y2584D01*
X596Y2583D02*
X606Y2583D01*
X4411Y2583D02*
X4419Y2583D01*
X595Y2582D02*
X605Y2582D01*
X4412Y2582D02*
X4419Y2582D01*
X594Y2581D02*
X604Y2581D01*
X4412Y2581D02*
X4419Y2581D01*
X593Y2580D02*
X603Y2580D01*
X4412Y2580D02*
X4419Y2580D01*
X592Y2579D02*
X602Y2579D01*
X4413Y2579D02*
X4420Y2579D01*
X591Y2578D02*
X601Y2578D01*
X4413Y2578D02*
X4420Y2578D01*
X590Y2577D02*
X600Y2577D01*
X4413Y2577D02*
X4420Y2577D01*
X589Y2576D02*
X599Y2576D01*
X4413Y2576D02*
X4420Y2576D01*
X588Y2575D02*
X598Y2575D01*
X4413Y2575D02*
X4420Y2575D01*
X587Y2574D02*
X597Y2574D01*
X4414Y2574D02*
X4420Y2574D01*
X586Y2573D02*
X596Y2573D01*
X4414Y2573D02*
X4420Y2573D01*
X585Y2572D02*
X595Y2572D01*
X4414Y2572D02*
X4421Y2572D01*
X584Y2571D02*
X594Y2571D01*
X4414Y2571D02*
X4421Y2571D01*
X583Y2570D02*
X593Y2570D01*
X4414Y2570D02*
X4421Y2570D01*
X582Y2569D02*
X592Y2569D01*
X4413Y2569D02*
X4420Y2569D01*
X581Y2568D02*
X591Y2568D01*
X4413Y2568D02*
X4420Y2568D01*
X580Y2567D02*
X590Y2567D01*
X4413Y2567D02*
X4421Y2567D01*
X579Y2566D02*
X589Y2566D01*
X4413Y2566D02*
X4420Y2566D01*
X578Y2565D02*
X588Y2565D01*
X4413Y2565D02*
X4420Y2565D01*
X577Y2564D02*
X587Y2564D01*
X4413Y2564D02*
X4420Y2564D01*
X576Y2563D02*
X586Y2563D01*
X4413Y2563D02*
X4420Y2563D01*
X575Y2562D02*
X585Y2562D01*
X4413Y2562D02*
X4420Y2562D01*
X574Y2561D02*
X584Y2561D01*
X4413Y2561D02*
X4420Y2561D01*
X573Y2560D02*
X583Y2560D01*
X4413Y2560D02*
X4420Y2560D01*
X572Y2559D02*
X582Y2559D01*
X4413Y2559D02*
X4420Y2559D01*
X571Y2558D02*
X581Y2558D01*
X4413Y2558D02*
X4420Y2558D01*
X570Y2557D02*
X580Y2557D01*
X4413Y2557D02*
X4420Y2557D01*
X569Y2556D02*
X579Y2556D01*
X4413Y2556D02*
X4420Y2556D01*
X568Y2555D02*
X578Y2555D01*
X4413Y2555D02*
X4420Y2555D01*
X567Y2554D02*
X577Y2554D01*
X4413Y2554D02*
X4420Y2554D01*
X566Y2553D02*
X576Y2553D01*
X4413Y2553D02*
X4420Y2553D01*
X565Y2552D02*
X575Y2552D01*
X4413Y2552D02*
X4420Y2552D01*
X564Y2551D02*
X574Y2551D01*
X4413Y2551D02*
X4420Y2551D01*
X563Y2550D02*
X573Y2550D01*
X4413Y2550D02*
X4420Y2550D01*
X562Y2549D02*
X572Y2549D01*
X4413Y2549D02*
X4420Y2549D01*
X561Y2548D02*
X571Y2548D01*
X4413Y2548D02*
X4420Y2548D01*
X560Y2547D02*
X570Y2547D01*
X4413Y2547D02*
X4420Y2547D01*
X559Y2546D02*
X569Y2546D01*
X4413Y2546D02*
X4420Y2546D01*
X558Y2545D02*
X568Y2545D01*
X4413Y2545D02*
X4420Y2545D01*
X557Y2544D02*
X567Y2544D01*
X4413Y2544D02*
X4420Y2544D01*
X556Y2543D02*
X566Y2543D01*
X4413Y2543D02*
X4420Y2543D01*
X555Y2542D02*
X565Y2542D01*
X4413Y2542D02*
X4420Y2542D01*
X554Y2541D02*
X564Y2541D01*
X4413Y2541D02*
X4420Y2541D01*
X553Y2540D02*
X563Y2540D01*
X4413Y2540D02*
X4420Y2540D01*
X552Y2539D02*
X562Y2539D01*
X4413Y2539D02*
X4420Y2539D01*
X551Y2538D02*
X561Y2538D01*
X4413Y2538D02*
X4420Y2538D01*
X550Y2537D02*
X560Y2537D01*
X4413Y2537D02*
X4420Y2537D01*
X549Y2536D02*
X559Y2536D01*
X4413Y2536D02*
X4420Y2536D01*
X548Y2535D02*
X558Y2535D01*
X4413Y2535D02*
X4420Y2535D01*
X547Y2534D02*
X557Y2534D01*
X4413Y2534D02*
X4420Y2534D01*
X546Y2533D02*
X556Y2533D01*
X4413Y2533D02*
X4420Y2533D01*
X545Y2532D02*
X555Y2532D01*
X4413Y2532D02*
X4420Y2532D01*
X544Y2531D02*
X554Y2531D01*
X4413Y2531D02*
X4420Y2531D01*
X543Y2530D02*
X553Y2530D01*
X4413Y2530D02*
X4420Y2530D01*
X542Y2529D02*
X552Y2529D01*
X4413Y2529D02*
X4420Y2529D01*
X541Y2528D02*
X551Y2528D01*
X4413Y2528D02*
X4420Y2528D01*
X540Y2527D02*
X550Y2527D01*
X4413Y2527D02*
X4420Y2527D01*
X539Y2526D02*
X549Y2526D01*
X4413Y2526D02*
X4420Y2526D01*
X538Y2525D02*
X548Y2525D01*
X4413Y2525D02*
X4420Y2525D01*
X537Y2524D02*
X547Y2524D01*
X4413Y2524D02*
X4420Y2524D01*
X536Y2523D02*
X546Y2523D01*
X4413Y2523D02*
X4420Y2523D01*
X535Y2522D02*
X545Y2522D01*
X4413Y2522D02*
X4420Y2522D01*
X534Y2521D02*
X544Y2521D01*
X4413Y2521D02*
X4420Y2521D01*
X533Y2520D02*
X543Y2520D01*
X4413Y2520D02*
X4420Y2520D01*
X532Y2519D02*
X542Y2519D01*
X4413Y2519D02*
X4420Y2519D01*
X531Y2518D02*
X541Y2518D01*
X4413Y2518D02*
X4420Y2518D01*
X530Y2517D02*
X540Y2517D01*
X4413Y2517D02*
X4420Y2517D01*
X529Y2516D02*
X539Y2516D01*
X4413Y2516D02*
X4420Y2516D01*
X528Y2515D02*
X538Y2515D01*
X4413Y2515D02*
X4420Y2515D01*
X527Y2514D02*
X537Y2514D01*
X4413Y2514D02*
X4420Y2514D01*
X526Y2513D02*
X536Y2513D01*
X4413Y2513D02*
X4420Y2513D01*
X525Y2512D02*
X535Y2512D01*
X4413Y2512D02*
X4420Y2512D01*
X524Y2511D02*
X534Y2511D01*
X4413Y2511D02*
X4420Y2511D01*
X523Y2510D02*
X533Y2510D01*
X4413Y2510D02*
X4420Y2510D01*
X522Y2509D02*
X532Y2509D01*
X4413Y2509D02*
X4420Y2509D01*
X521Y2508D02*
X531Y2508D01*
X4413Y2508D02*
X4420Y2508D01*
X521Y2507D02*
X530Y2507D01*
X4413Y2507D02*
X4420Y2507D01*
X521Y2506D02*
X529Y2506D01*
X4413Y2506D02*
X4420Y2506D01*
X521Y2505D02*
X528Y2505D01*
X4413Y2505D02*
X4420Y2505D01*
X521Y2504D02*
X528Y2504D01*
X4413Y2504D02*
X4420Y2504D01*
X521Y2503D02*
X528Y2503D01*
X4413Y2503D02*
X4420Y2503D01*
X521Y2502D02*
X528Y2502D01*
X4413Y2502D02*
X4420Y2502D01*
X521Y2501D02*
X528Y2501D01*
X4413Y2501D02*
X4420Y2501D01*
X521Y2500D02*
X528Y2500D01*
X4413Y2500D02*
X4420Y2500D01*
X521Y2499D02*
X528Y2499D01*
X4413Y2499D02*
X4420Y2499D01*
X521Y2498D02*
X528Y2498D01*
X4413Y2498D02*
X4420Y2498D01*
X521Y2497D02*
X528Y2497D01*
X4413Y2497D02*
X4420Y2497D01*
X521Y2496D02*
X528Y2496D01*
X4413Y2496D02*
X4420Y2496D01*
X521Y2495D02*
X528Y2495D01*
X4413Y2495D02*
X4420Y2495D01*
X521Y2494D02*
X528Y2494D01*
X4413Y2494D02*
X4420Y2494D01*
X521Y2493D02*
X528Y2493D01*
X4413Y2493D02*
X4420Y2493D01*
X521Y2492D02*
X528Y2492D01*
X4413Y2492D02*
X4420Y2492D01*
X521Y2491D02*
X528Y2491D01*
X4413Y2491D02*
X4420Y2491D01*
X521Y2490D02*
X528Y2490D01*
X4413Y2490D02*
X4420Y2490D01*
X521Y2489D02*
X528Y2489D01*
X4413Y2489D02*
X4420Y2489D01*
X521Y2488D02*
X528Y2488D01*
X4413Y2488D02*
X4420Y2488D01*
X521Y2487D02*
X528Y2487D01*
X4413Y2487D02*
X4420Y2487D01*
X521Y2486D02*
X528Y2486D01*
X4413Y2486D02*
X4420Y2486D01*
X521Y2485D02*
X528Y2485D01*
X4413Y2485D02*
X4420Y2485D01*
X521Y2484D02*
X528Y2484D01*
X4413Y2484D02*
X4420Y2484D01*
X521Y2483D02*
X528Y2483D01*
X4413Y2483D02*
X4420Y2483D01*
X521Y2482D02*
X528Y2482D01*
X4413Y2482D02*
X4420Y2482D01*
X521Y2481D02*
X528Y2481D01*
X4413Y2481D02*
X4420Y2481D01*
X521Y2480D02*
X528Y2480D01*
X4413Y2480D02*
X4420Y2480D01*
X521Y2479D02*
X528Y2479D01*
X4413Y2479D02*
X4420Y2479D01*
X521Y2478D02*
X528Y2478D01*
X4413Y2478D02*
X4420Y2478D01*
X521Y2477D02*
X528Y2477D01*
X4413Y2477D02*
X4420Y2477D01*
X521Y2476D02*
X528Y2476D01*
X4413Y2476D02*
X4420Y2476D01*
X521Y2475D02*
X528Y2475D01*
X4413Y2475D02*
X4420Y2475D01*
X521Y2474D02*
X528Y2474D01*
X4413Y2474D02*
X4420Y2474D01*
X521Y2473D02*
X528Y2473D01*
X4413Y2473D02*
X4420Y2473D01*
X521Y2472D02*
X528Y2472D01*
X4413Y2472D02*
X4420Y2472D01*
X521Y2471D02*
X528Y2471D01*
X4413Y2471D02*
X4420Y2471D01*
X521Y2470D02*
X528Y2470D01*
X4413Y2470D02*
X4420Y2470D01*
X521Y2469D02*
X528Y2469D01*
X4413Y2469D02*
X4420Y2469D01*
X521Y2468D02*
X528Y2468D01*
X4413Y2468D02*
X4420Y2468D01*
X521Y2467D02*
X528Y2467D01*
X4413Y2467D02*
X4420Y2467D01*
X521Y2466D02*
X528Y2466D01*
X4413Y2466D02*
X4420Y2466D01*
X521Y2465D02*
X528Y2465D01*
X4413Y2465D02*
X4420Y2465D01*
X521Y2464D02*
X528Y2464D01*
X4413Y2464D02*
X4420Y2464D01*
X521Y2463D02*
X528Y2463D01*
X4413Y2463D02*
X4420Y2463D01*
X521Y2462D02*
X528Y2462D01*
X4413Y2462D02*
X4420Y2462D01*
X521Y2461D02*
X528Y2461D01*
X4413Y2461D02*
X4420Y2461D01*
X521Y2460D02*
X528Y2460D01*
X4413Y2460D02*
X4420Y2460D01*
X521Y2459D02*
X528Y2459D01*
X4413Y2459D02*
X4420Y2459D01*
X521Y2458D02*
X528Y2458D01*
X4413Y2458D02*
X4420Y2458D01*
X521Y2457D02*
X528Y2457D01*
X4413Y2457D02*
X4420Y2457D01*
X521Y2456D02*
X528Y2456D01*
X4413Y2456D02*
X4420Y2456D01*
X521Y2455D02*
X528Y2455D01*
X4413Y2455D02*
X4420Y2455D01*
X521Y2454D02*
X528Y2454D01*
X4413Y2454D02*
X4420Y2454D01*
X521Y2453D02*
X528Y2453D01*
X4413Y2453D02*
X4420Y2453D01*
X521Y2452D02*
X528Y2452D01*
X4413Y2452D02*
X4420Y2452D01*
X521Y2451D02*
X528Y2451D01*
X4413Y2451D02*
X4420Y2451D01*
X521Y2450D02*
X528Y2450D01*
X4413Y2450D02*
X4420Y2450D01*
X521Y2449D02*
X528Y2449D01*
X4413Y2449D02*
X4420Y2449D01*
X521Y2448D02*
X528Y2448D01*
X4413Y2448D02*
X4420Y2448D01*
X521Y2447D02*
X528Y2447D01*
X4413Y2447D02*
X4420Y2447D01*
X521Y2446D02*
X528Y2446D01*
X4413Y2446D02*
X4420Y2446D01*
X521Y2445D02*
X528Y2445D01*
X4413Y2445D02*
X4420Y2445D01*
X521Y2444D02*
X528Y2444D01*
X4413Y2444D02*
X4420Y2444D01*
X521Y2443D02*
X528Y2443D01*
X4413Y2443D02*
X4420Y2443D01*
X521Y2442D02*
X528Y2442D01*
X4413Y2442D02*
X4420Y2442D01*
X521Y2441D02*
X528Y2441D01*
X4413Y2441D02*
X4420Y2441D01*
X521Y2440D02*
X528Y2440D01*
X4413Y2440D02*
X4420Y2440D01*
X521Y2439D02*
X528Y2439D01*
X4413Y2439D02*
X4420Y2439D01*
X521Y2438D02*
X528Y2438D01*
X4413Y2438D02*
X4420Y2438D01*
X521Y2437D02*
X528Y2437D01*
X4413Y2437D02*
X4420Y2437D01*
X521Y2436D02*
X528Y2436D01*
X4413Y2436D02*
X4420Y2436D01*
X521Y2435D02*
X528Y2435D01*
X4413Y2435D02*
X4420Y2435D01*
X521Y2434D02*
X528Y2434D01*
X4413Y2434D02*
X4420Y2434D01*
X521Y2433D02*
X528Y2433D01*
X4413Y2433D02*
X4420Y2433D01*
X521Y2432D02*
X528Y2432D01*
X4413Y2432D02*
X4420Y2432D01*
X521Y2431D02*
X528Y2431D01*
X4413Y2431D02*
X4420Y2431D01*
X521Y2430D02*
X528Y2430D01*
X4413Y2430D02*
X4420Y2430D01*
X521Y2429D02*
X528Y2429D01*
X4413Y2429D02*
X4420Y2429D01*
X521Y2428D02*
X528Y2428D01*
X4413Y2428D02*
X4420Y2428D01*
X521Y2427D02*
X528Y2427D01*
X4413Y2427D02*
X4420Y2427D01*
X521Y2426D02*
X528Y2426D01*
X4413Y2426D02*
X4420Y2426D01*
X521Y2425D02*
X528Y2425D01*
X4413Y2425D02*
X4420Y2425D01*
X521Y2424D02*
X528Y2424D01*
X4413Y2424D02*
X4420Y2424D01*
X521Y2423D02*
X528Y2423D01*
X4413Y2423D02*
X4420Y2423D01*
X521Y2422D02*
X528Y2422D01*
X4413Y2422D02*
X4420Y2422D01*
X521Y2421D02*
X528Y2421D01*
X4413Y2421D02*
X4420Y2421D01*
X521Y2420D02*
X528Y2420D01*
X4413Y2420D02*
X4420Y2420D01*
X521Y2419D02*
X528Y2419D01*
X4413Y2419D02*
X4420Y2419D01*
X521Y2418D02*
X528Y2418D01*
X4413Y2418D02*
X4420Y2418D01*
X521Y2417D02*
X528Y2417D01*
X4413Y2417D02*
X4420Y2417D01*
X521Y2416D02*
X528Y2416D01*
X4413Y2416D02*
X4420Y2416D01*
X521Y2415D02*
X528Y2415D01*
X4413Y2415D02*
X4420Y2415D01*
X521Y2414D02*
X528Y2414D01*
X4413Y2414D02*
X4420Y2414D01*
X521Y2413D02*
X528Y2413D01*
X4413Y2413D02*
X4420Y2413D01*
X521Y2412D02*
X528Y2412D01*
X4413Y2412D02*
X4420Y2412D01*
X521Y2411D02*
X528Y2411D01*
X4413Y2411D02*
X4420Y2411D01*
X521Y2410D02*
X528Y2410D01*
X4413Y2410D02*
X4420Y2410D01*
X521Y2409D02*
X528Y2409D01*
X4413Y2409D02*
X4420Y2409D01*
X521Y2408D02*
X528Y2408D01*
X4413Y2408D02*
X4420Y2408D01*
X521Y2407D02*
X528Y2407D01*
X4413Y2407D02*
X4420Y2407D01*
X521Y2406D02*
X528Y2406D01*
X4413Y2406D02*
X4420Y2406D01*
X521Y2405D02*
X528Y2405D01*
X4413Y2405D02*
X4420Y2405D01*
X521Y2404D02*
X528Y2404D01*
X4413Y2404D02*
X4420Y2404D01*
X521Y2403D02*
X528Y2403D01*
X4413Y2403D02*
X4420Y2403D01*
X521Y2402D02*
X528Y2402D01*
X4413Y2402D02*
X4420Y2402D01*
X521Y2401D02*
X528Y2401D01*
X4413Y2401D02*
X4420Y2401D01*
X521Y2400D02*
X528Y2400D01*
X4413Y2400D02*
X4420Y2400D01*
X521Y2399D02*
X528Y2399D01*
X4413Y2399D02*
X4420Y2399D01*
X521Y2398D02*
X528Y2398D01*
X4413Y2398D02*
X4420Y2398D01*
X521Y2397D02*
X528Y2397D01*
X4413Y2397D02*
X4420Y2397D01*
X521Y2396D02*
X528Y2396D01*
X4413Y2396D02*
X4420Y2396D01*
X521Y2395D02*
X528Y2395D01*
X4413Y2395D02*
X4420Y2395D01*
X521Y2394D02*
X528Y2394D01*
X4413Y2394D02*
X4420Y2394D01*
X521Y2393D02*
X528Y2393D01*
X4413Y2393D02*
X4420Y2393D01*
X521Y2392D02*
X528Y2392D01*
X4413Y2392D02*
X4420Y2392D01*
X521Y2391D02*
X528Y2391D01*
X4413Y2391D02*
X4420Y2391D01*
X521Y2390D02*
X528Y2390D01*
X4413Y2390D02*
X4420Y2390D01*
X521Y2389D02*
X528Y2389D01*
X4413Y2389D02*
X4420Y2389D01*
X521Y2388D02*
X528Y2388D01*
X4413Y2388D02*
X4420Y2388D01*
X521Y2387D02*
X528Y2387D01*
X4413Y2387D02*
X4420Y2387D01*
X521Y2386D02*
X528Y2386D01*
X4413Y2386D02*
X4420Y2386D01*
X521Y2385D02*
X528Y2385D01*
X4413Y2385D02*
X4420Y2385D01*
X521Y2384D02*
X528Y2384D01*
X4413Y2384D02*
X4420Y2384D01*
X521Y2383D02*
X528Y2383D01*
X4413Y2383D02*
X4420Y2383D01*
X521Y2382D02*
X528Y2382D01*
X4413Y2382D02*
X4420Y2382D01*
X521Y2381D02*
X528Y2381D01*
X4413Y2381D02*
X4420Y2381D01*
X521Y2380D02*
X528Y2380D01*
X4413Y2380D02*
X4420Y2380D01*
X521Y2379D02*
X528Y2379D01*
X4413Y2379D02*
X4420Y2379D01*
X521Y2378D02*
X528Y2378D01*
X4413Y2378D02*
X4420Y2378D01*
X521Y2377D02*
X528Y2377D01*
X4413Y2377D02*
X4420Y2377D01*
X521Y2376D02*
X528Y2376D01*
X4413Y2376D02*
X4420Y2376D01*
X521Y2375D02*
X528Y2375D01*
X4413Y2375D02*
X4420Y2375D01*
X521Y2374D02*
X528Y2374D01*
X4413Y2374D02*
X4420Y2374D01*
X521Y2373D02*
X528Y2373D01*
X4413Y2373D02*
X4420Y2373D01*
X521Y2372D02*
X528Y2372D01*
X4413Y2372D02*
X4420Y2372D01*
X521Y2371D02*
X528Y2371D01*
X4413Y2371D02*
X4420Y2371D01*
X521Y2370D02*
X528Y2370D01*
X4413Y2370D02*
X4420Y2370D01*
X521Y2369D02*
X528Y2369D01*
X4413Y2369D02*
X4420Y2369D01*
X521Y2368D02*
X528Y2368D01*
X4413Y2368D02*
X4420Y2368D01*
X521Y2367D02*
X528Y2367D01*
X4413Y2367D02*
X4420Y2367D01*
X521Y2366D02*
X528Y2366D01*
X4413Y2366D02*
X4420Y2366D01*
X521Y2365D02*
X528Y2365D01*
X4413Y2365D02*
X4420Y2365D01*
X521Y2364D02*
X528Y2364D01*
X4413Y2364D02*
X4420Y2364D01*
X521Y2363D02*
X528Y2363D01*
X4413Y2363D02*
X4420Y2363D01*
X521Y2362D02*
X528Y2362D01*
X4413Y2362D02*
X4420Y2362D01*
X521Y2361D02*
X528Y2361D01*
X4413Y2361D02*
X4420Y2361D01*
X521Y2360D02*
X528Y2360D01*
X4413Y2360D02*
X4420Y2360D01*
X521Y2359D02*
X528Y2359D01*
X4413Y2359D02*
X4420Y2359D01*
X521Y2358D02*
X528Y2358D01*
X4413Y2358D02*
X4420Y2358D01*
X521Y2357D02*
X528Y2357D01*
X4413Y2357D02*
X4420Y2357D01*
X521Y2356D02*
X528Y2356D01*
X4413Y2356D02*
X4420Y2356D01*
X521Y2355D02*
X528Y2355D01*
X4413Y2355D02*
X4420Y2355D01*
X521Y2354D02*
X528Y2354D01*
X4413Y2354D02*
X4420Y2354D01*
X521Y2353D02*
X528Y2353D01*
X4413Y2353D02*
X4420Y2353D01*
X521Y2352D02*
X528Y2352D01*
X4413Y2352D02*
X4420Y2352D01*
X521Y2351D02*
X528Y2351D01*
X4413Y2351D02*
X4420Y2351D01*
X521Y2350D02*
X528Y2350D01*
X4413Y2350D02*
X4420Y2350D01*
X521Y2349D02*
X528Y2349D01*
X4413Y2349D02*
X4420Y2349D01*
X521Y2348D02*
X528Y2348D01*
X4413Y2348D02*
X4420Y2348D01*
X521Y2347D02*
X528Y2347D01*
X4413Y2347D02*
X4420Y2347D01*
X521Y2346D02*
X528Y2346D01*
X4413Y2346D02*
X4420Y2346D01*
X521Y2345D02*
X528Y2345D01*
X4413Y2345D02*
X4420Y2345D01*
X521Y2344D02*
X528Y2344D01*
X4413Y2344D02*
X4420Y2344D01*
X521Y2343D02*
X528Y2343D01*
X4413Y2343D02*
X4420Y2343D01*
X521Y2342D02*
X528Y2342D01*
X4413Y2342D02*
X4420Y2342D01*
X521Y2341D02*
X528Y2341D01*
X4413Y2341D02*
X4420Y2341D01*
X521Y2340D02*
X528Y2340D01*
X4413Y2340D02*
X4420Y2340D01*
X521Y2339D02*
X528Y2339D01*
X4413Y2339D02*
X4420Y2339D01*
X521Y2338D02*
X528Y2338D01*
X4413Y2338D02*
X4420Y2338D01*
X521Y2337D02*
X528Y2337D01*
X4413Y2337D02*
X4420Y2337D01*
X521Y2336D02*
X528Y2336D01*
X4413Y2336D02*
X4420Y2336D01*
X521Y2335D02*
X528Y2335D01*
X4413Y2335D02*
X4420Y2335D01*
X521Y2334D02*
X528Y2334D01*
X4413Y2334D02*
X4420Y2334D01*
X521Y2333D02*
X528Y2333D01*
X4413Y2333D02*
X4420Y2333D01*
X521Y2332D02*
X528Y2332D01*
X4413Y2332D02*
X4420Y2332D01*
X521Y2331D02*
X528Y2331D01*
X4413Y2331D02*
X4420Y2331D01*
X521Y2330D02*
X528Y2330D01*
X4413Y2330D02*
X4420Y2330D01*
X521Y2329D02*
X528Y2329D01*
X4413Y2329D02*
X4420Y2329D01*
X521Y2328D02*
X528Y2328D01*
X4413Y2328D02*
X4420Y2328D01*
X521Y2327D02*
X528Y2327D01*
X4413Y2327D02*
X4420Y2327D01*
X521Y2326D02*
X528Y2326D01*
X4413Y2326D02*
X4420Y2326D01*
X521Y2325D02*
X528Y2325D01*
X4413Y2325D02*
X4420Y2325D01*
X521Y2324D02*
X528Y2324D01*
X4413Y2324D02*
X4420Y2324D01*
X521Y2323D02*
X528Y2323D01*
X4413Y2323D02*
X4420Y2323D01*
X521Y2322D02*
X528Y2322D01*
X4413Y2322D02*
X4420Y2322D01*
X521Y2321D02*
X528Y2321D01*
X4413Y2321D02*
X4420Y2321D01*
X521Y2320D02*
X528Y2320D01*
X4413Y2320D02*
X4420Y2320D01*
X521Y2319D02*
X528Y2319D01*
X4413Y2319D02*
X4420Y2319D01*
X521Y2318D02*
X528Y2318D01*
X4413Y2318D02*
X4420Y2318D01*
X521Y2317D02*
X528Y2317D01*
X4413Y2317D02*
X4420Y2317D01*
X521Y2316D02*
X528Y2316D01*
X4413Y2316D02*
X4420Y2316D01*
X521Y2315D02*
X528Y2315D01*
X4413Y2315D02*
X4420Y2315D01*
X521Y2314D02*
X528Y2314D01*
X4413Y2314D02*
X4420Y2314D01*
X521Y2313D02*
X528Y2313D01*
X4413Y2313D02*
X4420Y2313D01*
X521Y2312D02*
X528Y2312D01*
X4413Y2312D02*
X4420Y2312D01*
X521Y2311D02*
X528Y2311D01*
X4413Y2311D02*
X4420Y2311D01*
X521Y2310D02*
X528Y2310D01*
X4413Y2310D02*
X4420Y2310D01*
X521Y2309D02*
X528Y2309D01*
X4413Y2309D02*
X4420Y2309D01*
X521Y2308D02*
X528Y2308D01*
X4413Y2308D02*
X4420Y2308D01*
X521Y2307D02*
X528Y2307D01*
X4413Y2307D02*
X4420Y2307D01*
X521Y2306D02*
X528Y2306D01*
X4413Y2306D02*
X4420Y2306D01*
X521Y2305D02*
X528Y2305D01*
X4413Y2305D02*
X4420Y2305D01*
X521Y2304D02*
X528Y2304D01*
X4413Y2304D02*
X4420Y2304D01*
X521Y2303D02*
X528Y2303D01*
X4413Y2303D02*
X4420Y2303D01*
X521Y2302D02*
X528Y2302D01*
X4413Y2302D02*
X4420Y2302D01*
X521Y2301D02*
X528Y2301D01*
X4413Y2301D02*
X4420Y2301D01*
X521Y2300D02*
X528Y2300D01*
X4413Y2300D02*
X4420Y2300D01*
X521Y2299D02*
X528Y2299D01*
X4413Y2299D02*
X4420Y2299D01*
X521Y2298D02*
X528Y2298D01*
X4413Y2298D02*
X4420Y2298D01*
X521Y2297D02*
X528Y2297D01*
X4413Y2297D02*
X4420Y2297D01*
X521Y2296D02*
X528Y2296D01*
X4413Y2296D02*
X4420Y2296D01*
X521Y2295D02*
X528Y2295D01*
X4413Y2295D02*
X4420Y2295D01*
X521Y2294D02*
X528Y2294D01*
X4413Y2294D02*
X4420Y2294D01*
X521Y2293D02*
X528Y2293D01*
X4413Y2293D02*
X4420Y2293D01*
X521Y2292D02*
X528Y2292D01*
X4413Y2292D02*
X4420Y2292D01*
X521Y2291D02*
X528Y2291D01*
X4413Y2291D02*
X4420Y2291D01*
X521Y2290D02*
X528Y2290D01*
X4413Y2290D02*
X4420Y2290D01*
X521Y2289D02*
X528Y2289D01*
X4413Y2289D02*
X4420Y2289D01*
X521Y2288D02*
X528Y2288D01*
X4413Y2288D02*
X4420Y2288D01*
X521Y2287D02*
X528Y2287D01*
X4413Y2287D02*
X4420Y2287D01*
X521Y2286D02*
X528Y2286D01*
X4413Y2286D02*
X4420Y2286D01*
X521Y2285D02*
X528Y2285D01*
X4413Y2285D02*
X4420Y2285D01*
X521Y2284D02*
X528Y2284D01*
X4413Y2284D02*
X4420Y2284D01*
X521Y2283D02*
X528Y2283D01*
X4413Y2283D02*
X4420Y2283D01*
X521Y2282D02*
X528Y2282D01*
X4413Y2282D02*
X4420Y2282D01*
X521Y2281D02*
X528Y2281D01*
X4413Y2281D02*
X4420Y2281D01*
X521Y2280D02*
X528Y2280D01*
X4413Y2280D02*
X4420Y2280D01*
X521Y2279D02*
X528Y2279D01*
X4413Y2279D02*
X4420Y2279D01*
X521Y2278D02*
X528Y2278D01*
X4413Y2278D02*
X4420Y2278D01*
X521Y2277D02*
X528Y2277D01*
X4413Y2277D02*
X4420Y2277D01*
X521Y2276D02*
X528Y2276D01*
X4413Y2276D02*
X4420Y2276D01*
X521Y2275D02*
X528Y2275D01*
X4413Y2275D02*
X4420Y2275D01*
X521Y2274D02*
X528Y2274D01*
X4413Y2274D02*
X4420Y2274D01*
X521Y2273D02*
X528Y2273D01*
X4413Y2273D02*
X4420Y2273D01*
X521Y2272D02*
X528Y2272D01*
X4413Y2272D02*
X4420Y2272D01*
X521Y2271D02*
X528Y2271D01*
X4413Y2271D02*
X4420Y2271D01*
X521Y2270D02*
X528Y2270D01*
X4413Y2270D02*
X4420Y2270D01*
X521Y2269D02*
X528Y2269D01*
X4413Y2269D02*
X4420Y2269D01*
X521Y2268D02*
X528Y2268D01*
X4413Y2268D02*
X4420Y2268D01*
X521Y2267D02*
X528Y2267D01*
X4413Y2267D02*
X4420Y2267D01*
X521Y2266D02*
X528Y2266D01*
X4413Y2266D02*
X4420Y2266D01*
X521Y2265D02*
X528Y2265D01*
X4413Y2265D02*
X4420Y2265D01*
X521Y2264D02*
X528Y2264D01*
X4413Y2264D02*
X4420Y2264D01*
X521Y2263D02*
X528Y2263D01*
X4413Y2263D02*
X4420Y2263D01*
X521Y2262D02*
X528Y2262D01*
X4413Y2262D02*
X4420Y2262D01*
X521Y2261D02*
X528Y2261D01*
X4413Y2261D02*
X4420Y2261D01*
X521Y2260D02*
X528Y2260D01*
X4413Y2260D02*
X4420Y2260D01*
X521Y2259D02*
X528Y2259D01*
X4413Y2259D02*
X4420Y2259D01*
X521Y2258D02*
X528Y2258D01*
X4413Y2258D02*
X4420Y2258D01*
X521Y2257D02*
X528Y2257D01*
X4413Y2257D02*
X4420Y2257D01*
X521Y2256D02*
X528Y2256D01*
X4413Y2256D02*
X4420Y2256D01*
X521Y2255D02*
X528Y2255D01*
X4413Y2255D02*
X4420Y2255D01*
X521Y2254D02*
X528Y2254D01*
X4413Y2254D02*
X4420Y2254D01*
X521Y2253D02*
X528Y2253D01*
X4413Y2253D02*
X4420Y2253D01*
X521Y2252D02*
X528Y2252D01*
X4413Y2252D02*
X4420Y2252D01*
X521Y2251D02*
X528Y2251D01*
X4413Y2251D02*
X4420Y2251D01*
X521Y2250D02*
X528Y2250D01*
X4413Y2250D02*
X4420Y2250D01*
X521Y2249D02*
X528Y2249D01*
X4413Y2249D02*
X4420Y2249D01*
X521Y2248D02*
X528Y2248D01*
X4413Y2248D02*
X4420Y2248D01*
X521Y2247D02*
X528Y2247D01*
X4413Y2247D02*
X4420Y2247D01*
X521Y2246D02*
X528Y2246D01*
X4413Y2246D02*
X4420Y2246D01*
X521Y2245D02*
X528Y2245D01*
X4413Y2245D02*
X4420Y2245D01*
X521Y2244D02*
X528Y2244D01*
X4413Y2244D02*
X4420Y2244D01*
X521Y2243D02*
X528Y2243D01*
X4413Y2243D02*
X4420Y2243D01*
X521Y2242D02*
X528Y2242D01*
X4413Y2242D02*
X4420Y2242D01*
X521Y2241D02*
X528Y2241D01*
X4413Y2241D02*
X4420Y2241D01*
X521Y2240D02*
X528Y2240D01*
X4413Y2240D02*
X4420Y2240D01*
X521Y2239D02*
X528Y2239D01*
X4413Y2239D02*
X4420Y2239D01*
X521Y2238D02*
X528Y2238D01*
X4413Y2238D02*
X4420Y2238D01*
X521Y2237D02*
X528Y2237D01*
X4413Y2237D02*
X4420Y2237D01*
X521Y2236D02*
X528Y2236D01*
X4413Y2236D02*
X4420Y2236D01*
X521Y2235D02*
X528Y2235D01*
X4413Y2235D02*
X4420Y2235D01*
X521Y2234D02*
X528Y2234D01*
X4413Y2234D02*
X4420Y2234D01*
X521Y2233D02*
X528Y2233D01*
X4413Y2233D02*
X4420Y2233D01*
X521Y2232D02*
X528Y2232D01*
X4413Y2232D02*
X4420Y2232D01*
X521Y2231D02*
X528Y2231D01*
X4413Y2231D02*
X4420Y2231D01*
X521Y2230D02*
X528Y2230D01*
X4413Y2230D02*
X4420Y2230D01*
X521Y2229D02*
X528Y2229D01*
X4413Y2229D02*
X4420Y2229D01*
X521Y2228D02*
X528Y2228D01*
X4413Y2228D02*
X4420Y2228D01*
X521Y2227D02*
X528Y2227D01*
X4413Y2227D02*
X4420Y2227D01*
X521Y2226D02*
X528Y2226D01*
X4413Y2226D02*
X4420Y2226D01*
X521Y2225D02*
X528Y2225D01*
X4413Y2225D02*
X4420Y2225D01*
X521Y2224D02*
X528Y2224D01*
X4413Y2224D02*
X4420Y2224D01*
X521Y2223D02*
X528Y2223D01*
X4413Y2223D02*
X4420Y2223D01*
X521Y2222D02*
X528Y2222D01*
X4413Y2222D02*
X4420Y2222D01*
X521Y2221D02*
X528Y2221D01*
X4413Y2221D02*
X4420Y2221D01*
X521Y2220D02*
X528Y2220D01*
X4413Y2220D02*
X4420Y2220D01*
X521Y2219D02*
X528Y2219D01*
X4413Y2219D02*
X4420Y2219D01*
X521Y2218D02*
X528Y2218D01*
X4413Y2218D02*
X4420Y2218D01*
X521Y2217D02*
X528Y2217D01*
X4413Y2217D02*
X4420Y2217D01*
X521Y2216D02*
X528Y2216D01*
X4413Y2216D02*
X4420Y2216D01*
X521Y2215D02*
X528Y2215D01*
X4413Y2215D02*
X4420Y2215D01*
X521Y2214D02*
X528Y2214D01*
X4413Y2214D02*
X4420Y2214D01*
X521Y2213D02*
X528Y2213D01*
X4413Y2213D02*
X4420Y2213D01*
X521Y2212D02*
X528Y2212D01*
X4413Y2212D02*
X4420Y2212D01*
X521Y2211D02*
X528Y2211D01*
X4413Y2211D02*
X4420Y2211D01*
X521Y2210D02*
X528Y2210D01*
X4413Y2210D02*
X4420Y2210D01*
X521Y2209D02*
X528Y2209D01*
X4413Y2209D02*
X4420Y2209D01*
X521Y2208D02*
X528Y2208D01*
X4413Y2208D02*
X4420Y2208D01*
X521Y2207D02*
X528Y2207D01*
X4413Y2207D02*
X4420Y2207D01*
X521Y2206D02*
X528Y2206D01*
X4413Y2206D02*
X4420Y2206D01*
X521Y2205D02*
X528Y2205D01*
X4413Y2205D02*
X4420Y2205D01*
X521Y2204D02*
X528Y2204D01*
X4413Y2204D02*
X4420Y2204D01*
X521Y2203D02*
X528Y2203D01*
X4413Y2203D02*
X4420Y2203D01*
X521Y2202D02*
X528Y2202D01*
X4413Y2202D02*
X4420Y2202D01*
X521Y2201D02*
X528Y2201D01*
X4413Y2201D02*
X4420Y2201D01*
X521Y2200D02*
X528Y2200D01*
X4413Y2200D02*
X4420Y2200D01*
X521Y2199D02*
X528Y2199D01*
X4413Y2199D02*
X4420Y2199D01*
X521Y2198D02*
X528Y2198D01*
X4413Y2198D02*
X4420Y2198D01*
X521Y2197D02*
X528Y2197D01*
X4413Y2197D02*
X4420Y2197D01*
X521Y2196D02*
X528Y2196D01*
X4413Y2196D02*
X4420Y2196D01*
X521Y2195D02*
X528Y2195D01*
X4413Y2195D02*
X4420Y2195D01*
X521Y2194D02*
X528Y2194D01*
X4413Y2194D02*
X4420Y2194D01*
X521Y2193D02*
X528Y2193D01*
X4413Y2193D02*
X4420Y2193D01*
X521Y2192D02*
X528Y2192D01*
X4413Y2192D02*
X4420Y2192D01*
X521Y2191D02*
X528Y2191D01*
X4413Y2191D02*
X4420Y2191D01*
X521Y2190D02*
X528Y2190D01*
X4413Y2190D02*
X4420Y2190D01*
X521Y2189D02*
X528Y2189D01*
X4413Y2189D02*
X4420Y2189D01*
X521Y2188D02*
X528Y2188D01*
X4413Y2188D02*
X4420Y2188D01*
X521Y2187D02*
X528Y2187D01*
X4413Y2187D02*
X4420Y2187D01*
X521Y2186D02*
X528Y2186D01*
X4413Y2186D02*
X4420Y2186D01*
X521Y2185D02*
X528Y2185D01*
X4413Y2185D02*
X4420Y2185D01*
X521Y2184D02*
X528Y2184D01*
X4413Y2184D02*
X4420Y2184D01*
X521Y2183D02*
X528Y2183D01*
X4413Y2183D02*
X4420Y2183D01*
X521Y2182D02*
X528Y2182D01*
X4413Y2182D02*
X4420Y2182D01*
X521Y2181D02*
X528Y2181D01*
X4413Y2181D02*
X4420Y2181D01*
X521Y2180D02*
X528Y2180D01*
X4413Y2180D02*
X4420Y2180D01*
X521Y2179D02*
X528Y2179D01*
X4413Y2179D02*
X4420Y2179D01*
X521Y2178D02*
X528Y2178D01*
X4413Y2178D02*
X4420Y2178D01*
X521Y2177D02*
X528Y2177D01*
X4413Y2177D02*
X4420Y2177D01*
X521Y2176D02*
X528Y2176D01*
X4413Y2176D02*
X4420Y2176D01*
X521Y2175D02*
X528Y2175D01*
X4413Y2175D02*
X4420Y2175D01*
X521Y2174D02*
X528Y2174D01*
X4413Y2174D02*
X4420Y2174D01*
X521Y2173D02*
X528Y2173D01*
X4413Y2173D02*
X4420Y2173D01*
X521Y2172D02*
X528Y2172D01*
X4413Y2172D02*
X4420Y2172D01*
X521Y2171D02*
X528Y2171D01*
X4413Y2171D02*
X4420Y2171D01*
X521Y2170D02*
X528Y2170D01*
X4413Y2170D02*
X4420Y2170D01*
X521Y2169D02*
X528Y2169D01*
X4413Y2169D02*
X4420Y2169D01*
X521Y2168D02*
X528Y2168D01*
X4413Y2168D02*
X4420Y2168D01*
X521Y2167D02*
X528Y2167D01*
X4413Y2167D02*
X4420Y2167D01*
X521Y2166D02*
X528Y2166D01*
X4413Y2166D02*
X4420Y2166D01*
X521Y2165D02*
X528Y2165D01*
X4413Y2165D02*
X4420Y2165D01*
X521Y2164D02*
X528Y2164D01*
X4413Y2164D02*
X4420Y2164D01*
X521Y2163D02*
X528Y2163D01*
X4413Y2163D02*
X4420Y2163D01*
X521Y2162D02*
X528Y2162D01*
X4413Y2162D02*
X4420Y2162D01*
X521Y2161D02*
X528Y2161D01*
X4413Y2161D02*
X4420Y2161D01*
X521Y2160D02*
X528Y2160D01*
X4413Y2160D02*
X4420Y2160D01*
X521Y2159D02*
X528Y2159D01*
X4413Y2159D02*
X4420Y2159D01*
X521Y2158D02*
X528Y2158D01*
X4413Y2158D02*
X4420Y2158D01*
X521Y2157D02*
X528Y2157D01*
X4413Y2157D02*
X4420Y2157D01*
X521Y2156D02*
X528Y2156D01*
X4413Y2156D02*
X4420Y2156D01*
X521Y2155D02*
X528Y2155D01*
X4413Y2155D02*
X4420Y2155D01*
X521Y2154D02*
X528Y2154D01*
X4413Y2154D02*
X4420Y2154D01*
X521Y2153D02*
X528Y2153D01*
X4413Y2153D02*
X4420Y2153D01*
X521Y2152D02*
X528Y2152D01*
X4413Y2152D02*
X4420Y2152D01*
X521Y2151D02*
X528Y2151D01*
X4413Y2151D02*
X4420Y2151D01*
X521Y2150D02*
X528Y2150D01*
X4413Y2150D02*
X4420Y2150D01*
X521Y2149D02*
X528Y2149D01*
X4413Y2149D02*
X4420Y2149D01*
X521Y2148D02*
X528Y2148D01*
X4413Y2148D02*
X4420Y2148D01*
X521Y2147D02*
X528Y2147D01*
X4413Y2147D02*
X4420Y2147D01*
X521Y2146D02*
X528Y2146D01*
X4413Y2146D02*
X4420Y2146D01*
X521Y2145D02*
X528Y2145D01*
X4413Y2145D02*
X4420Y2145D01*
X521Y2144D02*
X528Y2144D01*
X4413Y2144D02*
X4420Y2144D01*
X521Y2143D02*
X528Y2143D01*
X4413Y2143D02*
X4420Y2143D01*
X521Y2142D02*
X528Y2142D01*
X4413Y2142D02*
X4420Y2142D01*
X521Y2141D02*
X528Y2141D01*
X4413Y2141D02*
X4420Y2141D01*
X521Y2140D02*
X528Y2140D01*
X4413Y2140D02*
X4420Y2140D01*
X521Y2139D02*
X528Y2139D01*
X4413Y2139D02*
X4420Y2139D01*
X521Y2138D02*
X528Y2138D01*
X4413Y2138D02*
X4420Y2138D01*
X521Y2137D02*
X528Y2137D01*
X4413Y2137D02*
X4420Y2137D01*
X521Y2136D02*
X528Y2136D01*
X4413Y2136D02*
X4420Y2136D01*
X521Y2135D02*
X528Y2135D01*
X4413Y2135D02*
X4420Y2135D01*
X521Y2134D02*
X528Y2134D01*
X4413Y2134D02*
X4420Y2134D01*
X521Y2133D02*
X528Y2133D01*
X4413Y2133D02*
X4420Y2133D01*
X521Y2132D02*
X528Y2132D01*
X4413Y2132D02*
X4420Y2132D01*
X521Y2131D02*
X528Y2131D01*
X4413Y2131D02*
X4420Y2131D01*
X521Y2130D02*
X528Y2130D01*
X4413Y2130D02*
X4420Y2130D01*
X521Y2129D02*
X528Y2129D01*
X4413Y2129D02*
X4420Y2129D01*
X521Y2128D02*
X528Y2128D01*
X4413Y2128D02*
X4420Y2128D01*
X521Y2127D02*
X528Y2127D01*
X4413Y2127D02*
X4420Y2127D01*
X521Y2126D02*
X528Y2126D01*
X4413Y2126D02*
X4420Y2126D01*
X521Y2125D02*
X528Y2125D01*
X4413Y2125D02*
X4420Y2125D01*
X521Y2124D02*
X528Y2124D01*
X4413Y2124D02*
X4420Y2124D01*
X521Y2123D02*
X528Y2123D01*
X4413Y2123D02*
X4420Y2123D01*
X521Y2122D02*
X528Y2122D01*
X4413Y2122D02*
X4420Y2122D01*
X521Y2121D02*
X528Y2121D01*
X4413Y2121D02*
X4420Y2121D01*
X521Y2120D02*
X528Y2120D01*
X4413Y2120D02*
X4420Y2120D01*
X521Y2119D02*
X528Y2119D01*
X4413Y2119D02*
X4420Y2119D01*
X521Y2118D02*
X528Y2118D01*
X4413Y2118D02*
X4420Y2118D01*
X521Y2117D02*
X528Y2117D01*
X4413Y2117D02*
X4420Y2117D01*
X521Y2116D02*
X528Y2116D01*
X4413Y2116D02*
X4420Y2116D01*
X521Y2115D02*
X528Y2115D01*
X4413Y2115D02*
X4420Y2115D01*
X521Y2114D02*
X528Y2114D01*
X4413Y2114D02*
X4420Y2114D01*
X521Y2113D02*
X528Y2113D01*
X4413Y2113D02*
X4420Y2113D01*
X521Y2112D02*
X528Y2112D01*
X4413Y2112D02*
X4420Y2112D01*
X521Y2111D02*
X528Y2111D01*
X4413Y2111D02*
X4420Y2111D01*
X521Y2110D02*
X528Y2110D01*
X4413Y2110D02*
X4420Y2110D01*
X520Y2109D02*
X528Y2109D01*
X4413Y2109D02*
X4420Y2109D01*
X519Y2108D02*
X528Y2108D01*
X4413Y2108D02*
X4420Y2108D01*
X518Y2107D02*
X528Y2107D01*
X4413Y2107D02*
X4420Y2107D01*
X517Y2106D02*
X527Y2106D01*
X4413Y2106D02*
X4420Y2106D01*
X516Y2105D02*
X526Y2105D01*
X4413Y2105D02*
X4420Y2105D01*
X515Y2104D02*
X525Y2104D01*
X4413Y2104D02*
X4420Y2104D01*
X514Y2103D02*
X524Y2103D01*
X4413Y2103D02*
X4420Y2103D01*
X513Y2102D02*
X523Y2102D01*
X4413Y2102D02*
X4420Y2102D01*
X512Y2101D02*
X522Y2101D01*
X4413Y2101D02*
X4420Y2101D01*
X511Y2100D02*
X521Y2100D01*
X4413Y2100D02*
X4420Y2100D01*
X510Y2099D02*
X520Y2099D01*
X4413Y2099D02*
X4420Y2099D01*
X509Y2098D02*
X519Y2098D01*
X4413Y2098D02*
X4420Y2098D01*
X508Y2097D02*
X518Y2097D01*
X4413Y2097D02*
X4420Y2097D01*
X507Y2096D02*
X517Y2096D01*
X4413Y2096D02*
X4420Y2096D01*
X506Y2095D02*
X516Y2095D01*
X4413Y2095D02*
X4420Y2095D01*
X505Y2094D02*
X515Y2094D01*
X4413Y2094D02*
X4420Y2094D01*
X504Y2093D02*
X514Y2093D01*
X4413Y2093D02*
X4420Y2093D01*
X503Y2092D02*
X513Y2092D01*
X4413Y2092D02*
X4420Y2092D01*
X502Y2091D02*
X512Y2091D01*
X4413Y2091D02*
X4420Y2091D01*
X501Y2090D02*
X511Y2090D01*
X4413Y2090D02*
X4420Y2090D01*
X500Y2089D02*
X510Y2089D01*
X4413Y2089D02*
X4420Y2089D01*
X499Y2088D02*
X509Y2088D01*
X4413Y2088D02*
X4420Y2088D01*
X498Y2087D02*
X508Y2087D01*
X4413Y2087D02*
X4420Y2087D01*
X497Y2086D02*
X507Y2086D01*
X4413Y2086D02*
X4420Y2086D01*
X496Y2085D02*
X506Y2085D01*
X4413Y2085D02*
X4420Y2085D01*
X495Y2084D02*
X505Y2084D01*
X4413Y2084D02*
X4420Y2084D01*
X494Y2083D02*
X504Y2083D01*
X4413Y2083D02*
X4420Y2083D01*
X493Y2082D02*
X503Y2082D01*
X4413Y2082D02*
X4420Y2082D01*
X492Y2081D02*
X502Y2081D01*
X4413Y2081D02*
X4420Y2081D01*
X491Y2080D02*
X501Y2080D01*
X4413Y2080D02*
X4420Y2080D01*
X490Y2079D02*
X500Y2079D01*
X4413Y2079D02*
X4420Y2079D01*
X489Y2078D02*
X499Y2078D01*
X4413Y2078D02*
X4420Y2078D01*
X488Y2077D02*
X498Y2077D01*
X4413Y2077D02*
X4420Y2077D01*
X487Y2076D02*
X497Y2076D01*
X4413Y2076D02*
X4420Y2076D01*
X486Y2075D02*
X496Y2075D01*
X4413Y2075D02*
X4420Y2075D01*
X485Y2074D02*
X495Y2074D01*
X4413Y2074D02*
X4420Y2074D01*
X484Y2073D02*
X494Y2073D01*
X4413Y2073D02*
X4420Y2073D01*
X483Y2072D02*
X493Y2072D01*
X4413Y2072D02*
X4420Y2072D01*
X482Y2071D02*
X492Y2071D01*
X4413Y2071D02*
X4420Y2071D01*
X481Y2070D02*
X491Y2070D01*
X4413Y2070D02*
X4420Y2070D01*
X480Y2069D02*
X490Y2069D01*
X4413Y2069D02*
X4420Y2069D01*
X479Y2068D02*
X489Y2068D01*
X4413Y2068D02*
X4420Y2068D01*
X478Y2067D02*
X488Y2067D01*
X4413Y2067D02*
X4420Y2067D01*
X477Y2066D02*
X487Y2066D01*
X4413Y2066D02*
X4420Y2066D01*
X476Y2065D02*
X486Y2065D01*
X4413Y2065D02*
X4420Y2065D01*
X475Y2064D02*
X485Y2064D01*
X4413Y2064D02*
X4420Y2064D01*
X474Y2063D02*
X484Y2063D01*
X4413Y2063D02*
X4420Y2063D01*
X473Y2062D02*
X483Y2062D01*
X4413Y2062D02*
X4420Y2062D01*
X472Y2061D02*
X482Y2061D01*
X4413Y2061D02*
X4420Y2061D01*
X471Y2060D02*
X481Y2060D01*
X4413Y2060D02*
X4420Y2060D01*
X470Y2059D02*
X480Y2059D01*
X4413Y2059D02*
X4420Y2059D01*
X469Y2058D02*
X479Y2058D01*
X4413Y2058D02*
X4420Y2058D01*
X468Y2057D02*
X478Y2057D01*
X4413Y2057D02*
X4420Y2057D01*
X467Y2056D02*
X477Y2056D01*
X4413Y2056D02*
X4420Y2056D01*
X466Y2055D02*
X476Y2055D01*
X4413Y2055D02*
X4420Y2055D01*
X465Y2054D02*
X475Y2054D01*
X4413Y2054D02*
X4420Y2054D01*
X464Y2053D02*
X474Y2053D01*
X4413Y2053D02*
X4420Y2053D01*
X463Y2052D02*
X473Y2052D01*
X4413Y2052D02*
X4420Y2052D01*
X462Y2051D02*
X472Y2051D01*
X4413Y2051D02*
X4420Y2051D01*
X461Y2050D02*
X471Y2050D01*
X4413Y2050D02*
X4420Y2050D01*
X460Y2049D02*
X470Y2049D01*
X4413Y2049D02*
X4420Y2049D01*
X459Y2048D02*
X469Y2048D01*
X4413Y2048D02*
X4420Y2048D01*
X458Y2047D02*
X468Y2047D01*
X4413Y2047D02*
X4420Y2047D01*
X457Y2046D02*
X467Y2046D01*
X4413Y2046D02*
X4420Y2046D01*
X456Y2045D02*
X466Y2045D01*
X4413Y2045D02*
X4420Y2045D01*
X455Y2044D02*
X465Y2044D01*
X4413Y2044D02*
X4420Y2044D01*
X454Y2043D02*
X464Y2043D01*
X4413Y2043D02*
X4420Y2043D01*
X453Y2042D02*
X463Y2042D01*
X4413Y2042D02*
X4420Y2042D01*
X452Y2041D02*
X462Y2041D01*
X4413Y2041D02*
X4420Y2041D01*
X451Y2040D02*
X461Y2040D01*
X4413Y2040D02*
X4420Y2040D01*
X450Y2039D02*
X460Y2039D01*
X4413Y2039D02*
X4420Y2039D01*
X449Y2038D02*
X459Y2038D01*
X4413Y2038D02*
X4420Y2038D01*
X448Y2037D02*
X458Y2037D01*
X4413Y2037D02*
X4420Y2037D01*
X447Y2036D02*
X457Y2036D01*
X4413Y2036D02*
X4420Y2036D01*
X446Y2035D02*
X456Y2035D01*
X4413Y2035D02*
X4420Y2035D01*
X445Y2034D02*
X455Y2034D01*
X4413Y2034D02*
X4420Y2034D01*
X444Y2033D02*
X454Y2033D01*
X4413Y2033D02*
X4420Y2033D01*
X443Y2032D02*
X453Y2032D01*
X4413Y2032D02*
X4420Y2032D01*
X442Y2031D02*
X452Y2031D01*
X4413Y2031D02*
X4420Y2031D01*
X441Y2030D02*
X451Y2030D01*
X4413Y2030D02*
X4420Y2030D01*
X440Y2029D02*
X450Y2029D01*
X4413Y2029D02*
X4420Y2029D01*
X439Y2028D02*
X449Y2028D01*
X4413Y2028D02*
X4420Y2028D01*
X438Y2027D02*
X448Y2027D01*
X4413Y2027D02*
X4420Y2027D01*
X437Y2026D02*
X447Y2026D01*
X4413Y2026D02*
X4420Y2026D01*
X436Y2025D02*
X446Y2025D01*
X4413Y2025D02*
X4420Y2025D01*
X435Y2024D02*
X445Y2024D01*
X4413Y2024D02*
X4420Y2024D01*
X434Y2023D02*
X444Y2023D01*
X4413Y2023D02*
X4420Y2023D01*
X433Y2022D02*
X443Y2022D01*
X4413Y2022D02*
X4420Y2022D01*
X432Y2021D02*
X442Y2021D01*
X4413Y2021D02*
X4420Y2021D01*
X431Y2020D02*
X441Y2020D01*
X4413Y2020D02*
X4420Y2020D01*
X430Y2019D02*
X440Y2019D01*
X4413Y2019D02*
X4420Y2019D01*
X429Y2018D02*
X439Y2018D01*
X4413Y2018D02*
X4420Y2018D01*
X428Y2017D02*
X438Y2017D01*
X4413Y2017D02*
X4420Y2017D01*
X427Y2016D02*
X437Y2016D01*
X4413Y2016D02*
X4420Y2016D01*
X426Y2015D02*
X436Y2015D01*
X4413Y2015D02*
X4420Y2015D01*
X425Y2014D02*
X435Y2014D01*
X4413Y2014D02*
X4420Y2014D01*
X424Y2013D02*
X434Y2013D01*
X4413Y2013D02*
X4420Y2013D01*
X423Y2012D02*
X433Y2012D01*
X4413Y2012D02*
X4420Y2012D01*
X422Y2011D02*
X432Y2011D01*
X4413Y2011D02*
X4420Y2011D01*
X421Y2010D02*
X431Y2010D01*
X4413Y2010D02*
X4420Y2010D01*
X421Y2009D02*
X430Y2009D01*
X4413Y2009D02*
X4420Y2009D01*
X421Y2008D02*
X429Y2008D01*
X4413Y2008D02*
X4420Y2008D01*
X421Y2007D02*
X428Y2007D01*
X4413Y2007D02*
X4420Y2007D01*
X421Y2006D02*
X428Y2006D01*
X4413Y2006D02*
X4420Y2006D01*
X421Y2005D02*
X428Y2005D01*
X4413Y2005D02*
X4420Y2005D01*
X421Y2004D02*
X428Y2004D01*
X4413Y2004D02*
X4420Y2004D01*
X421Y2003D02*
X428Y2003D01*
X4413Y2003D02*
X4420Y2003D01*
X421Y2002D02*
X428Y2002D01*
X4413Y2002D02*
X4420Y2002D01*
X421Y2001D02*
X428Y2001D01*
X4413Y2001D02*
X4420Y2001D01*
X421Y2000D02*
X428Y2000D01*
X4413Y2000D02*
X4420Y2000D01*
X421Y1999D02*
X428Y1999D01*
X4413Y1999D02*
X4420Y1999D01*
X421Y1998D02*
X428Y1998D01*
X4413Y1998D02*
X4420Y1998D01*
X421Y1997D02*
X428Y1997D01*
X4413Y1997D02*
X4420Y1997D01*
X421Y1996D02*
X428Y1996D01*
X4413Y1996D02*
X4420Y1996D01*
X421Y1995D02*
X428Y1995D01*
X4413Y1995D02*
X4420Y1995D01*
X421Y1994D02*
X428Y1994D01*
X4413Y1994D02*
X4420Y1994D01*
X421Y1993D02*
X428Y1993D01*
X4413Y1993D02*
X4420Y1993D01*
X421Y1992D02*
X428Y1992D01*
X4413Y1992D02*
X4420Y1992D01*
X421Y1991D02*
X428Y1991D01*
X4413Y1991D02*
X4420Y1991D01*
X421Y1990D02*
X428Y1990D01*
X4413Y1990D02*
X4420Y1990D01*
X421Y1989D02*
X428Y1989D01*
X4413Y1989D02*
X4420Y1989D01*
X421Y1988D02*
X428Y1988D01*
X4413Y1988D02*
X4420Y1988D01*
X421Y1987D02*
X428Y1987D01*
X4413Y1987D02*
X4420Y1987D01*
X421Y1986D02*
X428Y1986D01*
X4413Y1986D02*
X4420Y1986D01*
X421Y1985D02*
X428Y1985D01*
X4413Y1985D02*
X4420Y1985D01*
X421Y1984D02*
X428Y1984D01*
X4413Y1984D02*
X4420Y1984D01*
X421Y1983D02*
X428Y1983D01*
X4413Y1983D02*
X4420Y1983D01*
X421Y1982D02*
X428Y1982D01*
X4413Y1982D02*
X4420Y1982D01*
X421Y1981D02*
X428Y1981D01*
X4413Y1981D02*
X4420Y1981D01*
X421Y1980D02*
X428Y1980D01*
X4413Y1980D02*
X4420Y1980D01*
X421Y1979D02*
X428Y1979D01*
X4413Y1979D02*
X4420Y1979D01*
X421Y1978D02*
X428Y1978D01*
X4413Y1978D02*
X4420Y1978D01*
X421Y1977D02*
X428Y1977D01*
X4413Y1977D02*
X4420Y1977D01*
X421Y1976D02*
X428Y1976D01*
X4413Y1976D02*
X4420Y1976D01*
X421Y1975D02*
X428Y1975D01*
X4413Y1975D02*
X4420Y1975D01*
X421Y1974D02*
X428Y1974D01*
X4413Y1974D02*
X4420Y1974D01*
X421Y1973D02*
X428Y1973D01*
X4413Y1973D02*
X4420Y1973D01*
X421Y1972D02*
X428Y1972D01*
X4413Y1972D02*
X4420Y1972D01*
X421Y1971D02*
X428Y1971D01*
X4413Y1971D02*
X4420Y1971D01*
X421Y1970D02*
X428Y1970D01*
X4413Y1970D02*
X4420Y1970D01*
X421Y1969D02*
X428Y1969D01*
X4413Y1969D02*
X4420Y1969D01*
X421Y1968D02*
X428Y1968D01*
X4413Y1968D02*
X4420Y1968D01*
X421Y1967D02*
X428Y1967D01*
X4413Y1967D02*
X4420Y1967D01*
X421Y1966D02*
X428Y1966D01*
X4413Y1966D02*
X4420Y1966D01*
X421Y1965D02*
X428Y1965D01*
X4413Y1965D02*
X4420Y1965D01*
X421Y1964D02*
X428Y1964D01*
X4413Y1964D02*
X4420Y1964D01*
X421Y1963D02*
X428Y1963D01*
X4413Y1963D02*
X4420Y1963D01*
X421Y1962D02*
X428Y1962D01*
X4413Y1962D02*
X4420Y1962D01*
X421Y1961D02*
X428Y1961D01*
X4413Y1961D02*
X4420Y1961D01*
X421Y1960D02*
X428Y1960D01*
X4413Y1960D02*
X4420Y1960D01*
X421Y1959D02*
X428Y1959D01*
X4413Y1959D02*
X4420Y1959D01*
X421Y1958D02*
X428Y1958D01*
X4413Y1958D02*
X4420Y1958D01*
X421Y1957D02*
X428Y1957D01*
X4413Y1957D02*
X4420Y1957D01*
X421Y1956D02*
X428Y1956D01*
X4413Y1956D02*
X4420Y1956D01*
X421Y1955D02*
X428Y1955D01*
X4413Y1955D02*
X4420Y1955D01*
X421Y1954D02*
X428Y1954D01*
X4413Y1954D02*
X4420Y1954D01*
X421Y1953D02*
X428Y1953D01*
X4413Y1953D02*
X4420Y1953D01*
X421Y1952D02*
X428Y1952D01*
X4413Y1952D02*
X4420Y1952D01*
X421Y1951D02*
X428Y1951D01*
X4413Y1951D02*
X4420Y1951D01*
X421Y1950D02*
X428Y1950D01*
X4413Y1950D02*
X4420Y1950D01*
X421Y1949D02*
X428Y1949D01*
X4413Y1949D02*
X4420Y1949D01*
X421Y1948D02*
X428Y1948D01*
X4413Y1948D02*
X4420Y1948D01*
X421Y1947D02*
X428Y1947D01*
X4413Y1947D02*
X4420Y1947D01*
X421Y1946D02*
X428Y1946D01*
X4413Y1946D02*
X4420Y1946D01*
X421Y1945D02*
X428Y1945D01*
X4413Y1945D02*
X4420Y1945D01*
X421Y1944D02*
X428Y1944D01*
X4413Y1944D02*
X4420Y1944D01*
X421Y1943D02*
X428Y1943D01*
X4413Y1943D02*
X4420Y1943D01*
X421Y1942D02*
X428Y1942D01*
X4413Y1942D02*
X4420Y1942D01*
X421Y1941D02*
X428Y1941D01*
X4413Y1941D02*
X4420Y1941D01*
X421Y1940D02*
X428Y1940D01*
X4413Y1940D02*
X4420Y1940D01*
X421Y1939D02*
X428Y1939D01*
X4413Y1939D02*
X4420Y1939D01*
X421Y1938D02*
X428Y1938D01*
X4413Y1938D02*
X4420Y1938D01*
X421Y1937D02*
X428Y1937D01*
X4413Y1937D02*
X4420Y1937D01*
X421Y1936D02*
X428Y1936D01*
X4413Y1936D02*
X4420Y1936D01*
X421Y1935D02*
X428Y1935D01*
X4413Y1935D02*
X4420Y1935D01*
X421Y1934D02*
X428Y1934D01*
X4413Y1934D02*
X4420Y1934D01*
X421Y1933D02*
X428Y1933D01*
X4413Y1933D02*
X4420Y1933D01*
X421Y1932D02*
X428Y1932D01*
X4413Y1932D02*
X4420Y1932D01*
X421Y1931D02*
X428Y1931D01*
X4413Y1931D02*
X4420Y1931D01*
X421Y1930D02*
X428Y1930D01*
X4413Y1930D02*
X4420Y1930D01*
X421Y1929D02*
X428Y1929D01*
X4413Y1929D02*
X4420Y1929D01*
X421Y1928D02*
X428Y1928D01*
X4413Y1928D02*
X4420Y1928D01*
X421Y1927D02*
X428Y1927D01*
X4413Y1927D02*
X4420Y1927D01*
X421Y1926D02*
X428Y1926D01*
X4413Y1926D02*
X4420Y1926D01*
X421Y1925D02*
X428Y1925D01*
X4413Y1925D02*
X4420Y1925D01*
X421Y1924D02*
X428Y1924D01*
X4413Y1924D02*
X4420Y1924D01*
X421Y1923D02*
X428Y1923D01*
X4413Y1923D02*
X4420Y1923D01*
X421Y1922D02*
X428Y1922D01*
X4413Y1922D02*
X4420Y1922D01*
X421Y1921D02*
X428Y1921D01*
X4413Y1921D02*
X4420Y1921D01*
X421Y1920D02*
X428Y1920D01*
X4413Y1920D02*
X4420Y1920D01*
X421Y1919D02*
X428Y1919D01*
X4413Y1919D02*
X4420Y1919D01*
X421Y1918D02*
X428Y1918D01*
X4413Y1918D02*
X4420Y1918D01*
X421Y1917D02*
X428Y1917D01*
X4413Y1917D02*
X4420Y1917D01*
X421Y1916D02*
X428Y1916D01*
X4413Y1916D02*
X4420Y1916D01*
X421Y1915D02*
X428Y1915D01*
X4413Y1915D02*
X4420Y1915D01*
X421Y1914D02*
X428Y1914D01*
X4413Y1914D02*
X4420Y1914D01*
X421Y1913D02*
X428Y1913D01*
X4413Y1913D02*
X4420Y1913D01*
X421Y1912D02*
X428Y1912D01*
X4413Y1912D02*
X4420Y1912D01*
X421Y1911D02*
X428Y1911D01*
X4413Y1911D02*
X4420Y1911D01*
X421Y1910D02*
X428Y1910D01*
X4413Y1910D02*
X4420Y1910D01*
X421Y1909D02*
X428Y1909D01*
X4413Y1909D02*
X4420Y1909D01*
X421Y1908D02*
X428Y1908D01*
X4413Y1908D02*
X4420Y1908D01*
X421Y1907D02*
X428Y1907D01*
X4413Y1907D02*
X4420Y1907D01*
X421Y1906D02*
X428Y1906D01*
X4413Y1906D02*
X4420Y1906D01*
X421Y1905D02*
X428Y1905D01*
X4413Y1905D02*
X4420Y1905D01*
X421Y1904D02*
X428Y1904D01*
X4413Y1904D02*
X4420Y1904D01*
X421Y1903D02*
X428Y1903D01*
X4413Y1903D02*
X4420Y1903D01*
X421Y1902D02*
X428Y1902D01*
X4413Y1902D02*
X4420Y1902D01*
X421Y1901D02*
X428Y1901D01*
X4413Y1901D02*
X4420Y1901D01*
X421Y1900D02*
X428Y1900D01*
X4413Y1900D02*
X4420Y1900D01*
X421Y1899D02*
X428Y1899D01*
X4413Y1899D02*
X4420Y1899D01*
X421Y1898D02*
X428Y1898D01*
X4413Y1898D02*
X4420Y1898D01*
X421Y1897D02*
X428Y1897D01*
X4413Y1897D02*
X4420Y1897D01*
X421Y1896D02*
X428Y1896D01*
X4413Y1896D02*
X4420Y1896D01*
X421Y1895D02*
X428Y1895D01*
X4413Y1895D02*
X4420Y1895D01*
X421Y1894D02*
X428Y1894D01*
X4413Y1894D02*
X4420Y1894D01*
X421Y1893D02*
X428Y1893D01*
X4413Y1893D02*
X4420Y1893D01*
X421Y1892D02*
X428Y1892D01*
X4413Y1892D02*
X4420Y1892D01*
X421Y1891D02*
X428Y1891D01*
X4413Y1891D02*
X4420Y1891D01*
X421Y1890D02*
X428Y1890D01*
X4413Y1890D02*
X4420Y1890D01*
X421Y1889D02*
X428Y1889D01*
X4413Y1889D02*
X4420Y1889D01*
X421Y1888D02*
X428Y1888D01*
X4413Y1888D02*
X4420Y1888D01*
X421Y1887D02*
X428Y1887D01*
X4413Y1887D02*
X4420Y1887D01*
X421Y1886D02*
X428Y1886D01*
X4413Y1886D02*
X4420Y1886D01*
X421Y1885D02*
X428Y1885D01*
X4413Y1885D02*
X4420Y1885D01*
X421Y1884D02*
X428Y1884D01*
X4413Y1884D02*
X4420Y1884D01*
X421Y1883D02*
X428Y1883D01*
X4413Y1883D02*
X4420Y1883D01*
X421Y1882D02*
X428Y1882D01*
X4413Y1882D02*
X4420Y1882D01*
X421Y1881D02*
X428Y1881D01*
X4413Y1881D02*
X4420Y1881D01*
X421Y1880D02*
X428Y1880D01*
X4413Y1880D02*
X4420Y1880D01*
X421Y1879D02*
X428Y1879D01*
X4413Y1879D02*
X4420Y1879D01*
X421Y1878D02*
X428Y1878D01*
X4413Y1878D02*
X4420Y1878D01*
X421Y1877D02*
X428Y1877D01*
X4413Y1877D02*
X4420Y1877D01*
X421Y1876D02*
X428Y1876D01*
X4413Y1876D02*
X4420Y1876D01*
X421Y1875D02*
X428Y1875D01*
X4413Y1875D02*
X4420Y1875D01*
X421Y1874D02*
X428Y1874D01*
X4413Y1874D02*
X4420Y1874D01*
X421Y1873D02*
X428Y1873D01*
X4413Y1873D02*
X4420Y1873D01*
X421Y1872D02*
X428Y1872D01*
X4413Y1872D02*
X4420Y1872D01*
X421Y1871D02*
X428Y1871D01*
X4413Y1871D02*
X4420Y1871D01*
X421Y1870D02*
X428Y1870D01*
X4413Y1870D02*
X4420Y1870D01*
X421Y1869D02*
X428Y1869D01*
X4413Y1869D02*
X4420Y1869D01*
X421Y1868D02*
X428Y1868D01*
X4413Y1868D02*
X4420Y1868D01*
X421Y1867D02*
X428Y1867D01*
X4413Y1867D02*
X4420Y1867D01*
X421Y1866D02*
X428Y1866D01*
X4413Y1866D02*
X4420Y1866D01*
X421Y1865D02*
X428Y1865D01*
X4413Y1865D02*
X4420Y1865D01*
X421Y1864D02*
X428Y1864D01*
X4413Y1864D02*
X4420Y1864D01*
X421Y1863D02*
X428Y1863D01*
X4413Y1863D02*
X4420Y1863D01*
X421Y1862D02*
X428Y1862D01*
X4413Y1862D02*
X4420Y1862D01*
X421Y1861D02*
X428Y1861D01*
X4413Y1861D02*
X4420Y1861D01*
X421Y1860D02*
X428Y1860D01*
X4413Y1860D02*
X4420Y1860D01*
X421Y1859D02*
X428Y1859D01*
X4413Y1859D02*
X4420Y1859D01*
X421Y1858D02*
X428Y1858D01*
X4413Y1858D02*
X4420Y1858D01*
X421Y1857D02*
X428Y1857D01*
X4413Y1857D02*
X4420Y1857D01*
X421Y1856D02*
X428Y1856D01*
X4413Y1856D02*
X4420Y1856D01*
X421Y1855D02*
X428Y1855D01*
X4413Y1855D02*
X4420Y1855D01*
X421Y1854D02*
X428Y1854D01*
X4413Y1854D02*
X4420Y1854D01*
X421Y1853D02*
X428Y1853D01*
X4413Y1853D02*
X4420Y1853D01*
X421Y1852D02*
X428Y1852D01*
X4413Y1852D02*
X4420Y1852D01*
X421Y1851D02*
X428Y1851D01*
X4413Y1851D02*
X4420Y1851D01*
X421Y1850D02*
X428Y1850D01*
X4413Y1850D02*
X4420Y1850D01*
X421Y1849D02*
X428Y1849D01*
X4413Y1849D02*
X4420Y1849D01*
X421Y1848D02*
X428Y1848D01*
X4413Y1848D02*
X4420Y1848D01*
X421Y1847D02*
X428Y1847D01*
X4413Y1847D02*
X4420Y1847D01*
X421Y1846D02*
X428Y1846D01*
X4413Y1846D02*
X4420Y1846D01*
X421Y1845D02*
X428Y1845D01*
X4413Y1845D02*
X4420Y1845D01*
X421Y1844D02*
X428Y1844D01*
X4413Y1844D02*
X4420Y1844D01*
X421Y1843D02*
X428Y1843D01*
X4413Y1843D02*
X4420Y1843D01*
X421Y1842D02*
X428Y1842D01*
X4413Y1842D02*
X4420Y1842D01*
X421Y1841D02*
X428Y1841D01*
X4413Y1841D02*
X4420Y1841D01*
X421Y1840D02*
X428Y1840D01*
X4413Y1840D02*
X4420Y1840D01*
X421Y1839D02*
X428Y1839D01*
X4413Y1839D02*
X4420Y1839D01*
X421Y1838D02*
X428Y1838D01*
X4413Y1838D02*
X4420Y1838D01*
X421Y1837D02*
X428Y1837D01*
X4413Y1837D02*
X4420Y1837D01*
X421Y1836D02*
X428Y1836D01*
X4413Y1836D02*
X4420Y1836D01*
X421Y1835D02*
X428Y1835D01*
X4413Y1835D02*
X4420Y1835D01*
X421Y1834D02*
X428Y1834D01*
X4413Y1834D02*
X4420Y1834D01*
X421Y1833D02*
X428Y1833D01*
X4413Y1833D02*
X4420Y1833D01*
X421Y1832D02*
X428Y1832D01*
X4413Y1832D02*
X4420Y1832D01*
X421Y1831D02*
X428Y1831D01*
X4413Y1831D02*
X4420Y1831D01*
X421Y1830D02*
X428Y1830D01*
X4413Y1830D02*
X4420Y1830D01*
X421Y1829D02*
X428Y1829D01*
X4413Y1829D02*
X4420Y1829D01*
X421Y1828D02*
X428Y1828D01*
X4413Y1828D02*
X4420Y1828D01*
X421Y1827D02*
X428Y1827D01*
X4413Y1827D02*
X4420Y1827D01*
X421Y1826D02*
X428Y1826D01*
X4413Y1826D02*
X4420Y1826D01*
X421Y1825D02*
X428Y1825D01*
X4413Y1825D02*
X4420Y1825D01*
X421Y1824D02*
X428Y1824D01*
X4413Y1824D02*
X4420Y1824D01*
X421Y1823D02*
X428Y1823D01*
X4413Y1823D02*
X4420Y1823D01*
X421Y1822D02*
X428Y1822D01*
X4413Y1822D02*
X4420Y1822D01*
X421Y1821D02*
X428Y1821D01*
X4413Y1821D02*
X4420Y1821D01*
X421Y1820D02*
X428Y1820D01*
X4413Y1820D02*
X4420Y1820D01*
X421Y1819D02*
X428Y1819D01*
X4413Y1819D02*
X4420Y1819D01*
X421Y1818D02*
X428Y1818D01*
X4413Y1818D02*
X4420Y1818D01*
X421Y1817D02*
X428Y1817D01*
X4413Y1817D02*
X4420Y1817D01*
X421Y1816D02*
X428Y1816D01*
X4413Y1816D02*
X4420Y1816D01*
X421Y1815D02*
X428Y1815D01*
X4413Y1815D02*
X4420Y1815D01*
X421Y1814D02*
X428Y1814D01*
X4413Y1814D02*
X4420Y1814D01*
X421Y1813D02*
X428Y1813D01*
X4413Y1813D02*
X4420Y1813D01*
X421Y1812D02*
X428Y1812D01*
X4413Y1812D02*
X4420Y1812D01*
X421Y1811D02*
X428Y1811D01*
X4413Y1811D02*
X4420Y1811D01*
X421Y1810D02*
X428Y1810D01*
X4413Y1810D02*
X4420Y1810D01*
X421Y1809D02*
X428Y1809D01*
X4413Y1809D02*
X4420Y1809D01*
X421Y1808D02*
X428Y1808D01*
X4413Y1808D02*
X4420Y1808D01*
X421Y1807D02*
X428Y1807D01*
X4413Y1807D02*
X4420Y1807D01*
X421Y1806D02*
X428Y1806D01*
X4413Y1806D02*
X4420Y1806D01*
X421Y1805D02*
X428Y1805D01*
X4413Y1805D02*
X4420Y1805D01*
X421Y1804D02*
X428Y1804D01*
X4413Y1804D02*
X4420Y1804D01*
X421Y1803D02*
X428Y1803D01*
X4413Y1803D02*
X4420Y1803D01*
X421Y1802D02*
X428Y1802D01*
X4413Y1802D02*
X4420Y1802D01*
X421Y1801D02*
X428Y1801D01*
X4413Y1801D02*
X4420Y1801D01*
X421Y1800D02*
X428Y1800D01*
X4413Y1800D02*
X4420Y1800D01*
X421Y1799D02*
X428Y1799D01*
X4413Y1799D02*
X4420Y1799D01*
X421Y1798D02*
X428Y1798D01*
X4413Y1798D02*
X4420Y1798D01*
X421Y1797D02*
X428Y1797D01*
X4413Y1797D02*
X4420Y1797D01*
X421Y1796D02*
X428Y1796D01*
X4413Y1796D02*
X4420Y1796D01*
X421Y1795D02*
X428Y1795D01*
X4413Y1795D02*
X4420Y1795D01*
X421Y1794D02*
X428Y1794D01*
X4413Y1794D02*
X4420Y1794D01*
X421Y1793D02*
X428Y1793D01*
X4413Y1793D02*
X4420Y1793D01*
X421Y1792D02*
X428Y1792D01*
X4413Y1792D02*
X4420Y1792D01*
X421Y1791D02*
X428Y1791D01*
X4413Y1791D02*
X4420Y1791D01*
X421Y1790D02*
X428Y1790D01*
X4413Y1790D02*
X4420Y1790D01*
X421Y1789D02*
X428Y1789D01*
X4413Y1789D02*
X4420Y1789D01*
X421Y1788D02*
X428Y1788D01*
X4413Y1788D02*
X4420Y1788D01*
X421Y1787D02*
X428Y1787D01*
X4413Y1787D02*
X4420Y1787D01*
X421Y1786D02*
X428Y1786D01*
X4413Y1786D02*
X4420Y1786D01*
X421Y1785D02*
X428Y1785D01*
X4413Y1785D02*
X4420Y1785D01*
X421Y1784D02*
X428Y1784D01*
X4413Y1784D02*
X4420Y1784D01*
X421Y1783D02*
X428Y1783D01*
X4413Y1783D02*
X4420Y1783D01*
X421Y1782D02*
X428Y1782D01*
X4413Y1782D02*
X4420Y1782D01*
X421Y1781D02*
X428Y1781D01*
X4413Y1781D02*
X4420Y1781D01*
X421Y1780D02*
X428Y1780D01*
X4413Y1780D02*
X4420Y1780D01*
X421Y1779D02*
X428Y1779D01*
X4413Y1779D02*
X4420Y1779D01*
X421Y1778D02*
X428Y1778D01*
X4413Y1778D02*
X4420Y1778D01*
X421Y1777D02*
X428Y1777D01*
X4413Y1777D02*
X4420Y1777D01*
X421Y1776D02*
X428Y1776D01*
X4413Y1776D02*
X4420Y1776D01*
X421Y1775D02*
X428Y1775D01*
X4413Y1775D02*
X4420Y1775D01*
X421Y1774D02*
X428Y1774D01*
X4413Y1774D02*
X4420Y1774D01*
X421Y1773D02*
X428Y1773D01*
X4413Y1773D02*
X4420Y1773D01*
X421Y1772D02*
X428Y1772D01*
X4413Y1772D02*
X4420Y1772D01*
X421Y1771D02*
X428Y1771D01*
X4413Y1771D02*
X4420Y1771D01*
X421Y1770D02*
X428Y1770D01*
X4413Y1770D02*
X4420Y1770D01*
X421Y1769D02*
X428Y1769D01*
X4413Y1769D02*
X4420Y1769D01*
X421Y1768D02*
X428Y1768D01*
X4413Y1768D02*
X4420Y1768D01*
X421Y1767D02*
X428Y1767D01*
X4413Y1767D02*
X4420Y1767D01*
X421Y1766D02*
X428Y1766D01*
X4413Y1766D02*
X4420Y1766D01*
X421Y1765D02*
X428Y1765D01*
X4413Y1765D02*
X4420Y1765D01*
X421Y1764D02*
X428Y1764D01*
X4413Y1764D02*
X4420Y1764D01*
X421Y1763D02*
X428Y1763D01*
X4413Y1763D02*
X4420Y1763D01*
X421Y1762D02*
X428Y1762D01*
X4413Y1762D02*
X4420Y1762D01*
X421Y1761D02*
X428Y1761D01*
X4413Y1761D02*
X4420Y1761D01*
X421Y1760D02*
X428Y1760D01*
X4413Y1760D02*
X4420Y1760D01*
X421Y1759D02*
X428Y1759D01*
X4413Y1759D02*
X4420Y1759D01*
X421Y1758D02*
X428Y1758D01*
X4413Y1758D02*
X4420Y1758D01*
X421Y1757D02*
X428Y1757D01*
X4413Y1757D02*
X4420Y1757D01*
X421Y1756D02*
X428Y1756D01*
X4413Y1756D02*
X4420Y1756D01*
X421Y1755D02*
X428Y1755D01*
X4413Y1755D02*
X4420Y1755D01*
X421Y1754D02*
X428Y1754D01*
X4413Y1754D02*
X4420Y1754D01*
X421Y1753D02*
X428Y1753D01*
X4413Y1753D02*
X4420Y1753D01*
X421Y1752D02*
X428Y1752D01*
X4413Y1752D02*
X4420Y1752D01*
X421Y1751D02*
X428Y1751D01*
X4413Y1751D02*
X4420Y1751D01*
X421Y1750D02*
X428Y1750D01*
X4413Y1750D02*
X4420Y1750D01*
X421Y1749D02*
X428Y1749D01*
X4413Y1749D02*
X4420Y1749D01*
X421Y1748D02*
X428Y1748D01*
X4413Y1748D02*
X4420Y1748D01*
X421Y1747D02*
X428Y1747D01*
X4413Y1747D02*
X4420Y1747D01*
X421Y1746D02*
X428Y1746D01*
X4413Y1746D02*
X4420Y1746D01*
X421Y1745D02*
X428Y1745D01*
X4413Y1745D02*
X4420Y1745D01*
X421Y1744D02*
X428Y1744D01*
X4413Y1744D02*
X4420Y1744D01*
X421Y1743D02*
X428Y1743D01*
X4413Y1743D02*
X4420Y1743D01*
X421Y1742D02*
X428Y1742D01*
X4413Y1742D02*
X4420Y1742D01*
X421Y1741D02*
X428Y1741D01*
X4413Y1741D02*
X4420Y1741D01*
X421Y1740D02*
X428Y1740D01*
X4413Y1740D02*
X4420Y1740D01*
X421Y1739D02*
X428Y1739D01*
X4413Y1739D02*
X4420Y1739D01*
X421Y1738D02*
X428Y1738D01*
X4413Y1738D02*
X4420Y1738D01*
X421Y1737D02*
X428Y1737D01*
X4413Y1737D02*
X4420Y1737D01*
X421Y1736D02*
X428Y1736D01*
X4413Y1736D02*
X4420Y1736D01*
X421Y1735D02*
X428Y1735D01*
X4413Y1735D02*
X4420Y1735D01*
X421Y1734D02*
X428Y1734D01*
X4413Y1734D02*
X4420Y1734D01*
X421Y1733D02*
X428Y1733D01*
X4413Y1733D02*
X4420Y1733D01*
X421Y1732D02*
X428Y1732D01*
X4413Y1732D02*
X4420Y1732D01*
X421Y1731D02*
X428Y1731D01*
X4413Y1731D02*
X4420Y1731D01*
X421Y1730D02*
X428Y1730D01*
X4413Y1730D02*
X4420Y1730D01*
X421Y1729D02*
X428Y1729D01*
X4413Y1729D02*
X4420Y1729D01*
X421Y1728D02*
X428Y1728D01*
X4413Y1728D02*
X4420Y1728D01*
X421Y1727D02*
X428Y1727D01*
X4413Y1727D02*
X4420Y1727D01*
X421Y1726D02*
X428Y1726D01*
X4413Y1726D02*
X4420Y1726D01*
X421Y1725D02*
X428Y1725D01*
X4413Y1725D02*
X4420Y1725D01*
X421Y1724D02*
X428Y1724D01*
X4413Y1724D02*
X4420Y1724D01*
X421Y1723D02*
X428Y1723D01*
X4413Y1723D02*
X4420Y1723D01*
X421Y1722D02*
X428Y1722D01*
X4413Y1722D02*
X4420Y1722D01*
X421Y1721D02*
X428Y1721D01*
X4413Y1721D02*
X4420Y1721D01*
X421Y1720D02*
X428Y1720D01*
X4413Y1720D02*
X4420Y1720D01*
X421Y1719D02*
X428Y1719D01*
X4413Y1719D02*
X4420Y1719D01*
X421Y1718D02*
X428Y1718D01*
X4413Y1718D02*
X4420Y1718D01*
X421Y1717D02*
X428Y1717D01*
X4413Y1717D02*
X4420Y1717D01*
X421Y1716D02*
X428Y1716D01*
X4413Y1716D02*
X4420Y1716D01*
X421Y1715D02*
X428Y1715D01*
X4413Y1715D02*
X4420Y1715D01*
X421Y1714D02*
X428Y1714D01*
X4413Y1714D02*
X4420Y1714D01*
X421Y1713D02*
X428Y1713D01*
X4413Y1713D02*
X4420Y1713D01*
X421Y1712D02*
X428Y1712D01*
X4413Y1712D02*
X4420Y1712D01*
X421Y1711D02*
X428Y1711D01*
X4413Y1711D02*
X4420Y1711D01*
X421Y1710D02*
X428Y1710D01*
X4413Y1710D02*
X4420Y1710D01*
X421Y1709D02*
X428Y1709D01*
X4413Y1709D02*
X4420Y1709D01*
X421Y1708D02*
X428Y1708D01*
X4413Y1708D02*
X4420Y1708D01*
X421Y1707D02*
X428Y1707D01*
X4413Y1707D02*
X4420Y1707D01*
X421Y1706D02*
X428Y1706D01*
X4413Y1706D02*
X4420Y1706D01*
X421Y1705D02*
X428Y1705D01*
X4413Y1705D02*
X4420Y1705D01*
X421Y1704D02*
X428Y1704D01*
X4413Y1704D02*
X4420Y1704D01*
X421Y1703D02*
X428Y1703D01*
X4413Y1703D02*
X4420Y1703D01*
X421Y1702D02*
X428Y1702D01*
X4413Y1702D02*
X4420Y1702D01*
X421Y1701D02*
X428Y1701D01*
X4413Y1701D02*
X4420Y1701D01*
X421Y1700D02*
X428Y1700D01*
X4413Y1700D02*
X4420Y1700D01*
X421Y1699D02*
X428Y1699D01*
X4413Y1699D02*
X4420Y1699D01*
X421Y1698D02*
X428Y1698D01*
X4413Y1698D02*
X4420Y1698D01*
X421Y1697D02*
X428Y1697D01*
X4413Y1697D02*
X4420Y1697D01*
X421Y1696D02*
X428Y1696D01*
X4413Y1696D02*
X4420Y1696D01*
X421Y1695D02*
X428Y1695D01*
X4413Y1695D02*
X4420Y1695D01*
X421Y1694D02*
X428Y1694D01*
X4413Y1694D02*
X4420Y1694D01*
X421Y1693D02*
X428Y1693D01*
X4413Y1693D02*
X4420Y1693D01*
X421Y1692D02*
X428Y1692D01*
X4413Y1692D02*
X4420Y1692D01*
X421Y1691D02*
X428Y1691D01*
X4413Y1691D02*
X4420Y1691D01*
X421Y1690D02*
X428Y1690D01*
X4413Y1690D02*
X4420Y1690D01*
X421Y1689D02*
X428Y1689D01*
X4413Y1689D02*
X4420Y1689D01*
X421Y1688D02*
X428Y1688D01*
X4413Y1688D02*
X4420Y1688D01*
X421Y1687D02*
X428Y1687D01*
X4413Y1687D02*
X4420Y1687D01*
X421Y1686D02*
X428Y1686D01*
X4413Y1686D02*
X4420Y1686D01*
X421Y1685D02*
X428Y1685D01*
X4413Y1685D02*
X4420Y1685D01*
X421Y1684D02*
X428Y1684D01*
X4413Y1684D02*
X4420Y1684D01*
X421Y1683D02*
X428Y1683D01*
X4413Y1683D02*
X4420Y1683D01*
X421Y1682D02*
X428Y1682D01*
X4413Y1682D02*
X4420Y1682D01*
X421Y1681D02*
X428Y1681D01*
X4413Y1681D02*
X4420Y1681D01*
X421Y1680D02*
X428Y1680D01*
X4413Y1680D02*
X4420Y1680D01*
X421Y1679D02*
X428Y1679D01*
X4413Y1679D02*
X4420Y1679D01*
X421Y1678D02*
X428Y1678D01*
X4413Y1678D02*
X4420Y1678D01*
X421Y1677D02*
X428Y1677D01*
X4413Y1677D02*
X4420Y1677D01*
X421Y1676D02*
X428Y1676D01*
X4413Y1676D02*
X4420Y1676D01*
X421Y1675D02*
X428Y1675D01*
X4413Y1675D02*
X4420Y1675D01*
X421Y1674D02*
X428Y1674D01*
X4413Y1674D02*
X4420Y1674D01*
X421Y1673D02*
X428Y1673D01*
X4413Y1673D02*
X4420Y1673D01*
X421Y1672D02*
X428Y1672D01*
X4413Y1672D02*
X4420Y1672D01*
X421Y1671D02*
X428Y1671D01*
X4413Y1671D02*
X4420Y1671D01*
X421Y1670D02*
X428Y1670D01*
X4413Y1670D02*
X4420Y1670D01*
X421Y1669D02*
X428Y1669D01*
X4413Y1669D02*
X4420Y1669D01*
X421Y1668D02*
X428Y1668D01*
X4413Y1668D02*
X4420Y1668D01*
X421Y1667D02*
X428Y1667D01*
X4413Y1667D02*
X4420Y1667D01*
X421Y1666D02*
X428Y1666D01*
X4413Y1666D02*
X4420Y1666D01*
X421Y1665D02*
X428Y1665D01*
X4413Y1665D02*
X4420Y1665D01*
X421Y1664D02*
X428Y1664D01*
X4413Y1664D02*
X4420Y1664D01*
X421Y1663D02*
X428Y1663D01*
X4413Y1663D02*
X4420Y1663D01*
X421Y1662D02*
X428Y1662D01*
X4413Y1662D02*
X4420Y1662D01*
X421Y1661D02*
X428Y1661D01*
X4413Y1661D02*
X4420Y1661D01*
X421Y1660D02*
X428Y1660D01*
X4413Y1660D02*
X4420Y1660D01*
X421Y1659D02*
X428Y1659D01*
X4413Y1659D02*
X4420Y1659D01*
X421Y1658D02*
X428Y1658D01*
X4413Y1658D02*
X4420Y1658D01*
X421Y1657D02*
X428Y1657D01*
X4413Y1657D02*
X4420Y1657D01*
X421Y1656D02*
X428Y1656D01*
X4413Y1656D02*
X4420Y1656D01*
X421Y1655D02*
X428Y1655D01*
X4413Y1655D02*
X4420Y1655D01*
X421Y1654D02*
X428Y1654D01*
X4413Y1654D02*
X4420Y1654D01*
X421Y1653D02*
X428Y1653D01*
X4413Y1653D02*
X4420Y1653D01*
X421Y1652D02*
X428Y1652D01*
X4413Y1652D02*
X4420Y1652D01*
X421Y1651D02*
X428Y1651D01*
X4413Y1651D02*
X4420Y1651D01*
X421Y1650D02*
X428Y1650D01*
X4413Y1650D02*
X4420Y1650D01*
X421Y1649D02*
X428Y1649D01*
X4413Y1649D02*
X4420Y1649D01*
X421Y1648D02*
X428Y1648D01*
X4413Y1648D02*
X4420Y1648D01*
X421Y1647D02*
X428Y1647D01*
X4413Y1647D02*
X4420Y1647D01*
X421Y1646D02*
X428Y1646D01*
X4413Y1646D02*
X4420Y1646D01*
X421Y1645D02*
X428Y1645D01*
X4413Y1645D02*
X4420Y1645D01*
X421Y1644D02*
X428Y1644D01*
X4413Y1644D02*
X4420Y1644D01*
X421Y1643D02*
X428Y1643D01*
X4413Y1643D02*
X4420Y1643D01*
X421Y1642D02*
X428Y1642D01*
X4413Y1642D02*
X4420Y1642D01*
X421Y1641D02*
X428Y1641D01*
X4413Y1641D02*
X4420Y1641D01*
X421Y1640D02*
X428Y1640D01*
X4413Y1640D02*
X4420Y1640D01*
X421Y1639D02*
X428Y1639D01*
X4413Y1639D02*
X4420Y1639D01*
X421Y1638D02*
X428Y1638D01*
X4413Y1638D02*
X4420Y1638D01*
X421Y1637D02*
X428Y1637D01*
X4413Y1637D02*
X4420Y1637D01*
X421Y1636D02*
X428Y1636D01*
X4413Y1636D02*
X4420Y1636D01*
X421Y1635D02*
X428Y1635D01*
X4413Y1635D02*
X4420Y1635D01*
X421Y1634D02*
X428Y1634D01*
X4413Y1634D02*
X4420Y1634D01*
X421Y1633D02*
X428Y1633D01*
X4413Y1633D02*
X4420Y1633D01*
X421Y1632D02*
X428Y1632D01*
X4413Y1632D02*
X4420Y1632D01*
X421Y1631D02*
X428Y1631D01*
X4413Y1631D02*
X4420Y1631D01*
X421Y1630D02*
X428Y1630D01*
X4413Y1630D02*
X4420Y1630D01*
X421Y1629D02*
X428Y1629D01*
X4413Y1629D02*
X4420Y1629D01*
X421Y1628D02*
X428Y1628D01*
X4413Y1628D02*
X4420Y1628D01*
X421Y1627D02*
X428Y1627D01*
X4413Y1627D02*
X4420Y1627D01*
X421Y1626D02*
X428Y1626D01*
X4413Y1626D02*
X4420Y1626D01*
X421Y1625D02*
X428Y1625D01*
X4413Y1625D02*
X4420Y1625D01*
X421Y1624D02*
X428Y1624D01*
X4413Y1624D02*
X4420Y1624D01*
X421Y1623D02*
X428Y1623D01*
X4413Y1623D02*
X4420Y1623D01*
X421Y1622D02*
X428Y1622D01*
X4413Y1622D02*
X4420Y1622D01*
X421Y1621D02*
X428Y1621D01*
X4413Y1621D02*
X4420Y1621D01*
X421Y1620D02*
X428Y1620D01*
X4413Y1620D02*
X4420Y1620D01*
X421Y1619D02*
X428Y1619D01*
X4413Y1619D02*
X4420Y1619D01*
X421Y1618D02*
X428Y1618D01*
X4413Y1618D02*
X4420Y1618D01*
X421Y1617D02*
X428Y1617D01*
X4413Y1617D02*
X4420Y1617D01*
X421Y1616D02*
X428Y1616D01*
X4413Y1616D02*
X4420Y1616D01*
X421Y1615D02*
X428Y1615D01*
X4413Y1615D02*
X4420Y1615D01*
X421Y1614D02*
X428Y1614D01*
X4413Y1614D02*
X4420Y1614D01*
X421Y1613D02*
X428Y1613D01*
X4413Y1613D02*
X4420Y1613D01*
X421Y1612D02*
X428Y1612D01*
X4413Y1612D02*
X4420Y1612D01*
X421Y1611D02*
X428Y1611D01*
X4413Y1611D02*
X4420Y1611D01*
X421Y1610D02*
X428Y1610D01*
X4413Y1610D02*
X4420Y1610D01*
X421Y1609D02*
X428Y1609D01*
X4413Y1609D02*
X4420Y1609D01*
X421Y1608D02*
X428Y1608D01*
X4413Y1608D02*
X4420Y1608D01*
X421Y1607D02*
X428Y1607D01*
X4413Y1607D02*
X4420Y1607D01*
X421Y1606D02*
X428Y1606D01*
X4413Y1606D02*
X4420Y1606D01*
X421Y1605D02*
X428Y1605D01*
X4413Y1605D02*
X4420Y1605D01*
X421Y1604D02*
X428Y1604D01*
X4413Y1604D02*
X4420Y1604D01*
X421Y1603D02*
X428Y1603D01*
X4413Y1603D02*
X4420Y1603D01*
X421Y1602D02*
X428Y1602D01*
X4413Y1602D02*
X4420Y1602D01*
X421Y1601D02*
X428Y1601D01*
X4413Y1601D02*
X4420Y1601D01*
X421Y1600D02*
X428Y1600D01*
X4413Y1600D02*
X4420Y1600D01*
X421Y1599D02*
X428Y1599D01*
X4413Y1599D02*
X4420Y1599D01*
X421Y1598D02*
X428Y1598D01*
X4413Y1598D02*
X4420Y1598D01*
X421Y1597D02*
X428Y1597D01*
X4413Y1597D02*
X4420Y1597D01*
X421Y1596D02*
X428Y1596D01*
X4413Y1596D02*
X4420Y1596D01*
X421Y1595D02*
X428Y1595D01*
X4413Y1595D02*
X4420Y1595D01*
X421Y1594D02*
X428Y1594D01*
X4413Y1594D02*
X4420Y1594D01*
X421Y1593D02*
X428Y1593D01*
X4413Y1593D02*
X4420Y1593D01*
X421Y1592D02*
X428Y1592D01*
X4413Y1592D02*
X4420Y1592D01*
X421Y1591D02*
X428Y1591D01*
X4413Y1591D02*
X4420Y1591D01*
X421Y1590D02*
X428Y1590D01*
X4413Y1590D02*
X4420Y1590D01*
X421Y1589D02*
X428Y1589D01*
X4413Y1589D02*
X4420Y1589D01*
X421Y1588D02*
X428Y1588D01*
X4413Y1588D02*
X4420Y1588D01*
X421Y1587D02*
X428Y1587D01*
X4413Y1587D02*
X4420Y1587D01*
X421Y1586D02*
X428Y1586D01*
X4413Y1586D02*
X4420Y1586D01*
X421Y1585D02*
X428Y1585D01*
X4413Y1585D02*
X4420Y1585D01*
X421Y1584D02*
X428Y1584D01*
X4413Y1584D02*
X4420Y1584D01*
X421Y1583D02*
X428Y1583D01*
X4413Y1583D02*
X4420Y1583D01*
X421Y1582D02*
X428Y1582D01*
X4413Y1582D02*
X4420Y1582D01*
X421Y1581D02*
X428Y1581D01*
X4413Y1581D02*
X4420Y1581D01*
X421Y1580D02*
X428Y1580D01*
X4413Y1580D02*
X4420Y1580D01*
X421Y1579D02*
X428Y1579D01*
X4413Y1579D02*
X4420Y1579D01*
X421Y1578D02*
X428Y1578D01*
X4413Y1578D02*
X4420Y1578D01*
X421Y1577D02*
X428Y1577D01*
X4413Y1577D02*
X4420Y1577D01*
X421Y1576D02*
X428Y1576D01*
X4413Y1576D02*
X4420Y1576D01*
X421Y1575D02*
X428Y1575D01*
X4413Y1575D02*
X4420Y1575D01*
X421Y1574D02*
X428Y1574D01*
X4413Y1574D02*
X4420Y1574D01*
X421Y1573D02*
X428Y1573D01*
X4413Y1573D02*
X4420Y1573D01*
X421Y1572D02*
X428Y1572D01*
X4413Y1572D02*
X4420Y1572D01*
X421Y1571D02*
X428Y1571D01*
X4413Y1571D02*
X4420Y1571D01*
X421Y1570D02*
X428Y1570D01*
X4413Y1570D02*
X4420Y1570D01*
X421Y1569D02*
X428Y1569D01*
X4413Y1569D02*
X4420Y1569D01*
X421Y1568D02*
X428Y1568D01*
X4413Y1568D02*
X4420Y1568D01*
X421Y1567D02*
X428Y1567D01*
X4413Y1567D02*
X4420Y1567D01*
X421Y1566D02*
X428Y1566D01*
X4413Y1566D02*
X4420Y1566D01*
X421Y1565D02*
X428Y1565D01*
X4413Y1565D02*
X4420Y1565D01*
X421Y1564D02*
X428Y1564D01*
X4413Y1564D02*
X4420Y1564D01*
X421Y1563D02*
X428Y1563D01*
X4413Y1563D02*
X4420Y1563D01*
X421Y1562D02*
X428Y1562D01*
X4413Y1562D02*
X4420Y1562D01*
X421Y1561D02*
X428Y1561D01*
X4413Y1561D02*
X4420Y1561D01*
X421Y1560D02*
X428Y1560D01*
X4413Y1560D02*
X4420Y1560D01*
X421Y1559D02*
X428Y1559D01*
X4413Y1559D02*
X4420Y1559D01*
X421Y1558D02*
X428Y1558D01*
X4413Y1558D02*
X4420Y1558D01*
X421Y1557D02*
X428Y1557D01*
X4413Y1557D02*
X4420Y1557D01*
X421Y1556D02*
X428Y1556D01*
X4413Y1556D02*
X4420Y1556D01*
X421Y1555D02*
X428Y1555D01*
X4413Y1555D02*
X4420Y1555D01*
X421Y1554D02*
X428Y1554D01*
X4413Y1554D02*
X4420Y1554D01*
X421Y1553D02*
X428Y1553D01*
X4413Y1553D02*
X4420Y1553D01*
X421Y1552D02*
X428Y1552D01*
X4413Y1552D02*
X4420Y1552D01*
X421Y1551D02*
X428Y1551D01*
X4413Y1551D02*
X4420Y1551D01*
X421Y1550D02*
X428Y1550D01*
X4413Y1550D02*
X4420Y1550D01*
X421Y1549D02*
X428Y1549D01*
X4413Y1549D02*
X4420Y1549D01*
X421Y1548D02*
X428Y1548D01*
X4413Y1548D02*
X4420Y1548D01*
X421Y1547D02*
X428Y1547D01*
X4413Y1547D02*
X4420Y1547D01*
X421Y1546D02*
X428Y1546D01*
X4413Y1546D02*
X4420Y1546D01*
X421Y1545D02*
X428Y1545D01*
X4413Y1545D02*
X4420Y1545D01*
X421Y1544D02*
X428Y1544D01*
X4413Y1544D02*
X4420Y1544D01*
X421Y1543D02*
X428Y1543D01*
X4413Y1543D02*
X4420Y1543D01*
X421Y1542D02*
X428Y1542D01*
X4413Y1542D02*
X4420Y1542D01*
X421Y1541D02*
X428Y1541D01*
X4413Y1541D02*
X4420Y1541D01*
X421Y1540D02*
X428Y1540D01*
X4413Y1540D02*
X4420Y1540D01*
X421Y1539D02*
X428Y1539D01*
X4413Y1539D02*
X4420Y1539D01*
X421Y1538D02*
X428Y1538D01*
X4413Y1538D02*
X4420Y1538D01*
X421Y1537D02*
X428Y1537D01*
X4413Y1537D02*
X4420Y1537D01*
X421Y1536D02*
X428Y1536D01*
X4413Y1536D02*
X4420Y1536D01*
X421Y1535D02*
X428Y1535D01*
X4413Y1535D02*
X4420Y1535D01*
X421Y1534D02*
X428Y1534D01*
X4413Y1534D02*
X4420Y1534D01*
X421Y1533D02*
X428Y1533D01*
X4413Y1533D02*
X4420Y1533D01*
X421Y1532D02*
X428Y1532D01*
X4413Y1532D02*
X4420Y1532D01*
X421Y1531D02*
X428Y1531D01*
X4413Y1531D02*
X4420Y1531D01*
X421Y1530D02*
X428Y1530D01*
X4413Y1530D02*
X4420Y1530D01*
X421Y1529D02*
X428Y1529D01*
X4413Y1529D02*
X4420Y1529D01*
X421Y1528D02*
X428Y1528D01*
X4413Y1528D02*
X4420Y1528D01*
X421Y1527D02*
X428Y1527D01*
X4413Y1527D02*
X4420Y1527D01*
X421Y1526D02*
X428Y1526D01*
X4413Y1526D02*
X4420Y1526D01*
X421Y1525D02*
X428Y1525D01*
X4413Y1525D02*
X4420Y1525D01*
X421Y1524D02*
X428Y1524D01*
X4413Y1524D02*
X4420Y1524D01*
X421Y1523D02*
X428Y1523D01*
X4413Y1523D02*
X4420Y1523D01*
X421Y1522D02*
X428Y1522D01*
X4413Y1522D02*
X4420Y1522D01*
X421Y1521D02*
X428Y1521D01*
X4413Y1521D02*
X4420Y1521D01*
X421Y1520D02*
X428Y1520D01*
X4413Y1520D02*
X4420Y1520D01*
X421Y1519D02*
X428Y1519D01*
X4413Y1519D02*
X4420Y1519D01*
X421Y1518D02*
X428Y1518D01*
X4413Y1518D02*
X4420Y1518D01*
X421Y1517D02*
X428Y1517D01*
X4413Y1517D02*
X4420Y1517D01*
X421Y1516D02*
X428Y1516D01*
X4413Y1516D02*
X4420Y1516D01*
X421Y1515D02*
X428Y1515D01*
X4413Y1515D02*
X4420Y1515D01*
X421Y1514D02*
X428Y1514D01*
X4413Y1514D02*
X4420Y1514D01*
X421Y1513D02*
X428Y1513D01*
X4413Y1513D02*
X4420Y1513D01*
X421Y1512D02*
X428Y1512D01*
X4413Y1512D02*
X4420Y1512D01*
X421Y1511D02*
X428Y1511D01*
X4413Y1511D02*
X4420Y1511D01*
X421Y1510D02*
X428Y1510D01*
X4413Y1510D02*
X4420Y1510D01*
X421Y1509D02*
X428Y1509D01*
X4413Y1509D02*
X4420Y1509D01*
X421Y1508D02*
X428Y1508D01*
X4413Y1508D02*
X4420Y1508D01*
X421Y1507D02*
X428Y1507D01*
X4413Y1507D02*
X4420Y1507D01*
X421Y1506D02*
X428Y1506D01*
X4413Y1506D02*
X4420Y1506D01*
X421Y1505D02*
X428Y1505D01*
X4413Y1505D02*
X4420Y1505D01*
X421Y1504D02*
X428Y1504D01*
X4413Y1504D02*
X4420Y1504D01*
X421Y1503D02*
X428Y1503D01*
X4413Y1503D02*
X4420Y1503D01*
X421Y1502D02*
X428Y1502D01*
X4413Y1502D02*
X4420Y1502D01*
X421Y1501D02*
X428Y1501D01*
X4413Y1501D02*
X4420Y1501D01*
X421Y1500D02*
X428Y1500D01*
X4413Y1500D02*
X4420Y1500D01*
X421Y1499D02*
X428Y1499D01*
X4413Y1499D02*
X4420Y1499D01*
X421Y1498D02*
X428Y1498D01*
X4413Y1498D02*
X4420Y1498D01*
X421Y1497D02*
X428Y1497D01*
X4413Y1497D02*
X4420Y1497D01*
X421Y1496D02*
X428Y1496D01*
X4413Y1496D02*
X4420Y1496D01*
X421Y1495D02*
X428Y1495D01*
X4413Y1495D02*
X4420Y1495D01*
X421Y1494D02*
X428Y1494D01*
X4413Y1494D02*
X4420Y1494D01*
X421Y1493D02*
X428Y1493D01*
X4413Y1493D02*
X4420Y1493D01*
X421Y1492D02*
X428Y1492D01*
X4413Y1492D02*
X4420Y1492D01*
X421Y1491D02*
X428Y1491D01*
X4413Y1491D02*
X4420Y1491D01*
X421Y1490D02*
X428Y1490D01*
X4413Y1490D02*
X4420Y1490D01*
X421Y1489D02*
X428Y1489D01*
X4413Y1489D02*
X4420Y1489D01*
X421Y1488D02*
X428Y1488D01*
X4413Y1488D02*
X4420Y1488D01*
X421Y1487D02*
X428Y1487D01*
X4413Y1487D02*
X4420Y1487D01*
X421Y1486D02*
X428Y1486D01*
X4413Y1486D02*
X4420Y1486D01*
X421Y1485D02*
X428Y1485D01*
X4413Y1485D02*
X4420Y1485D01*
X421Y1484D02*
X428Y1484D01*
X4413Y1484D02*
X4420Y1484D01*
X421Y1483D02*
X428Y1483D01*
X4413Y1483D02*
X4420Y1483D01*
X421Y1482D02*
X428Y1482D01*
X4413Y1482D02*
X4420Y1482D01*
X421Y1481D02*
X428Y1481D01*
X4413Y1481D02*
X4420Y1481D01*
X421Y1480D02*
X428Y1480D01*
X4413Y1480D02*
X4420Y1480D01*
X421Y1479D02*
X428Y1479D01*
X4413Y1479D02*
X4420Y1479D01*
X421Y1478D02*
X428Y1478D01*
X4413Y1478D02*
X4420Y1478D01*
X421Y1477D02*
X428Y1477D01*
X4413Y1477D02*
X4420Y1477D01*
X421Y1476D02*
X428Y1476D01*
X4413Y1476D02*
X4420Y1476D01*
X421Y1475D02*
X428Y1475D01*
X4413Y1475D02*
X4420Y1475D01*
X421Y1474D02*
X428Y1474D01*
X4413Y1474D02*
X4420Y1474D01*
X421Y1473D02*
X428Y1473D01*
X4413Y1473D02*
X4420Y1473D01*
X421Y1472D02*
X428Y1472D01*
X4413Y1472D02*
X4420Y1472D01*
X421Y1471D02*
X428Y1471D01*
X4413Y1471D02*
X4420Y1471D01*
X421Y1470D02*
X428Y1470D01*
X4413Y1470D02*
X4420Y1470D01*
X421Y1469D02*
X428Y1469D01*
X4413Y1469D02*
X4420Y1469D01*
X421Y1468D02*
X428Y1468D01*
X4413Y1468D02*
X4420Y1468D01*
X421Y1467D02*
X428Y1467D01*
X4413Y1467D02*
X4420Y1467D01*
X421Y1466D02*
X428Y1466D01*
X4413Y1466D02*
X4420Y1466D01*
X421Y1465D02*
X428Y1465D01*
X4413Y1465D02*
X4420Y1465D01*
X421Y1464D02*
X428Y1464D01*
X4413Y1464D02*
X4420Y1464D01*
X421Y1463D02*
X428Y1463D01*
X4413Y1463D02*
X4420Y1463D01*
X421Y1462D02*
X428Y1462D01*
X4413Y1462D02*
X4420Y1462D01*
X421Y1461D02*
X428Y1461D01*
X4413Y1461D02*
X4420Y1461D01*
X421Y1460D02*
X428Y1460D01*
X4413Y1460D02*
X4420Y1460D01*
X421Y1459D02*
X428Y1459D01*
X4413Y1459D02*
X4420Y1459D01*
X421Y1458D02*
X428Y1458D01*
X4413Y1458D02*
X4420Y1458D01*
X421Y1457D02*
X428Y1457D01*
X4413Y1457D02*
X4420Y1457D01*
X421Y1456D02*
X428Y1456D01*
X4413Y1456D02*
X4420Y1456D01*
X421Y1455D02*
X428Y1455D01*
X4413Y1455D02*
X4420Y1455D01*
X421Y1454D02*
X428Y1454D01*
X4413Y1454D02*
X4420Y1454D01*
X421Y1453D02*
X428Y1453D01*
X4413Y1453D02*
X4420Y1453D01*
X421Y1452D02*
X428Y1452D01*
X4413Y1452D02*
X4420Y1452D01*
X421Y1451D02*
X428Y1451D01*
X4413Y1451D02*
X4420Y1451D01*
X421Y1450D02*
X428Y1450D01*
X4413Y1450D02*
X4420Y1450D01*
X421Y1449D02*
X428Y1449D01*
X4413Y1449D02*
X4420Y1449D01*
X421Y1448D02*
X428Y1448D01*
X4413Y1448D02*
X4420Y1448D01*
X421Y1447D02*
X428Y1447D01*
X4413Y1447D02*
X4420Y1447D01*
X421Y1446D02*
X428Y1446D01*
X4413Y1446D02*
X4420Y1446D01*
X421Y1445D02*
X428Y1445D01*
X4413Y1445D02*
X4420Y1445D01*
X421Y1444D02*
X428Y1444D01*
X4413Y1444D02*
X4420Y1444D01*
X421Y1443D02*
X428Y1443D01*
X4413Y1443D02*
X4420Y1443D01*
X421Y1442D02*
X428Y1442D01*
X4413Y1442D02*
X4420Y1442D01*
X421Y1441D02*
X428Y1441D01*
X4413Y1441D02*
X4420Y1441D01*
X421Y1440D02*
X428Y1440D01*
X4413Y1440D02*
X4420Y1440D01*
X421Y1439D02*
X428Y1439D01*
X4413Y1439D02*
X4420Y1439D01*
X421Y1438D02*
X428Y1438D01*
X4413Y1438D02*
X4420Y1438D01*
X421Y1437D02*
X428Y1437D01*
X4413Y1437D02*
X4420Y1437D01*
X421Y1436D02*
X428Y1436D01*
X4413Y1436D02*
X4420Y1436D01*
X421Y1435D02*
X428Y1435D01*
X4413Y1435D02*
X4420Y1435D01*
X421Y1434D02*
X428Y1434D01*
X4413Y1434D02*
X4420Y1434D01*
X421Y1433D02*
X428Y1433D01*
X4413Y1433D02*
X4420Y1433D01*
X421Y1432D02*
X428Y1432D01*
X4413Y1432D02*
X4420Y1432D01*
X421Y1431D02*
X428Y1431D01*
X4413Y1431D02*
X4420Y1431D01*
X421Y1430D02*
X428Y1430D01*
X4413Y1430D02*
X4420Y1430D01*
X421Y1429D02*
X428Y1429D01*
X4413Y1429D02*
X4420Y1429D01*
X421Y1428D02*
X428Y1428D01*
X4413Y1428D02*
X4420Y1428D01*
X421Y1427D02*
X428Y1427D01*
X4413Y1427D02*
X4420Y1427D01*
X421Y1426D02*
X428Y1426D01*
X4413Y1426D02*
X4420Y1426D01*
X421Y1425D02*
X428Y1425D01*
X4413Y1425D02*
X4420Y1425D01*
X421Y1424D02*
X428Y1424D01*
X4413Y1424D02*
X4420Y1424D01*
X421Y1423D02*
X428Y1423D01*
X4413Y1423D02*
X4420Y1423D01*
X421Y1422D02*
X428Y1422D01*
X4413Y1422D02*
X4420Y1422D01*
X421Y1421D02*
X428Y1421D01*
X4413Y1421D02*
X4420Y1421D01*
X421Y1420D02*
X428Y1420D01*
X4413Y1420D02*
X4420Y1420D01*
X421Y1419D02*
X428Y1419D01*
X4413Y1419D02*
X4420Y1419D01*
X421Y1418D02*
X428Y1418D01*
X4413Y1418D02*
X4420Y1418D01*
X421Y1417D02*
X428Y1417D01*
X4413Y1417D02*
X4420Y1417D01*
X421Y1416D02*
X428Y1416D01*
X4413Y1416D02*
X4420Y1416D01*
X421Y1415D02*
X428Y1415D01*
X4413Y1415D02*
X4420Y1415D01*
X421Y1414D02*
X428Y1414D01*
X4413Y1414D02*
X4420Y1414D01*
X421Y1413D02*
X428Y1413D01*
X4413Y1413D02*
X4420Y1413D01*
X421Y1412D02*
X428Y1412D01*
X4413Y1412D02*
X4420Y1412D01*
X421Y1411D02*
X428Y1411D01*
X4413Y1411D02*
X4420Y1411D01*
X421Y1410D02*
X428Y1410D01*
X4413Y1410D02*
X4420Y1410D01*
X421Y1409D02*
X428Y1409D01*
X4413Y1409D02*
X4420Y1409D01*
X421Y1408D02*
X428Y1408D01*
X4413Y1408D02*
X4420Y1408D01*
X421Y1407D02*
X428Y1407D01*
X4413Y1407D02*
X4420Y1407D01*
X421Y1406D02*
X428Y1406D01*
X4413Y1406D02*
X4420Y1406D01*
X421Y1405D02*
X428Y1405D01*
X4413Y1405D02*
X4420Y1405D01*
X421Y1404D02*
X428Y1404D01*
X4413Y1404D02*
X4420Y1404D01*
X421Y1403D02*
X428Y1403D01*
X4413Y1403D02*
X4420Y1403D01*
X421Y1402D02*
X428Y1402D01*
X4413Y1402D02*
X4420Y1402D01*
X421Y1401D02*
X428Y1401D01*
X4413Y1401D02*
X4420Y1401D01*
X421Y1400D02*
X428Y1400D01*
X4413Y1400D02*
X4420Y1400D01*
X421Y1399D02*
X428Y1399D01*
X4413Y1399D02*
X4420Y1399D01*
X421Y1398D02*
X428Y1398D01*
X4413Y1398D02*
X4420Y1398D01*
X421Y1397D02*
X428Y1397D01*
X4413Y1397D02*
X4420Y1397D01*
X421Y1396D02*
X428Y1396D01*
X4413Y1396D02*
X4420Y1396D01*
X421Y1395D02*
X428Y1395D01*
X4413Y1395D02*
X4420Y1395D01*
X421Y1394D02*
X428Y1394D01*
X4413Y1394D02*
X4420Y1394D01*
X421Y1393D02*
X428Y1393D01*
X4413Y1393D02*
X4420Y1393D01*
X421Y1392D02*
X428Y1392D01*
X4413Y1392D02*
X4420Y1392D01*
X421Y1391D02*
X428Y1391D01*
X4413Y1391D02*
X4420Y1391D01*
X421Y1390D02*
X428Y1390D01*
X4413Y1390D02*
X4420Y1390D01*
X421Y1389D02*
X428Y1389D01*
X4413Y1389D02*
X4420Y1389D01*
X421Y1388D02*
X428Y1388D01*
X4413Y1388D02*
X4420Y1388D01*
X421Y1387D02*
X428Y1387D01*
X4413Y1387D02*
X4420Y1387D01*
X421Y1386D02*
X428Y1386D01*
X4413Y1386D02*
X4420Y1386D01*
X421Y1385D02*
X428Y1385D01*
X4413Y1385D02*
X4420Y1385D01*
X421Y1384D02*
X428Y1384D01*
X4413Y1384D02*
X4420Y1384D01*
X421Y1383D02*
X428Y1383D01*
X4413Y1383D02*
X4420Y1383D01*
X421Y1382D02*
X428Y1382D01*
X4413Y1382D02*
X4420Y1382D01*
X421Y1381D02*
X428Y1381D01*
X4413Y1381D02*
X4420Y1381D01*
X421Y1380D02*
X428Y1380D01*
X4413Y1380D02*
X4420Y1380D01*
X421Y1379D02*
X428Y1379D01*
X4413Y1379D02*
X4420Y1379D01*
X421Y1378D02*
X428Y1378D01*
X4413Y1378D02*
X4420Y1378D01*
X421Y1377D02*
X428Y1377D01*
X4413Y1377D02*
X4420Y1377D01*
X421Y1376D02*
X428Y1376D01*
X4413Y1376D02*
X4420Y1376D01*
X421Y1375D02*
X428Y1375D01*
X4413Y1375D02*
X4420Y1375D01*
X421Y1374D02*
X428Y1374D01*
X4413Y1374D02*
X4420Y1374D01*
X421Y1373D02*
X428Y1373D01*
X4413Y1373D02*
X4420Y1373D01*
X421Y1372D02*
X428Y1372D01*
X4413Y1372D02*
X4420Y1372D01*
X421Y1371D02*
X428Y1371D01*
X4413Y1371D02*
X4420Y1371D01*
X421Y1370D02*
X428Y1370D01*
X4413Y1370D02*
X4420Y1370D01*
X421Y1369D02*
X428Y1369D01*
X4413Y1369D02*
X4420Y1369D01*
X421Y1368D02*
X428Y1368D01*
X4413Y1368D02*
X4420Y1368D01*
X421Y1367D02*
X428Y1367D01*
X4413Y1367D02*
X4420Y1367D01*
X421Y1366D02*
X428Y1366D01*
X4413Y1366D02*
X4420Y1366D01*
X421Y1365D02*
X428Y1365D01*
X4413Y1365D02*
X4420Y1365D01*
X421Y1364D02*
X428Y1364D01*
X4413Y1364D02*
X4420Y1364D01*
X421Y1363D02*
X428Y1363D01*
X4413Y1363D02*
X4420Y1363D01*
X421Y1362D02*
X428Y1362D01*
X4413Y1362D02*
X4420Y1362D01*
X421Y1361D02*
X428Y1361D01*
X4413Y1361D02*
X4420Y1361D01*
X421Y1360D02*
X428Y1360D01*
X4413Y1360D02*
X4420Y1360D01*
X421Y1359D02*
X428Y1359D01*
X4413Y1359D02*
X4420Y1359D01*
X421Y1358D02*
X428Y1358D01*
X4413Y1358D02*
X4420Y1358D01*
X421Y1357D02*
X428Y1357D01*
X4413Y1357D02*
X4420Y1357D01*
X421Y1356D02*
X428Y1356D01*
X4413Y1356D02*
X4420Y1356D01*
X421Y1355D02*
X428Y1355D01*
X4413Y1355D02*
X4420Y1355D01*
X421Y1354D02*
X428Y1354D01*
X4413Y1354D02*
X4420Y1354D01*
X421Y1353D02*
X428Y1353D01*
X4413Y1353D02*
X4420Y1353D01*
X421Y1352D02*
X428Y1352D01*
X4413Y1352D02*
X4420Y1352D01*
X421Y1351D02*
X428Y1351D01*
X4413Y1351D02*
X4420Y1351D01*
X421Y1350D02*
X428Y1350D01*
X4413Y1350D02*
X4420Y1350D01*
X421Y1349D02*
X428Y1349D01*
X4413Y1349D02*
X4420Y1349D01*
X421Y1348D02*
X428Y1348D01*
X4413Y1348D02*
X4420Y1348D01*
X421Y1347D02*
X428Y1347D01*
X4413Y1347D02*
X4420Y1347D01*
X421Y1346D02*
X428Y1346D01*
X4413Y1346D02*
X4420Y1346D01*
X421Y1345D02*
X428Y1345D01*
X4413Y1345D02*
X4420Y1345D01*
X421Y1344D02*
X428Y1344D01*
X4413Y1344D02*
X4420Y1344D01*
X421Y1343D02*
X428Y1343D01*
X4413Y1343D02*
X4420Y1343D01*
X421Y1342D02*
X428Y1342D01*
X4413Y1342D02*
X4420Y1342D01*
X421Y1341D02*
X428Y1341D01*
X4413Y1341D02*
X4420Y1341D01*
X421Y1340D02*
X428Y1340D01*
X4413Y1340D02*
X4420Y1340D01*
X421Y1339D02*
X428Y1339D01*
X4413Y1339D02*
X4420Y1339D01*
X421Y1338D02*
X428Y1338D01*
X4413Y1338D02*
X4420Y1338D01*
X421Y1337D02*
X428Y1337D01*
X4413Y1337D02*
X4420Y1337D01*
X421Y1336D02*
X428Y1336D01*
X4413Y1336D02*
X4420Y1336D01*
X421Y1335D02*
X428Y1335D01*
X4413Y1335D02*
X4420Y1335D01*
X421Y1334D02*
X428Y1334D01*
X4413Y1334D02*
X4420Y1334D01*
X421Y1333D02*
X428Y1333D01*
X4413Y1333D02*
X4420Y1333D01*
X421Y1332D02*
X428Y1332D01*
X4413Y1332D02*
X4420Y1332D01*
X421Y1331D02*
X428Y1331D01*
X4413Y1331D02*
X4420Y1331D01*
X421Y1330D02*
X428Y1330D01*
X4413Y1330D02*
X4420Y1330D01*
X421Y1329D02*
X428Y1329D01*
X4413Y1329D02*
X4420Y1329D01*
X421Y1328D02*
X428Y1328D01*
X4413Y1328D02*
X4420Y1328D01*
X421Y1327D02*
X428Y1327D01*
X4413Y1327D02*
X4420Y1327D01*
X421Y1326D02*
X428Y1326D01*
X4413Y1326D02*
X4420Y1326D01*
X421Y1325D02*
X428Y1325D01*
X4413Y1325D02*
X4420Y1325D01*
X421Y1324D02*
X428Y1324D01*
X4413Y1324D02*
X4420Y1324D01*
X421Y1323D02*
X428Y1323D01*
X4413Y1323D02*
X4420Y1323D01*
X421Y1322D02*
X428Y1322D01*
X4413Y1322D02*
X4420Y1322D01*
X421Y1321D02*
X428Y1321D01*
X4413Y1321D02*
X4420Y1321D01*
X421Y1320D02*
X428Y1320D01*
X4413Y1320D02*
X4420Y1320D01*
X421Y1319D02*
X428Y1319D01*
X4413Y1319D02*
X4420Y1319D01*
X421Y1318D02*
X428Y1318D01*
X4413Y1318D02*
X4420Y1318D01*
X421Y1317D02*
X428Y1317D01*
X4413Y1317D02*
X4420Y1317D01*
X421Y1316D02*
X428Y1316D01*
X4413Y1316D02*
X4420Y1316D01*
X421Y1315D02*
X428Y1315D01*
X4413Y1315D02*
X4420Y1315D01*
X421Y1314D02*
X428Y1314D01*
X4413Y1314D02*
X4420Y1314D01*
X421Y1313D02*
X428Y1313D01*
X4413Y1313D02*
X4420Y1313D01*
X421Y1312D02*
X428Y1312D01*
X4413Y1312D02*
X4420Y1312D01*
X421Y1311D02*
X428Y1311D01*
X4413Y1311D02*
X4420Y1311D01*
X421Y1310D02*
X428Y1310D01*
X4413Y1310D02*
X4420Y1310D01*
X421Y1309D02*
X428Y1309D01*
X4413Y1309D02*
X4420Y1309D01*
X421Y1308D02*
X428Y1308D01*
X4413Y1308D02*
X4420Y1308D01*
X421Y1307D02*
X428Y1307D01*
X4413Y1307D02*
X4420Y1307D01*
X421Y1306D02*
X428Y1306D01*
X4413Y1306D02*
X4420Y1306D01*
X421Y1305D02*
X428Y1305D01*
X4413Y1305D02*
X4420Y1305D01*
X421Y1304D02*
X428Y1304D01*
X4413Y1304D02*
X4420Y1304D01*
X421Y1303D02*
X428Y1303D01*
X4413Y1303D02*
X4420Y1303D01*
X421Y1302D02*
X428Y1302D01*
X4413Y1302D02*
X4420Y1302D01*
X421Y1301D02*
X428Y1301D01*
X4413Y1301D02*
X4420Y1301D01*
X421Y1300D02*
X428Y1300D01*
X4413Y1300D02*
X4420Y1300D01*
X421Y1299D02*
X428Y1299D01*
X4413Y1299D02*
X4420Y1299D01*
X421Y1298D02*
X428Y1298D01*
X4413Y1298D02*
X4420Y1298D01*
X421Y1297D02*
X428Y1297D01*
X4413Y1297D02*
X4420Y1297D01*
X421Y1296D02*
X428Y1296D01*
X4413Y1296D02*
X4420Y1296D01*
X421Y1295D02*
X428Y1295D01*
X4413Y1295D02*
X4420Y1295D01*
X421Y1294D02*
X428Y1294D01*
X4413Y1294D02*
X4420Y1294D01*
X421Y1293D02*
X428Y1293D01*
X4413Y1293D02*
X4420Y1293D01*
X421Y1292D02*
X428Y1292D01*
X4413Y1292D02*
X4420Y1292D01*
X421Y1291D02*
X428Y1291D01*
X4413Y1291D02*
X4420Y1291D01*
X421Y1290D02*
X428Y1290D01*
X4413Y1290D02*
X4420Y1290D01*
X421Y1289D02*
X428Y1289D01*
X4413Y1289D02*
X4420Y1289D01*
X421Y1288D02*
X428Y1288D01*
X4413Y1288D02*
X4420Y1288D01*
X421Y1287D02*
X428Y1287D01*
X4413Y1287D02*
X4420Y1287D01*
X421Y1286D02*
X428Y1286D01*
X4413Y1286D02*
X4420Y1286D01*
X421Y1285D02*
X428Y1285D01*
X4413Y1285D02*
X4420Y1285D01*
X421Y1284D02*
X428Y1284D01*
X4413Y1284D02*
X4420Y1284D01*
X421Y1283D02*
X428Y1283D01*
X4413Y1283D02*
X4420Y1283D01*
X421Y1282D02*
X428Y1282D01*
X4413Y1282D02*
X4420Y1282D01*
X421Y1281D02*
X428Y1281D01*
X4413Y1281D02*
X4420Y1281D01*
X421Y1280D02*
X428Y1280D01*
X4413Y1280D02*
X4420Y1280D01*
X421Y1279D02*
X428Y1279D01*
X4413Y1279D02*
X4420Y1279D01*
X421Y1278D02*
X428Y1278D01*
X4413Y1278D02*
X4420Y1278D01*
X421Y1277D02*
X428Y1277D01*
X4413Y1277D02*
X4420Y1277D01*
X421Y1276D02*
X428Y1276D01*
X4413Y1276D02*
X4420Y1276D01*
X421Y1275D02*
X428Y1275D01*
X4413Y1275D02*
X4420Y1275D01*
X421Y1274D02*
X428Y1274D01*
X4413Y1274D02*
X4420Y1274D01*
X421Y1273D02*
X428Y1273D01*
X4413Y1273D02*
X4420Y1273D01*
X421Y1272D02*
X428Y1272D01*
X4413Y1272D02*
X4420Y1272D01*
X421Y1271D02*
X428Y1271D01*
X4413Y1271D02*
X4420Y1271D01*
X421Y1270D02*
X428Y1270D01*
X4413Y1270D02*
X4420Y1270D01*
X421Y1269D02*
X428Y1269D01*
X4413Y1269D02*
X4420Y1269D01*
X421Y1268D02*
X428Y1268D01*
X4413Y1268D02*
X4420Y1268D01*
X421Y1267D02*
X428Y1267D01*
X4413Y1267D02*
X4420Y1267D01*
X421Y1266D02*
X428Y1266D01*
X4413Y1266D02*
X4420Y1266D01*
X421Y1265D02*
X428Y1265D01*
X4413Y1265D02*
X4420Y1265D01*
X421Y1264D02*
X428Y1264D01*
X4413Y1264D02*
X4420Y1264D01*
X421Y1263D02*
X428Y1263D01*
X4413Y1263D02*
X4420Y1263D01*
X421Y1262D02*
X428Y1262D01*
X4413Y1262D02*
X4420Y1262D01*
X421Y1261D02*
X428Y1261D01*
X4413Y1261D02*
X4420Y1261D01*
X421Y1260D02*
X428Y1260D01*
X4413Y1260D02*
X4420Y1260D01*
X421Y1259D02*
X428Y1259D01*
X4413Y1259D02*
X4420Y1259D01*
X421Y1258D02*
X428Y1258D01*
X4413Y1258D02*
X4420Y1258D01*
X421Y1257D02*
X428Y1257D01*
X4413Y1257D02*
X4420Y1257D01*
X421Y1256D02*
X428Y1256D01*
X4413Y1256D02*
X4420Y1256D01*
X421Y1255D02*
X428Y1255D01*
X4413Y1255D02*
X4420Y1255D01*
X421Y1254D02*
X428Y1254D01*
X4413Y1254D02*
X4420Y1254D01*
X421Y1253D02*
X428Y1253D01*
X4413Y1253D02*
X4420Y1253D01*
X421Y1252D02*
X428Y1252D01*
X4413Y1252D02*
X4420Y1252D01*
X421Y1251D02*
X428Y1251D01*
X4413Y1251D02*
X4420Y1251D01*
X421Y1250D02*
X428Y1250D01*
X4413Y1250D02*
X4420Y1250D01*
X421Y1249D02*
X428Y1249D01*
X4413Y1249D02*
X4420Y1249D01*
X421Y1248D02*
X428Y1248D01*
X4413Y1248D02*
X4420Y1248D01*
X421Y1247D02*
X428Y1247D01*
X4413Y1247D02*
X4420Y1247D01*
X421Y1246D02*
X428Y1246D01*
X4413Y1246D02*
X4420Y1246D01*
X421Y1245D02*
X428Y1245D01*
X4413Y1245D02*
X4420Y1245D01*
X421Y1244D02*
X428Y1244D01*
X4413Y1244D02*
X4420Y1244D01*
X421Y1243D02*
X428Y1243D01*
X4413Y1243D02*
X4420Y1243D01*
X421Y1242D02*
X428Y1242D01*
X4413Y1242D02*
X4420Y1242D01*
X421Y1241D02*
X428Y1241D01*
X4413Y1241D02*
X4420Y1241D01*
X421Y1240D02*
X428Y1240D01*
X4413Y1240D02*
X4420Y1240D01*
X421Y1239D02*
X428Y1239D01*
X4413Y1239D02*
X4420Y1239D01*
X421Y1238D02*
X428Y1238D01*
X4413Y1238D02*
X4420Y1238D01*
X421Y1237D02*
X428Y1237D01*
X4413Y1237D02*
X4420Y1237D01*
X421Y1236D02*
X428Y1236D01*
X4413Y1236D02*
X4420Y1236D01*
X421Y1235D02*
X428Y1235D01*
X4413Y1235D02*
X4420Y1235D01*
X421Y1234D02*
X428Y1234D01*
X4413Y1234D02*
X4420Y1234D01*
X421Y1233D02*
X428Y1233D01*
X4413Y1233D02*
X4420Y1233D01*
X421Y1232D02*
X428Y1232D01*
X4413Y1232D02*
X4420Y1232D01*
X421Y1231D02*
X428Y1231D01*
X4413Y1231D02*
X4420Y1231D01*
X421Y1230D02*
X428Y1230D01*
X4413Y1230D02*
X4420Y1230D01*
X421Y1229D02*
X428Y1229D01*
X4413Y1229D02*
X4420Y1229D01*
X421Y1228D02*
X428Y1228D01*
X4413Y1228D02*
X4420Y1228D01*
X421Y1227D02*
X428Y1227D01*
X4413Y1227D02*
X4420Y1227D01*
X421Y1226D02*
X428Y1226D01*
X4413Y1226D02*
X4420Y1226D01*
X421Y1225D02*
X428Y1225D01*
X4413Y1225D02*
X4420Y1225D01*
X421Y1224D02*
X428Y1224D01*
X4413Y1224D02*
X4420Y1224D01*
X421Y1223D02*
X428Y1223D01*
X4413Y1223D02*
X4420Y1223D01*
X421Y1222D02*
X428Y1222D01*
X4413Y1222D02*
X4420Y1222D01*
X421Y1221D02*
X428Y1221D01*
X4413Y1221D02*
X4420Y1221D01*
X421Y1220D02*
X428Y1220D01*
X4413Y1220D02*
X4420Y1220D01*
X421Y1219D02*
X428Y1219D01*
X4413Y1219D02*
X4420Y1219D01*
X421Y1218D02*
X428Y1218D01*
X4413Y1218D02*
X4420Y1218D01*
X421Y1217D02*
X428Y1217D01*
X4413Y1217D02*
X4420Y1217D01*
X421Y1216D02*
X428Y1216D01*
X4413Y1216D02*
X4420Y1216D01*
X421Y1215D02*
X428Y1215D01*
X4413Y1215D02*
X4420Y1215D01*
X421Y1214D02*
X428Y1214D01*
X4413Y1214D02*
X4420Y1214D01*
X421Y1213D02*
X428Y1213D01*
X4413Y1213D02*
X4420Y1213D01*
X421Y1212D02*
X428Y1212D01*
X4413Y1212D02*
X4420Y1212D01*
X421Y1211D02*
X428Y1211D01*
X4413Y1211D02*
X4420Y1211D01*
X421Y1210D02*
X428Y1210D01*
X4413Y1210D02*
X4420Y1210D01*
X421Y1209D02*
X428Y1209D01*
X4413Y1209D02*
X4420Y1209D01*
X421Y1208D02*
X428Y1208D01*
X4413Y1208D02*
X4420Y1208D01*
X421Y1207D02*
X428Y1207D01*
X4413Y1207D02*
X4420Y1207D01*
X421Y1206D02*
X428Y1206D01*
X4413Y1206D02*
X4420Y1206D01*
X421Y1205D02*
X428Y1205D01*
X4413Y1205D02*
X4420Y1205D01*
X421Y1204D02*
X428Y1204D01*
X4413Y1204D02*
X4420Y1204D01*
X421Y1203D02*
X428Y1203D01*
X4413Y1203D02*
X4420Y1203D01*
X421Y1202D02*
X428Y1202D01*
X4413Y1202D02*
X4420Y1202D01*
X421Y1201D02*
X428Y1201D01*
X4413Y1201D02*
X4420Y1201D01*
X421Y1200D02*
X428Y1200D01*
X4413Y1200D02*
X4420Y1200D01*
X421Y1199D02*
X428Y1199D01*
X4413Y1199D02*
X4420Y1199D01*
X421Y1198D02*
X428Y1198D01*
X4413Y1198D02*
X4420Y1198D01*
X421Y1197D02*
X428Y1197D01*
X4413Y1197D02*
X4420Y1197D01*
X421Y1196D02*
X428Y1196D01*
X4413Y1196D02*
X4420Y1196D01*
X421Y1195D02*
X428Y1195D01*
X4413Y1195D02*
X4420Y1195D01*
X421Y1194D02*
X428Y1194D01*
X4413Y1194D02*
X4420Y1194D01*
X421Y1193D02*
X428Y1193D01*
X4413Y1193D02*
X4420Y1193D01*
X421Y1192D02*
X428Y1192D01*
X4413Y1192D02*
X4420Y1192D01*
X421Y1191D02*
X428Y1191D01*
X4413Y1191D02*
X4420Y1191D01*
X421Y1190D02*
X428Y1190D01*
X4413Y1190D02*
X4420Y1190D01*
X421Y1189D02*
X428Y1189D01*
X4413Y1189D02*
X4420Y1189D01*
X421Y1188D02*
X428Y1188D01*
X4413Y1188D02*
X4420Y1188D01*
X421Y1187D02*
X428Y1187D01*
X4413Y1187D02*
X4420Y1187D01*
X421Y1186D02*
X428Y1186D01*
X4413Y1186D02*
X4420Y1186D01*
X421Y1185D02*
X428Y1185D01*
X4413Y1185D02*
X4420Y1185D01*
X421Y1184D02*
X428Y1184D01*
X4413Y1184D02*
X4420Y1184D01*
X421Y1183D02*
X428Y1183D01*
X4413Y1183D02*
X4420Y1183D01*
X421Y1182D02*
X428Y1182D01*
X4413Y1182D02*
X4420Y1182D01*
X421Y1181D02*
X428Y1181D01*
X4413Y1181D02*
X4420Y1181D01*
X421Y1180D02*
X428Y1180D01*
X4413Y1180D02*
X4420Y1180D01*
X421Y1179D02*
X428Y1179D01*
X4413Y1179D02*
X4420Y1179D01*
X421Y1178D02*
X428Y1178D01*
X4413Y1178D02*
X4420Y1178D01*
X421Y1177D02*
X428Y1177D01*
X4413Y1177D02*
X4420Y1177D01*
X421Y1176D02*
X428Y1176D01*
X4413Y1176D02*
X4420Y1176D01*
X421Y1175D02*
X428Y1175D01*
X4413Y1175D02*
X4420Y1175D01*
X421Y1174D02*
X428Y1174D01*
X4413Y1174D02*
X4420Y1174D01*
X421Y1173D02*
X428Y1173D01*
X4413Y1173D02*
X4420Y1173D01*
X421Y1172D02*
X428Y1172D01*
X4413Y1172D02*
X4420Y1172D01*
X421Y1171D02*
X428Y1171D01*
X4413Y1171D02*
X4420Y1171D01*
X421Y1170D02*
X428Y1170D01*
X4413Y1170D02*
X4420Y1170D01*
X421Y1169D02*
X428Y1169D01*
X4413Y1169D02*
X4420Y1169D01*
X421Y1168D02*
X428Y1168D01*
X4413Y1168D02*
X4420Y1168D01*
X421Y1167D02*
X428Y1167D01*
X4413Y1167D02*
X4420Y1167D01*
X421Y1166D02*
X428Y1166D01*
X4413Y1166D02*
X4420Y1166D01*
X421Y1165D02*
X428Y1165D01*
X4413Y1165D02*
X4420Y1165D01*
X421Y1164D02*
X428Y1164D01*
X4413Y1164D02*
X4420Y1164D01*
X421Y1163D02*
X428Y1163D01*
X4413Y1163D02*
X4420Y1163D01*
X421Y1162D02*
X428Y1162D01*
X4413Y1162D02*
X4420Y1162D01*
X421Y1161D02*
X428Y1161D01*
X4413Y1161D02*
X4420Y1161D01*
X421Y1160D02*
X428Y1160D01*
X4413Y1160D02*
X4420Y1160D01*
X421Y1159D02*
X428Y1159D01*
X4413Y1159D02*
X4420Y1159D01*
X421Y1158D02*
X428Y1158D01*
X4413Y1158D02*
X4420Y1158D01*
X421Y1157D02*
X428Y1157D01*
X4413Y1157D02*
X4420Y1157D01*
X421Y1156D02*
X428Y1156D01*
X4413Y1156D02*
X4420Y1156D01*
X421Y1155D02*
X428Y1155D01*
X4413Y1155D02*
X4420Y1155D01*
X421Y1154D02*
X428Y1154D01*
X4413Y1154D02*
X4420Y1154D01*
X421Y1153D02*
X428Y1153D01*
X4413Y1153D02*
X4420Y1153D01*
X421Y1152D02*
X428Y1152D01*
X4413Y1152D02*
X4420Y1152D01*
X421Y1151D02*
X428Y1151D01*
X4413Y1151D02*
X4420Y1151D01*
X421Y1150D02*
X428Y1150D01*
X4413Y1150D02*
X4420Y1150D01*
X421Y1149D02*
X428Y1149D01*
X4413Y1149D02*
X4420Y1149D01*
X421Y1148D02*
X428Y1148D01*
X4413Y1148D02*
X4420Y1148D01*
X421Y1147D02*
X428Y1147D01*
X4413Y1147D02*
X4420Y1147D01*
X421Y1146D02*
X428Y1146D01*
X4413Y1146D02*
X4420Y1146D01*
X421Y1145D02*
X428Y1145D01*
X4413Y1145D02*
X4420Y1145D01*
X421Y1144D02*
X428Y1144D01*
X4413Y1144D02*
X4420Y1144D01*
X421Y1143D02*
X428Y1143D01*
X4413Y1143D02*
X4420Y1143D01*
X421Y1142D02*
X428Y1142D01*
X4413Y1142D02*
X4420Y1142D01*
X421Y1141D02*
X428Y1141D01*
X4413Y1141D02*
X4420Y1141D01*
X421Y1140D02*
X428Y1140D01*
X4413Y1140D02*
X4420Y1140D01*
X421Y1139D02*
X428Y1139D01*
X4413Y1139D02*
X4420Y1139D01*
X421Y1138D02*
X428Y1138D01*
X4413Y1138D02*
X4420Y1138D01*
X421Y1137D02*
X428Y1137D01*
X4413Y1137D02*
X4420Y1137D01*
X421Y1136D02*
X428Y1136D01*
X4413Y1136D02*
X4420Y1136D01*
X421Y1135D02*
X428Y1135D01*
X4413Y1135D02*
X4420Y1135D01*
X421Y1134D02*
X428Y1134D01*
X4413Y1134D02*
X4420Y1134D01*
X421Y1133D02*
X428Y1133D01*
X4413Y1133D02*
X4420Y1133D01*
X421Y1132D02*
X428Y1132D01*
X4413Y1132D02*
X4420Y1132D01*
X421Y1131D02*
X428Y1131D01*
X4413Y1131D02*
X4420Y1131D01*
X421Y1130D02*
X428Y1130D01*
X4413Y1130D02*
X4420Y1130D01*
X421Y1129D02*
X428Y1129D01*
X4413Y1129D02*
X4420Y1129D01*
X421Y1128D02*
X428Y1128D01*
X4413Y1128D02*
X4420Y1128D01*
X421Y1127D02*
X428Y1127D01*
X4413Y1127D02*
X4420Y1127D01*
X421Y1126D02*
X428Y1126D01*
X4413Y1126D02*
X4420Y1126D01*
X421Y1125D02*
X428Y1125D01*
X4413Y1125D02*
X4420Y1125D01*
X421Y1124D02*
X428Y1124D01*
X4413Y1124D02*
X4420Y1124D01*
X421Y1123D02*
X428Y1123D01*
X4413Y1123D02*
X4420Y1123D01*
X421Y1122D02*
X428Y1122D01*
X4413Y1122D02*
X4420Y1122D01*
X421Y1121D02*
X428Y1121D01*
X4413Y1121D02*
X4420Y1121D01*
X421Y1120D02*
X428Y1120D01*
X4413Y1120D02*
X4420Y1120D01*
X421Y1119D02*
X428Y1119D01*
X4413Y1119D02*
X4420Y1119D01*
X421Y1118D02*
X428Y1118D01*
X4413Y1118D02*
X4420Y1118D01*
X421Y1117D02*
X428Y1117D01*
X4413Y1117D02*
X4420Y1117D01*
X421Y1116D02*
X428Y1116D01*
X4413Y1116D02*
X4420Y1116D01*
X421Y1115D02*
X428Y1115D01*
X4413Y1115D02*
X4420Y1115D01*
X421Y1114D02*
X428Y1114D01*
X4413Y1114D02*
X4420Y1114D01*
X421Y1113D02*
X428Y1113D01*
X4413Y1113D02*
X4420Y1113D01*
X421Y1112D02*
X428Y1112D01*
X4413Y1112D02*
X4420Y1112D01*
X421Y1111D02*
X428Y1111D01*
X4413Y1111D02*
X4420Y1111D01*
X421Y1110D02*
X428Y1110D01*
X4413Y1110D02*
X4420Y1110D01*
X421Y1109D02*
X428Y1109D01*
X4413Y1109D02*
X4420Y1109D01*
X421Y1108D02*
X428Y1108D01*
X4413Y1108D02*
X4420Y1108D01*
X421Y1107D02*
X428Y1107D01*
X4413Y1107D02*
X4420Y1107D01*
X421Y1106D02*
X428Y1106D01*
X4413Y1106D02*
X4420Y1106D01*
X421Y1105D02*
X428Y1105D01*
X4413Y1105D02*
X4420Y1105D01*
X421Y1104D02*
X428Y1104D01*
X4413Y1104D02*
X4420Y1104D01*
X421Y1103D02*
X428Y1103D01*
X4413Y1103D02*
X4420Y1103D01*
X421Y1102D02*
X428Y1102D01*
X4413Y1102D02*
X4420Y1102D01*
X421Y1101D02*
X428Y1101D01*
X4413Y1101D02*
X4420Y1101D01*
X421Y1100D02*
X428Y1100D01*
X4413Y1100D02*
X4420Y1100D01*
X421Y1099D02*
X428Y1099D01*
X4413Y1099D02*
X4420Y1099D01*
X421Y1098D02*
X428Y1098D01*
X4413Y1098D02*
X4420Y1098D01*
X421Y1097D02*
X428Y1097D01*
X4413Y1097D02*
X4420Y1097D01*
X421Y1096D02*
X428Y1096D01*
X4413Y1096D02*
X4420Y1096D01*
X421Y1095D02*
X428Y1095D01*
X4413Y1095D02*
X4420Y1095D01*
X421Y1094D02*
X428Y1094D01*
X4413Y1094D02*
X4420Y1094D01*
X421Y1093D02*
X428Y1093D01*
X4413Y1093D02*
X4420Y1093D01*
X421Y1092D02*
X428Y1092D01*
X4413Y1092D02*
X4420Y1092D01*
X421Y1091D02*
X428Y1091D01*
X4413Y1091D02*
X4420Y1091D01*
X421Y1090D02*
X428Y1090D01*
X4413Y1090D02*
X4420Y1090D01*
X421Y1089D02*
X428Y1089D01*
X4413Y1089D02*
X4420Y1089D01*
X421Y1088D02*
X428Y1088D01*
X4413Y1088D02*
X4420Y1088D01*
X421Y1087D02*
X428Y1087D01*
X4413Y1087D02*
X4420Y1087D01*
X421Y1086D02*
X428Y1086D01*
X4413Y1086D02*
X4420Y1086D01*
X421Y1085D02*
X428Y1085D01*
X4413Y1085D02*
X4420Y1085D01*
X421Y1084D02*
X428Y1084D01*
X4413Y1084D02*
X4420Y1084D01*
X421Y1083D02*
X428Y1083D01*
X4413Y1083D02*
X4420Y1083D01*
X421Y1082D02*
X428Y1082D01*
X4413Y1082D02*
X4420Y1082D01*
X421Y1081D02*
X428Y1081D01*
X4413Y1081D02*
X4420Y1081D01*
X421Y1080D02*
X428Y1080D01*
X4413Y1080D02*
X4420Y1080D01*
X421Y1079D02*
X428Y1079D01*
X4413Y1079D02*
X4420Y1079D01*
X421Y1078D02*
X428Y1078D01*
X4413Y1078D02*
X4420Y1078D01*
X421Y1077D02*
X428Y1077D01*
X4413Y1077D02*
X4420Y1077D01*
X421Y1076D02*
X428Y1076D01*
X4413Y1076D02*
X4420Y1076D01*
X421Y1075D02*
X428Y1075D01*
X4413Y1075D02*
X4420Y1075D01*
X421Y1074D02*
X428Y1074D01*
X4413Y1074D02*
X4420Y1074D01*
X421Y1073D02*
X428Y1073D01*
X4413Y1073D02*
X4420Y1073D01*
X421Y1072D02*
X428Y1072D01*
X4413Y1072D02*
X4420Y1072D01*
X421Y1071D02*
X428Y1071D01*
X4413Y1071D02*
X4420Y1071D01*
X421Y1070D02*
X428Y1070D01*
X4413Y1070D02*
X4420Y1070D01*
X421Y1069D02*
X428Y1069D01*
X4413Y1069D02*
X4420Y1069D01*
X421Y1068D02*
X428Y1068D01*
X4413Y1068D02*
X4420Y1068D01*
X421Y1067D02*
X428Y1067D01*
X4413Y1067D02*
X4420Y1067D01*
X421Y1066D02*
X428Y1066D01*
X4413Y1066D02*
X4420Y1066D01*
X421Y1065D02*
X428Y1065D01*
X4413Y1065D02*
X4420Y1065D01*
X421Y1064D02*
X428Y1064D01*
X4413Y1064D02*
X4420Y1064D01*
X421Y1063D02*
X428Y1063D01*
X4413Y1063D02*
X4420Y1063D01*
X421Y1062D02*
X428Y1062D01*
X4413Y1062D02*
X4420Y1062D01*
X421Y1061D02*
X428Y1061D01*
X4413Y1061D02*
X4420Y1061D01*
X421Y1060D02*
X428Y1060D01*
X4413Y1060D02*
X4420Y1060D01*
X421Y1059D02*
X428Y1059D01*
X4413Y1059D02*
X4420Y1059D01*
X421Y1058D02*
X428Y1058D01*
X4413Y1058D02*
X4420Y1058D01*
X421Y1057D02*
X428Y1057D01*
X4413Y1057D02*
X4420Y1057D01*
X421Y1056D02*
X428Y1056D01*
X4413Y1056D02*
X4420Y1056D01*
X421Y1055D02*
X428Y1055D01*
X4413Y1055D02*
X4420Y1055D01*
X421Y1054D02*
X428Y1054D01*
X4413Y1054D02*
X4420Y1054D01*
X421Y1053D02*
X428Y1053D01*
X4413Y1053D02*
X4420Y1053D01*
X421Y1052D02*
X428Y1052D01*
X4413Y1052D02*
X4420Y1052D01*
X421Y1051D02*
X428Y1051D01*
X4413Y1051D02*
X4420Y1051D01*
X421Y1050D02*
X428Y1050D01*
X4413Y1050D02*
X4420Y1050D01*
X421Y1049D02*
X428Y1049D01*
X4413Y1049D02*
X4420Y1049D01*
X421Y1048D02*
X428Y1048D01*
X4413Y1048D02*
X4420Y1048D01*
X421Y1047D02*
X428Y1047D01*
X4413Y1047D02*
X4420Y1047D01*
X421Y1046D02*
X428Y1046D01*
X4413Y1046D02*
X4420Y1046D01*
X421Y1045D02*
X428Y1045D01*
X4413Y1045D02*
X4420Y1045D01*
X421Y1044D02*
X428Y1044D01*
X4413Y1044D02*
X4420Y1044D01*
X421Y1043D02*
X428Y1043D01*
X4413Y1043D02*
X4420Y1043D01*
X421Y1042D02*
X428Y1042D01*
X4413Y1042D02*
X4420Y1042D01*
X421Y1041D02*
X428Y1041D01*
X4413Y1041D02*
X4420Y1041D01*
X421Y1040D02*
X428Y1040D01*
X4413Y1040D02*
X4420Y1040D01*
X421Y1039D02*
X428Y1039D01*
X4413Y1039D02*
X4420Y1039D01*
X421Y1038D02*
X428Y1038D01*
X4413Y1038D02*
X4420Y1038D01*
X421Y1037D02*
X428Y1037D01*
X4413Y1037D02*
X4420Y1037D01*
X421Y1036D02*
X428Y1036D01*
X4413Y1036D02*
X4420Y1036D01*
X421Y1035D02*
X428Y1035D01*
X4413Y1035D02*
X4420Y1035D01*
X421Y1034D02*
X428Y1034D01*
X4413Y1034D02*
X4420Y1034D01*
X421Y1033D02*
X428Y1033D01*
X4413Y1033D02*
X4420Y1033D01*
X421Y1032D02*
X428Y1032D01*
X4413Y1032D02*
X4420Y1032D01*
X421Y1031D02*
X428Y1031D01*
X4413Y1031D02*
X4420Y1031D01*
X421Y1030D02*
X428Y1030D01*
X4413Y1030D02*
X4420Y1030D01*
X421Y1029D02*
X428Y1029D01*
X4413Y1029D02*
X4420Y1029D01*
X421Y1028D02*
X428Y1028D01*
X4413Y1028D02*
X4420Y1028D01*
X421Y1027D02*
X428Y1027D01*
X4413Y1027D02*
X4420Y1027D01*
X421Y1026D02*
X428Y1026D01*
X4413Y1026D02*
X4420Y1026D01*
X421Y1025D02*
X428Y1025D01*
X4413Y1025D02*
X4420Y1025D01*
X421Y1024D02*
X428Y1024D01*
X4413Y1024D02*
X4420Y1024D01*
X421Y1023D02*
X428Y1023D01*
X4413Y1023D02*
X4420Y1023D01*
X421Y1022D02*
X428Y1022D01*
X4413Y1022D02*
X4420Y1022D01*
X421Y1021D02*
X428Y1021D01*
X4413Y1021D02*
X4420Y1021D01*
X421Y1020D02*
X428Y1020D01*
X4413Y1020D02*
X4420Y1020D01*
X421Y1019D02*
X428Y1019D01*
X4413Y1019D02*
X4420Y1019D01*
X421Y1018D02*
X428Y1018D01*
X4413Y1018D02*
X4420Y1018D01*
X421Y1017D02*
X428Y1017D01*
X4413Y1017D02*
X4420Y1017D01*
X421Y1016D02*
X428Y1016D01*
X4413Y1016D02*
X4420Y1016D01*
X421Y1015D02*
X428Y1015D01*
X4413Y1015D02*
X4420Y1015D01*
X421Y1014D02*
X428Y1014D01*
X4413Y1014D02*
X4420Y1014D01*
X421Y1013D02*
X428Y1013D01*
X4413Y1013D02*
X4420Y1013D01*
X421Y1012D02*
X428Y1012D01*
X4413Y1012D02*
X4420Y1012D01*
X421Y1011D02*
X428Y1011D01*
X4413Y1011D02*
X4420Y1011D01*
X421Y1010D02*
X428Y1010D01*
X4413Y1010D02*
X4420Y1010D01*
X421Y1009D02*
X428Y1009D01*
X4413Y1009D02*
X4420Y1009D01*
X421Y1008D02*
X428Y1008D01*
X4413Y1008D02*
X4420Y1008D01*
X421Y1007D02*
X428Y1007D01*
X4413Y1007D02*
X4420Y1007D01*
X421Y1006D02*
X428Y1006D01*
X4413Y1006D02*
X4420Y1006D01*
X421Y1005D02*
X428Y1005D01*
X4413Y1005D02*
X4420Y1005D01*
X421Y1004D02*
X428Y1004D01*
X4413Y1004D02*
X4420Y1004D01*
X421Y1003D02*
X428Y1003D01*
X4413Y1003D02*
X4420Y1003D01*
X421Y1002D02*
X428Y1002D01*
X4413Y1002D02*
X4420Y1002D01*
X421Y1001D02*
X428Y1001D01*
X4413Y1001D02*
X4420Y1001D01*
X421Y1000D02*
X428Y1000D01*
X4413Y1000D02*
X4420Y1000D01*
X421Y999D02*
X428Y999D01*
X4413Y999D02*
X4420Y999D01*
X421Y998D02*
X428Y998D01*
X4413Y998D02*
X4420Y998D01*
X421Y997D02*
X428Y997D01*
X4413Y997D02*
X4420Y997D01*
X421Y996D02*
X428Y996D01*
X4413Y996D02*
X4420Y996D01*
X421Y995D02*
X428Y995D01*
X4413Y995D02*
X4420Y995D01*
X421Y994D02*
X428Y994D01*
X4413Y994D02*
X4420Y994D01*
X421Y993D02*
X428Y993D01*
X4413Y993D02*
X4420Y993D01*
X421Y992D02*
X428Y992D01*
X4413Y992D02*
X4420Y992D01*
X421Y991D02*
X428Y991D01*
X4413Y991D02*
X4420Y991D01*
X421Y990D02*
X428Y990D01*
X4413Y990D02*
X4420Y990D01*
X421Y989D02*
X428Y989D01*
X4413Y989D02*
X4420Y989D01*
X421Y988D02*
X428Y988D01*
X4413Y988D02*
X4420Y988D01*
X421Y987D02*
X428Y987D01*
X4413Y987D02*
X4420Y987D01*
X421Y986D02*
X428Y986D01*
X4413Y986D02*
X4420Y986D01*
X421Y985D02*
X428Y985D01*
X4413Y985D02*
X4420Y985D01*
X421Y984D02*
X428Y984D01*
X4413Y984D02*
X4420Y984D01*
X421Y983D02*
X428Y983D01*
X4413Y983D02*
X4420Y983D01*
X421Y982D02*
X428Y982D01*
X4413Y982D02*
X4420Y982D01*
X421Y981D02*
X428Y981D01*
X4413Y981D02*
X4420Y981D01*
X421Y980D02*
X428Y980D01*
X4413Y980D02*
X4420Y980D01*
X421Y979D02*
X428Y979D01*
X4413Y979D02*
X4420Y979D01*
X421Y978D02*
X428Y978D01*
X4413Y978D02*
X4420Y978D01*
X421Y977D02*
X428Y977D01*
X4413Y977D02*
X4420Y977D01*
X421Y976D02*
X428Y976D01*
X4413Y976D02*
X4420Y976D01*
X421Y975D02*
X428Y975D01*
X4413Y975D02*
X4420Y975D01*
X421Y974D02*
X428Y974D01*
X4413Y974D02*
X4420Y974D01*
X421Y973D02*
X428Y973D01*
X4413Y973D02*
X4420Y973D01*
X421Y972D02*
X428Y972D01*
X4413Y972D02*
X4420Y972D01*
X421Y971D02*
X428Y971D01*
X4413Y971D02*
X4420Y971D01*
X421Y970D02*
X428Y970D01*
X4413Y970D02*
X4420Y970D01*
X421Y969D02*
X428Y969D01*
X4413Y969D02*
X4420Y969D01*
X421Y968D02*
X428Y968D01*
X4413Y968D02*
X4420Y968D01*
X421Y967D02*
X428Y967D01*
X4413Y967D02*
X4420Y967D01*
X421Y966D02*
X428Y966D01*
X4413Y966D02*
X4420Y966D01*
X421Y965D02*
X428Y965D01*
X4413Y965D02*
X4420Y965D01*
X421Y964D02*
X428Y964D01*
X4413Y964D02*
X4420Y964D01*
X421Y963D02*
X428Y963D01*
X4413Y963D02*
X4420Y963D01*
X421Y962D02*
X428Y962D01*
X4413Y962D02*
X4420Y962D01*
X421Y961D02*
X428Y961D01*
X4413Y961D02*
X4420Y961D01*
X421Y960D02*
X428Y960D01*
X4413Y960D02*
X4420Y960D01*
X421Y959D02*
X428Y959D01*
X4413Y959D02*
X4420Y959D01*
X421Y958D02*
X428Y958D01*
X4413Y958D02*
X4420Y958D01*
X421Y957D02*
X428Y957D01*
X4413Y957D02*
X4420Y957D01*
X421Y956D02*
X428Y956D01*
X4413Y956D02*
X4420Y956D01*
X421Y955D02*
X428Y955D01*
X4413Y955D02*
X4420Y955D01*
X421Y954D02*
X428Y954D01*
X4413Y954D02*
X4420Y954D01*
X421Y953D02*
X428Y953D01*
X4413Y953D02*
X4420Y953D01*
X421Y952D02*
X428Y952D01*
X4413Y952D02*
X4420Y952D01*
X421Y951D02*
X428Y951D01*
X4413Y951D02*
X4420Y951D01*
X421Y950D02*
X428Y950D01*
X4413Y950D02*
X4420Y950D01*
X421Y949D02*
X428Y949D01*
X4413Y949D02*
X4420Y949D01*
X421Y948D02*
X428Y948D01*
X4413Y948D02*
X4420Y948D01*
X421Y947D02*
X428Y947D01*
X4413Y947D02*
X4420Y947D01*
X421Y946D02*
X428Y946D01*
X4413Y946D02*
X4420Y946D01*
X421Y945D02*
X428Y945D01*
X4413Y945D02*
X4420Y945D01*
X421Y944D02*
X428Y944D01*
X4413Y944D02*
X4420Y944D01*
X421Y943D02*
X428Y943D01*
X4413Y943D02*
X4420Y943D01*
X421Y942D02*
X428Y942D01*
X4413Y942D02*
X4420Y942D01*
X421Y941D02*
X428Y941D01*
X4413Y941D02*
X4420Y941D01*
X421Y940D02*
X428Y940D01*
X4413Y940D02*
X4420Y940D01*
X421Y939D02*
X428Y939D01*
X4413Y939D02*
X4420Y939D01*
X421Y938D02*
X428Y938D01*
X4413Y938D02*
X4420Y938D01*
X421Y937D02*
X428Y937D01*
X4413Y937D02*
X4420Y937D01*
X421Y936D02*
X428Y936D01*
X4413Y936D02*
X4420Y936D01*
X421Y935D02*
X428Y935D01*
X4413Y935D02*
X4420Y935D01*
X421Y934D02*
X428Y934D01*
X4413Y934D02*
X4420Y934D01*
X421Y933D02*
X428Y933D01*
X4413Y933D02*
X4420Y933D01*
X421Y932D02*
X428Y932D01*
X4413Y932D02*
X4420Y932D01*
X421Y931D02*
X428Y931D01*
X4413Y931D02*
X4420Y931D01*
X421Y930D02*
X428Y930D01*
X4413Y930D02*
X4420Y930D01*
X421Y929D02*
X428Y929D01*
X4413Y929D02*
X4420Y929D01*
X421Y928D02*
X428Y928D01*
X4413Y928D02*
X4420Y928D01*
X421Y927D02*
X428Y927D01*
X4413Y927D02*
X4420Y927D01*
X421Y926D02*
X428Y926D01*
X4413Y926D02*
X4420Y926D01*
X421Y925D02*
X428Y925D01*
X4413Y925D02*
X4420Y925D01*
X421Y924D02*
X428Y924D01*
X4413Y924D02*
X4420Y924D01*
X421Y923D02*
X428Y923D01*
X4413Y923D02*
X4420Y923D01*
X421Y922D02*
X428Y922D01*
X4413Y922D02*
X4420Y922D01*
X421Y921D02*
X428Y921D01*
X4413Y921D02*
X4420Y921D01*
X421Y920D02*
X428Y920D01*
X4413Y920D02*
X4420Y920D01*
X421Y919D02*
X428Y919D01*
X4413Y919D02*
X4420Y919D01*
X421Y918D02*
X428Y918D01*
X4413Y918D02*
X4420Y918D01*
X421Y917D02*
X428Y917D01*
X4413Y917D02*
X4420Y917D01*
X421Y916D02*
X428Y916D01*
X4413Y916D02*
X4420Y916D01*
X421Y915D02*
X428Y915D01*
X4413Y915D02*
X4420Y915D01*
X421Y914D02*
X428Y914D01*
X4413Y914D02*
X4420Y914D01*
X421Y913D02*
X428Y913D01*
X4413Y913D02*
X4420Y913D01*
X421Y912D02*
X428Y912D01*
X4413Y912D02*
X4420Y912D01*
X421Y911D02*
X428Y911D01*
X4413Y911D02*
X4420Y911D01*
X421Y910D02*
X428Y910D01*
X4413Y910D02*
X4420Y910D01*
X421Y909D02*
X428Y909D01*
X4413Y909D02*
X4420Y909D01*
X421Y908D02*
X428Y908D01*
X4413Y908D02*
X4420Y908D01*
X421Y907D02*
X428Y907D01*
X4413Y907D02*
X4420Y907D01*
X421Y906D02*
X428Y906D01*
X4413Y906D02*
X4420Y906D01*
X421Y905D02*
X428Y905D01*
X4413Y905D02*
X4420Y905D01*
X421Y904D02*
X428Y904D01*
X4413Y904D02*
X4420Y904D01*
X421Y903D02*
X428Y903D01*
X4413Y903D02*
X4420Y903D01*
X421Y902D02*
X428Y902D01*
X4413Y902D02*
X4420Y902D01*
X421Y901D02*
X428Y901D01*
X4413Y901D02*
X4420Y901D01*
X421Y900D02*
X428Y900D01*
X4413Y900D02*
X4420Y900D01*
X421Y899D02*
X428Y899D01*
X4413Y899D02*
X4420Y899D01*
X421Y898D02*
X428Y898D01*
X4413Y898D02*
X4420Y898D01*
X421Y897D02*
X428Y897D01*
X4413Y897D02*
X4420Y897D01*
X421Y896D02*
X428Y896D01*
X4413Y896D02*
X4420Y896D01*
X421Y895D02*
X428Y895D01*
X4413Y895D02*
X4420Y895D01*
X421Y894D02*
X428Y894D01*
X4413Y894D02*
X4420Y894D01*
X421Y893D02*
X428Y893D01*
X4413Y893D02*
X4420Y893D01*
X421Y892D02*
X428Y892D01*
X4413Y892D02*
X4420Y892D01*
X421Y891D02*
X428Y891D01*
X4413Y891D02*
X4420Y891D01*
X421Y890D02*
X428Y890D01*
X4413Y890D02*
X4420Y890D01*
X421Y889D02*
X428Y889D01*
X4413Y889D02*
X4420Y889D01*
X421Y888D02*
X428Y888D01*
X4413Y888D02*
X4420Y888D01*
X421Y887D02*
X428Y887D01*
X4413Y887D02*
X4420Y887D01*
X421Y886D02*
X428Y886D01*
X4413Y886D02*
X4420Y886D01*
X421Y885D02*
X428Y885D01*
X4413Y885D02*
X4420Y885D01*
X421Y884D02*
X428Y884D01*
X4413Y884D02*
X4420Y884D01*
X421Y883D02*
X428Y883D01*
X4413Y883D02*
X4420Y883D01*
X421Y882D02*
X428Y882D01*
X4413Y882D02*
X4420Y882D01*
X421Y881D02*
X428Y881D01*
X4413Y881D02*
X4420Y881D01*
X421Y880D02*
X428Y880D01*
X4413Y880D02*
X4420Y880D01*
X421Y879D02*
X428Y879D01*
X4413Y879D02*
X4420Y879D01*
X421Y878D02*
X428Y878D01*
X4413Y878D02*
X4420Y878D01*
X421Y877D02*
X428Y877D01*
X4413Y877D02*
X4420Y877D01*
X421Y876D02*
X428Y876D01*
X4413Y876D02*
X4420Y876D01*
X421Y875D02*
X428Y875D01*
X4413Y875D02*
X4420Y875D01*
X421Y874D02*
X428Y874D01*
X4413Y874D02*
X4420Y874D01*
X421Y873D02*
X428Y873D01*
X4413Y873D02*
X4420Y873D01*
X421Y872D02*
X428Y872D01*
X4413Y872D02*
X4420Y872D01*
X421Y871D02*
X428Y871D01*
X4413Y871D02*
X4420Y871D01*
X421Y870D02*
X428Y870D01*
X4413Y870D02*
X4420Y870D01*
X421Y869D02*
X428Y869D01*
X4413Y869D02*
X4420Y869D01*
X421Y868D02*
X428Y868D01*
X4413Y868D02*
X4420Y868D01*
X421Y867D02*
X428Y867D01*
X4413Y867D02*
X4420Y867D01*
X421Y866D02*
X428Y866D01*
X4413Y866D02*
X4420Y866D01*
X421Y865D02*
X428Y865D01*
X4413Y865D02*
X4420Y865D01*
X421Y864D02*
X428Y864D01*
X4413Y864D02*
X4420Y864D01*
X421Y863D02*
X428Y863D01*
X4413Y863D02*
X4420Y863D01*
X421Y862D02*
X428Y862D01*
X4413Y862D02*
X4420Y862D01*
X421Y861D02*
X428Y861D01*
X4413Y861D02*
X4420Y861D01*
X421Y860D02*
X428Y860D01*
X4413Y860D02*
X4420Y860D01*
X421Y859D02*
X428Y859D01*
X4413Y859D02*
X4420Y859D01*
X421Y858D02*
X428Y858D01*
X4413Y858D02*
X4420Y858D01*
X421Y857D02*
X428Y857D01*
X4413Y857D02*
X4420Y857D01*
X421Y856D02*
X428Y856D01*
X4413Y856D02*
X4420Y856D01*
X421Y855D02*
X428Y855D01*
X4413Y855D02*
X4420Y855D01*
X421Y854D02*
X428Y854D01*
X4413Y854D02*
X4420Y854D01*
X421Y853D02*
X428Y853D01*
X4413Y853D02*
X4420Y853D01*
X421Y852D02*
X428Y852D01*
X4413Y852D02*
X4420Y852D01*
X421Y851D02*
X428Y851D01*
X4413Y851D02*
X4420Y851D01*
X421Y850D02*
X428Y850D01*
X4413Y850D02*
X4420Y850D01*
X421Y849D02*
X428Y849D01*
X4413Y849D02*
X4420Y849D01*
X421Y848D02*
X428Y848D01*
X4413Y848D02*
X4420Y848D01*
X421Y847D02*
X428Y847D01*
X4413Y847D02*
X4420Y847D01*
X421Y846D02*
X428Y846D01*
X4413Y846D02*
X4420Y846D01*
X421Y845D02*
X428Y845D01*
X4413Y845D02*
X4420Y845D01*
X421Y844D02*
X428Y844D01*
X4413Y844D02*
X4420Y844D01*
X421Y843D02*
X428Y843D01*
X4413Y843D02*
X4420Y843D01*
X421Y842D02*
X428Y842D01*
X4413Y842D02*
X4420Y842D01*
X421Y841D02*
X428Y841D01*
X4413Y841D02*
X4420Y841D01*
X421Y840D02*
X428Y840D01*
X4413Y840D02*
X4420Y840D01*
X421Y839D02*
X428Y839D01*
X4413Y839D02*
X4420Y839D01*
X421Y838D02*
X428Y838D01*
X4413Y838D02*
X4420Y838D01*
X421Y837D02*
X428Y837D01*
X4413Y837D02*
X4420Y837D01*
X421Y836D02*
X428Y836D01*
X4413Y836D02*
X4420Y836D01*
X421Y835D02*
X428Y835D01*
X4413Y835D02*
X4420Y835D01*
X421Y834D02*
X428Y834D01*
X4413Y834D02*
X4420Y834D01*
X421Y833D02*
X428Y833D01*
X4413Y833D02*
X4420Y833D01*
X421Y832D02*
X428Y832D01*
X4413Y832D02*
X4420Y832D01*
X421Y831D02*
X428Y831D01*
X4413Y831D02*
X4420Y831D01*
X421Y830D02*
X428Y830D01*
X4413Y830D02*
X4420Y830D01*
X421Y829D02*
X428Y829D01*
X4413Y829D02*
X4420Y829D01*
X421Y828D02*
X428Y828D01*
X4413Y828D02*
X4420Y828D01*
X421Y827D02*
X428Y827D01*
X4413Y827D02*
X4420Y827D01*
X421Y826D02*
X428Y826D01*
X4413Y826D02*
X4420Y826D01*
X421Y825D02*
X428Y825D01*
X4413Y825D02*
X4420Y825D01*
X421Y824D02*
X428Y824D01*
X4413Y824D02*
X4420Y824D01*
X421Y823D02*
X428Y823D01*
X4413Y823D02*
X4420Y823D01*
X421Y822D02*
X428Y822D01*
X4413Y822D02*
X4420Y822D01*
X421Y821D02*
X428Y821D01*
X4413Y821D02*
X4420Y821D01*
X421Y820D02*
X428Y820D01*
X4413Y820D02*
X4420Y820D01*
X421Y819D02*
X428Y819D01*
X4413Y819D02*
X4420Y819D01*
X421Y818D02*
X428Y818D01*
X4413Y818D02*
X4420Y818D01*
X421Y817D02*
X428Y817D01*
X4413Y817D02*
X4420Y817D01*
X421Y816D02*
X428Y816D01*
X4413Y816D02*
X4420Y816D01*
X421Y815D02*
X428Y815D01*
X4413Y815D02*
X4420Y815D01*
X421Y814D02*
X428Y814D01*
X4413Y814D02*
X4420Y814D01*
X421Y813D02*
X428Y813D01*
X4413Y813D02*
X4420Y813D01*
X421Y812D02*
X428Y812D01*
X4413Y812D02*
X4420Y812D01*
X421Y811D02*
X428Y811D01*
X4413Y811D02*
X4420Y811D01*
X421Y810D02*
X428Y810D01*
X4413Y810D02*
X4420Y810D01*
X421Y809D02*
X428Y809D01*
X4413Y809D02*
X4420Y809D01*
X421Y808D02*
X428Y808D01*
X4413Y808D02*
X4420Y808D01*
X421Y807D02*
X428Y807D01*
X4413Y807D02*
X4420Y807D01*
X421Y806D02*
X428Y806D01*
X4413Y806D02*
X4420Y806D01*
X421Y805D02*
X428Y805D01*
X4413Y805D02*
X4420Y805D01*
X421Y804D02*
X428Y804D01*
X4413Y804D02*
X4420Y804D01*
X421Y803D02*
X428Y803D01*
X4413Y803D02*
X4420Y803D01*
X421Y802D02*
X428Y802D01*
X4413Y802D02*
X4420Y802D01*
X421Y801D02*
X428Y801D01*
X4413Y801D02*
X4420Y801D01*
X421Y800D02*
X428Y800D01*
X4413Y800D02*
X4420Y800D01*
X421Y799D02*
X428Y799D01*
X4413Y799D02*
X4420Y799D01*
X421Y798D02*
X428Y798D01*
X4413Y798D02*
X4420Y798D01*
X421Y797D02*
X428Y797D01*
X4413Y797D02*
X4420Y797D01*
X421Y796D02*
X428Y796D01*
X4413Y796D02*
X4420Y796D01*
X421Y795D02*
X428Y795D01*
X4413Y795D02*
X4420Y795D01*
X421Y794D02*
X428Y794D01*
X4413Y794D02*
X4420Y794D01*
X421Y793D02*
X428Y793D01*
X4413Y793D02*
X4420Y793D01*
X421Y792D02*
X428Y792D01*
X4413Y792D02*
X4420Y792D01*
X421Y791D02*
X428Y791D01*
X4413Y791D02*
X4420Y791D01*
X421Y790D02*
X428Y790D01*
X4413Y790D02*
X4420Y790D01*
X421Y789D02*
X428Y789D01*
X4413Y789D02*
X4420Y789D01*
X421Y788D02*
X428Y788D01*
X4413Y788D02*
X4420Y788D01*
X421Y787D02*
X428Y787D01*
X4413Y787D02*
X4420Y787D01*
X421Y786D02*
X428Y786D01*
X4413Y786D02*
X4420Y786D01*
X421Y785D02*
X428Y785D01*
X4413Y785D02*
X4420Y785D01*
X421Y784D02*
X428Y784D01*
X4413Y784D02*
X4420Y784D01*
X421Y783D02*
X428Y783D01*
X4413Y783D02*
X4420Y783D01*
X421Y782D02*
X428Y782D01*
X4413Y782D02*
X4420Y782D01*
X421Y781D02*
X428Y781D01*
X4413Y781D02*
X4420Y781D01*
X421Y780D02*
X428Y780D01*
X4413Y780D02*
X4420Y780D01*
X421Y779D02*
X428Y779D01*
X4413Y779D02*
X4420Y779D01*
X421Y778D02*
X428Y778D01*
X4413Y778D02*
X4420Y778D01*
X421Y777D02*
X428Y777D01*
X4413Y777D02*
X4420Y777D01*
X421Y776D02*
X428Y776D01*
X4413Y776D02*
X4420Y776D01*
X421Y775D02*
X428Y775D01*
X4413Y775D02*
X4420Y775D01*
X421Y774D02*
X428Y774D01*
X4413Y774D02*
X4420Y774D01*
X421Y773D02*
X428Y773D01*
X4413Y773D02*
X4420Y773D01*
X421Y772D02*
X428Y772D01*
X4413Y772D02*
X4420Y772D01*
X421Y771D02*
X428Y771D01*
X4413Y771D02*
X4420Y771D01*
X421Y770D02*
X428Y770D01*
X4413Y770D02*
X4420Y770D01*
X421Y769D02*
X428Y769D01*
X4413Y769D02*
X4420Y769D01*
X421Y768D02*
X428Y768D01*
X4413Y768D02*
X4420Y768D01*
X421Y767D02*
X428Y767D01*
X4413Y767D02*
X4420Y767D01*
X421Y766D02*
X428Y766D01*
X4413Y766D02*
X4420Y766D01*
X421Y765D02*
X428Y765D01*
X4413Y765D02*
X4420Y765D01*
X421Y764D02*
X428Y764D01*
X4413Y764D02*
X4420Y764D01*
X421Y763D02*
X428Y763D01*
X4413Y763D02*
X4420Y763D01*
X421Y762D02*
X428Y762D01*
X4413Y762D02*
X4420Y762D01*
X421Y761D02*
X428Y761D01*
X4413Y761D02*
X4420Y761D01*
X421Y760D02*
X428Y760D01*
X4413Y760D02*
X4420Y760D01*
X421Y759D02*
X428Y759D01*
X4413Y759D02*
X4420Y759D01*
X421Y758D02*
X428Y758D01*
X4413Y758D02*
X4420Y758D01*
X421Y757D02*
X428Y757D01*
X4413Y757D02*
X4420Y757D01*
X421Y756D02*
X428Y756D01*
X4413Y756D02*
X4420Y756D01*
X421Y755D02*
X428Y755D01*
X4413Y755D02*
X4420Y755D01*
X421Y754D02*
X428Y754D01*
X4413Y754D02*
X4420Y754D01*
X421Y753D02*
X428Y753D01*
X4413Y753D02*
X4420Y753D01*
X421Y752D02*
X428Y752D01*
X4413Y752D02*
X4420Y752D01*
X421Y751D02*
X428Y751D01*
X4413Y751D02*
X4420Y751D01*
X421Y750D02*
X428Y750D01*
X4413Y750D02*
X4420Y750D01*
X421Y749D02*
X428Y749D01*
X4413Y749D02*
X4420Y749D01*
X421Y748D02*
X428Y748D01*
X4413Y748D02*
X4420Y748D01*
X421Y747D02*
X428Y747D01*
X4413Y747D02*
X4420Y747D01*
X421Y746D02*
X428Y746D01*
X4413Y746D02*
X4420Y746D01*
X421Y745D02*
X428Y745D01*
X4413Y745D02*
X4420Y745D01*
X421Y744D02*
X428Y744D01*
X4413Y744D02*
X4420Y744D01*
X421Y743D02*
X428Y743D01*
X4413Y743D02*
X4420Y743D01*
X421Y742D02*
X428Y742D01*
X4413Y742D02*
X4420Y742D01*
X421Y741D02*
X428Y741D01*
X4413Y741D02*
X4420Y741D01*
X421Y740D02*
X428Y740D01*
X4413Y740D02*
X4420Y740D01*
X421Y739D02*
X428Y739D01*
X4413Y739D02*
X4420Y739D01*
X421Y738D02*
X428Y738D01*
X4413Y738D02*
X4420Y738D01*
X421Y737D02*
X428Y737D01*
X4413Y737D02*
X4420Y737D01*
X421Y736D02*
X428Y736D01*
X4413Y736D02*
X4420Y736D01*
X421Y735D02*
X428Y735D01*
X4413Y735D02*
X4420Y735D01*
X421Y734D02*
X428Y734D01*
X4413Y734D02*
X4420Y734D01*
X421Y733D02*
X428Y733D01*
X4413Y733D02*
X4420Y733D01*
X421Y732D02*
X428Y732D01*
X4413Y732D02*
X4420Y732D01*
X421Y731D02*
X428Y731D01*
X4413Y731D02*
X4420Y731D01*
X421Y730D02*
X428Y730D01*
X4413Y730D02*
X4420Y730D01*
X421Y729D02*
X428Y729D01*
X4413Y729D02*
X4420Y729D01*
X421Y728D02*
X428Y728D01*
X4413Y728D02*
X4420Y728D01*
X421Y727D02*
X428Y727D01*
X4413Y727D02*
X4420Y727D01*
X421Y726D02*
X428Y726D01*
X4413Y726D02*
X4420Y726D01*
X421Y725D02*
X428Y725D01*
X4413Y725D02*
X4420Y725D01*
X421Y724D02*
X428Y724D01*
X4413Y724D02*
X4420Y724D01*
X421Y723D02*
X428Y723D01*
X4413Y723D02*
X4420Y723D01*
X421Y722D02*
X428Y722D01*
X4413Y722D02*
X4420Y722D01*
X421Y721D02*
X428Y721D01*
X4413Y721D02*
X4420Y721D01*
X421Y720D02*
X428Y720D01*
X4413Y720D02*
X4420Y720D01*
X421Y719D02*
X428Y719D01*
X4413Y719D02*
X4420Y719D01*
X421Y718D02*
X428Y718D01*
X4413Y718D02*
X4420Y718D01*
X421Y717D02*
X428Y717D01*
X4413Y717D02*
X4420Y717D01*
X421Y716D02*
X428Y716D01*
X4413Y716D02*
X4420Y716D01*
X421Y715D02*
X428Y715D01*
X4413Y715D02*
X4420Y715D01*
X421Y714D02*
X428Y714D01*
X4413Y714D02*
X4420Y714D01*
X421Y713D02*
X428Y713D01*
X4413Y713D02*
X4420Y713D01*
X421Y712D02*
X428Y712D01*
X4413Y712D02*
X4420Y712D01*
X421Y711D02*
X428Y711D01*
X4413Y711D02*
X4420Y711D01*
X421Y710D02*
X428Y710D01*
X4413Y710D02*
X4420Y710D01*
X421Y709D02*
X428Y709D01*
X4413Y709D02*
X4420Y709D01*
X421Y708D02*
X428Y708D01*
X4413Y708D02*
X4420Y708D01*
X421Y707D02*
X428Y707D01*
X4413Y707D02*
X4420Y707D01*
X421Y706D02*
X428Y706D01*
X4413Y706D02*
X4420Y706D01*
X421Y705D02*
X428Y705D01*
X4413Y705D02*
X4420Y705D01*
X421Y704D02*
X428Y704D01*
X4413Y704D02*
X4420Y704D01*
X421Y703D02*
X428Y703D01*
X4413Y703D02*
X4420Y703D01*
X421Y702D02*
X428Y702D01*
X4413Y702D02*
X4420Y702D01*
X421Y701D02*
X428Y701D01*
X4413Y701D02*
X4420Y701D01*
X421Y700D02*
X428Y700D01*
X4413Y700D02*
X4420Y700D01*
X421Y699D02*
X428Y699D01*
X4413Y699D02*
X4420Y699D01*
X421Y698D02*
X428Y698D01*
X4413Y698D02*
X4420Y698D01*
X421Y697D02*
X428Y697D01*
X4413Y697D02*
X4420Y697D01*
X421Y696D02*
X428Y696D01*
X4413Y696D02*
X4420Y696D01*
X421Y695D02*
X428Y695D01*
X4413Y695D02*
X4420Y695D01*
X421Y694D02*
X428Y694D01*
X4413Y694D02*
X4420Y694D01*
X421Y693D02*
X428Y693D01*
X4413Y693D02*
X4420Y693D01*
X421Y692D02*
X428Y692D01*
X4413Y692D02*
X4420Y692D01*
X421Y691D02*
X428Y691D01*
X4413Y691D02*
X4420Y691D01*
X421Y690D02*
X428Y690D01*
X4413Y690D02*
X4420Y690D01*
X421Y689D02*
X428Y689D01*
X4413Y689D02*
X4420Y689D01*
X421Y688D02*
X428Y688D01*
X4413Y688D02*
X4420Y688D01*
X421Y687D02*
X428Y687D01*
X4413Y687D02*
X4420Y687D01*
X421Y686D02*
X428Y686D01*
X4413Y686D02*
X4420Y686D01*
X421Y685D02*
X428Y685D01*
X4413Y685D02*
X4420Y685D01*
X421Y684D02*
X428Y684D01*
X4413Y684D02*
X4420Y684D01*
X421Y683D02*
X428Y683D01*
X4413Y683D02*
X4420Y683D01*
X421Y682D02*
X428Y682D01*
X4413Y682D02*
X4420Y682D01*
X421Y681D02*
X428Y681D01*
X4413Y681D02*
X4420Y681D01*
X421Y680D02*
X428Y680D01*
X4413Y680D02*
X4420Y680D01*
X421Y679D02*
X428Y679D01*
X4413Y679D02*
X4420Y679D01*
X421Y678D02*
X428Y678D01*
X4413Y678D02*
X4420Y678D01*
X421Y677D02*
X428Y677D01*
X4413Y677D02*
X4420Y677D01*
X421Y676D02*
X428Y676D01*
X4413Y676D02*
X4420Y676D01*
X421Y675D02*
X428Y675D01*
X4413Y675D02*
X4420Y675D01*
X421Y674D02*
X428Y674D01*
X4413Y674D02*
X4420Y674D01*
X421Y673D02*
X428Y673D01*
X4413Y673D02*
X4420Y673D01*
X421Y672D02*
X428Y672D01*
X4413Y672D02*
X4420Y672D01*
X421Y671D02*
X428Y671D01*
X4413Y671D02*
X4420Y671D01*
X421Y670D02*
X428Y670D01*
X4413Y670D02*
X4420Y670D01*
X421Y669D02*
X428Y669D01*
X4413Y669D02*
X4420Y669D01*
X421Y668D02*
X428Y668D01*
X4413Y668D02*
X4420Y668D01*
X421Y667D02*
X428Y667D01*
X4413Y667D02*
X4420Y667D01*
X421Y666D02*
X428Y666D01*
X4413Y666D02*
X4420Y666D01*
X421Y665D02*
X429Y665D01*
X4413Y665D02*
X4420Y665D01*
X421Y664D02*
X430Y664D01*
X4413Y664D02*
X4420Y664D01*
X421Y663D02*
X431Y663D01*
X4413Y663D02*
X4420Y663D01*
X422Y662D02*
X432Y662D01*
X4413Y662D02*
X4420Y662D01*
X423Y661D02*
X433Y661D01*
X4413Y661D02*
X4420Y661D01*
X424Y660D02*
X434Y660D01*
X4413Y660D02*
X4420Y660D01*
X425Y659D02*
X435Y659D01*
X4413Y659D02*
X4420Y659D01*
X426Y658D02*
X436Y658D01*
X4413Y658D02*
X4420Y658D01*
X427Y657D02*
X437Y657D01*
X4413Y657D02*
X4420Y657D01*
X428Y656D02*
X438Y656D01*
X4413Y656D02*
X4420Y656D01*
X429Y655D02*
X439Y655D01*
X4413Y655D02*
X4420Y655D01*
X430Y654D02*
X440Y654D01*
X4413Y654D02*
X4420Y654D01*
X431Y653D02*
X441Y653D01*
X4413Y653D02*
X4420Y653D01*
X432Y652D02*
X442Y652D01*
X4413Y652D02*
X4420Y652D01*
X433Y651D02*
X443Y651D01*
X4413Y651D02*
X4420Y651D01*
X434Y650D02*
X444Y650D01*
X4413Y650D02*
X4420Y650D01*
X435Y649D02*
X445Y649D01*
X4413Y649D02*
X4420Y649D01*
X436Y648D02*
X446Y648D01*
X4413Y648D02*
X4420Y648D01*
X437Y647D02*
X447Y647D01*
X4413Y647D02*
X4420Y647D01*
X438Y646D02*
X448Y646D01*
X4413Y646D02*
X4420Y646D01*
X439Y645D02*
X449Y645D01*
X4413Y645D02*
X4420Y645D01*
X440Y644D02*
X450Y644D01*
X4413Y644D02*
X4420Y644D01*
X441Y643D02*
X451Y643D01*
X4413Y643D02*
X4420Y643D01*
X442Y642D02*
X452Y642D01*
X4413Y642D02*
X4420Y642D01*
X443Y641D02*
X453Y641D01*
X4413Y641D02*
X4420Y641D01*
X444Y640D02*
X454Y640D01*
X4413Y640D02*
X4420Y640D01*
X445Y639D02*
X455Y639D01*
X4413Y639D02*
X4420Y639D01*
X446Y638D02*
X456Y638D01*
X4413Y638D02*
X4420Y638D01*
X447Y637D02*
X457Y637D01*
X4413Y637D02*
X4420Y637D01*
X448Y636D02*
X458Y636D01*
X4413Y636D02*
X4420Y636D01*
X449Y635D02*
X459Y635D01*
X4413Y635D02*
X4420Y635D01*
X450Y634D02*
X460Y634D01*
X4413Y634D02*
X4420Y634D01*
X451Y633D02*
X461Y633D01*
X4413Y633D02*
X4420Y633D01*
X452Y632D02*
X462Y632D01*
X4413Y632D02*
X4420Y632D01*
X453Y631D02*
X463Y631D01*
X4413Y631D02*
X4420Y631D01*
X454Y630D02*
X464Y630D01*
X4413Y630D02*
X4420Y630D01*
X455Y629D02*
X465Y629D01*
X4413Y629D02*
X4420Y629D01*
X456Y628D02*
X466Y628D01*
X4413Y628D02*
X4420Y628D01*
X457Y627D02*
X467Y627D01*
X4413Y627D02*
X4420Y627D01*
X458Y626D02*
X468Y626D01*
X4413Y626D02*
X4420Y626D01*
X459Y625D02*
X469Y625D01*
X4413Y625D02*
X4420Y625D01*
X460Y624D02*
X470Y624D01*
X4413Y624D02*
X4420Y624D01*
X461Y623D02*
X471Y623D01*
X4413Y623D02*
X4420Y623D01*
X462Y622D02*
X472Y622D01*
X4413Y622D02*
X4420Y622D01*
X463Y621D02*
X473Y621D01*
X4413Y621D02*
X4420Y621D01*
X464Y620D02*
X474Y620D01*
X4413Y620D02*
X4420Y620D01*
X465Y619D02*
X475Y619D01*
X4413Y619D02*
X4420Y619D01*
X466Y618D02*
X476Y618D01*
X4413Y618D02*
X4420Y618D01*
X467Y617D02*
X477Y617D01*
X4413Y617D02*
X4420Y617D01*
X468Y616D02*
X478Y616D01*
X4413Y616D02*
X4420Y616D01*
X469Y615D02*
X479Y615D01*
X4413Y615D02*
X4420Y615D01*
X470Y614D02*
X480Y614D01*
X4413Y614D02*
X4420Y614D01*
X471Y613D02*
X481Y613D01*
X4413Y613D02*
X4420Y613D01*
X472Y612D02*
X482Y612D01*
X4413Y612D02*
X4420Y612D01*
X473Y611D02*
X483Y611D01*
X4413Y611D02*
X4420Y611D01*
X474Y610D02*
X484Y610D01*
X4413Y610D02*
X4420Y610D01*
X475Y609D02*
X485Y609D01*
X4413Y609D02*
X4420Y609D01*
X476Y608D02*
X486Y608D01*
X4413Y608D02*
X4420Y608D01*
X477Y607D02*
X487Y607D01*
X4413Y607D02*
X4420Y607D01*
X478Y606D02*
X488Y606D01*
X4413Y606D02*
X4420Y606D01*
X479Y605D02*
X489Y605D01*
X4413Y605D02*
X4420Y605D01*
X480Y604D02*
X490Y604D01*
X4413Y604D02*
X4420Y604D01*
X481Y603D02*
X491Y603D01*
X4413Y603D02*
X4420Y603D01*
X482Y602D02*
X492Y602D01*
X4413Y602D02*
X4420Y602D01*
X483Y601D02*
X493Y601D01*
X4413Y601D02*
X4420Y601D01*
X484Y600D02*
X494Y600D01*
X4413Y600D02*
X4420Y600D01*
X485Y599D02*
X495Y599D01*
X4413Y599D02*
X4420Y599D01*
X486Y598D02*
X496Y598D01*
X4413Y598D02*
X4420Y598D01*
X487Y597D02*
X497Y597D01*
X4413Y597D02*
X4420Y597D01*
X488Y596D02*
X498Y596D01*
X4413Y596D02*
X4420Y596D01*
X489Y595D02*
X499Y595D01*
X4413Y595D02*
X4420Y595D01*
X490Y594D02*
X500Y594D01*
X4413Y594D02*
X4420Y594D01*
X491Y593D02*
X501Y593D01*
X4413Y593D02*
X4420Y593D01*
X492Y592D02*
X502Y592D01*
X4413Y592D02*
X4420Y592D01*
X493Y591D02*
X503Y591D01*
X4413Y591D02*
X4420Y591D01*
X494Y590D02*
X504Y590D01*
X4413Y590D02*
X4420Y590D01*
X495Y589D02*
X505Y589D01*
X4413Y589D02*
X4420Y589D01*
X496Y588D02*
X506Y588D01*
X4413Y588D02*
X4420Y588D01*
X497Y587D02*
X507Y587D01*
X4413Y587D02*
X4420Y587D01*
X498Y586D02*
X508Y586D01*
X4413Y586D02*
X4420Y586D01*
X499Y585D02*
X509Y585D01*
X4413Y585D02*
X4420Y585D01*
X500Y584D02*
X510Y584D01*
X4413Y584D02*
X4420Y584D01*
X501Y583D02*
X511Y583D01*
X4413Y583D02*
X4420Y583D01*
X502Y582D02*
X512Y582D01*
X4413Y582D02*
X4420Y582D01*
X503Y581D02*
X513Y581D01*
X4413Y581D02*
X4420Y581D01*
X504Y580D02*
X514Y580D01*
X4413Y580D02*
X4420Y580D01*
X505Y579D02*
X515Y579D01*
X4413Y579D02*
X4420Y579D01*
X506Y578D02*
X516Y578D01*
X4413Y578D02*
X4420Y578D01*
X507Y577D02*
X517Y577D01*
X4413Y577D02*
X4420Y577D01*
X508Y576D02*
X518Y576D01*
X4413Y576D02*
X4420Y576D01*
X509Y575D02*
X519Y575D01*
X4413Y575D02*
X4420Y575D01*
X510Y574D02*
X520Y574D01*
X4413Y574D02*
X4420Y574D01*
X511Y573D02*
X521Y573D01*
X4413Y573D02*
X4420Y573D01*
X512Y572D02*
X522Y572D01*
X4413Y572D02*
X4420Y572D01*
X513Y571D02*
X523Y571D01*
X4413Y571D02*
X4420Y571D01*
X514Y570D02*
X524Y570D01*
X4413Y570D02*
X4420Y570D01*
X515Y569D02*
X525Y569D01*
X4413Y569D02*
X4420Y569D01*
X516Y568D02*
X526Y568D01*
X4413Y568D02*
X4420Y568D01*
X517Y567D02*
X527Y567D01*
X4413Y567D02*
X4420Y567D01*
X518Y566D02*
X528Y566D01*
X4413Y566D02*
X4420Y566D01*
X519Y565D02*
X528Y565D01*
X4413Y565D02*
X4420Y565D01*
X520Y564D02*
X528Y564D01*
X4413Y564D02*
X4420Y564D01*
X521Y563D02*
X528Y563D01*
X4413Y563D02*
X4420Y563D01*
X521Y562D02*
X528Y562D01*
X4413Y562D02*
X4420Y562D01*
X521Y561D02*
X528Y561D01*
X4413Y561D02*
X4420Y561D01*
X521Y560D02*
X528Y560D01*
X4413Y560D02*
X4420Y560D01*
X521Y559D02*
X528Y559D01*
X4413Y559D02*
X4420Y559D01*
X521Y558D02*
X528Y558D01*
X4413Y558D02*
X4420Y558D01*
X521Y557D02*
X528Y557D01*
X4413Y557D02*
X4420Y557D01*
X521Y556D02*
X528Y556D01*
X4413Y556D02*
X4420Y556D01*
X521Y555D02*
X528Y555D01*
X4413Y555D02*
X4420Y555D01*
X521Y554D02*
X528Y554D01*
X4413Y554D02*
X4421Y554D01*
X521Y553D02*
X528Y553D01*
X4413Y553D02*
X4420Y553D01*
X521Y552D02*
X528Y552D01*
X4413Y552D02*
X4420Y552D01*
X521Y551D02*
X528Y551D01*
X4414Y551D02*
X4421Y551D01*
X521Y550D02*
X528Y550D01*
X4414Y550D02*
X4421Y550D01*
X521Y549D02*
X528Y549D01*
X4414Y549D02*
X4421Y549D01*
X521Y548D02*
X528Y548D01*
X4413Y548D02*
X4420Y548D01*
X521Y547D02*
X528Y547D01*
X4413Y547D02*
X4420Y547D01*
X521Y546D02*
X528Y546D01*
X4413Y546D02*
X4420Y546D01*
X521Y545D02*
X528Y545D01*
X4413Y545D02*
X4420Y545D01*
X521Y544D02*
X528Y544D01*
X4413Y544D02*
X4420Y544D01*
X521Y543D02*
X528Y543D01*
X4413Y543D02*
X4420Y543D01*
X522Y542D02*
X529Y542D01*
X4413Y542D02*
X4420Y542D01*
X522Y541D02*
X529Y541D01*
X4412Y541D02*
X4420Y541D01*
X522Y540D02*
X529Y540D01*
X4412Y540D02*
X4419Y540D01*
X522Y539D02*
X530Y539D01*
X4412Y539D02*
X4419Y539D01*
X523Y538D02*
X530Y538D01*
X4411Y538D02*
X4419Y538D01*
X523Y537D02*
X531Y537D01*
X4411Y537D02*
X4418Y537D01*
X523Y536D02*
X531Y536D01*
X4410Y536D02*
X4418Y536D01*
X524Y535D02*
X532Y535D01*
X4410Y535D02*
X4418Y535D01*
X524Y534D02*
X532Y534D01*
X4409Y534D02*
X4417Y534D01*
X525Y533D02*
X533Y533D01*
X4409Y533D02*
X4417Y533D01*
X525Y532D02*
X533Y532D01*
X4408Y532D02*
X4416Y532D01*
X526Y531D02*
X534Y531D01*
X4407Y531D02*
X4416Y531D01*
X526Y530D02*
X535Y530D01*
X4407Y530D02*
X4415Y530D01*
X527Y529D02*
X536Y529D01*
X4406Y529D02*
X4414Y529D01*
X527Y528D02*
X537Y528D01*
X4405Y528D02*
X4414Y528D01*
X528Y527D02*
X538Y527D01*
X4404Y527D02*
X4413Y527D01*
X529Y526D02*
X539Y526D01*
X4403Y526D02*
X4412Y526D01*
X530Y525D02*
X540Y525D01*
X4401Y525D02*
X4412Y525D01*
X531Y524D02*
X541Y524D01*
X4400Y524D02*
X4411Y524D01*
X531Y523D02*
X543Y523D01*
X4398Y523D02*
X4410Y523D01*
X532Y522D02*
X545Y522D01*
X4397Y522D02*
X4409Y522D01*
X533Y521D02*
X547Y521D01*
X4395Y521D02*
X4408Y521D01*
X535Y520D02*
X549Y520D01*
X4392Y520D02*
X4407Y520D01*
X536Y519D02*
X554Y519D01*
X4388Y519D02*
X4406Y519D01*
X537Y518D02*
X4404Y518D01*
X539Y517D02*
X4403Y517D01*
X540Y516D02*
X4401Y516D01*
X542Y515D02*
X4399Y515D01*
X544Y514D02*
X4397Y514D01*
X547Y513D02*
X4395Y513D01*
X550Y512D02*
X4392Y512D01*
X554Y511D02*
X4387Y511D01*
X2462Y490D02*
X2464Y490D01*
X2485Y490D02*
X2488Y490D01*
X2504Y490D02*
X2520Y490D01*
X2545Y490D02*
X2553Y490D01*
X2567Y490D02*
X2574Y490D01*
X2461Y489D02*
X2465Y489D01*
X2484Y489D02*
X2489Y489D01*
X2503Y489D02*
X2521Y489D01*
X2545Y489D02*
X2553Y489D01*
X2566Y489D02*
X2574Y489D01*
X2461Y488D02*
X2465Y488D01*
X2484Y488D02*
X2489Y488D01*
X2503Y488D02*
X2523Y488D01*
X2545Y488D02*
X2554Y488D01*
X2566Y488D02*
X2574Y488D01*
X2460Y487D02*
X2465Y487D01*
X2484Y487D02*
X2489Y487D01*
X2503Y487D02*
X2523Y487D01*
X2545Y487D02*
X2555Y487D01*
X2565Y487D02*
X2574Y487D01*
X2460Y486D02*
X2465Y486D01*
X2484Y486D02*
X2489Y486D01*
X2504Y486D02*
X2524Y486D01*
X2545Y486D02*
X2555Y486D01*
X2564Y486D02*
X2574Y486D01*
X2460Y485D02*
X2465Y485D01*
X2484Y485D02*
X2489Y485D01*
X2505Y485D02*
X2524Y485D01*
X2545Y485D02*
X2556Y485D01*
X2563Y485D02*
X2574Y485D01*
X2460Y484D02*
X2465Y484D01*
X2484Y484D02*
X2489Y484D01*
X2519Y484D02*
X2525Y484D01*
X2545Y484D02*
X2557Y484D01*
X2563Y484D02*
X2574Y484D01*
X2460Y483D02*
X2465Y483D01*
X2484Y483D02*
X2489Y483D01*
X2520Y483D02*
X2525Y483D01*
X2545Y483D02*
X2557Y483D01*
X2562Y483D02*
X2574Y483D01*
X2460Y482D02*
X2465Y482D01*
X2484Y482D02*
X2489Y482D01*
X2520Y482D02*
X2526Y482D01*
X2545Y482D02*
X2558Y482D01*
X2561Y482D02*
X2574Y482D01*
X2460Y481D02*
X2465Y481D01*
X2484Y481D02*
X2489Y481D01*
X2521Y481D02*
X2526Y481D01*
X2545Y481D02*
X2550Y481D01*
X2553Y481D02*
X2559Y481D01*
X2561Y481D02*
X2567Y481D01*
X2569Y481D02*
X2574Y481D01*
X2460Y480D02*
X2465Y480D01*
X2484Y480D02*
X2489Y480D01*
X2521Y480D02*
X2527Y480D01*
X2545Y480D02*
X2550Y480D01*
X2553Y480D02*
X2566Y480D01*
X2569Y480D02*
X2574Y480D01*
X2460Y479D02*
X2465Y479D01*
X2484Y479D02*
X2489Y479D01*
X2522Y479D02*
X2527Y479D01*
X2545Y479D02*
X2550Y479D01*
X2554Y479D02*
X2566Y479D01*
X2569Y479D02*
X2574Y479D01*
X2460Y478D02*
X2465Y478D01*
X2484Y478D02*
X2489Y478D01*
X2522Y478D02*
X2528Y478D01*
X2545Y478D02*
X2550Y478D01*
X2555Y478D02*
X2565Y478D01*
X2569Y478D02*
X2574Y478D01*
X2460Y477D02*
X2465Y477D01*
X2484Y477D02*
X2489Y477D01*
X2523Y477D02*
X2528Y477D01*
X2545Y477D02*
X2550Y477D01*
X2555Y477D02*
X2564Y477D01*
X2569Y477D02*
X2574Y477D01*
X2460Y476D02*
X2465Y476D01*
X2484Y476D02*
X2489Y476D01*
X2523Y476D02*
X2529Y476D01*
X2545Y476D02*
X2550Y476D01*
X2556Y476D02*
X2563Y476D01*
X2569Y476D02*
X2574Y476D01*
X2460Y475D02*
X2465Y475D01*
X2484Y475D02*
X2489Y475D01*
X2524Y475D02*
X2529Y475D01*
X2545Y475D02*
X2550Y475D01*
X2557Y475D02*
X2563Y475D01*
X2569Y475D02*
X2574Y475D01*
X2460Y474D02*
X2465Y474D01*
X2484Y474D02*
X2489Y474D01*
X2524Y474D02*
X2530Y474D01*
X2545Y474D02*
X2550Y474D01*
X2557Y474D02*
X2562Y474D01*
X2569Y474D02*
X2574Y474D01*
X2460Y473D02*
X2465Y473D01*
X2484Y473D02*
X2489Y473D01*
X2525Y473D02*
X2530Y473D01*
X2545Y473D02*
X2550Y473D01*
X2557Y473D02*
X2562Y473D01*
X2569Y473D02*
X2574Y473D01*
X2460Y472D02*
X2465Y472D01*
X2484Y472D02*
X2489Y472D01*
X2525Y472D02*
X2531Y472D01*
X2545Y472D02*
X2550Y472D01*
X2557Y472D02*
X2562Y472D01*
X2569Y472D02*
X2574Y472D01*
X2460Y471D02*
X2465Y471D01*
X2484Y471D02*
X2489Y471D01*
X2526Y471D02*
X2531Y471D01*
X2545Y471D02*
X2550Y471D01*
X2558Y471D02*
X2562Y471D01*
X2569Y471D02*
X2574Y471D01*
X2460Y470D02*
X2465Y470D01*
X2484Y470D02*
X2489Y470D01*
X2526Y470D02*
X2531Y470D01*
X2545Y470D02*
X2550Y470D01*
X2559Y470D02*
X2560Y470D01*
X2569Y470D02*
X2574Y470D01*
X2460Y469D02*
X2465Y469D01*
X2484Y469D02*
X2489Y469D01*
X2526Y469D02*
X2531Y469D01*
X2545Y469D02*
X2550Y469D01*
X2569Y469D02*
X2574Y469D01*
X2460Y468D02*
X2465Y468D01*
X2484Y468D02*
X2489Y468D01*
X2526Y468D02*
X2531Y468D01*
X2545Y468D02*
X2550Y468D01*
X2569Y468D02*
X2574Y468D01*
X2460Y467D02*
X2465Y467D01*
X2484Y467D02*
X2489Y467D01*
X2526Y467D02*
X2531Y467D01*
X2545Y467D02*
X2550Y467D01*
X2569Y467D02*
X2574Y467D01*
X2460Y466D02*
X2465Y466D01*
X2484Y466D02*
X2489Y466D01*
X2526Y466D02*
X2531Y466D01*
X2545Y466D02*
X2550Y466D01*
X2569Y466D02*
X2574Y466D01*
X2460Y465D02*
X2465Y465D01*
X2484Y465D02*
X2489Y465D01*
X2526Y465D02*
X2531Y465D01*
X2545Y465D02*
X2550Y465D01*
X2569Y465D02*
X2574Y465D01*
X2460Y464D02*
X2465Y464D01*
X2484Y464D02*
X2489Y464D01*
X2525Y464D02*
X2531Y464D01*
X2545Y464D02*
X2550Y464D01*
X2569Y464D02*
X2574Y464D01*
X2460Y463D02*
X2465Y463D01*
X2484Y463D02*
X2489Y463D01*
X2525Y463D02*
X2530Y463D01*
X2545Y463D02*
X2550Y463D01*
X2569Y463D02*
X2574Y463D01*
X2460Y462D02*
X2465Y462D01*
X2484Y462D02*
X2489Y462D01*
X2524Y462D02*
X2530Y462D01*
X2545Y462D02*
X2550Y462D01*
X2569Y462D02*
X2574Y462D01*
X2460Y461D02*
X2465Y461D01*
X2484Y461D02*
X2489Y461D01*
X2524Y461D02*
X2530Y461D01*
X2545Y461D02*
X2550Y461D01*
X2569Y461D02*
X2574Y461D01*
X2460Y460D02*
X2465Y460D01*
X2484Y460D02*
X2489Y460D01*
X2523Y460D02*
X2529Y460D01*
X2545Y460D02*
X2550Y460D01*
X2569Y460D02*
X2574Y460D01*
X2460Y459D02*
X2465Y459D01*
X2484Y459D02*
X2489Y459D01*
X2523Y459D02*
X2529Y459D01*
X2545Y459D02*
X2550Y459D01*
X2569Y459D02*
X2574Y459D01*
X2460Y458D02*
X2465Y458D01*
X2484Y458D02*
X2489Y458D01*
X2522Y458D02*
X2528Y458D01*
X2545Y458D02*
X2550Y458D01*
X2569Y458D02*
X2574Y458D01*
X2460Y457D02*
X2465Y457D01*
X2484Y457D02*
X2489Y457D01*
X2522Y457D02*
X2528Y457D01*
X2545Y457D02*
X2550Y457D01*
X2569Y457D02*
X2574Y457D01*
X2460Y456D02*
X2465Y456D01*
X2484Y456D02*
X2489Y456D01*
X2521Y456D02*
X2527Y456D01*
X2545Y456D02*
X2550Y456D01*
X2569Y456D02*
X2574Y456D01*
X2460Y455D02*
X2465Y455D01*
X2484Y455D02*
X2489Y455D01*
X2521Y455D02*
X2527Y455D01*
X2545Y455D02*
X2550Y455D01*
X2569Y455D02*
X2574Y455D01*
X2460Y454D02*
X2465Y454D01*
X2484Y454D02*
X2489Y454D01*
X2520Y454D02*
X2526Y454D01*
X2545Y454D02*
X2550Y454D01*
X2569Y454D02*
X2574Y454D01*
X2461Y453D02*
X2466Y453D01*
X2484Y453D02*
X2489Y453D01*
X2520Y453D02*
X2526Y453D01*
X2545Y453D02*
X2550Y453D01*
X2569Y453D02*
X2574Y453D01*
X2461Y452D02*
X2466Y452D01*
X2483Y452D02*
X2489Y452D01*
X2519Y452D02*
X2525Y452D01*
X2545Y452D02*
X2550Y452D01*
X2569Y452D02*
X2574Y452D01*
X2461Y451D02*
X2467Y451D01*
X2482Y451D02*
X2488Y451D01*
X2518Y451D02*
X2525Y451D01*
X2545Y451D02*
X2550Y451D01*
X2569Y451D02*
X2574Y451D01*
X2461Y450D02*
X2488Y450D01*
X2504Y450D02*
X2524Y450D01*
X2545Y450D02*
X2550Y450D01*
X2569Y450D02*
X2574Y450D01*
X2462Y449D02*
X2488Y449D01*
X2503Y449D02*
X2523Y449D01*
X2545Y449D02*
X2550Y449D01*
X2569Y449D02*
X2574Y449D01*
X2463Y448D02*
X2487Y448D01*
X2503Y448D02*
X2523Y448D01*
X2546Y448D02*
X2550Y448D01*
X2569Y448D02*
X2574Y448D01*
X2464Y447D02*
X2486Y447D01*
X2503Y447D02*
X2522Y447D01*
X2546Y447D02*
X2550Y447D01*
X2569Y447D02*
X2574Y447D01*
X2465Y446D02*
X2484Y446D01*
X2504Y446D02*
X2520Y446D01*
X2546Y446D02*
X2550Y446D01*
X2570Y446D02*
X2573Y446D01*
X2467Y445D02*
X2482Y445D01*
X2505Y445D02*
X2518Y445D01*
X2547Y445D02*
X2549Y445D01*
X2571Y445D02*
X2572Y445D01*
D02*
G04 End of Silk0*
M02*