  0
SECTION
  2
HEADER
  9
$ACADVER
  1
AC1014
  9
$ACADMAINTVER
 70
     9
  9
$DWGCODEPAGE
  3
ANSI_1252
  9
$INSBASE
 10
0.0
 20
0.0
 30
0.0
  9
$EXTMIN
 10
1.000000000000000E+20
 20
1.000000000000000E+20
 30
1.000000000000000E+20
  9
$EXTMAX
 10
-1.000000000000000E+20
 20
-1.000000000000000E+20
 30
-1.000000000000000E+20
  9
$LIMMIN
 10
0.0
 20
0.0
  9
$LIMMAX
 10
12.0
 20
9.0
  9
$ORTHOMODE
 70
     0
  9
$REGENMODE
 70
     1
  9
$FILLMODE
 70
     1
  9
$QTEXTMODE
 70
     0
  9
$MIRRTEXT
 70
     1
  9
$DRAGMODE
 70
     2
  9
$LTSCALE
 40
1.0
  9
$OSMODE
 70
    37
  9
$ATTMODE
 70
     1
  9
$TEXTSIZE
 40
0.2
  9
$TRACEWID
 40
0.05
  9
$TEXTSTYLE
  7
STANDARD
  9
$CLAYER
  8
0
  9
$CELTYPE
  6
BYLAYER
  9
$CECOLOR
 62
   256
  9
$CELTSCALE
 40
1.0
  9
$DELOBJ
 70
     1
  9
$DISPSILH
 70
     0
  9
$DIMSCALE
 40
1.0
  9
$DIMASZ
 40
0.18
  9
$DIMEXO
 40
0.0625
  9
$DIMDLI
 40
0.38
  9
$DIMRND
 40
0.0
  9
$DIMDLE
 40
0.0
  9
$DIMEXE
 40
0.18
  9
$DIMTP
 40
0.0
  9
$DIMTM
 40
0.0
  9
$DIMTXT
 40
0.18
  9
$DIMCEN
 40
0.09
  9
$DIMTSZ
 40
0.0
  9
$DIMTOL
 70
     0
  9
$DIMLIM
 70
     0
  9
$DIMTIH
 70
     1
  9
$DIMTOH
 70
     1
  9
$DIMSE1
 70
     0
  9
$DIMSE2
 70
     0
  9
$DIMTAD
 70
     0
  9
$DIMZIN
 70
     0
  9
$DIMBLK
  1

  9
$DIMASO
 70
     1
  9
$DIMSHO
 70
     1
  9
$DIMPOST
  1

  9
$DIMAPOST
  1

  9
$DIMALT
 70
     0
  9
$DIMALTD
 70
     2
  9
$DIMALTF
 40
25.4
  9
$DIMLFAC
 40
1.0
  9
$DIMTOFL
 70
     0
  9
$DIMTVP
 40
0.0
  9
$DIMTIX
 70
     0
  9
$DIMSOXD
 70
     0
  9
$DIMSAH
 70
     0
  9
$DIMBLK1
  1

  9
$DIMBLK2
  1

  9
$DIMSTYLE
  2
STANDARD
  9
$DIMCLRD
 70
     0
  9
$DIMCLRE
 70
     0
  9
$DIMCLRT
 70
     0
  9
$DIMTFAC
 40
1.0
  9
$DIMGAP
 40
0.09
  9
$DIMJUST
 70
     0
  9
$DIMSD1
 70
     0
  9
$DIMSD2
 70
     0
  9
$DIMTOLJ
 70
     1
  9
$DIMTZIN
 70
     0
  9
$DIMALTZ
 70
     0
  9
$DIMALTTZ
 70
     0
  9
$DIMFIT
 70
     3
  9
$DIMUPT
 70
     0
  9
$DIMUNIT
 70
     2
  9
$DIMDEC
 70
     4
  9
$DIMTDEC
 70
     4
  9
$DIMALTU
 70
     2
  9
$DIMALTTD
 70
     2
  9
$DIMTXSTY
  7
STANDARD
  9
$DIMAUNIT
 70
     0
  9
$LUNITS
 70
     2
  9
$LUPREC
 70
     4
  9
$SKETCHINC
 40
0.1
  9
$FILLETRAD
 40
0.5
  9
$AUNITS
 70
     0
  9
$AUPREC
 70
     0
  9
$MENU
  1
.
  9
$ELEVATION
 40
0.0
  9
$PELEVATION
 40
0.0
  9
$THICKNESS
 40
0.0
  9
$LIMCHECK
 70
     0
  9
$CHAMFERA
 40
0.0
  9
$CHAMFERB
 40
0.0
  9
$CHAMFERC
 40
0.0
  9
$CHAMFERD
 40
0.0
  9
$SKPOLY
 70
     0
  9
$TDCREATE
 40
2459258.99604956
  9
$TDUPDATE
 40
2459258.996050764
  9
$TDINDWG
 40
0.0000000116
  9
$TDUSRTIMER
 40
0.0000000116
  9
$USRTIMER
 70
     1
  9
$ANGBASE
 50
0.0
  9
$ANGDIR
 70
     0
  9
$PDMODE
 70
     0
  9
$PDSIZE
 40
0.0
  9
$PLINEWID
 40
0.0
  9
$COORDS
 70
     1
  9
$SPLFRAME
 70
     0
  9
$SPLINETYPE
 70
     6
  9
$SPLINESEGS
 70
     8
  9
$ATTDIA
 70
     0
  9
$ATTREQ
 70
     1
  9
$HANDLING
 70
     1
  9
$HANDSEED
  5
294
  9
$SURFTAB1
 70
     6
  9
$SURFTAB2
 70
     6
  9
$SURFTYPE
 70
     6
  9
$SURFU
 70
     6
  9
$SURFV
 70
     6
  9
$UCSNAME
  2

  9
$UCSORG
 10
0.0
 20
0.0
 30
0.0
  9
$UCSXDIR
 10
1.0
 20
0.0
 30
0.0
  9
$UCSYDIR
 10
0.0
 20
1.0
 30
0.0
  9
$PUCSNAME
  2

  9
$PUCSORG
 10
0.0
 20
0.0
 30
0.0
  9
$PUCSXDIR
 10
1.0
 20
0.0
 30
0.0
  9
$PUCSYDIR
 10
0.0
 20
1.0
 30
0.0
  9
$USERI1
 70
     0
  9
$USERI2
 70
     0
  9
$USERI3
 70
     0
  9
$USERI4
 70
     0
  9
$USERI5
 70
     0
  9
$USERR1
 40
0.0
  9
$USERR2
 40
0.0
  9
$USERR3
 40
0.0
  9
$USERR4
 40
0.0
  9
$USERR5
 40
0.0
  9
$WORLDVIEW
 70
     1
  9
$SHADEDGE
 70
     3
  9
$SHADEDIF
 70
    70
  9
$TILEMODE
 70
     1
  9
$MAXACTVP
 70
    64
  9
$PINSBASE
 10
0.0
 20
0.0
 30
0.0
  9
$PLIMCHECK
 70
     0
  9
$PEXTMIN
 10
1.000000000000000E+20
 20
1.000000000000000E+20
 30
1.000000000000000E+20
  9
$PEXTMAX
 10
-1.000000000000000E+20
 20
-1.000000000000000E+20
 30
-1.000000000000000E+20
  9
$PLIMMIN
 10
0.0
 20
0.0
  9
$PLIMMAX
 10
12.0
 20
9.0
  9
$UNITMODE
 70
     0
  9
$VISRETAIN
 70
     1
  9
$PLINEGEN
 70
     0
  9
$PSLTSCALE
 70
     1
  9
$TREEDEPTH
 70
  3020
  9
$PICKSTYLE
 70
     1
  9
$CMLSTYLE
  2
STANDARD
  9
$CMLJUST
 70
     0
  9
$CMLSCALE
 40
1.0
  9
$PROXYGRAPHICS
 70
     1
  9
$MEASUREMENT
 70
     1
  0
ENDSEC
  0
SECTION
  2
CLASSES
  0
CLASS
  1
ACDBDICTIONARYWDFLT
  2
AcDbDictionaryWithDefault
  3
ObjectDBX Classes
 90
        0
280
     0
281
     0
  0
CLASS
  1
VISUALSTYLE
  2
AcDbVisualStyle
  3
ObjectDBX Classes
 90
     4095
280
     0
281
     0
  0
CLASS
  1
MATERIAL
  2
AcDbMaterial
  3
ObjectDBX Classes
 90
     1153
280
     0
281
     0
  0
CLASS
  1
SCALE
  2
AcDbScale
  3
ObjectDBX Classes
 90
     1153
280
     0
281
     0
  0
CLASS
  1
TABLESTYLE
  2
AcDbTableStyle
  3
ObjectDBX Classes
 90
     4095
280
     0
281
     0
  0
CLASS
  1
MLEADERSTYLE
  2
AcDbMLeaderStyle
  3
ACDB_MLEADERSTYLE_CLASS
 90
     4095
280
     0
281
     0
  0
CLASS
  1
SUN
  2
AcDbSun
  3
SCENEOE
 90
     1153
280
     0
281
     0
  0
CLASS
  1
DICTIONARYVAR
  2
AcDbDictionaryVar
  3
ObjectDBX Classes
 90
        0
280
     0
281
     0
  0
CLASS
  1
XRECORD
  2
AcDbXrecord
  3
ObjectDBX Classes
 90
        0
280
     0
281
     0
  0
CLASS
  1
LWPOLYLINE
  2
AcDbPolyline
  3
ObjectDBX Classes
 90
        0
280
     0
281
     1
  0
CLASS
  1
HATCH
  2
AcDbHatch
  3
ObjectDBX Classes
 90
        0
280
     0
281
     1
  0
CLASS
  1
ACDBPLACEHOLDER
  2
AcDbPlaceHolder
  3
ObjectDBX Classes
 90
        0
280
     0
281
     0
  0
CLASS
  1
LAYOUT
  2
AcDbLayout
  3
ObjectDBX Classes
 90
        0
280
     0
281
     0
  0
ENDSEC
  0
SECTION
  2
TABLES
  0
TABLE
  2
VPORT
  5
8
102
{ACAD_XDICTIONARY
360
289
102
}
330
0
100
AcDbSymbolTable
 70
     1
  0
VPORT
  5
29
330
8
100
AcDbSymbolTableRecord
100
AcDbViewportTableRecord
  2
*ACTIVE
 70
     0
 10
0.0
 20
0.0
 11
1.0
 21
1.0
 12
0.0
 22
0.0
 13
0.0
 23
0.0
 14
0.5
 24
0.5
 15
0.5
 25
0.5
 16
0.0
 26
0.0
 36
1.0
 17
0.0
 27
0.0
 37
-1000.0
 40
1745.651553424437
 41
2.036855036855037
 42
50.0
 43
2768.249696789106
 44
3417.913364572291
 50
0.0
 51
0.0
 71
     0
 72
   100
 73
     1
 74
     3
 75
     0
 76
     0
 77
     0
 78
     0
  0
ENDTAB
  0
TABLE
  2
LTYPE
  5
5
330
0
100
AcDbSymbolTable
 70
     1
  0
LTYPE
  5
14
330
5
100
AcDbSymbolTableRecord
100
AcDbLinetypeTableRecord
  2
BYBLOCK
 70
     0
  3

 72
    65
 73
     0
 40
0.0
  0
LTYPE
  5
15
330
5
100
AcDbSymbolTableRecord
100
AcDbLinetypeTableRecord
  2
BYLAYER
 70
     0
  3

 72
    65
 73
     0
 40
0.0
  0
LTYPE
  5
16
330
5
100
AcDbSymbolTableRecord
100
AcDbLinetypeTableRecord
  2
CONTINUOUS
 70
     0
  3
Solid line
 72
    65
 73
     0
 40
0.0
  0
ENDTAB
  0
TABLE
  2
LAYER
  5
2
330
0
100
AcDbSymbolTable
 70
     3
  0
LAYER
  5
10
330
2
100
AcDbSymbolTableRecord
100
AcDbLayerTableRecord
  2
0
 70
     0
 62
     7
  6
CONTINUOUS
  0
LAYER
  5
6E
330
2
100
AcDbSymbolTableRecord
100
AcDbLayerTableRecord
  2
PROFILEEDGES
 70
     0
 62
     7
  6
CONTINUOUS
  0
LAYER
  5
6F
330
2
100
AcDbSymbolTableRecord
100
AcDbLayerTableRecord
  2
SECTIONCUTEDGES
 70
     0
 62
     7
  6
CONTINUOUS
  0
ENDTAB
  0
TABLE
  2
STYLE
  5
3
330
0
100
AcDbSymbolTable
 70
     1
  0
STYLE
  5
11
330
3
100
AcDbSymbolTableRecord
100
AcDbTextStyleTableRecord
  2
STANDARD
 70
     0
 40
0.0
 41
1.0
 50
0.0
 71
     0
 42
0.2
  3
txt
  4

  0
ENDTAB
  0
TABLE
  2
VIEW
  5
6
330
0
100
AcDbSymbolTable
 70
     0
  0
ENDTAB
  0
TABLE
  2
UCS
  5
7
330
0
100
AcDbSymbolTable
 70
     0
  0
ENDTAB
  0
TABLE
  2
APPID
  5
9
330
0
100
AcDbSymbolTable
 70
     2
  0
APPID
  5
12
330
9
100
AcDbSymbolTableRecord
100
AcDbRegAppTableRecord
  2
ACAD
 70
     0
  0
APPID
  5
293
330
9
100
AcDbSymbolTableRecord
100
AcDbRegAppTableRecord
  2
ACAD_MLEADERVER
 70
     0
  0
ENDTAB
  0
TABLE
  2
DIMSTYLE
  5
A
330
0
100
AcDbSymbolTable
 70
     1
  0
DIMSTYLE
105
27
330
A
100
AcDbSymbolTableRecord
100
AcDbDimStyleTableRecord
  2
STANDARD
 70
     0
  3

  4

  5

  6

  7

 40
1.0
 41
0.18
 42
0.0625
 43
0.38
 44
0.18
 45
0.0
 46
0.0
 47
0.0
 48
0.0
140
0.18
141
0.09
142
0.0
143
25.4
144
1.0
145
0.0
146
1.0
147
0.09
 71
     0
 72
     0
 73
     1
 74
     1
 75
     0
 76
     0
 77
     0
 78
     0
170
     0
171
     2
172
     0
173
     0
174
     0
175
     0
176
     0
177
     0
178
     0
270
     2
271
     4
272
     4
273
     2
274
     2
340
11
275
     0
280
     0
281
     0
282
     0
283
     1
284
     0
285
     0
286
     0
287
     3
288
     0
  0
ENDTAB
  0
TABLE
  2
BLOCK_RECORD
  5
1
330
0
100
AcDbSymbolTable
 70
     1
  0
BLOCK_RECORD
  5
1F
330
1
100
AcDbSymbolTableRecord
100
AcDbBlockTableRecord
  2
*MODEL_SPACE
  0
BLOCK_RECORD
  5
1B
330
1
100
AcDbSymbolTableRecord
100
AcDbBlockTableRecord
  2
*PAPER_SPACE
  0
ENDTAB
  0
ENDSEC
  0
SECTION
  2
BLOCKS
  0
BLOCK
  5
20
330
1F
100
AcDbEntity
  8
0
100
AcDbBlockBegin
  2
*MODEL_SPACE
 70
     0
 10
0.0
 20
0.0
 30
0.0
  3
*MODEL_SPACE
  1

  0
ENDBLK
  5
21
330
1F
100
AcDbEntity
  8
0
100
AcDbBlockEnd
  0
BLOCK
  5
1C
330
1B
100
AcDbEntity
 67
     1
  8
0
100
AcDbBlockBegin
  2
*PAPER_SPACE
 70
     0
 10
0.0
 20
0.0
 30
0.0
  3
*PAPER_SPACE
  1

  0
ENDBLK
  5
1D
330
1B
100
AcDbEntity
 67
     1
  8
0
100
AcDbBlockEnd
  0
ENDSEC
  0
SECTION
  2
ENTITIES
  0
LINE
  5
70
330
1F
100
AcDbEntity
  8
0
100
AcDbLine
 10
342.0211675895596
 20
-329.8061169351481
 30
0.0
 11
390.8813328370399
 21
-378.6662807263798
 31
0.0
  0
LINE
  5
71
330
1F
100
AcDbEntity
  8
0
100
AcDbLine
 10
329.806128097997
 20
-439.7414872857266
 30
0.0
 11
317.5910871501918
 21
-451.9565285975939
 31
0.0
  0
LINE
  5
72
330
1F
100
AcDbEntity
  8
0
100
AcDbLine
 10
215.4234473313421
 20
431.9737266022461
 30
0.0
 11
215.9334626864869
 21
432.1849818793663
 31
0.0
  0
LINE
  5
73
330
1F
100
AcDbEntity
  8
0
100
AcDbLine
 10
305.3760462023848
 20
-464.1715699094636
 30
0.0
 11
293.161005254575
 21
-476.3866112213319
 31
0.0
  0
LINE
  5
74
330
1F
100
AcDbEntity
  8
0
100
AcDbLine
 10
-215.423442727453
 20
431.9737266018525
 30
0.0
 11
-431.9737336419988
 21
215.4234378711096
 31
0.0
  0
LINE
  5
75
330
1F
100
AcDbEntity
  8
0
100
AcDbLine
 10
329.8061266417537
 20
-342.0211582470183
 30
0.0
 11
378.6662918892296
 21
-390.8813220382482
 31
0.0
  0
LINE
  5
76
330
1F
100
AcDbEntity
  8
0
100
AcDbLine
 10
-428.3960309275343
 20
206.7860994557312
 30
0.0
 11
-206.7861043120666
 21
428.3960238874015
 31
0.0
  0
LINE
  5
77
330
1F
100
AcDbEntity
  8
0
100
AcDbLine
 10
-215.9334580825795
 20
432.184981878963
 30
0.0
 11
-215.423442727453
 21
431.9737266018525
 31
0.0
  0
LINE
  5
78
330
1F
100
AcDbEntity
  8
0
100
AcDbLine
 10
-298.4644350427197
 20
495.5132278446271
 30
0.0
 11
-495.5132348849309
 21
298.4644301862583
 31
0.0
  0
LINE
  5
79
330
1F
100
AcDbEntity
  8
0
100
AcDbLine
 10
-495.5132348849309
 20
298.4644301862583
 30
0.0
 11
-500.8166851134174
 21
305.376021087611
 31
0.0
  0
LINE
  5
7A
330
1F
100
AcDbEntity
  8
0
100
AcDbLine
 10
-305.3760259440801
 20
500.8166780731015
 30
0.0
 11
-500.8166851134174
 21
305.376021087611
 31
0.0
  0
LINE
  5
7B
330
1F
100
AcDbEntity
  8
0
100
AcDbLine
 10
-305.3760259440801
 20
500.8166780731015
 30
0.0
 11
-298.4644350427197
 21
495.5132278446271
 31
0.0
  0
LINE
  5
7C
330
1F
100
AcDbEntity
  8
0
100
AcDbLine
 10
-280.9459436842967
 20
390.8813079045802
 30
0.0
 11
-268.7309025544695
 21
403.0963490344291
 31
0.0
  0
LINE
  5
7D
330
1F
100
AcDbEntity
  8
0
100
AcDbLine
 10
-299.2685053791674
 20
506.9241986380259
 30
0.0
 11
-305.3760259440801
 21
500.8166780731015
 31
0.0
  0
LINE
  5
7E
330
1F
100
AcDbEntity
  8
0
100
AcDbLine
 10
299.2685099829262
 20
506.9241986385766
 30
0.0
 11
305.3760305478505
 21
500.8166780736632
 31
0.0
  0
LINE
  5
7F
330
1F
100
AcDbEntity
  8
0
100
AcDbLine
 10
298.4644396464923
 20
495.5132278451719
 30
0.0
 11
305.3760305478505
 21
500.8166780736632
 31
0.0
  0
LINE
  5
80
330
1F
100
AcDbEntity
  8
0
100
AcDbLine
 10
-305.3760270360621
 20
366.4512267369917
 30
0.0
 11
-293.1609848141239
 21
378.6662667747287
 31
0.0
  0
LINE
  5
81
330
1F
100
AcDbEntity
  8
0
100
AcDbLine
 10
-256.5158614246448
 20
415.3113901642797
 30
0.0
 11
-244.3008202948181
 21
427.5264312941314
 31
0.0
  0
LINE
  5
82
330
1F
100
AcDbEntity
  8
0
100
AcDbLine
 10
-293.1609848142531
 20
513.0317192029528
 30
0.0
 11
-299.2685053791674
 21
506.9241986380259
 31
0.0
  0
LINE
  5
83
330
1F
100
AcDbEntity
  8
0
100
AcDbLine
 10
293.1609894180011
 20
513.0317192034904
 30
0.0
 11
299.2685099829262
 21
506.9241986385766
 31
0.0
  0
LINE
  5
84
330
1F
100
AcDbEntity
  8
0
100
AcDbLine
 10
-506.9242056777487
 20
-299.268514839397
 30
0.0
 11
-500.8166851128256
 21
-305.3760354043106
 31
0.0
  0
LINE
  5
85
330
1F
100
AcDbEntity
  8
0
100
AcDbLine
 10
-432.1849889187
 20
-215.9334675428172
 30
0.0
 11
-431.9737336416708
 21
-215.4234521878941
 31
0.0
  0
LINE
  5
86
330
1F
100
AcDbEntity
  8
0
100
AcDbLine
 10
-500.8166851128256
 20
-305.3760354043106
 30
0.0
 11
-495.5132348844858
 21
-298.4644445031257
 31
0.0
  0
LINE
  5
87
330
1F
100
AcDbEntity
  8
0
100
AcDbLine
 10
-500.8166851134174
 20
305.376021087611
 30
0.0
 11
-506.924205678331
 21
299.2685005226851
 31
0.0
  0
LINE
  5
88
330
1F
100
AcDbEntity
  8
0
100
AcDbLine
 10
-431.9737336419988
 20
215.4234378711096
 30
0.0
 11
-432.1849889191176
 21
215.9334532262487
 31
0.0
  0
LINE
  5
89
330
1F
100
AcDbEntity
  8
0
100
AcDbLine
 10
-506.924205678331
 20
299.2685005226851
 30
0.0
 11
-513.0317262432437
 21
293.1609799577604
 31
0.0
  0
LINE
  5
8A
330
1F
100
AcDbEntity
  8
0
100
AcDbLine
 10
451.9565241060668
 20
317.5910611261965
 30
0.0
 11
403.0963595867622
 21
268.7308966067959
 31
0.0
  0
LINE
  5
8B
330
1F
100
AcDbEntity
  8
0
100
AcDbLine
 10
415.3114007166116
 20
256.5158554769683
 30
0.0
 11
427.5264418464602
 21
244.3008143471421
 31
0.0
  0
LINE
  5
8C
330
1F
100
AcDbEntity
  8
0
100
AcDbLine
 10
427.5264418464602
 20
244.3008143471421
 30
0.0
 11
476.3866063657675
 21
293.1609788665428
 31
0.0
  0
LINE
  5
8D
330
1F
100
AcDbEntity
  8
0
100
AcDbLine
 10
500.8166928118655
 20
305.3760241828494
 30
0.0
 11
495.5132426865161
 21
298.4644332026355
 31
0.0
  0
LINE
  5
8E
330
1F
100
AcDbEntity
  8
0
100
AcDbLine
 10
500.8166928118655
 20
305.3760241828494
 30
0.0
 11
305.3760305478505
 21
500.8166780736632
 31
0.0
  0
LINE
  5
8F
330
1F
100
AcDbEntity
  8
0
100
AcDbLine
 10
432.1849979505416
 20
215.9334552986602
 30
0.0
 11
431.9737426811163
 21
215.4234399405894
 31
0.0
  0
LINE
  5
90
330
1F
100
AcDbEntity
  8
0
100
AcDbLine
 10
256.5158660285817
 20
415.3113901647371
 30
0.0
 11
244.3008248987303
 21
427.526431294563
 31
0.0
  0
LINE
  5
91
330
1F
100
AcDbEntity
  8
0
100
AcDbLine
 10
256.5158660285817
 20
415.3113901647371
 30
0.0
 11
305.3760305478868
 21
464.1715546841386
 31
0.0
  0
LINE
  5
92
330
1F
100
AcDbEntity
  8
0
100
AcDbLine
 10
305.3760305478868
 20
464.1715546841386
 30
0.0
 11
293.1609894180374
 21
476.386595813965
 31
0.0
  0
LINE
  5
93
330
1F
100
AcDbEntity
  8
0
100
AcDbLine
 10
244.3008248987303
 20
427.526431294563
 30
0.0
 11
293.1609894180374
 21
476.386595813965
 31
0.0
  0
LINE
  5
94
330
1F
100
AcDbEntity
  8
0
100
AcDbLine
 10
317.5910716777381
 20
451.9565135543116
 30
0.0
 11
268.7309071584327
 21
403.0963490349109
 31
0.0
  0
LINE
  5
95
330
1F
100
AcDbEntity
  8
0
100
AcDbLine
 10
280.9459482882818
 20
390.8813079050831
 30
0.0
 11
268.7309071584327
 21
403.0963490349109
 31
0.0
  0
LINE
  5
96
330
1F
100
AcDbEntity
  8
0
100
AcDbLine
 10
329.8061128075888
 20
439.7414724244863
 30
0.0
 11
280.9459482882818
 21
390.8813079050831
 31
0.0
  0
LINE
  5
97
330
1F
100
AcDbEntity
  8
0
100
AcDbLine
 10
329.8061128075888
 20
439.7414724244863
 30
0.0
 11
317.5910716777381
 21
451.9565135543116
 31
0.0
  0
LINE
  5
98
330
1F
100
AcDbEntity
  8
0
100
AcDbLine
 10
317.5910716778085
 20
354.2361845155804
 30
0.0
 11
366.4512361971144
 21
403.0963490349827
 31
0.0
  0
LINE
  5
99
330
1F
100
AcDbEntity
  8
0
100
AcDbLine
 10
329.8061128076599
 20
342.0211433857548
 30
0.0
 11
317.5910716778085
 21
354.2361845155804
 31
0.0
  0
LINE
  5
9A
330
1F
100
AcDbEntity
  8
0
100
AcDbLine
 10
329.8061128076599
 20
342.0211433857548
 30
0.0
 11
378.6662773269668
 21
390.8813079051558
 31
0.0
  0
LINE
  5
9B
330
1F
100
AcDbEntity
  8
0
100
AcDbLine
 10
378.6662773269668
 20
390.8813079051558
 30
0.0
 11
366.4512361971144
 21
403.0963490349827
 31
0.0
  0
LINE
  5
9C
330
1F
100
AcDbEntity
  8
0
100
AcDbLine
 10
354.2361950673593
 20
317.5910611260998
 30
0.0
 11
342.0211539375097
 21
329.8061022559281
 31
0.0
  0
LINE
  5
9D
330
1F
100
AcDbEntity
  8
0
100
AcDbLine
 10
403.0963595866672
 20
366.4512256455023
 30
0.0
 11
354.2361950673593
 21
317.5910611260998
 31
0.0
  0
LINE
  5
9E
330
1F
100
AcDbEntity
  8
0
100
AcDbLine
 10
403.0963595866672
 20
366.4512256455023
 30
0.0
 11
390.881318456815
 21
378.6662667753281
 31
0.0
  0
LINE
  5
9F
330
1F
100
AcDbEntity
  8
0
100
AcDbLine
 10
390.881318456815
 20
378.6662667753281
 30
0.0
 11
342.0211539375097
 21
329.8061022559281
 31
0.0
  0
LINE
  5
A0
330
1F
100
AcDbEntity
  8
0
100
AcDbLine
 10
354.2361950672654
 20
415.3113901648079
 30
0.0
 11
305.3760305479602
 21
366.4512256454067
 31
0.0
  0
LINE
  5
A1
330
1F
100
AcDbEntity
  8
0
100
AcDbLine
 10
354.2361950672654
 20
415.3113901648079
 30
0.0
 11
342.0211539374385
 21
427.5264312946588
 31
0.0
  0
LINE
  5
A2
330
1F
100
AcDbEntity
  8
0
100
AcDbLine
 10
293.1609894181308
 20
378.6662667752587
 30
0.0
 11
342.0211539374385
 21
427.5264312946588
 31
0.0
  0
LINE
  5
A3
330
1F
100
AcDbEntity
  8
0
100
AcDbLine
 10
305.3760305479602
 20
366.4512256454067
 30
0.0
 11
293.1609894181308
 21
378.6662667752587
 31
0.0
  0
LINE
  5
A4
330
1F
100
AcDbEntity
  8
0
100
AcDbLine
 10
451.9565241060668
 20
317.5910611261965
 30
0.0
 11
439.741482976218
 21
329.8061022560237
 31
0.0
  0
LINE
  5
A5
330
1F
100
AcDbEntity
  8
0
100
AcDbLine
 10
439.741482976218
 20
329.8061022560237
 30
0.0
 11
390.8813184569106
 21
280.9459377366211
 31
0.0
  0
LINE
  5
A6
330
1F
100
AcDbEntity
  8
0
100
AcDbLine
 10
390.8813184569106
 20
280.9459377366211
 30
0.0
 11
403.0963595867622
 21
268.7308966067959
 31
0.0
  0
LINE
  5
A7
330
1F
100
AcDbEntity
  8
0
100
AcDbLine
 10
476.3866063657675
 20
293.1609788665428
 30
0.0
 11
464.1715652359189
 21
305.3760199963709
 31
0.0
  0
LINE
  5
A8
330
1F
100
AcDbEntity
  8
0
100
AcDbLine
 10
464.1715652359189
 20
305.3760199963709
 30
0.0
 11
415.3114007166116
 21
256.5158554769683
 31
0.0
  0
LINE
  5
A9
330
1F
100
AcDbEntity
  8
0
100
AcDbLine
 10
378.6662773270602
 20
293.1609788664466
 30
0.0
 11
427.5264418463681
 21
342.0211433858479
 31
0.0
  0
LINE
  5
AA
330
1F
100
AcDbEntity
  8
0
100
AcDbLine
 10
427.5264418463681
 20
342.0211433858479
 30
0.0
 11
415.3114007165159
 21
354.2361845156755
 31
0.0
  0
LINE
  5
AB
330
1F
100
AcDbEntity
  8
0
100
AcDbLine
 10
366.4512361972127
 20
305.3760199962746
 30
0.0
 11
415.3114007165159
 21
354.2361845156755
 31
0.0
  0
LINE
  5
AC
330
1F
100
AcDbEntity
  8
0
100
AcDbLine
 10
366.4512361972127
 20
305.3760199962746
 30
0.0
 11
378.6662773270602
 21
293.1609788664466
 31
0.0
  0
LINE
  5
AD
330
1F
100
AcDbEntity
  8
0
100
AcDbLine
 10
-342.0211493335246
 20
427.5264312940363
 30
0.0
 11
-354.2361915554656
 21
415.3113912562993
 31
0.0
  0
LINE
  5
AE
330
1F
100
AcDbEntity
  8
0
100
AcDbLine
 10
-305.3760259440444
 20
464.1715546835867
 30
0.0
 11
-293.160984814217
 21
476.3865958134362
 31
0.0
  0
LINE
  5
AF
330
1F
100
AcDbEntity
  8
0
100
AcDbLine
 10
-256.5158614246448
 20
415.3113901642797
 30
0.0
 11
-305.3760259440444
 21
464.1715546835867
 31
0.0
  0
LINE
  5
B0
330
1F
100
AcDbEntity
  8
0
100
AcDbLine
 10
-513.031726242674
 20
-293.1609942744846
 30
0.0
 11
-506.9242056777487
 21
-299.268514839397
 31
0.0
  0
LINE
  5
B1
330
1F
100
AcDbEntity
  8
0
100
AcDbLine
 10
-415.3113972045965
 20
354.2361856070476
 30
0.0
 11
-427.5264383344226
 21
342.0211444771948
 31
0.0
  0
LINE
  5
B2
330
1F
100
AcDbEntity
  8
0
100
AcDbLine
 10
-464.1715617239023
 20
305.3760210876442
 30
0.0
 11
-415.3113972045018
 21
256.5158565683394
 31
0.0
  0
LINE
  5
B3
330
1F
100
AcDbEntity
  8
0
100
AcDbLine
 10
-390.8813149448491
 20
280.9459388280407
 30
0.0
 11
-403.0963560746743
 21
268.7308976981896
 31
0.0
  0
LINE
  5
B4
330
1F
100
AcDbEntity
  8
0
100
AcDbLine
 10
-390.8813149449444
 20
378.6662678667483
 30
0.0
 11
-403.0963560747696
 21
366.4512267368966
 31
0.0
  0
LINE
  5
B5
330
1F
100
AcDbEntity
  8
0
100
AcDbLine
 10
-464.1715617239023
 20
305.3760210876442
 30
0.0
 11
-476.3866028537291
 21
293.160979957796
 31
0.0
  0
LINE
  5
B6
330
1F
100
AcDbEntity
  8
0
100
AcDbLine
 10
206.7861209300192
 20
-428.3960392953064
 30
0.0
 11
428.39604754549
 21
-206.7861148636357
 31
0.0
  0
LINE
  5
B7
330
1F
100
AcDbEntity
  8
0
100
AcDbLine
 10
-428.3960309272629
 20
-206.7861137726037
 30
0.0
 11
-206.7860891907204
 21
-428.3960467454901
 31
0.0
  0
LINE
  5
B8
330
1F
100
AcDbEntity
  8
0
100
AcDbLine
 10
428.3960400954105
 20
206.7861014719866
 30
0.0
 11
206.7861089159643
 21
428.3960238877813
 31
0.0
  0
LINE
  5
B9
330
1F
100
AcDbEntity
  8
0
100
AcDbLine
 10
-403.0963560747696
 20
366.4512267368966
 30
0.0
 11
-354.2361915553691
 21
317.591062217592
 31
0.0
  0
LINE
  5
BA
330
1F
100
AcDbEntity
  8
0
100
AcDbLine
 10
-342.0211504255417
 20
329.8061033474417
 30
0.0
 11
-354.2361915553691
 21
317.591062217592
 31
0.0
  0
LINE
  5
BB
330
1F
100
AcDbEntity
  8
0
100
AcDbLine
 10
-342.0211504255417
 20
329.8061033474417
 30
0.0
 11
-390.8813149449444
 21
378.6662678667483
 31
0.0
  0
LINE
  5
BC
330
1F
100
AcDbEntity
  8
0
100
AcDbLine
 10
-427.526438334329
 20
244.3008154384896
 30
0.0
 11
-476.3866028537291
 21
293.160979957796
 31
0.0
  0
LINE
  5
BD
330
1F
100
AcDbEntity
  8
0
100
AcDbLine
 10
-415.3113972045018
 20
256.5158565683394
 30
0.0
 11
-427.526438334329
 21
244.3008154384896
 31
0.0
  0
LINE
  5
BE
330
1F
100
AcDbEntity
  8
0
100
AcDbLine
 10
-390.8813149448491
 20
280.9459388280407
 30
0.0
 11
-439.7414794642495
 21
329.8061033473458
 31
0.0
  0
LINE
  5
BF
330
1F
100
AcDbEntity
  8
0
100
AcDbLine
 10
-439.7414794642495
 20
329.8061033473458
 30
0.0
 11
-451.9565205940763
 21
317.5910622174959
 31
0.0
  0
LINE
  5
C0
330
1F
100
AcDbEntity
  8
0
100
AcDbLine
 10
-451.9565205940763
 20
317.5910622174959
 30
0.0
 11
-403.0963560746743
 21
268.7308976981896
 31
0.0
  0
LINE
  5
C1
330
1F
100
AcDbEntity
  8
0
100
AcDbLine
 10
-366.4512326851946
 20
305.3760210877408
 30
0.0
 11
-415.3113972045965
 21
354.2361856070476
 31
0.0
  0
LINE
  5
C2
330
1F
100
AcDbEntity
  8
0
100
AcDbLine
 10
-378.6662738150219
 20
293.1609799578915
 30
0.0
 11
-427.5264383344226
 21
342.0211444771948
 31
0.0
  0
LINE
  5
C3
330
1F
100
AcDbEntity
  8
0
100
AcDbLine
 10
-366.4512326851946
 20
305.3760210877408
 30
0.0
 11
-378.6662738150219
 21
293.1609799578915
 31
0.0
  0
LINE
  5
C4
330
1F
100
AcDbEntity
  8
0
100
AcDbLine
 10
-317.5910681658902
 20
354.2361856071429
 30
0.0
 11
-366.4512326852899
 21
403.096350126448
 31
0.0
  0
LINE
  5
C5
330
1F
100
AcDbEntity
  8
0
100
AcDbLine
 10
-366.4512326852899
 20
403.096350126448
 30
0.0
 11
-378.6662738151176
 21
390.8813089965978
 31
0.0
  0
LINE
  5
C6
330
1F
100
AcDbEntity
  8
0
100
AcDbLine
 10
-329.806109295715
 20
342.0211444772912
 30
0.0
 11
-378.6662738151176
 21
390.8813089965978
 31
0.0
  0
LINE
  5
C7
330
1F
100
AcDbEntity
  8
0
100
AcDbLine
 10
-317.5910681658902
 20
354.2361856071429
 30
0.0
 11
-329.806109295715
 21
342.0211444772912
 31
0.0
  0
LINE
  5
C8
330
1F
100
AcDbEntity
  8
0
100
AcDbLine
 10
-329.8061082036974
 20
439.7414724238855
 30
0.0
 11
-317.5910670738717
 21
451.9565135537366
 31
0.0
  0
LINE
  5
C9
330
1F
100
AcDbEntity
  8
0
100
AcDbLine
 10
-280.9459436842967
 20
390.8813079045802
 30
0.0
 11
-329.8061082036974
 21
439.7414724238855
 31
0.0
  0
LINE
  5
CA
330
1F
100
AcDbEntity
  8
0
100
AcDbLine
 10
-317.5910670738717
 20
451.9565135537366
 30
0.0
 11
-268.7309025544695
 21
403.0963490344291
 31
0.0
  0
LINE
  5
CB
330
1F
100
AcDbEntity
  8
0
100
AcDbLine
 10
-293.1609848141239
 20
378.6662667747287
 30
0.0
 11
-342.0211493335246
 21
427.5264312940363
 31
0.0
  0
LINE
  5
CC
330
1F
100
AcDbEntity
  8
0
100
AcDbLine
 10
-305.3760270360621
 20
366.4512267369917
 30
0.0
 11
-354.2361915554656
 21
415.3113912562993
 31
0.0
  0
LINE
  5
CD
330
1F
100
AcDbEntity
  8
0
100
AcDbLine
 10
-244.3008202948181
 20
427.5264312941314
 30
0.0
 11
-293.160984814217
 21
476.3865958134362
 31
0.0
  0
LINE
  5
CE
330
1F
100
AcDbEntity
  8
0
100
AcDbLine
 10
-317.5910681649852
 20
-451.9565289626706
 30
0.0
 11
-268.7309036456788
 21
-403.09636444327
 31
0.0
  0
LINE
  5
CF
330
1F
100
AcDbEntity
  8
0
100
AcDbLine
 10
-342.0211504246857
 20
-427.5264467030174
 30
0.0
 11
-354.2361915545347
 21
-415.3114055731925
 31
0.0
  0
LINE
  5
D0
330
1F
100
AcDbEntity
  8
0
100
AcDbLine
 10
-354.2361915545347
 20
-415.3114055731925
 30
0.0
 11
-305.3760270352304
 21
-366.4512410537898
 31
0.0
  0
LINE
  5
D1
330
1F
100
AcDbEntity
  8
0
100
AcDbLine
 10
-305.3760270352304
 20
-366.4512410537898
 30
0.0
 11
-293.1609859053789
 21
-378.6662821836171
 31
0.0
  0
LINE
  5
D2
330
1F
100
AcDbEntity
  8
0
100
AcDbLine
 10
-293.1609859053789
 20
-378.6662821836171
 30
0.0
 11
-342.0211504246857
 21
-427.5264467030174
 31
0.0
  0
LINE
  5
D3
330
1F
100
AcDbEntity
  8
0
100
AcDbLine
 10
-427.5264383336129
 20
-342.0211587942083
 30
0.0
 11
-378.6662738143089
 21
-293.1609942748074
 31
0.0
  0
LINE
  5
D4
330
1F
100
AcDbEntity
  8
0
100
AcDbLine
 10
-354.2361915546385
 20
-317.5910765344769
 30
0.0
 11
-403.0963560739377
 21
-366.451241053886
 31
0.0
  0
LINE
  5
D5
330
1F
100
AcDbEntity
  8
0
100
AcDbLine
 10
-329.8061092949291
 20
-342.0211587941359
 30
0.0
 11
-378.6662738142369
 21
-390.8813233135381
 31
0.0
  0
LINE
  5
D6
330
1F
100
AcDbEntity
  8
0
100
AcDbLine
 10
-317.5910681649852
 20
-451.9565289626706
 30
0.0
 11
-329.8061092948354
 21
-439.7414878328436
 31
0.0
  0
LINE
  5
D7
330
1F
100
AcDbEntity
  8
0
100
AcDbLine
 10
-244.3008213859784
 20
-427.5264467029232
 30
0.0
 11
-293.1609859052853
 21
-476.3866112223245
 31
0.0
  0
LINE
  5
D8
330
1F
100
AcDbEntity
  8
0
100
AcDbLine
 10
-298.4644189211255
 20
-495.5132520689984
 30
0.0
 11
-305.3760270350957
 21
-500.8166934820154
 31
0.0
  0
LINE
  5
D9
330
1F
100
AcDbEntity
  8
0
100
AcDbLine
 10
-415.3113972037871
 20
-354.2361999240583
 30
0.0
 11
-427.5264383336129
 21
-342.0211587942083
 31
0.0
  0
LINE
  5
DA
330
1F
100
AcDbEntity
  8
0
100
AcDbLine
 10
-342.0211504247811
 20
-329.8061176643102
 30
0.0
 11
-354.2361915546385
 21
-317.5910765344769
 31
0.0
  0
LINE
  5
DB
330
1F
100
AcDbEntity
  8
0
100
AcDbLine
 10
-464.1715617231662
 20
-305.3760354047299
 30
0.0
 11
-476.3866028530161
 21
-293.160994274903
 31
0.0
  0
LINE
  5
DC
330
1F
100
AcDbEntity
  8
0
100
AcDbLine
 10
-415.3113972038582
 20
-256.5158708853272
 30
0.0
 11
-464.1715617231662
 21
-305.3760354047299
 31
0.0
  0
LINE
  5
DD
330
1F
100
AcDbEntity
  8
0
100
AcDbLine
 10
-403.0963560740088
 20
-268.7309120151544
 30
0.0
 11
-451.9565205933134
 21
-317.5910765345553
 31
0.0
  0
LINE
  5
DE
330
1F
100
AcDbEntity
  8
0
100
AcDbLine
 10
-366.451232684498
 20
-305.3760354046419
 30
0.0
 11
-378.6662738143089
 21
-293.1609942748074
 31
0.0
  0
LINE
  5
DF
330
1F
100
AcDbEntity
  8
0
100
AcDbLine
 10
-390.8813149441576
 20
-280.9459531449802
 30
0.0
 11
-439.7414794634644
 21
-329.806117664381
 31
0.0
  0
LINE
  5
E0
330
1F
100
AcDbEntity
  8
0
100
AcDbLine
 10
-366.451232684387
 20
-403.0963644433648
 30
0.0
 11
-378.6662738142369
 21
-390.8813233135381
 31
0.0
  0
LINE
  5
E1
330
1F
100
AcDbEntity
  8
0
100
AcDbLine
 10
-366.451232684498
 20
-305.3760354046419
 30
0.0
 11
-415.3113972037871
 21
-354.2361999240583
 31
0.0
  0
LINE
  5
E2
330
1F
100
AcDbEntity
  8
0
100
AcDbLine
 10
-317.5910681650798
 20
-354.236199923964
 30
0.0
 11
-366.451232684387
 21
-403.0963644433648
 31
0.0
  0
LINE
  5
E3
330
1F
100
AcDbEntity
  8
0
100
AcDbLine
 10
-293.1609859052853
 20
-476.3866112223245
 30
0.0
 11
-305.376027035135
 21
-464.171570092497
 31
0.0
  0
LINE
  5
E4
330
1F
100
AcDbEntity
  8
0
100
AcDbLine
 10
-415.3113972038582
 20
-256.5158708853272
 30
0.0
 11
-427.5264383337083
 21
-244.3008297555017
 31
0.0
  0
LINE
  5
E5
330
1F
100
AcDbEntity
  8
0
100
AcDbLine
 10
-298.4644189211255
 20
-495.5132520689984
 30
0.0
 11
-495.5132348844858
 21
-298.4644445031257
 31
0.0
  0
LINE
  5
E6
330
1F
100
AcDbEntity
  8
0
100
AcDbLine
 10
-305.3760270350957
 20
-500.8166934820154
 30
0.0
 11
-500.8166851128256
 21
-305.3760354043106
 31
0.0
  0
LINE
  5
E7
330
1F
100
AcDbEntity
  8
0
100
AcDbLine
 10
-215.4234275527878
 20
-431.9737495886613
 30
0.0
 11
-431.9737336416708
 21
-215.4234521878941
 31
0.0
  0
LINE
  5
E8
330
1F
100
AcDbEntity
  8
0
100
AcDbLine
 10
-215.4234275527878
 20
-431.9737495886613
 30
0.0
 11
-215.933442904786
 21
-432.1850048733815
 31
0.0
  0
LINE
  5
E9
330
1F
100
AcDbEntity
  8
0
100
AcDbLine
 10
-476.3866028530161
 20
-293.160994274903
 30
0.0
 11
-427.5264383337083
 21
-244.3008297555017
 31
0.0
  0
LINE
  5
EA
330
1F
100
AcDbEntity
  8
0
100
AcDbLine
 10
-439.7414794634644
 20
-329.806117664381
 30
0.0
 11
-451.9565205933134
 21
-317.5910765345553
 31
0.0
  0
LINE
  5
EB
330
1F
100
AcDbEntity
  8
0
100
AcDbLine
 10
-390.8813149441576
 20
-280.9459531449802
 30
0.0
 11
-403.0963560740088
 21
-268.7309120151544
 31
0.0
  0
LINE
  5
EC
330
1F
100
AcDbEntity
  8
0
100
AcDbLine
 10
-390.8813149440856
 20
-378.6662821837111
 30
0.0
 11
-342.0211504247811
 21
-329.8061176643102
 31
0.0
  0
LINE
  5
ED
330
1F
100
AcDbEntity
  8
0
100
AcDbLine
 10
-390.8813149440856
 20
-378.6662821837111
 30
0.0
 11
-403.0963560739377
 21
-366.451241053886
 31
0.0
  0
LINE
  5
EE
330
1F
100
AcDbEntity
  8
0
100
AcDbLine
 10
-317.5910681650798
 20
-354.236199923964
 30
0.0
 11
-329.8061092949291
 21
-342.0211587941359
 31
0.0
  0
LINE
  5
EF
330
1F
100
AcDbEntity
  8
0
100
AcDbLine
 10
-268.7309036456788
 20
-403.09636444327
 30
0.0
 11
-280.9459447755297
 21
-390.881323313443
 31
0.0
  0
LINE
  5
F0
330
1F
100
AcDbEntity
  8
0
100
AcDbLine
 10
-280.9459447755297
 20
-390.881323313443
 30
0.0
 11
-329.8061092948354
 21
-439.7414878328436
 31
0.0
  0
LINE
  5
F1
330
1F
100
AcDbEntity
  8
0
100
AcDbLine
 10
-244.3008213859784
 20
-427.5264467029232
 30
0.0
 11
-256.5158625158275
 21
-415.3114055730959
 31
0.0
  0
LINE
  5
F2
330
1F
100
AcDbEntity
  8
0
100
AcDbLine
 10
-305.376027035135
 20
-464.171570092497
 30
0.0
 11
-256.5158625158275
 21
-415.3114055730959
 31
0.0
  0
LINE
  5
F3
330
1F
100
AcDbEntity
  8
0
100
AcDbLine
 10
299.2685262745709
 20
-506.9242139549135
 30
0.0
 11
305.376046748476
 21
-500.8166932989791
 31
0.0
  0
LINE
  5
F4
330
1F
100
AcDbEntity
  8
0
100
AcDbLine
 10
-299.2684890875207
 20
-506.9242228743839
 30
0.0
 11
-305.3760270350957
 21
-500.8166934820154
 31
0.0
  0
LINE
  5
F5
330
1F
100
AcDbEntity
  8
0
100
AcDbLine
 10
305.3760447461374
 20
-366.4512408707564
 30
0.0
 11
293.1610037983315
 21
-378.6662821826246
 31
0.0
  0
LINE
  5
F6
330
1F
100
AcDbEntity
  8
0
100
AcDbLine
 10
256.5158809549072
 20
-415.3114061182317
 30
0.0
 11
244.3008400071001
 21
-427.5264474301
 31
0.0
  0
LINE
  5
F7
330
1F
100
AcDbEntity
  8
0
100
AcDbLine
 10
215.9334778642793
 20
-432.1849984376406
 30
0.0
 11
215.423462506005
 21
-431.973743168129
 31
0.0
  0
LINE
  5
F8
330
1F
100
AcDbEntity
  8
0
100
AcDbLine
 10
305.376046748476
 20
-500.8166932989791
 30
0.0
 11
298.4644557680868
 21
-495.5132431734948
 31
0.0
  0
LINE
  5
F9
330
1F
100
AcDbEntity
  8
0
100
AcDbLine
 10
280.9459628505229
 20
-390.8813234944941
 30
0.0
 11
268.7309219027146
 21
-403.0963648063625
 31
0.0
  0
LINE
  5
FA
330
1F
100
AcDbEntity
  8
0
100
AcDbLine
 10
215.423462506005
 20
-431.973743168129
 30
0.0
 11
431.9737491015811
 21
-215.4234501184138
 31
0.0
  0
LINE
  5
FB
330
1F
100
AcDbEntity
  8
0
100
AcDbLine
 10
403.0963737848448
 20
-366.4512394145096
 30
0.0
 11
354.2362085373695
 21
-317.5910756232785
 31
0.0
  0
LINE
  5
FC
330
1F
100
AcDbEntity
  8
0
100
AcDbLine
 10
513.0317297552731
 20
293.1609788665783
 30
0.0
 11
506.9242134678013
 21
299.2685037089453
 31
0.0
  0
LINE
  5
FD
330
1F
100
AcDbEntity
  8
0
100
AcDbLine
 10
354.2362099936144
 20
-415.3114046619857
 30
0.0
 11
342.021169045807
 21
-427.5264459738553
 31
0.0
  0
LINE
  5
FE
330
1F
100
AcDbEntity
  8
0
100
AcDbLine
 10
298.4644557680868
 20
-495.5132431734948
 30
0.0
 11
495.5132515819211
 21
-298.4644414867479
 31
0.0
  0
LINE
  5
FF
330
1F
100
AcDbEntity
  8
0
100
AcDbLine
 10
431.9737491015811
 20
-215.4234501184138
 30
0.0
 11
432.1850043862964
 21
-215.9334654704059
 31
0.0
  0
LINE
  5
100
330
1F
100
AcDbEntity
  8
0
100
AcDbLine
 10
317.5910871501918
 20
-451.9565285975939
 30
0.0
 11
268.7309219027146
 21
-403.0963648063625
 31
0.0
  0
LINE
  5
101
330
1F
100
AcDbEntity
  8
0
100
AcDbLine
 10
280.9459628505229
 20
-390.8813234944941
 30
0.0
 11
329.806128097997
 21
-439.7414872857266
 31
0.0
  0
LINE
  5
102
330
1F
100
AcDbEntity
  8
0
100
AcDbLine
 10
256.5158809549072
 20
-415.3114061182317
 30
0.0
 11
305.3760462023848
 21
-464.1715699094636
 31
0.0
  0
LINE
  5
103
330
1F
100
AcDbEntity
  8
0
100
AcDbLine
 10
244.3008400071001
 20
-427.5264474301
 30
0.0
 11
293.161005254575
 21
-476.3866112213319
 31
0.0
  0
LINE
  5
104
330
1F
100
AcDbEntity
  8
0
100
AcDbLine
 10
403.0963737848448
 20
-366.4512394145096
 30
0.0
 11
390.8813328370399
 21
-378.6662807263798
 31
0.0
  0
LINE
  5
105
330
1F
100
AcDbEntity
  8
0
100
AcDbLine
 10
354.2362085373695
 20
-317.5910756232785
 30
0.0
 11
342.0211675895596
 21
-329.8061169351481
 31
0.0
  0
LINE
  5
106
330
1F
100
AcDbEntity
  8
0
100
AcDbLine
 10
378.6662918892296
 20
-390.8813220382482
 30
0.0
 11
366.4512509414218
 21
-403.0963633501174
 31
0.0
  0
LINE
  5
107
330
1F
100
AcDbEntity
  8
0
100
AcDbLine
 10
329.8061266417537
 20
-342.0211582470183
 30
0.0
 11
317.5910856939465
 21
-354.2361995588868
 31
0.0
  0
LINE
  5
108
330
1F
100
AcDbEntity
  8
0
100
AcDbLine
 10
317.5910856939465
 20
-354.2361995588868
 30
0.0
 11
366.4512509414218
 21
-403.0963633501174
 31
0.0
  0
LINE
  5
109
330
1F
100
AcDbEntity
  8
0
100
AcDbLine
 10
293.1610037983315
 20
-378.6662821826246
 30
0.0
 11
342.021169045807
 21
-427.5264459738553
 31
0.0
  0
LINE
  5
10A
330
1F
100
AcDbEntity
  8
0
100
AcDbLine
 10
354.2362099936144
 20
-415.3114046619857
 30
0.0
 11
305.3760447461374
 21
-366.4512408707564
 31
0.0
  0
LINE
  5
10B
330
1F
100
AcDbEntity
  8
0
100
AcDbLine
 10
415.3114147326539
 20
-354.2361981026401
 30
0.0
 11
427.5264556804611
 21
-342.0211567907709
 31
0.0
  0
LINE
  5
10C
330
1F
100
AcDbEntity
  8
0
100
AcDbLine
 10
378.6662904329852
 20
-293.1609929995408
 30
0.0
 11
427.5264556804611
 21
-342.0211567907709
 31
0.0
  0
LINE
  5
10D
330
1F
100
AcDbEntity
  8
0
100
AcDbLine
 10
378.6662904329852
 20
-293.1609929995408
 30
0.0
 11
366.4512494851751
 21
-305.3760343114103
 31
0.0
  0
LINE
  5
10E
330
1F
100
AcDbEntity
  8
0
100
AcDbLine
 10
366.4512494851751
 20
-305.3760343114103
 30
0.0
 11
415.3114147326539
 21
-354.2361981026401
 31
0.0
  0
LINE
  5
10F
330
1F
100
AcDbEntity
  8
0
100
AcDbLine
 10
390.8813313807919
 20
-280.9459516876716
 30
0.0
 11
439.7414966282668
 21
-329.8061154789041
 31
0.0
  0
LINE
  5
110
330
1F
100
AcDbEntity
  8
0
100
AcDbLine
 10
439.7414966282668
 20
-329.8061154789041
 30
0.0
 11
451.9565375760766
 21
-317.5910741670334
 31
0.0
  0
LINE
  5
111
330
1F
100
AcDbEntity
  8
0
100
AcDbLine
 10
451.9565375760766
 20
-317.5910741670334
 30
0.0
 11
403.0963723286
 21
-268.7309103758021
 31
0.0
  0
LINE
  5
112
330
1F
100
AcDbEntity
  8
0
100
AcDbLine
 10
390.8813313807919
 20
-280.9459516876716
 30
0.0
 11
403.0963723286
 21
-268.7309103758021
 31
0.0
  0
LINE
  5
113
330
1F
100
AcDbEntity
  8
0
100
AcDbLine
 10
427.5264542242161
 20
-244.3008277520639
 30
0.0
 11
476.3866194716913
 21
-293.1609915432949
 31
0.0
  0
LINE
  5
114
330
1F
100
AcDbEntity
  8
0
100
AcDbLine
 10
415.3114132764066
 20
-256.5158690639339
 30
0.0
 11
427.5264542242161
 21
-244.3008277520639
 31
0.0
  0
LINE
  5
115
330
1F
100
AcDbEntity
  8
0
100
AcDbLine
 10
464.1715785238825
 20
-305.3760328551636
 30
0.0
 11
415.3114132764066
 21
-256.5158690639339
 31
0.0
  0
LINE
  5
116
330
1F
100
AcDbEntity
  8
0
100
AcDbLine
 10
464.1715785238825
 20
-305.3760328551636
 30
0.0
 11
476.3866194716913
 21
-293.1609915432949
 31
0.0
  0
LINE
  5
117
330
1F
100
AcDbEntity
  8
0
100
AcDbLine
 10
305.376046748476
 20
-500.8166932989791
 30
0.0
 11
500.816701913398
 21
-305.3760323090733
 31
0.0
  0
LINE
  5
118
330
1F
100
AcDbEntity
  8
0
100
AcDbLine
 10
506.9242223873028
 20
-299.2685116531387
 30
0.0
 11
513.0317428612088
 21
-293.1609909972034
 31
0.0
  0
LINE
  5
119
330
1F
100
AcDbEntity
  8
0
100
AcDbLine
 10
495.5132515819211
 20
-298.4644414867479
 30
0.0
 11
500.816701913398
 21
-305.3760323090733
 31
0.0
  0
LINE
  5
11A
330
1F
100
AcDbEntity
  8
0
100
AcDbLine
 10
293.1610058006708
 20
-513.0317346108476
 30
0.0
 11
299.2685262745709
 21
-506.9242139549135
 31
0.0
  0
LINE
  5
11B
330
1F
100
AcDbEntity
  8
0
100
AcDbLine
 10
-293.1609859053913
 20
-513.0317346113859
 30
0.0
 11
-299.2684890875207
 21
-506.9242228743839
 31
0.0
  0
LINE
  5
11C
330
1F
100
AcDbEntity
  8
0
100
AcDbLine
 10
500.816701913398
 20
-305.3760323090733
 30
0.0
 11
506.9242223873028
 21
-299.2685116531387
 31
0.0
  0
LINE
  5
11D
330
1F
100
AcDbEntity
  8
0
100
AcDbLine
 10
506.9242134678013
 20
299.2685037089453
 30
0.0
 11
500.8166928118655
 21
305.3760241828494
 31
0.0
  0
LINE
  5
11E
330
1F
100
AcDbEntity
  8
0
100
AcDbLine
 10
1099.353703987111
 20
-293.1609953660135
 30
0.0
 11
1105.461224552029
 21
-299.2685159309332
 31
0.0
  0
LINE
  5
11F
330
1F
100
AcDbEntity
  8
0
100
AcDbLine
 10
1313.116923759227
 20
-506.9242151382421
 30
0.0
 11
1319.224444324145
 21
-513.0317357031623
 31
0.0
  0
LINE
  5
120
330
1F
100
AcDbEntity
  8
0
100
AcDbLine
 10
1313.116923759227
 20
-506.9242151382421
 30
0.0
 11
1307.009403194309
 21
-500.8166945733215
 31
0.0
  0
LINE
  5
121
330
1F
100
AcDbEntity
  8
0
100
AcDbLine
 10
1105.461224552029
 20
-299.2685159309332
 30
0.0
 11
1111.568745116946
 21
-305.3760364958549
 31
0.0
  0
LINE
  5
122
330
1F
100
AcDbEntity
  8
0
100
AcDbLine
 10
1307.009403194309
 20
-500.8166945733215
 30
0.0
 11
1111.568745116946
 21
-305.3760364958549
 31
0.0
  0
LINE
  5
123
330
1F
100
AcDbEntity
  8
0
100
AcDbLine
 10
-1099.353700474732
 20
-293.1609942743056
 30
0.0
 11
-1105.461221039651
 21
-299.268514839225
 31
0.0
  0
LINE
  5
124
330
1F
100
AcDbEntity
  8
0
100
AcDbLine
 10
-1313.116920246902
 20
-506.924214046481
 30
0.0
 11
-1319.22444081182
 21
-513.0317346114005
 31
0.0
  0
LINE
  5
125
330
1F
100
AcDbEntity
  8
0
100
AcDbLine
 10
-1105.461221039651
 20
-299.268514839225
 30
0.0
 11
-1111.568741604571
 21
-305.3760354041443
 31
0.0
  0
LINE
  5
126
330
1F
100
AcDbEntity
  8
0
100
AcDbLine
 10
-1307.009399681982
 20
-500.8166934815624
 30
0.0
 11
-1313.116920246902
 21
-506.924214046481
 31
0.0
  0
LINE
  5
127
330
1F
100
AcDbEntity
  8
0
100
AcDbLine
 10
-1111.568741604571
 20
-305.3760354041443
 30
0.0
 11
-1307.009399681982
 21
-500.8166934815624
 31
0.0
  0
LINE
  5
128
330
1F
100
AcDbEntity
  8
0
100
AcDbLine
 10
1099.353703987289
 20
293.160978866222
 30
0.0
 11
1105.461224552209
 21
299.2684994311398
 31
0.0
  0
LINE
  5
129
330
1F
100
AcDbEntity
  8
0
100
AcDbLine
 10
1313.116923759509
 20
506.9241986383469
 30
0.0
 11
1319.224444324429
 21
513.0317192032647
 31
0.0
  0
LINE
  5
12A
330
1F
100
AcDbEntity
  8
0
100
AcDbLine
 10
1105.461224552209
 20
299.2684994311398
 30
0.0
 11
1111.56874511713
 21
305.3760199960577
 31
0.0
  0
LINE
  5
12B
330
1F
100
AcDbEntity
  8
0
100
AcDbLine
 10
1307.009403194588
 20
500.8166780734296
 30
0.0
 11
1313.116923759509
 21
506.9241986383469
 31
0.0
  0
LINE
  5
12C
330
1F
100
AcDbEntity
  8
0
100
AcDbLine
 10
1111.56874511713
 20
305.3760199960577
 30
0.0
 11
1307.009403194588
 21
500.8166780734296
 31
0.0
  0
LINE
  5
12D
330
1F
100
AcDbEntity
  8
0
100
AcDbLine
 10
-1099.353700474991
 20
293.1609799575324
 30
0.0
 11
-1105.461221039904
 21
299.2685005224573
 31
0.0
  0
LINE
  5
12E
330
1F
100
AcDbEntity
  8
0
100
AcDbLine
 10
-1313.11692024696
 20
506.9241997299078
 30
0.0
 11
-1319.224440811874
 21
513.0317202948321
 31
0.0
  0
LINE
  5
12F
330
1F
100
AcDbEntity
  8
0
100
AcDbLine
 10
-1105.461221039904
 20
299.2685005224573
 30
0.0
 11
-1111.568741604818
 21
305.3760210873827
 31
0.0
  0
LINE
  5
130
330
1F
100
AcDbEntity
  8
0
100
AcDbLine
 10
-1307.009399682047
 20
500.8166791649824
 30
0.0
 11
-1313.11692024696
 21
506.9241997299078
 31
0.0
  0
LINE
  5
131
330
1F
100
AcDbEntity
  8
0
100
AcDbLine
 10
-1111.568741604818
 20
305.3760210873827
 30
0.0
 11
-1307.009399682047
 21
500.8166791649824
 31
0.0
  0
LINE
  5
132
330
1F
100
AcDbEntity
  8
0
100
AcDbLine
 10
1658.368975753215
 20
829.1844878766075
 30
0.0
 11
-1658.368975753214
 21
829.1844878766075
 31
0.0
  0
LINE
  5
133
330
1F
100
AcDbEntity
  8
0
100
AcDbLine
 10
-1658.368975753214
 20
-829.1844878766075
 30
0.0
 11
1658.368975753215
 21
-829.1844878766075
 31
0.0
  0
LINE
  5
134
330
1F
100
AcDbEntity
  8
0
100
AcDbLine
 10
1658.368975753215
 20
-829.1844878766075
 30
0.0
 11
1658.368975753215
 21
829.1844878766075
 31
0.0
  0
LINE
  5
135
330
1F
100
AcDbEntity
  8
0
100
AcDbLine
 10
-1658.368975753214
 20
829.1844878766075
 30
0.0
 11
-1658.368975753214
 21
-829.1844878766075
 31
0.0
  0
LINE
  5
136
330
1F
100
AcDbEntity
  8
0
100
AcDbLine
 10
207.2961242710928
 20
447.1452908569643
 30
0.0
 11
293.1609894180011
 21
513.0317192034904
 31
0.0
  0
LINE
  5
137
330
1F
100
AcDbEntity
  8
0
100
AcDbLine
 10
207.2961242710928
 20
447.1452908569643
 30
0.0
 11
107.3043709850011
 21
405.7273505202932
 31
0.0
  0
LINE
  5
138
330
1F
100
AcDbEntity
  8
0
100
AcDbLine
 10
0.0000023019904563
 20
391.6004623810342
 30
0.0
 11
107.3043709850011
 21
405.7273505202932
 31
0.0
  0
LINE
  5
139
330
1F
100
AcDbEntity
  8
0
100
AcDbLine
 10
-107.3043663810457
 20
405.7273505200923
 30
0.0
 11
0.0000023019904563
 21
391.6004623810342
 31
0.0
  0
LINE
  5
13A
330
1F
100
AcDbEntity
  8
0
100
AcDbLine
 10
-107.3043663810457
 20
405.7273505200923
 30
0.0
 11
-207.296119667213
 21
447.1452908565776
 31
0.0
  0
LINE
  5
13B
330
1F
100
AcDbEntity
  8
0
100
AcDbLine
 10
-293.1609848142531
 20
513.0317192029528
 30
0.0
 11
-207.296119667213
 21
447.1452908565776
 31
0.0
  0
LINE
  5
13C
330
1F
100
AcDbEntity
  8
0
100
AcDbLine
 10
-206.7861043120666
 20
428.3960238874015
 30
0.0
 11
-215.423442727453
 21
431.9737266018525
 31
0.0
  0
LINE
  5
13D
330
1F
100
AcDbEntity
  8
0
100
AcDbLine
 10
109.5398786659055
 20
397.3843222744778
 30
0.0
 11
211.6147934787889
 21
439.6651363681673
 31
0.0
  0
LINE
  5
13E
330
1F
100
AcDbEntity
  8
0
100
AcDbLine
 10
206.7861089159643
 20
428.3960238877813
 30
0.0
 11
111.7753863468105
 21
389.0412940286663
 31
0.0
  0
LINE
  5
13F
330
1F
100
AcDbEntity
  8
0
100
AcDbLine
 10
111.7753863468105
 20
389.0412940286663
 30
0.0
 11
0.0000023020078157
 21
374.3257855502717
 31
0.0
  0
LINE
  5
140
330
1F
100
AcDbEntity
  8
0
100
AcDbLine
 10
-111.7753817428215
 20
389.0412940284565
 30
0.0
 11
0.0000023020078157
 21
374.3257855502717
 31
0.0
  0
LINE
  5
141
330
1F
100
AcDbEntity
  8
0
100
AcDbLine
 10
-206.7861043120666
 20
428.3960238874015
 30
0.0
 11
-111.7753817428215
 21
389.0412940284565
 31
0.0
  0
LINE
  5
142
330
1F
100
AcDbEntity
  8
0
100
AcDbLine
 10
-298.4644350427197
 20
495.5132278446271
 30
0.0
 11
-215.9334580825795
 21
432.184981878963
 31
0.0
  0
LINE
  5
143
330
1F
100
AcDbEntity
  8
0
100
AcDbLine
 10
-211.6147888748957
 20
439.6651363677688
 30
0.0
 11
-299.2685053791674
 21
506.9241986380259
 31
0.0
  0
LINE
  5
144
330
1F
100
AcDbEntity
  8
0
100
AcDbLine
 10
-211.6147888748957
 20
439.6651363677688
 30
0.0
 11
-109.5398740619332
 21
397.3843222742747
 31
0.0
  0
LINE
  5
145
330
1F
100
AcDbEntity
  8
0
100
AcDbLine
 10
-109.5398740619332
 20
397.3843222742747
 30
0.0
 11
0.0000023019992358
 21
382.963123965653
 31
0.0
  0
LINE
  5
146
330
1F
100
AcDbEntity
  8
0
100
AcDbLine
 10
0.0000023019992358
 20
382.963123965653
 30
0.0
 11
109.5398786659055
 21
397.3843222744778
 31
0.0
  0
LINE
  5
147
330
1F
100
AcDbEntity
  8
0
100
AcDbLine
 10
299.2685099829262
 20
506.9241986385766
 30
0.0
 11
211.6147934787889
 21
439.6651363681673
 31
0.0
  0
LINE
  5
148
330
1F
100
AcDbEntity
  8
0
100
AcDbLine
 10
215.9334626864869
 20
432.1849818793663
 30
0.0
 11
298.4644396464923
 21
495.5132278451719
 31
0.0
  0
LINE
  5
149
330
1F
100
AcDbEntity
  8
0
100
AcDbLine
 10
215.4234473313421
 20
431.9737266022461
 30
0.0
 11
206.7861089159643
 21
428.3960238877813
 31
0.0
  0
LINE
  5
14A
330
1F
100
AcDbEntity
  8
0
100
AcDbLine
 10
-439.6651434075065
 20
-211.6147983351325
 30
0.0
 11
-397.3843293140149
 21
-109.5398835221688
 31
0.0
  0
LINE
  5
14B
330
1F
100
AcDbEntity
  8
0
100
AcDbLine
 10
-428.3960309272629
 20
-206.7861137726037
 30
0.0
 11
-389.0413010681967
 21
-111.775391203057
 31
0.0
  0
LINE
  5
14C
330
1F
100
AcDbEntity
  8
0
100
AcDbLine
 10
-428.3960309272629
 20
-206.7861137726037
 30
0.0
 11
-431.9737336416708
 21
-215.4234521878941
 31
0.0
  0
LINE
  5
14D
330
1F
100
AcDbEntity
  8
0
100
AcDbLine
 10
-495.5132348844858
 20
-298.4644445031257
 30
0.0
 11
-432.1849889187
 21
-215.9334675428172
 31
0.0
  0
LINE
  5
14E
330
1F
100
AcDbEntity
  8
0
100
AcDbLine
 10
-439.6651434075065
 20
-211.6147983351325
 30
0.0
 11
-506.9242056777487
 21
-299.268514839397
 31
0.0
  0
LINE
  5
14F
330
1F
100
AcDbEntity
  8
0
100
AcDbLine
 10
-397.3843293140149
 20
-109.5398835221688
 30
0.0
 11
-382.9631310053953
 21
-0.0000071582358251
 31
0.0
  0
LINE
  5
150
330
1F
100
AcDbEntity
  8
0
100
AcDbLine
 10
-382.9631310053953
 20
-0.0000071582358251
 30
0.0
 11
-397.3843293142275
 21
109.5398692056698
 31
0.0
  0
LINE
  5
151
330
1F
100
AcDbEntity
  8
0
100
AcDbLine
 10
-397.3843293142275
 20
109.5398692056698
 30
0.0
 11
-439.6651434079175
 21
211.6147840185523
 31
0.0
  0
LINE
  5
152
330
1F
100
AcDbEntity
  8
0
100
AcDbLine
 10
-506.924205678331
 20
299.2685005226851
 30
0.0
 11
-439.6651434079175
 21
211.6147840185523
 31
0.0
  0
LINE
  5
153
330
1F
100
AcDbEntity
  8
0
100
AcDbLine
 10
-432.1849889191176
 20
215.9334532262487
 30
0.0
 11
-495.5132348849309
 21
298.4644301862583
 31
0.0
  0
LINE
  5
154
330
1F
100
AcDbEntity
  8
0
100
AcDbLine
 10
-431.9737336419988
 20
215.4234378711096
 30
0.0
 11
-428.3960309275343
 21
206.7860994557312
 31
0.0
  0
LINE
  5
155
330
1F
100
AcDbEntity
  8
0
100
AcDbLine
 10
-389.0413010684141
 20
111.7753768865734
 30
0.0
 11
-428.3960309275343
 21
206.7860994557312
 31
0.0
  0
LINE
  5
156
330
1F
100
AcDbEntity
  8
0
100
AcDbLine
 10
-389.0413010684141
 20
111.7753768865734
 30
0.0
 11
-374.3257925900144
 21
-0.0000071582279436
 31
0.0
  0
LINE
  5
157
330
1F
100
AcDbEntity
  8
0
100
AcDbLine
 10
-389.0413010681967
 20
-111.775391203057
 30
0.0
 11
-374.3257925900144
 21
-0.0000071582279436
 31
0.0
  0
LINE
  5
158
330
1F
100
AcDbEntity
  8
0
100
AcDbLine
 10
-447.1452978967172
 20
207.2961148108527
 30
0.0
 11
-405.7273575600401
 21
107.3043615247652
 31
0.0
  0
LINE
  5
159
330
1F
100
AcDbEntity
  8
0
100
AcDbLine
 10
-405.7273575600401
 20
107.3043615247652
 30
0.0
 11
-391.6004694207762
 21
-0.0000071582445025
 31
0.0
  0
LINE
  5
15A
330
1F
100
AcDbEntity
  8
0
100
AcDbLine
 10
-513.0317262432437
 20
293.1609799577604
 30
0.0
 11
-447.1452978967172
 21
207.2961148108527
 31
0.0
  0
LINE
  5
15B
330
1F
100
AcDbEntity
  8
0
100
AcDbLine
 10
-405.7273575598328
 20
-107.3043758412803
 30
0.0
 11
-391.6004694207762
 21
-0.0000071582445025
 31
0.0
  0
LINE
  5
15C
330
1F
100
AcDbEntity
  8
0
100
AcDbLine
 10
495.5132426865161
 20
298.4644332026355
 30
0.0
 11
298.4644396464923
 21
495.5132278451719
 31
0.0
  0
LINE
  5
15D
330
1F
100
AcDbEntity
  8
0
100
AcDbLine
 10
-447.1452978963133
 20
-207.2961291274498
 30
0.0
 11
-405.7273575598328
 21
-107.3043758412803
 31
0.0
  0
LINE
  5
15E
330
1F
100
AcDbEntity
  8
0
100
AcDbLine
 10
-447.1452978963133
 20
-207.2961291274498
 30
0.0
 11
-513.031726242674
 21
-293.1609942744846
 31
0.0
  0
LINE
  5
15F
330
1F
100
AcDbEntity
  8
0
100
AcDbLine
 10
432.1849979505416
 20
215.9334552986602
 30
0.0
 11
495.5132426865161
 21
298.4644332026355
 31
0.0
  0
LINE
  5
160
330
1F
100
AcDbEntity
  8
0
100
AcDbLine
 10
431.9737426811163
 20
215.4234399405894
 30
0.0
 11
215.4234473313421
 21
431.9737266022461
 31
0.0
  0
LINE
  5
161
330
1F
100
AcDbEntity
  8
0
100
AcDbLine
 10
428.3960400954105
 20
206.7861014719866
 30
0.0
 11
431.9737426811163
 21
215.4234399405894
 31
0.0
  0
LINE
  5
162
330
1F
100
AcDbEntity
  8
0
100
AcDbLine
 10
389.0413116521194
 20
111.7753783160085
 30
0.0
 11
428.3960400954105
 21
206.7861014719866
 31
0.0
  0
LINE
  5
163
330
1F
100
AcDbEntity
  8
0
100
AcDbLine
 10
374.3258048395268
 20
-0.0000059481015333
 30
0.0
 11
389.0413116521194
 21
111.7753783160085
 31
0.0
  0
LINE
  5
164
330
1F
100
AcDbEntity
  8
0
100
AcDbLine
 10
389.0413149835118
 20
-111.7753897736227
 30
0.0
 11
374.3258048395268
 21
-0.0000059481015333
 31
0.0
  0
LINE
  5
165
330
1F
100
AcDbEntity
  8
0
100
AcDbLine
 10
428.39604754549
 20
-206.7861148636357
 30
0.0
 11
389.0413149835118
 21
-111.7753897736227
 31
0.0
  0
LINE
  5
166
330
1F
100
AcDbEntity
  8
0
100
AcDbLine
 10
111.7754008816299
 20
-389.0413121392165
 30
0.0
 11
206.7861209300192
 21
-428.3960392953064
 31
0.0
  0
LINE
  5
167
330
1F
100
AcDbEntity
  8
0
100
AcDbLine
 10
0.0000166175203135
 20
-374.3258053266168
 30
0.0
 11
111.7754008816299
 21
-389.0413121392165
 31
0.0
  0
LINE
  5
168
330
1F
100
AcDbEntity
  8
0
100
AcDbLine
 10
-111.7753672080031
 20
-389.0413154706001
 30
0.0
 11
0.0000166175203135
 21
-374.3258053266168
 31
0.0
  0
LINE
  5
169
330
1F
100
AcDbEntity
  8
0
100
AcDbLine
 10
-206.7860891907204
 20
-428.3960467454901
 30
0.0
 11
-111.7753672080031
 21
-389.0413154706001
 31
0.0
  0
LINE
  5
16A
330
1F
100
AcDbEntity
  8
0
100
AcDbLine
 10
-298.4644189211255
 20
-495.5132520689984
 30
0.0
 11
-215.933442904786
 21
-432.1850048733815
 31
0.0
  0
LINE
  5
16B
330
1F
100
AcDbEntity
  8
0
100
AcDbLine
 10
0.0000167462353867
 20
-382.9631437419982
 30
0.0
 11
-109.5398594027771
 21
-397.3843436831027
 31
0.0
  0
LINE
  5
16C
330
1F
100
AcDbEntity
  8
0
100
AcDbLine
 10
107.3043857684948
 20
-405.7273686974738
 30
0.0
 11
207.2961396718385
 21
-447.1453075439617
 31
0.0
  0
LINE
  5
16D
330
1F
100
AcDbEntity
  8
0
100
AcDbLine
 10
109.5398933250616
 20
-397.3843404183455
 30
0.0
 11
0.0000167462353867
 21
-382.9631437419982
 31
0.0
  0
LINE
  5
16E
330
1F
100
AcDbEntity
  8
0
100
AcDbLine
 10
-215.4234275527878
 20
-431.9737495886613
 30
0.0
 11
-206.7860891907204
 21
-428.3960467454901
 31
0.0
  0
LINE
  5
16F
330
1F
100
AcDbEntity
  8
0
100
AcDbLine
 10
-109.5398594027771
 20
-397.3843436831027
 30
0.0
 11
-211.6147735856248
 21
-439.6651592978276
 31
0.0
  0
LINE
  5
170
330
1F
100
AcDbEntity
  8
0
100
AcDbLine
 10
211.614808768059
 20
-439.6651529908027
 30
0.0
 11
109.5398933250616
 21
-397.3843404183455
 31
0.0
  0
LINE
  5
171
330
1F
100
AcDbEntity
  8
0
100
AcDbLine
 10
0.0000168749506675
 20
-391.6004821573791
 30
0.0
 11
107.3043857684948
 21
-405.7273686974738
 31
0.0
  0
LINE
  5
172
330
1F
100
AcDbEntity
  8
0
100
AcDbLine
 10
-299.2684890875207
 20
-506.9242228743839
 30
0.0
 11
-211.6147735856248
 21
-439.6651592978276
 31
0.0
  0
LINE
  5
173
330
1F
100
AcDbEntity
  8
0
100
AcDbLine
 10
206.7861209300192
 20
-428.3960392953064
 30
0.0
 11
215.423462506005
 21
-431.973743168129
 31
0.0
  0
LINE
  5
174
330
1F
100
AcDbEntity
  8
0
100
AcDbLine
 10
215.9334778642793
 20
-432.1849984376406
 30
0.0
 11
298.4644557680868
 21
-495.5132431734948
 31
0.0
  0
LINE
  5
175
330
1F
100
AcDbEntity
  8
0
100
AcDbLine
 10
211.614808768059
 20
-439.6651529908027
 30
0.0
 11
299.2685262745709
 21
-506.9242139549135
 31
0.0
  0
LINE
  5
176
330
1F
100
AcDbEntity
  8
0
100
AcDbLine
 10
-107.3043515975506
 20
-405.7273718956037
 30
0.0
 11
0.0000168749506675
 21
-391.6004821573791
 31
0.0
  0
LINE
  5
177
330
1F
100
AcDbEntity
  8
0
100
AcDbLine
 10
207.2961396718385
 20
-447.1453075439617
 30
0.0
 11
293.1610058006708
 21
-513.0317346108476
 31
0.0
  0
LINE
  5
178
330
1F
100
AcDbEntity
  8
0
100
AcDbLine
 10
405.7273714085154
 20
-107.3043741631732
 30
0.0
 11
391.6004816702895
 21
-0.0000056906706819
 31
0.0
  0
LINE
  5
179
330
1F
100
AcDbEntity
  8
0
100
AcDbLine
 10
405.7273714085154
 20
-107.3043741631732
 30
0.0
 11
447.1453132351902
 21
-207.296126832085
 31
0.0
  0
LINE
  5
17A
330
1F
100
AcDbEntity
  8
0
100
AcDbLine
 10
495.5132515819211
 20
-298.4644414867479
 30
0.0
 11
432.1850043862964
 21
-215.9334654704059
 31
0.0
  0
LINE
  5
17B
330
1F
100
AcDbEntity
  8
0
100
AcDbLine
 10
397.3843399312485
 20
109.5398707594406
 30
0.0
 11
439.6651525037022
 21
211.61478620244
 31
0.0
  0
LINE
  5
17C
330
1F
100
AcDbEntity
  8
0
100
AcDbLine
 10
506.9242134678013
 20
299.2685037089453
 30
0.0
 11
439.6651525037022
 21
211.61478620244
 31
0.0
  0
LINE
  5
17D
330
1F
100
AcDbEntity
  8
0
100
AcDbLine
 10
513.0317297552731
 20
293.1609788665783
 30
0.0
 11
447.1453070568616
 21
207.2961171062193
 31
0.0
  0
LINE
  5
17E
330
1F
100
AcDbEntity
  8
0
100
AcDbLine
 10
447.1453070568616
 20
207.2961171062193
 30
0.0
 11
405.7273682103786
 21
107.3043632028741
 31
0.0
  0
LINE
  5
17F
330
1F
100
AcDbEntity
  8
0
100
AcDbLine
 10
405.7273682103786
 20
107.3043632028741
 30
0.0
 11
391.6004816702895
 21
-0.0000056906706819
 31
0.0
  0
LINE
  5
180
330
1F
100
AcDbEntity
  8
0
100
AcDbLine
 10
513.0317428612088
 20
-293.1609909972034
 30
0.0
 11
447.1453132351902
 21
-207.296126832085
 31
0.0
  0
LINE
  5
181
330
1F
100
AcDbEntity
  8
0
100
AcDbLine
 10
439.6651588107428
 20
-211.6147961512458
 30
0.0
 11
506.9242223873028
 21
-299.2685116531387
 31
0.0
  0
LINE
  5
182
330
1F
100
AcDbEntity
  8
0
100
AcDbLine
 10
439.6651588107428
 20
-211.6147961512458
 30
0.0
 11
397.3843431960144
 21
-109.5398819683981
 31
0.0
  0
LINE
  5
183
330
1F
100
AcDbEntity
  8
0
100
AcDbLine
 10
397.3843431960144
 20
-109.5398819683981
 30
0.0
 11
382.9631432549085
 21
-0.0000058193857565
 31
0.0
  0
LINE
  5
184
330
1F
100
AcDbEntity
  8
0
100
AcDbLine
 10
382.9631432549085
 20
-0.0000058193857565
 30
0.0
 11
397.3843399312485
 21
109.5398707594406
 31
0.0
  0
LINE
  5
185
330
1F
100
AcDbEntity
  8
0
100
AcDbLine
 10
431.9737491015811
 20
-215.4234501184138
 30
0.0
 11
428.39604754549
 21
-206.7861148636357
 31
0.0
  0
LINE
  5
186
330
1F
100
AcDbEntity
  8
0
100
AcDbLine
 10
-207.2961042664635
 20
-447.1453137222753
 30
0.0
 11
-293.1609859053913
 21
-513.0317346113859
 31
0.0
  0
LINE
  5
187
330
1F
100
AcDbEntity
  8
0
100
AcDbLine
 10
-207.2961042664635
 20
-447.1453137222753
 30
0.0
 11
-107.3043515975506
 21
-405.7273718956037
 31
0.0
  0
LINE
  5
188
330
1F
100
AcDbEntity
  8
0
100
AcDbLine
 10
696.6528405070396
 20
-408.8083922947459
 30
0.0
 11
594.5779256941278
 21
-366.5275782011274
 31
0.0
  0
LINE
  5
189
330
1F
100
AcDbEntity
  8
0
100
AcDbLine
 10
506.9242223873028
 20
-299.2685116531387
 30
0.0
 11
594.5779256941278
 21
-366.5275782011274
 31
0.0
  0
LINE
  5
18A
330
1F
100
AcDbEntity
  8
0
100
AcDbLine
 10
806.192716870955
 20
-423.2295906035
 30
0.0
 11
696.6528405070396
 21
-408.8083922947459
 31
0.0
  0
LINE
  5
18B
330
1F
100
AcDbEntity
  8
0
100
AcDbLine
 10
1017.807508047812
 20
-366.52757820124
 30
0.0
 11
1105.461224552029
 21
-299.2685159309332
 31
0.0
  0
LINE
  5
18C
330
1F
100
AcDbEntity
  8
0
100
AcDbLine
 10
1017.807508047812
 20
-366.52757820124
 30
0.0
 11
915.7325932348781
 21
-408.8083922948036
 31
0.0
  0
LINE
  5
18D
330
1F
100
AcDbEntity
  8
0
100
AcDbLine
 10
915.7325932348781
 20
-408.8083922948036
 30
0.0
 11
806.192716870955
 21
-423.2295906035
 31
0.0
  0
LINE
  5
18E
330
1F
100
AcDbEntity
  8
0
100
AcDbLine
 10
598.8965949018192
 20
-359.0474237123262
 30
0.0
 11
513.0317428612088
 21
-293.1609909972034
 31
0.0
  0
LINE
  5
18F
330
1F
100
AcDbEntity
  8
0
100
AcDbLine
 10
598.8965949018192
 20
-359.0474237123262
 30
0.0
 11
698.8883481879369
 21
-400.4653640489313
 31
0.0
  0
LINE
  5
190
330
1F
100
AcDbEntity
  8
0
100
AcDbLine
 10
806.1927168709576
 20
-414.5922521881171
 30
0.0
 11
698.8883481879369
 21
-400.4653640489313
 31
0.0
  0
LINE
  5
191
330
1F
100
AcDbEntity
  8
0
100
AcDbLine
 10
913.4970855539838
 20
-400.4653640489871
 30
0.0
 11
806.1927168709576
 21
-414.5922521881171
 31
0.0
  0
LINE
  5
192
330
1F
100
AcDbEntity
  8
0
100
AcDbLine
 10
913.4970855539838
 20
-400.4653640489871
 30
0.0
 11
1013.488838840123
 21
-359.0474237124348
 31
0.0
  0
LINE
  5
193
330
1F
100
AcDbEntity
  8
0
100
AcDbLine
 10
1099.353703987111
 20
-293.1609953660135
 30
0.0
 11
1013.488838840123
 21
-359.0474237124348
 31
0.0
  0
LINE
  5
194
330
1F
100
AcDbEntity
  8
0
100
AcDbLine
 10
806.1927168709524
 20
-431.8669290188803
 30
0.0
 11
917.9681009157715
 21
-417.1514205406186
 31
0.0
  0
LINE
  5
195
330
1F
100
AcDbEntity
  8
0
100
AcDbLine
 10
500.816701913398
 20
-305.3760323090733
 30
0.0
 11
590.259256486434
 21
-374.0077326899305
 31
0.0
  0
LINE
  5
196
330
1F
100
AcDbEntity
  8
0
100
AcDbLine
 10
1022.1261772555
 20
-374.0077326900447
 30
0.0
 11
917.9681009157715
 21
-417.1514205406186
 31
0.0
  0
LINE
  5
197
330
1F
100
AcDbEntity
  8
0
100
AcDbLine
 10
590.259256486434
 20
-374.0077326899305
 30
0.0
 11
694.4173328261408
 21
-417.1514205405614
 31
0.0
  0
LINE
  5
198
330
1F
100
AcDbEntity
  8
0
100
AcDbLine
 10
1111.568745116946
 20
-305.3760364958549
 30
0.0
 11
1022.1261772555
 21
-374.0077326900447
 31
0.0
  0
LINE
  5
199
330
1F
100
AcDbEntity
  8
0
100
AcDbLine
 10
443.4245034248859
 20
-628.3329853092101
 30
0.0
 11
618.410071675592
 21
-700.8143808982685
 31
0.0
  0
LINE
  5
19A
330
1F
100
AcDbEntity
  8
0
100
AcDbLine
 10
443.4245034248859
 20
-628.3329853092101
 30
0.0
 11
293.1610058006708
 21
-513.0317346108476
 31
0.0
  0
LINE
  5
19B
330
1F
100
AcDbEntity
  8
0
100
AcDbLine
 10
299.2685262745709
 20
-506.9242139549135
 30
0.0
 11
447.7431726325777
 21
-620.8528308204075
 31
0.0
  0
LINE
  5
19C
330
1F
100
AcDbEntity
  8
0
100
AcDbLine
 10
620.6455793564902
 20
-692.4713526524546
 30
0.0
 11
447.7431726325777
 21
-620.8528308204075
 31
0.0
  0
LINE
  5
19D
330
1F
100
AcDbEntity
  8
0
100
AcDbLine
 10
806.1927168708769
 20
-716.8990967264634
 30
0.0
 11
620.6455793564902
 21
-692.4713526524546
 31
0.0
  0
LINE
  5
19E
330
1F
100
AcDbEntity
  8
0
100
AcDbLine
 10
991.739854385278
 20
-692.4713526525519
 30
0.0
 11
806.1927168708769
 21
-716.8990967264634
 31
0.0
  0
LINE
  5
19F
330
1F
100
AcDbEntity
  8
0
100
AcDbLine
 10
1164.642261109228
 20
-620.8528308205957
 30
0.0
 11
991.739854385278
 21
-692.4713526525519
 31
0.0
  0
LINE
  5
1A0
330
1F
100
AcDbEntity
  8
0
100
AcDbLine
 10
1164.642261109228
 20
-620.8528308205957
 30
0.0
 11
1313.116923759227
 21
-506.9242151382421
 31
0.0
  0
LINE
  5
1A1
330
1F
100
AcDbEntity
  8
0
100
AcDbLine
 10
1319.224444324145
 20
-513.0317357031623
 30
0.0
 11
1168.960930316917
 21
-628.3329853093995
 31
0.0
  0
LINE
  5
1A2
330
1F
100
AcDbEntity
  8
0
100
AcDbLine
 10
993.9753620661741
 20
-700.8143808983666
 30
0.0
 11
1168.960930316917
 21
-628.3329853093995
 31
0.0
  0
LINE
  5
1A3
330
1F
100
AcDbEntity
  8
0
100
AcDbLine
 10
806.192716870875
 20
-725.5364351418452
 30
0.0
 11
993.9753620661741
 21
-700.8143808983666
 31
0.0
  0
LINE
  5
1A4
330
1F
100
AcDbEntity
  8
0
100
AcDbLine
 10
618.410071675592
 20
-700.8143808982685
 30
0.0
 11
806.192716870875
 21
-725.5364351418452
 31
0.0
  0
LINE
  5
1A5
330
1F
100
AcDbEntity
  8
0
100
AcDbLine
 10
694.4173328261408
 20
-417.1514205405614
 30
0.0
 11
806.1927168709524
 21
-431.8669290188803
 31
0.0
  0
LINE
  5
1A6
330
1F
100
AcDbEntity
  8
0
100
AcDbLine
 10
1160.323591901539
 20
-613.3726763317898
 30
0.0
 11
1307.009403194309
 21
-500.8166945733215
 31
0.0
  0
LINE
  5
1A7
330
1F
100
AcDbEntity
  8
0
100
AcDbLine
 10
305.376046748476
 20
-500.8166932989791
 30
0.0
 11
452.0618418402697
 21
-613.372676331605
 31
0.0
  0
LINE
  5
1A8
330
1F
100
AcDbEntity
  8
0
100
AcDbLine
 10
806.1927168708796
 20
-708.261758311083
 30
0.0
 11
622.8810870373877
 21
-684.1283244066391
 31
0.0
  0
LINE
  5
1A9
330
1F
100
AcDbEntity
  8
0
100
AcDbLine
 10
989.5043467043834
 20
-684.1283244067349
 30
0.0
 11
806.1927168708796
 21
-708.261758311083
 31
0.0
  0
LINE
  5
1AA
330
1F
100
AcDbEntity
  8
0
100
AcDbLine
 10
989.5043467043834
 20
-684.1283244067349
 30
0.0
 11
1160.323591901539
 21
-613.3726763317898
 31
0.0
  0
LINE
  5
1AB
330
1F
100
AcDbEntity
  8
0
100
AcDbLine
 10
622.8810870373877
 20
-684.1283244066391
 30
0.0
 11
452.0618418402697
 21
-613.372676331605
 31
0.0
  0
LINE
  5
1AC
330
1F
100
AcDbEntity
  8
0
100
AcDbLine
 10
-915.7325897225273
 20
-408.8083912031407
 30
0.0
 11
-1017.807504535451
 21
-366.5275771095507
 31
0.0
  0
LINE
  5
1AD
330
1F
100
AcDbEntity
  8
0
100
AcDbLine
 10
-1105.461221039651
 20
-299.268514839225
 30
0.0
 11
-1017.807504535451
 21
-366.5275771095507
 31
0.0
  0
LINE
  5
1AE
330
1F
100
AcDbEntity
  8
0
100
AcDbLine
 10
-806.1927133586079
 20
-423.2295895118644
 30
0.0
 11
-915.7325897225273
 21
-408.8083912031407
 31
0.0
  0
LINE
  5
1AF
330
1F
100
AcDbEntity
  8
0
100
AcDbLine
 10
-594.5779221817662
 20
-366.5275771095455
 30
0.0
 11
-506.9242056777487
 21
-299.268514839397
 31
0.0
  0
LINE
  5
1B0
330
1F
100
AcDbEntity
  8
0
100
AcDbLine
 10
-594.5779221817662
 20
-366.5275771095455
 30
0.0
 11
-696.6528369946888
 21
-408.8083912031379
 31
0.0
  0
LINE
  5
1B1
330
1F
100
AcDbEntity
  8
0
100
AcDbLine
 10
-696.6528369946888
 20
-408.8083912031379
 30
0.0
 11
-806.1927133586079
 21
-423.2295895118644
 31
0.0
  0
LINE
  5
1B2
330
1F
100
AcDbEntity
  8
0
100
AcDbLine
 10
-1013.488835327761
 20
-359.0474226207483
 30
0.0
 11
-1099.353700474732
 21
-293.1609942743056
 31
0.0
  0
LINE
  5
1B3
330
1F
100
AcDbEntity
  8
0
100
AcDbLine
 10
-1013.488835327761
 20
-359.0474226207483
 30
0.0
 11
-913.4970820416322
 21
-400.465362957326
 31
0.0
  0
LINE
  5
1B4
330
1F
100
AcDbEntity
  8
0
100
AcDbLine
 10
-806.1927133586075
 20
-414.5922510964816
 30
0.0
 11
-913.4970820416322
 21
-400.465362957326
 31
0.0
  0
LINE
  5
1B5
330
1F
100
AcDbEntity
  8
0
100
AcDbLine
 10
-698.8883446755854
 20
-400.4653629573216
 30
0.0
 11
-806.1927133586075
 21
-414.5922510964816
 31
0.0
  0
LINE
  5
1B6
330
1F
100
AcDbEntity
  8
0
100
AcDbLine
 10
-698.8883446755854
 20
-400.4653629573216
 30
0.0
 11
-598.896591389458
 21
-359.047422620742
 31
0.0
  0
LINE
  5
1B7
330
1F
100
AcDbEntity
  8
0
100
AcDbLine
 10
-513.031726242674
 20
-293.1609942744846
 30
0.0
 11
-598.896591389458
 21
-359.047422620742
 31
0.0
  0
LINE
  5
1B8
330
1F
100
AcDbEntity
  8
0
100
AcDbLine
 10
-806.1927133586081
 20
-431.8669279272448
 30
0.0
 11
-694.4173293137933
 21
-417.1514194489524
 31
0.0
  0
LINE
  5
1B9
330
1F
100
AcDbEntity
  8
0
100
AcDbLine
 10
-1111.568741604571
 20
-305.3760354041443
 30
0.0
 11
-1022.126173743142
 21
-374.007731598355
 31
0.0
  0
LINE
  5
1BA
330
1F
100
AcDbEntity
  8
0
100
AcDbLine
 10
-590.2592529740759
 20
-374.0077315983489
 30
0.0
 11
-694.4173293137933
 21
-417.1514194489524
 31
0.0
  0
LINE
  5
1BB
330
1F
100
AcDbEntity
  8
0
100
AcDbLine
 10
-1022.126173743142
 20
-374.007731598355
 30
0.0
 11
-917.9680974034242
 21
-417.151419448957
 31
0.0
  0
LINE
  5
1BC
330
1F
100
AcDbEntity
  8
0
100
AcDbLine
 10
-500.8166851128256
 20
-305.3760354043106
 30
0.0
 11
-590.2592529740759
 21
-374.0077315983489
 31
0.0
  0
LINE
  5
1BD
330
1F
100
AcDbEntity
  8
0
100
AcDbLine
 10
-1168.96092680462
 20
-628.3329842176755
 30
0.0
 11
-993.9753585538936
 21
-700.8143798066853
 31
0.0
  0
LINE
  5
1BE
330
1F
100
AcDbEntity
  8
0
100
AcDbLine
 10
-1168.96092680462
 20
-628.3329842176755
 30
0.0
 11
-1319.22444081182
 21
-513.0317346114005
 31
0.0
  0
LINE
  5
1BF
330
1F
100
AcDbEntity
  8
0
100
AcDbLine
 10
-1313.116920246902
 20
-506.924214046481
 30
0.0
 11
-1164.64225759693
 21
-620.8528297288717
 31
0.0
  0
LINE
  5
1C0
330
1F
100
AcDbEntity
  8
0
100
AcDbLine
 10
-991.7398508729976
 20
-692.4713515608706
 30
0.0
 11
-1164.64225759693
 21
-620.8528297288717
 31
0.0
  0
LINE
  5
1C1
330
1F
100
AcDbEntity
  8
0
100
AcDbLine
 10
-806.1927133586042
 20
-716.8990956348281
 30
0.0
 11
-991.7398508729976
 21
-692.4713515608706
 31
0.0
  0
LINE
  5
1C2
330
1F
100
AcDbEntity
  8
0
100
AcDbLine
 10
-620.6455758442097
 20
-692.4713515608648
 30
0.0
 11
-806.1927133586042
 21
-716.8990956348281
 31
0.0
  0
LINE
  5
1C3
330
1F
100
AcDbEntity
  8
0
100
AcDbLine
 10
-447.7431691202798
 20
-620.8528297288606
 30
0.0
 11
-620.6455758442097
 21
-692.4713515608648
 31
0.0
  0
LINE
  5
1C4
330
1F
100
AcDbEntity
  8
0
100
AcDbLine
 10
-447.7431691202798
 20
-620.8528297288606
 30
0.0
 11
-299.2684890875207
 21
-506.9242228743839
 31
0.0
  0
LINE
  5
1C5
330
1F
100
AcDbEntity
  8
0
100
AcDbLine
 10
-293.1609859053913
 20
-513.0317346113859
 30
0.0
 11
-443.4244999125889
 21
-628.332984217663
 31
0.0
  0
LINE
  5
1C6
330
1F
100
AcDbEntity
  8
0
100
AcDbLine
 10
-618.4100681633115
 20
-700.8143798066787
 30
0.0
 11
-443.4244999125889
 21
-628.332984217663
 31
0.0
  0
LINE
  5
1C7
330
1F
100
AcDbEntity
  8
0
100
AcDbLine
 10
-806.1927133586038
 20
-725.5364340502099
 30
0.0
 11
-618.4100681633115
 21
-700.8143798066787
 31
0.0
  0
LINE
  5
1C8
330
1F
100
AcDbEntity
  8
0
100
AcDbLine
 10
-993.9753585538936
 20
-700.8143798066853
 30
0.0
 11
-806.1927133586038
 21
-725.5364340502099
 31
0.0
  0
LINE
  5
1C9
330
1F
100
AcDbEntity
  8
0
100
AcDbLine
 10
-917.9680974034242
 20
-417.151419448957
 30
0.0
 11
-806.1927133586081
 21
-431.8669279272448
 31
0.0
  0
LINE
  5
1CA
330
1F
100
AcDbEntity
  8
0
100
AcDbLine
 10
-452.0618383279707
 20
-613.3726752400555
 30
0.0
 11
-305.3760270350957
 21
-500.8166934820154
 31
0.0
  0
LINE
  5
1CB
330
1F
100
AcDbEntity
  8
0
100
AcDbLine
 10
-1307.009399681982
 20
-500.8166934815624
 30
0.0
 11
-1160.32358838924
 21
-613.3726752400682
 31
0.0
  0
LINE
  5
1CC
330
1F
100
AcDbEntity
  8
0
100
AcDbLine
 10
-806.1927133586039
 20
-708.2617572194476
 30
0.0
 11
-989.5043431921024
 21
-684.1283233150544
 31
0.0
  0
LINE
  5
1CD
330
1F
100
AcDbEntity
  8
0
100
AcDbLine
 10
-622.881083525107
 20
-684.1283233150485
 30
0.0
 11
-806.1927133586039
 21
-708.2617572194476
 31
0.0
  0
LINE
  5
1CE
330
1F
100
AcDbEntity
  8
0
100
AcDbLine
 10
-622.881083525107
 20
-684.1283233150485
 30
0.0
 11
-452.0618383279707
 21
-613.3726752400555
 31
0.0
  0
LINE
  5
1CF
330
1F
100
AcDbEntity
  8
0
100
AcDbLine
 10
-989.5043431921024
 20
-684.1283233150544
 30
0.0
 11
-1160.32358838924
 21
-613.3726752400682
 31
0.0
  0
LINE
  5
1D0
330
1F
100
AcDbEntity
  8
0
100
AcDbLine
 10
915.7325932351113
 20
408.8083757951005
 30
0.0
 11
1017.807508048025
 21
366.5275617014863
 31
0.0
  0
LINE
  5
1D1
330
1F
100
AcDbEntity
  8
0
100
AcDbLine
 10
1105.461224552209
 20
299.2684994311398
 30
0.0
 11
1017.807508048025
 21
366.5275617014863
 31
0.0
  0
LINE
  5
1D2
330
1F
100
AcDbEntity
  8
0
100
AcDbLine
 10
806.1927168711952
 20
423.2295741038502
 30
0.0
 11
915.7325932351113
 21
408.8083757951005
 31
0.0
  0
LINE
  5
1D3
330
1F
100
AcDbEntity
  8
0
100
AcDbLine
 10
594.5779256943403
 20
366.5275617015814
 30
0.0
 11
506.9242134678013
 21
299.2685037089453
 31
0.0
  0
LINE
  5
1D4
330
1F
100
AcDbEntity
  8
0
100
AcDbLine
 10
594.5779256943403
 20
366.5275617015814
 30
0.0
 11
696.6528405072727
 21
408.8083757951496
 31
0.0
  0
LINE
  5
1D5
330
1F
100
AcDbEntity
  8
0
100
AcDbLine
 10
696.6528405072727
 20
408.8083757951496
 30
0.0
 11
806.1927168711952
 21
423.2295741038502
 31
0.0
  0
LINE
  5
1D6
330
1F
100
AcDbEntity
  8
0
100
AcDbLine
 10
1013.488838840334
 20
359.047407212685
 30
0.0
 11
1099.353703987289
 21
293.160978866222
 31
0.0
  0
LINE
  5
1D7
330
1F
100
AcDbEntity
  8
0
100
AcDbLine
 10
1013.488838840334
 20
359.047407212685
 30
0.0
 11
913.4970855542142
 21
400.4653475492864
 31
0.0
  0
LINE
  5
1D8
330
1F
100
AcDbEntity
  8
0
100
AcDbLine
 10
806.1927168711929
 20
414.5922356884673
 30
0.0
 11
913.4970855542142
 21
400.4653475492864
 31
0.0
  0
LINE
  5
1D9
330
1F
100
AcDbEntity
  8
0
100
AcDbLine
 10
698.8883481881675
 20
400.4653475493328
 30
0.0
 11
806.1927168711929
 21
414.5922356884673
 31
0.0
  0
LINE
  5
1DA
330
1F
100
AcDbEntity
  8
0
100
AcDbLine
 10
698.8883481881675
 20
400.4653475493328
 30
0.0
 11
598.8965949020302
 21
359.0474072127768
 31
0.0
  0
LINE
  5
1DB
330
1F
100
AcDbEntity
  8
0
100
AcDbLine
 10
513.0317297552731
 20
293.1609788665783
 30
0.0
 11
598.8965949020302
 21
359.0474072127768
 31
0.0
  0
LINE
  5
1DC
330
1F
100
AcDbEntity
  8
0
100
AcDbLine
 10
806.1927168711975
 20
431.8669125192305
 30
0.0
 11
694.4173328263793
 21
417.1514040409646
 31
0.0
  0
LINE
  5
1DD
330
1F
100
AcDbEntity
  8
0
100
AcDbLine
 10
1111.56874511713
 20
305.3760199960577
 30
0.0
 11
1022.126177255718
 21
374.0077161902896
 31
0.0
  0
LINE
  5
1DE
330
1F
100
AcDbEntity
  8
0
100
AcDbLine
 10
590.2592564866518
 20
374.0077161903859
 30
0.0
 11
694.4173328263793
 21
417.1514040409646
 31
0.0
  0
LINE
  5
1DF
330
1F
100
AcDbEntity
  8
0
100
AcDbLine
 10
1022.126177255718
 20
374.0077161902896
 30
0.0
 11
917.9681009160099
 21
417.1514040409163
 31
0.0
  0
LINE
  5
1E0
330
1F
100
AcDbEntity
  8
0
100
AcDbLine
 10
500.8166928118655
 20
305.3760241828494
 30
0.0
 11
590.2592564866518
 21
374.0077161903859
 31
0.0
  0
LINE
  5
1E1
330
1F
100
AcDbEntity
  8
0
100
AcDbLine
 10
1168.960930317256
 20
628.3329688095753
 30
0.0
 11
993.9753620665467
 21
700.8143643986266
 31
0.0
  0
LINE
  5
1E2
330
1F
100
AcDbEntity
  8
0
100
AcDbLine
 10
1168.960930317256
 20
628.3329688095753
 30
0.0
 11
1319.224444324429
 21
513.0317192032647
 31
0.0
  0
LINE
  5
1E3
330
1F
100
AcDbEntity
  8
0
100
AcDbLine
 10
1313.116923759509
 20
506.9241986383469
 30
0.0
 11
1164.642261109565
 21
620.8528143207725
 31
0.0
  0
LINE
  5
1E4
330
1F
100
AcDbEntity
  8
0
100
AcDbLine
 10
991.739854385649
 20
692.4713361528125
 30
0.0
 11
1164.642261109565
 21
620.8528143207725
 31
0.0
  0
LINE
  5
1E5
330
1F
100
AcDbEntity
  8
0
100
AcDbLine
 10
806.1927168712612
 20
716.8990802268138
 30
0.0
 11
991.739854385649
 21
692.4713361528125
 31
0.0
  0
LINE
  5
1E6
330
1F
100
AcDbEntity
  8
0
100
AcDbLine
 10
620.6455793568608
 20
692.4713361528947
 30
0.0
 11
806.1927168712612
 21
716.8990802268138
 31
0.0
  0
LINE
  5
1E7
330
1F
100
AcDbEntity
  8
0
100
AcDbLine
 10
447.743172632914
 20
620.8528143209312
 30
0.0
 11
620.6455793568608
 21
692.4713361528947
 31
0.0
  0
LINE
  5
1E8
330
1F
100
AcDbEntity
  8
0
100
AcDbLine
 10
447.743172632914
 20
620.8528143209312
 30
0.0
 11
299.2685099829262
 21
506.9241986385766
 31
0.0
  0
LINE
  5
1E9
330
1F
100
AcDbEntity
  8
0
100
AcDbLine
 10
293.1609894180011
 20
513.0317192034904
 30
0.0
 11
443.4245034252248
 21
628.3329688097347
 31
0.0
  0
LINE
  5
1EA
330
1F
100
AcDbEntity
  8
0
100
AcDbLine
 10
618.4100716759647
 20
700.814364398709
 30
0.0
 11
443.4245034252248
 21
628.3329688097347
 31
0.0
  0
LINE
  5
1EB
330
1F
100
AcDbEntity
  8
0
100
AcDbLine
 10
806.1927168712627
 20
725.5364186421957
 30
0.0
 11
618.4100716759647
 21
700.814364398709
 31
0.0
  0
LINE
  5
1EC
330
1F
100
AcDbEntity
  8
0
100
AcDbLine
 10
993.9753620665467
 20
700.8143643986266
 30
0.0
 11
806.1927168712627
 21
725.5364186421957
 31
0.0
  0
LINE
  5
1ED
330
1F
100
AcDbEntity
  8
0
100
AcDbLine
 10
917.9681009160099
 20
417.1514040409163
 30
0.0
 11
806.1927168711975
 21
431.8669125192305
 31
0.0
  0
LINE
  5
1EE
330
1F
100
AcDbEntity
  8
0
100
AcDbLine
 10
452.0618418406032
 20
613.3726598321251
 30
0.0
 11
305.3760305478505
 21
500.8166780736632
 31
0.0
  0
LINE
  5
1EF
330
1F
100
AcDbEntity
  8
0
100
AcDbLine
 10
1307.009403194588
 20
500.8166780734296
 30
0.0
 11
1160.323591901873
 21
613.3726598319703
 31
0.0
  0
LINE
  5
1F0
330
1F
100
AcDbEntity
  8
0
100
AcDbLine
 10
806.1927168712588
 20
708.2617418114335
 30
0.0
 11
989.5043467047517
 21
684.1283079069968
 31
0.0
  0
LINE
  5
1F1
330
1F
100
AcDbEntity
  8
0
100
AcDbLine
 10
622.8810870377561
 20
684.1283079070777
 30
0.0
 11
806.1927168712588
 21
708.2617418114335
 31
0.0
  0
LINE
  5
1F2
330
1F
100
AcDbEntity
  8
0
100
AcDbLine
 10
622.8810870377561
 20
684.1283079070777
 30
0.0
 11
452.0618418406032
 21
613.3726598321251
 31
0.0
  0
LINE
  5
1F3
330
1F
100
AcDbEntity
  8
0
100
AcDbLine
 10
989.5043467047517
 20
684.1283079069968
 30
0.0
 11
1160.323591901873
 21
613.3726598319703
 31
0.0
  0
LINE
  5
1F4
330
1F
100
AcDbEntity
  8
0
100
AcDbLine
 10
1215.001100916004
 20
-109.5398846138395
 30
0.0
 11
1172.720286822385
 21
-211.6147994267508
 31
0.0
  0
LINE
  5
1F5
330
1F
100
AcDbEntity
  8
0
100
AcDbLine
 10
1105.461224552029
 20
-299.2685159309332
 30
0.0
 11
1172.720286822385
 21
-211.6147994267508
 31
0.0
  0
LINE
  5
1F6
330
1F
100
AcDbEntity
  8
0
100
AcDbLine
 10
1229.42229922476
 20
-0.0000082499240833
 30
0.0
 11
1215.001100916004
 21
-109.5398846138395
 31
0.0
  0
LINE
  5
1F7
330
1F
100
AcDbEntity
  8
0
100
AcDbLine
 10
1172.720286822502
 20
211.6147829269338
 30
0.0
 11
1105.461224552209
 21
299.2684994311398
 31
0.0
  0
LINE
  5
1F8
330
1F
100
AcDbEntity
  8
0
100
AcDbLine
 10
1172.720286822502
 20
211.6147829269338
 30
0.0
 11
1215.001100916065
 21
109.5398681139992
 31
0.0
  0
LINE
  5
1F9
330
1F
100
AcDbEntity
  8
0
100
AcDbLine
 10
1215.001100916065
 20
109.5398681139992
 30
0.0
 11
1229.42229922476
 21
-0.0000082499240833
 31
0.0
  0
LINE
  5
1FA
330
1F
100
AcDbEntity
  8
0
100
AcDbLine
 10
1165.240132333584
 20
-207.2961302190591
 30
0.0
 11
1099.353703987111
 21
-293.1609953660135
 31
0.0
  0
LINE
  5
1FB
330
1F
100
AcDbEntity
  8
0
100
AcDbLine
 10
1165.240132333584
 20
-207.2961302190591
 30
0.0
 11
1206.65807267019
 21
-107.3043769329418
 31
0.0
  0
LINE
  5
1FC
330
1F
100
AcDbEntity
  8
0
100
AcDbLine
 10
1220.784960809377
 20
-0.0000082499213876
 30
0.0
 11
1206.65807267019
 21
-107.3043769329418
 31
0.0
  0
LINE
  5
1FD
330
1F
100
AcDbEntity
  8
0
100
AcDbLine
 10
1206.658072670248
 20
107.3043604331049
 30
0.0
 11
1220.784960809377
 21
-0.0000082499213876
 31
0.0
  0
LINE
  5
1FE
330
1F
100
AcDbEntity
  8
0
100
AcDbLine
 10
1206.658072670248
 20
107.3043604331049
 30
0.0
 11
1165.240132333697
 21
207.2961137192443
 31
0.0
  0
LINE
  5
1FF
330
1F
100
AcDbEntity
  8
0
100
AcDbLine
 10
1099.353703987289
 20
293.160978866222
 30
0.0
 11
1165.240132333697
 21
207.2961137192443
 31
0.0
  0
LINE
  5
200
330
1F
100
AcDbEntity
  8
0
100
AcDbLine
 10
1238.05963764014
 20
-0.0000082499268767
 30
0.0
 11
1223.34412916188
 21
111.7753757948922
 31
0.0
  0
LINE
  5
201
330
1F
100
AcDbEntity
  8
0
100
AcDbLine
 10
1111.568745116946
 20
-305.3760364958549
 30
0.0
 11
1180.200441311188
 21
-215.9334686344444
 31
0.0
  0
LINE
  5
202
330
1F
100
AcDbEntity
  8
0
100
AcDbLine
 10
1180.200441311307
 20
215.9334521346221
 30
0.0
 11
1223.34412916188
 21
111.7753757948922
 31
0.0
  0
LINE
  5
203
330
1F
100
AcDbEntity
  8
0
100
AcDbLine
 10
1180.200441311188
 20
-215.9334686344444
 30
0.0
 11
1223.34412916182
 21
-111.7753922947386
 31
0.0
  0
LINE
  5
204
330
1F
100
AcDbEntity
  8
0
100
AcDbLine
 10
1111.56874511713
 20
305.3760199960577
 30
0.0
 11
1180.200441311307
 21
215.9334521346221
 31
0.0
  0
LINE
  5
205
330
1F
100
AcDbEntity
  8
0
100
AcDbLine
 10
1434.525693930466
 20
-362.7682216959954
 30
0.0
 11
1507.007089519526
 21
-187.7826534452901
 31
0.0
  0
LINE
  5
206
330
1F
100
AcDbEntity
  8
0
100
AcDbLine
 10
1434.525693930466
 20
-362.7682216959954
 30
0.0
 11
1319.224444324145
 21
-513.0317357031623
 31
0.0
  0
LINE
  5
207
330
1F
100
AcDbEntity
  8
0
100
AcDbLine
 10
1313.116923759227
 20
-506.9242151382421
 30
0.0
 11
1427.045539441663
 21
-358.4495524883035
 31
0.0
  0
LINE
  5
208
330
1F
100
AcDbEntity
  8
0
100
AcDbLine
 10
1498.664061273712
 20
-185.5471457643919
 30
0.0
 11
1427.045539441663
 21
-358.4495524883035
 31
0.0
  0
LINE
  5
209
330
1F
100
AcDbEntity
  8
0
100
AcDbLine
 10
1523.091805347723
 20
-0.0000082500052929
 30
0.0
 11
1498.664061273712
 21
-185.5471457643919
 31
0.0
  0
LINE
  5
20A
330
1F
100
AcDbEntity
  8
0
100
AcDbLine
 10
1498.664061273814
 20
185.5471292643961
 30
0.0
 11
1523.091805347723
 21
-0.0000082500052929
 31
0.0
  0
LINE
  5
20B
330
1F
100
AcDbEntity
  8
0
100
AcDbLine
 10
1427.045539441859
 20
358.4495359883467
 30
0.0
 11
1498.664061273814
 21
185.5471292643961
 31
0.0
  0
LINE
  5
20C
330
1F
100
AcDbEntity
  8
0
100
AcDbLine
 10
1427.045539441859
 20
358.4495359883467
 30
0.0
 11
1313.116923759509
 21
506.9241986383469
 31
0.0
  0
LINE
  5
20D
330
1F
100
AcDbEntity
  8
0
100
AcDbLine
 10
1319.224444324429
 20
513.0317192032647
 30
0.0
 11
1434.525693930663
 21
362.7682051960355
 31
0.0
  0
LINE
  5
20E
330
1F
100
AcDbEntity
  8
0
100
AcDbLine
 10
1507.007089519628
 20
187.7826369452919
 30
0.0
 11
1434.525693930663
 21
362.7682051960355
 31
0.0
  0
LINE
  5
20F
330
1F
100
AcDbEntity
  8
0
100
AcDbLine
 10
1531.729143763105
 20
-0.0000082500074882
 30
0.0
 11
1507.007089519628
 21
187.7826369452919
 31
0.0
  0
LINE
  5
210
330
1F
100
AcDbEntity
  8
0
100
AcDbLine
 10
1507.007089519526
 20
-187.7826534452901
 30
0.0
 11
1531.729143763105
 21
-0.0000082500074882
 31
0.0
  0
LINE
  5
211
330
1F
100
AcDbEntity
  8
0
100
AcDbLine
 10
1223.34412916182
 20
-111.7753922947386
 30
0.0
 11
1238.05963764014
 21
-0.0000082499268767
 31
0.0
  0
LINE
  5
212
330
1F
100
AcDbEntity
  8
0
100
AcDbLine
 10
1419.565384953053
 20
354.130866780658
 30
0.0
 11
1307.009403194588
 21
500.8166780734296
 31
0.0
  0
LINE
  5
213
330
1F
100
AcDbEntity
  8
0
100
AcDbLine
 10
1307.009403194309
 20
-500.8166945733215
 30
0.0
 11
1419.565384952861
 21
-354.1308832806116
 31
0.0
  0
LINE
  5
214
330
1F
100
AcDbEntity
  8
0
100
AcDbLine
 10
1514.454466932343
 20
-0.000008250002597
 30
0.0
 11
1490.321033027897
 21
-183.3116380834942
 31
0.0
  0
LINE
  5
215
330
1F
100
AcDbEntity
  8
0
100
AcDbLine
 10
1490.321033027997
 20
183.3116215835014
 30
0.0
 11
1514.454466932343
 21
-0.000008250002597
 31
0.0
  0
LINE
  5
216
330
1F
100
AcDbEntity
  8
0
100
AcDbLine
 10
1490.321033027997
 20
183.3116215835014
 30
0.0
 11
1419.565384953053
 21
354.130866780658
 31
0.0
  0
LINE
  5
217
330
1F
100
AcDbEntity
  8
0
100
AcDbLine
 10
1490.321033027897
 20
-183.3116380834942
 30
0.0
 11
1419.565384952861
 21
-354.1308832806116
 31
0.0
  0
LINE
  5
218
330
1F
100
AcDbEntity
  8
0
100
AcDbLine
 10
-1215.001097404003
 20
109.5398692054388
 30
0.0
 11
-1172.720283310314
 21
211.6147840183216
 31
0.0
  0
LINE
  5
219
330
1F
100
AcDbEntity
  8
0
100
AcDbLine
 10
-1105.461221039904
 20
299.2685005224573
 30
0.0
 11
-1172.720283310314
 21
211.6147840183216
 31
0.0
  0
LINE
  5
21A
330
1F
100
AcDbEntity
  8
0
100
AcDbLine
 10
-1229.422295712832
 20
-0.0000071584667841
 30
0.0
 11
-1215.001097404003
 21
109.5398692054388
 31
0.0
  0
LINE
  5
21B
330
1F
100
AcDbEntity
  8
0
100
AcDbLine
 10
-1172.720283310718
 20
-211.6147983353629
 30
0.0
 11
-1105.461221039651
 21
-299.268514839225
 31
0.0
  0
LINE
  5
21C
330
1F
100
AcDbEntity
  8
0
100
AcDbLine
 10
-1172.720283310718
 20
-211.6147983353629
 30
0.0
 11
-1215.001097404212
 21
-109.5398835223998
 31
0.0
  0
LINE
  5
21D
330
1F
100
AcDbEntity
  8
0
100
AcDbLine
 10
-1215.001097404212
 20
-109.5398835223998
 30
0.0
 11
-1229.422295712832
 21
-0.0000071584667841
 31
0.0
  0
LINE
  5
21E
330
1F
100
AcDbEntity
  8
0
100
AcDbLine
 10
-1165.240128821516
 20
207.296114810625
 30
0.0
 11
-1099.353700474991
 21
293.1609799575324
 31
0.0
  0
LINE
  5
21F
330
1F
100
AcDbEntity
  8
0
100
AcDbLine
 10
-1165.240128821516
 20
207.296114810625
 30
0.0
 11
-1206.658069158191
 21
107.3043615245356
 31
0.0
  0
LINE
  5
220
330
1F
100
AcDbEntity
  8
0
100
AcDbLine
 10
-1220.78495729745
 20
-0.000007158475266
 30
0.0
 11
-1206.658069158191
 21
107.3043615245356
 31
0.0
  0
LINE
  5
221
330
1F
100
AcDbEntity
  8
0
100
AcDbLine
 10
-1206.658069158393
 20
-107.3043758415111
 30
0.0
 11
-1220.78495729745
 21
-0.000007158475266
 31
0.0
  0
LINE
  5
222
330
1F
100
AcDbEntity
  8
0
100
AcDbLine
 10
-1206.658069158393
 20
-107.3043758415111
 30
0.0
 11
-1165.24012882191
 21
-207.2961291276785
 31
0.0
  0
LINE
  5
223
330
1F
100
AcDbEntity
  8
0
100
AcDbLine
 10
-1099.353700474732
 20
-293.1609942743056
 30
0.0
 11
-1165.24012882191
 21
-207.2961291276785
 31
0.0
  0
LINE
  5
224
330
1F
100
AcDbEntity
  8
0
100
AcDbLine
 10
-1238.059634128213
 20
-0.0000071584581044
 30
0.0
 11
-1223.344125650028
 21
-111.7753912032872
 31
0.0
  0
LINE
  5
225
330
1F
100
AcDbEntity
  8
0
100
AcDbLine
 10
-1111.568741604818
 20
305.3760210873827
 30
0.0
 11
-1180.200437799115
 21
215.9334532260203
 31
0.0
  0
LINE
  5
226
330
1F
100
AcDbEntity
  8
0
100
AcDbLine
 10
-1180.200437799525
 20
-215.9334675430461
 30
0.0
 11
-1223.344125650028
 21
-111.7753912032872
 31
0.0
  0
LINE
  5
227
330
1F
100
AcDbEntity
  8
0
100
AcDbLine
 10
-1180.200437799115
 20
215.9334532260203
 30
0.0
 11
-1223.344125649817
 21
111.7753768863436
 31
0.0
  0
LINE
  5
228
330
1F
100
AcDbEntity
  8
0
100
AcDbLine
 10
-1111.568741604571
 20
-305.3760354041443
 30
0.0
 11
-1180.200437799525
 21
-215.9334675430461
 31
0.0
  0
LINE
  5
229
330
1F
100
AcDbEntity
  8
0
100
AcDbLine
 10
-1434.525690418294
 20
362.7682062877431
 30
0.0
 11
-1507.007086007472
 21
187.7826380370868
 31
0.0
  0
LINE
  5
22A
330
1F
100
AcDbEntity
  8
0
100
AcDbLine
 10
-1434.525690418294
 20
362.7682062877431
 30
0.0
 11
-1319.224440811874
 21
513.0317202948321
 31
0.0
  0
LINE
  5
22B
330
1F
100
AcDbEntity
  8
0
100
AcDbLine
 10
-1313.11692024696
 20
506.9241997299078
 30
0.0
 11
-1427.045535929494
 21
358.4495370800462
 31
0.0
  0
LINE
  5
22C
330
1F
100
AcDbEntity
  8
0
100
AcDbLine
 10
-1498.66405776166
 20
185.5471303561829
 30
0.0
 11
-1427.045535929494
 21
358.4495370800462
 31
0.0
  0
LINE
  5
22D
330
1F
100
AcDbEntity
  8
0
100
AcDbLine
 10
-1523.091801835796
 20
-0.0000071581871388
 30
0.0
 11
-1498.66405776166
 21
185.5471303561829
 31
0.0
  0
LINE
  5
22E
330
1F
100
AcDbEntity
  8
0
100
AcDbLine
 10
-1498.664057762012
 20
-185.5471446726052
 30
0.0
 11
-1523.091801835796
 21
-0.0000071581871388
 31
0.0
  0
LINE
  5
22F
330
1F
100
AcDbEntity
  8
0
100
AcDbLine
 10
-1427.045535930175
 20
-358.4495513966041
 30
0.0
 11
-1498.664057762012
 21
-185.5471446726052
 31
0.0
  0
LINE
  5
230
330
1F
100
AcDbEntity
  8
0
100
AcDbLine
 10
-1427.045535930175
 20
-358.4495513966041
 30
0.0
 11
-1313.116920246902
 21
-506.924214046481
 31
0.0
  0
LINE
  5
231
330
1F
100
AcDbEntity
  8
0
100
AcDbLine
 10
-1319.22444081182
 20
-513.0317346114005
 30
0.0
 11
-1434.525690418981
 21
-362.7682206042878
 31
0.0
  0
LINE
  5
232
330
1F
100
AcDbEntity
  8
0
100
AcDbLine
 10
-1507.007086007828
 20
-187.7826523534953
 30
0.0
 11
-1434.525690418981
 21
-362.7682206042878
 31
0.0
  0
LINE
  5
233
330
1F
100
AcDbEntity
  8
0
100
AcDbLine
 10
-1531.729140251178
 20
-0.0000071581791583
 30
0.0
 11
-1507.007086007828
 21
-187.7826523534953
 31
0.0
  0
LINE
  5
234
330
1F
100
AcDbEntity
  8
0
100
AcDbLine
 10
-1507.007086007472
 20
187.7826380370868
 30
0.0
 11
-1531.729140251178
 21
-0.0000071581791583
 31
0.0
  0
LINE
  5
235
330
1F
100
AcDbEntity
  8
0
100
AcDbLine
 10
-1223.344125649817
 20
111.7753768863436
 30
0.0
 11
-1238.059634128213
 21
-0.0000071584581044
 31
0.0
  0
LINE
  5
236
330
1F
100
AcDbEntity
  8
0
100
AcDbLine
 10
-1419.565381441365
 20
-354.1308821889205
 30
0.0
 11
-1307.009399681982
 21
-500.8166934815624
 31
0.0
  0
LINE
  5
237
330
1F
100
AcDbEntity
  8
0
100
AcDbLine
 10
-1307.009399682047
 20
500.8166791649824
 30
0.0
 11
-1419.565381440695
 21
354.1308678723492
 31
0.0
  0
LINE
  5
238
330
1F
100
AcDbEntity
  8
0
100
AcDbLine
 10
-1514.454463420416
 20
-0.0000071581957171
 30
0.0
 11
-1490.321029515846
 21
183.3116226752796
 31
0.0
  0
LINE
  5
239
330
1F
100
AcDbEntity
  8
0
100
AcDbLine
 10
-1490.321029516193
 20
-183.311636991716
 30
0.0
 11
-1514.454463420416
 21
-0.0000071581957171
 31
0.0
  0
LINE
  5
23A
330
1F
100
AcDbEntity
  8
0
100
AcDbLine
 10
-1490.321029516193
 20
-183.311636991716
 30
0.0
 11
-1419.565381441365
 21
-354.1308821889205
 31
0.0
  0
LINE
  5
23B
330
1F
100
AcDbEntity
  8
0
100
AcDbLine
 10
-1490.321029515846
 20
183.3116226752796
 30
0.0
 11
-1419.565381440695
 21
354.1308678723492
 31
0.0
  0
LINE
  5
23C
330
1F
100
AcDbEntity
  8
0
100
AcDbLine
 10
-696.6528369957413
 20
408.8083768866354
 30
0.0
 11
-594.5779221828276
 21
366.527562793021
 31
0.0
  0
LINE
  5
23D
330
1F
100
AcDbEntity
  8
0
100
AcDbLine
 10
-506.924205678331
 20
299.2685005226851
 30
0.0
 11
-594.5779221828276
 21
366.527562793021
 31
0.0
  0
LINE
  5
23E
330
1F
100
AcDbEntity
  8
0
100
AcDbLine
 10
-806.1927133596573
 20
423.229575195385
 30
0.0
 11
-696.6528369957413
 21
408.8083768866354
 31
0.0
  0
LINE
  5
23F
330
1F
100
AcDbEntity
  8
0
100
AcDbLine
 10
-1017.807504536512
 20
366.5275627931162
 30
0.0
 11
-1105.461221039904
 21
299.2685005224573
 31
0.0
  0
LINE
  5
240
330
1F
100
AcDbEntity
  8
0
100
AcDbLine
 10
-1017.807504536512
 20
366.5275627931162
 30
0.0
 11
-915.7325897235798
 21
408.8083768866845
 31
0.0
  0
LINE
  5
241
330
1F
100
AcDbEntity
  8
0
100
AcDbLine
 10
-915.7325897235798
 20
408.8083768866845
 30
0.0
 11
-806.1927133596573
 21
423.229575195385
 31
0.0
  0
LINE
  5
242
330
1F
100
AcDbEntity
  8
0
100
AcDbLine
 10
-598.8965913905189
 20
359.0474083042198
 30
0.0
 11
-513.0317262432437
 21
293.1609799577604
 31
0.0
  0
LINE
  5
243
330
1F
100
AcDbEntity
  8
0
100
AcDbLine
 10
-598.8965913905189
 20
359.0474083042198
 30
0.0
 11
-698.8883446766383
 21
400.4653486408213
 31
0.0
  0
LINE
  5
244
330
1F
100
AcDbEntity
  8
0
100
AcDbLine
 10
-806.1927133596596
 20
414.5922367800021
 30
0.0
 11
-698.8883446766383
 21
400.4653486408213
 31
0.0
  0
LINE
  5
245
330
1F
100
AcDbEntity
  8
0
100
AcDbLine
 10
-913.497082042685
 20
400.4653486408675
 30
0.0
 11
-806.1927133596596
 21
414.5922367800021
 31
0.0
  0
LINE
  5
246
330
1F
100
AcDbEntity
  8
0
100
AcDbLine
 10
-913.497082042685
 20
400.4653486408675
 30
0.0
 11
-1013.488835328822
 21
359.0474083043117
 31
0.0
  0
LINE
  5
247
330
1F
100
AcDbEntity
  8
0
100
AcDbLine
 10
-1099.353700474991
 20
293.1609799575324
 30
0.0
 11
-1013.488835328822
 21
359.0474083043117
 31
0.0
  0
LINE
  5
248
330
1F
100
AcDbEntity
  8
0
100
AcDbLine
 10
-806.1927133596549
 20
431.8669136107653
 30
0.0
 11
-917.9680974044733
 21
417.1514051324993
 31
0.0
  0
LINE
  5
249
330
1F
100
AcDbEntity
  8
0
100
AcDbLine
 10
-500.8166851134174
 20
305.376021087611
 30
0.0
 11
-590.2592529751344
 21
374.0077172818244
 31
0.0
  0
LINE
  5
24A
330
1F
100
AcDbEntity
  8
0
100
AcDbLine
 10
-1022.126173744201
 20
374.0077172819207
 30
0.0
 11
-917.9680974044733
 21
417.1514051324993
 31
0.0
  0
LINE
  5
24B
330
1F
100
AcDbEntity
  8
0
100
AcDbLine
 10
-590.2592529751344
 20
374.0077172818244
 30
0.0
 11
-694.4173293148424
 21
417.151405132451
 31
0.0
  0
LINE
  5
24C
330
1F
100
AcDbEntity
  8
0
100
AcDbLine
 10
-1111.568741604818
 20
305.3760210873827
 30
0.0
 11
-1022.126173744201
 21
374.0077172819207
 31
0.0
  0
LINE
  5
24D
330
1F
100
AcDbEntity
  8
0
100
AcDbLine
 10
-443.4244999135967
 20
628.3329699011102
 30
0.0
 11
-618.4100681643058
 21
700.8143654901614
 31
0.0
  0
LINE
  5
24E
330
1F
100
AcDbEntity
  8
0
100
AcDbLine
 10
-443.4244999135967
 20
628.3329699011102
 30
0.0
 11
-293.1609848142531
 21
513.0317192029528
 31
0.0
  0
LINE
  5
24F
330
1F
100
AcDbEntity
  8
0
100
AcDbLine
 10
-299.2685053791674
 20
506.9241986380259
 30
0.0
 11
-447.7431691212881
 21
620.8528154123072
 31
0.0
  0
LINE
  5
250
330
1F
100
AcDbEntity
  8
0
100
AcDbLine
 10
-620.6455758452037
 20
692.4713372443473
 30
0.0
 11
-447.7431691212881
 21
620.8528154123072
 31
0.0
  0
LINE
  5
251
330
1F
100
AcDbEntity
  8
0
100
AcDbLine
 10
-806.1927133595914
 20
716.8990813183486
 30
0.0
 11
-620.6455758452037
 21
692.4713372443473
 31
0.0
  0
LINE
  5
252
330
1F
100
AcDbEntity
  8
0
100
AcDbLine
 10
-991.7398508739917
 20
692.4713372444294
 30
0.0
 11
-806.1927133595914
 21
716.8990813183486
 31
0.0
  0
LINE
  5
253
330
1F
100
AcDbEntity
  8
0
100
AcDbLine
 10
-1164.642257597938
 20
620.852815412466
 30
0.0
 11
-991.7398508739917
 21
692.4713372444294
 31
0.0
  0
LINE
  5
254
330
1F
100
AcDbEntity
  8
0
100
AcDbLine
 10
-1164.642257597938
 20
620.852815412466
 30
0.0
 11
-1313.11692024696
 21
506.9241997299078
 31
0.0
  0
LINE
  5
255
330
1F
100
AcDbEntity
  8
0
100
AcDbLine
 10
-1319.224440811874
 20
513.0317202948321
 30
0.0
 11
-1168.960926805628
 21
628.3329699012695
 31
0.0
  0
LINE
  5
256
330
1F
100
AcDbEntity
  8
0
100
AcDbLine
 10
-993.9753585548876
 20
700.8143654902439
 30
0.0
 11
-1168.960926805628
 21
628.3329699012695
 31
0.0
  0
LINE
  5
257
330
1F
100
AcDbEntity
  8
0
100
AcDbLine
 10
-806.1927133595897
 20
725.5364197337306
 30
0.0
 11
-993.9753585548876
 21
700.8143654902439
 31
0.0
  0
LINE
  5
258
330
1F
100
AcDbEntity
  8
0
100
AcDbLine
 10
-618.4100681643058
 20
700.8143654901614
 30
0.0
 11
-806.1927133595897
 21
725.5364197337306
 31
0.0
  0
LINE
  5
259
330
1F
100
AcDbEntity
  8
0
100
AcDbLine
 10
-694.4173293148424
 20
417.151405132451
 30
0.0
 11
-806.1927133596549
 21
431.8669136107653
 31
0.0
  0
LINE
  5
25A
330
1F
100
AcDbEntity
  8
0
100
AcDbLine
 10
-1160.323588390249
 20
613.3726609236601
 30
0.0
 11
-1307.009399682047
 21
500.8166791649824
 31
0.0
  0
LINE
  5
25B
330
1F
100
AcDbEntity
  8
0
100
AcDbLine
 10
-305.3760259440801
 20
500.8166780731015
 30
0.0
 11
-452.0618383289798
 21
613.3726609235051
 31
0.0
  0
LINE
  5
25C
330
1F
100
AcDbEntity
  8
0
100
AcDbLine
 10
-806.1927133595937
 20
708.2617429029683
 30
0.0
 11
-622.8810835261008
 21
684.1283089985317
 31
0.0
  0
LINE
  5
25D
330
1F
100
AcDbEntity
  8
0
100
AcDbLine
 10
-989.5043431930965
 20
684.1283089986124
 30
0.0
 11
-806.1927133595937
 21
708.2617429029683
 31
0.0
  0
LINE
  5
25E
330
1F
100
AcDbEntity
  8
0
100
AcDbLine
 10
-989.5043431930965
 20
684.1283089986124
 30
0.0
 11
-1160.323588390249
 21
613.3726609236601
 31
0.0
  0
LINE
  5
25F
330
1F
100
AcDbEntity
  8
0
100
AcDbLine
 10
-622.8810835261008
 20
684.1283089985317
 30
0.0
 11
-452.0618383289798
 21
613.3726609235051
 31
0.0
  0
LINE
  5
260
330
1F
100
AcDbEntity
  8
0
100
AcDbLine
 10
0.0000023020078157
 20
374.3257855502717
 30
0.0
 11
0.0000166169753893
 21
375.5196687318641
 31
0.0
  0
ENDSEC
  0
SECTION
  2
OBJECTS
  0
DICTIONARY
  5
C
330
0
100
AcDbDictionary
  3
ACAD_GROUP
350
D
  3
ACAD_LAYOUT
350
1A
  3
ACAD_MATERIAL
350
43
  3
ACAD_MLEADERSTYLE
350
6B
  3
ACAD_MLINESTYLE
350
17
  3
ACAD_PLOTSETTINGS
350
19
  3
ACAD_SCALELIST
350
47
  3
ACAD_VISUALSTYLE
350
2A
  3
ACDBHEADERROUNDTRIPXREC
350
261
  3
ACDBVARIABLEDICTIONARY
350
282
  0
DICTIONARY
  5
289
330
8
100
AcDbDictionary
280
     1
  3
ACAD_XREC_ROUNDTRIP
360
28A
  0
DICTIONARY
  5
D
102
{ACAD_REACTORS
330
C
102
}
330
C
100
AcDbDictionary
  0
DICTIONARY
  5
1A
102
{ACAD_REACTORS
330
C
102
}
330
C
100
AcDbDictionary
  0
DICTIONARY
  5
43
102
{ACAD_REACTORS
330
C
102
}
330
C
100
AcDbDictionary
  3
BYBLOCK
350
45
  3
BYLAYER
350
44
  3
GLOBAL
350
46
  0
DICTIONARY
  5
6B
102
{ACAD_REACTORS
330
C
102
}
330
C
100
AcDbDictionary
  3
STANDARD
350
6C
  0
DICTIONARY
  5
17
102
{ACAD_REACTORS
330
C
102
}
330
C
100
AcDbDictionary
  3
STANDARD
350
18
  0
DICTIONARY
  5
19
102
{ACAD_REACTORS
330
C
102
}
330
C
100
AcDbDictionary
  0
DICTIONARY
  5
47
102
{ACAD_REACTORS
330
C
102
}
330
C
100
AcDbDictionary
  3
A0
350
48
  3
A1
350
49
  3
A2
350
4A
  3
A3
350
4B
  3
A4
350
4C
  3
A5
350
4D
  3
A6
350
4E
  3
A7
350
4F
  3
A8
350
50
  3
A9
350
51
  3
B0
350
52
  3
B1
350
53
  3
B2
350
54
  3
B3
350
55
  3
B4
350
56
  3
B5
350
57
  3
B6
350
58
  3
B7
350
59
  3
B8
350
5A
  3
B9
350
5B
  3
C0
350
5C
  3
C1
350
5D
  3
C2
350
5E
  3
C3
350
5F
  3
C4
350
60
  3
C5
350
61
  3
C6
350
62
  3
C7
350
63
  3
C8
350
64
  3
C9
350
65
  3
D0
350
66
  3
D1
350
67
  3
D2
350
68
  0
DICTIONARY
  5
2A
102
{ACAD_REACTORS
330
C
102
}
330
C
100
AcDbDictionary
  3
2DWIREFRAME
350
2F
  3
BASIC
350
32
  3
BRIGHTEN
350
36
  3
COLORCHANGE
350
3A
  3
CONCEPTUAL
350
34
  3
DIM
350
35
  3
EDGECOLOROFF
350
3D
  3
FACEPATTERN
350
39
  3
FLAT
350
2B
  3
FLATWITHEDGES
350
2C
  3
GOURAUD
350
2D
  3
GOURAUDWITHEDGES
350
2E
  3
HIDDEN
350
31
  3
JITTEROFF
350
3B
  3
LINEPATTERN
350
38
  3
OVERHANGOFF
350
3C
  3
REALISTIC
350
33
  3
SHADED
350
42
  3
SHADED_WITH_EDGES
350
41
  3
SHADES_OF_GRAY
350
3E
  3
SKETCHY
350
3F
  3
THICKEN
350
37
  3
WIREFRAME
350
30
  3
X-RAY
350
40
  0
DICTIONARY
  5
261
102
{ACAD_REACTORS
330
C
102
}
330
C
100
AcDbDictionary
  3
CEPSNID
350
26B
  3
CEPSNTYPE
350
26A
  3
DIMSTYLEDATA
350
281
  3
FINGERPRINTGUID
350
26C
  3
HYPERLINKBASE
350
264
  3
INSUNITS
350
269
  3
LAYOUTDICT
350
266
  3
LWETCUNION
350
268
  3
PLOTSETDICT
350
267
  3
PSVPSCALE
350
26E
  3
PUCSBASE
350
271
  3
PUCSORGBACK
350
277
  3
PUCSORGBOTTOM
350
273
  3
PUCSORGFRONT
350
276
  3
PUCSORGLEFT
350
274
  3
PUCSORGRIGHT
350
275
  3
PUCSORGTOP
350
272
  3
PUCSORTHOREF
350
26F
  3
PUCSORTHOVIEW
350
270
  3
STYLESHEET
350
265
  3
TSTACKALIGN
350
262
  3
TSTACKSIZE
350
263
  3
UCSBASE
350
27A
  3
UCSORGBACK
350
280
  3
UCSORGBOTTOM
350
27C
  3
UCSORGFRONT
350
27F
  3
UCSORGLEFT
350
27D
  3
UCSORGRIGHT
350
27E
  3
UCSORGTOP
350
27B
  3
UCSORTHOREF
350
278
  3
UCSORTHOVIEW
350
279
  3
VERSIONGUID
350
26D
  0
DICTIONARY
  5
282
102
{ACAD_REACTORS
330
C
102
}
330
C
100
AcDbDictionary
  3
CANNOSCALE
350
28B
  3
CMLEADERSTYLE
350
284
  3
CTABLESTYLE
350
283
  3
DIMASSOC
350
287
  3
HIDETEXT
350
288
  3
MSLTSCALE
350
28C
  0
XRECORD
  5
28A
102
{ACAD_REACTORS
330
289
102
}
330
289
100
AcDbXrecord
102
VTR_0.000_0.000_1.000_1.000_VISUALSTYLE
340
2F
102
VTR_0.000_0.000_1.000_1.000_GRIDDISPLAY
 70
     3
102
VTR_0.000_0.000_1.000_1.000_GRIDMAJOR
 70
     5
102
VTR_0.000_0.000_1.000_1.000_DEFAULTLIGHTING
280
     1
102
VTR_0.000_0.000_1.000_1.000_DEFAULTLIGHTINGTYPE
 70
     1
102
VTR_0.000_0.000_1.000_1.000_BRIGHTNESS
141
0.0
102
VTR_0.000_0.000_1.000_1.000_CONTRAST
142
0.0
  0
MATERIAL
  5
45
102
{ACAD_REACTORS
330
43
102
}
102
{ACAD_XDICTIONARY
360
28F
102
}
330
43
100
AcDbMaterial
  1
BYBLOCK
  0
MATERIAL
  5
44
102
{ACAD_REACTORS
330
43
102
}
102
{ACAD_XDICTIONARY
360
28D
102
}
330
43
100
AcDbMaterial
  1
BYLAYER
  0
MATERIAL
  5
46
102
{ACAD_REACTORS
330
43
102
}
102
{ACAD_XDICTIONARY
360
291
102
}
330
43
100
AcDbMaterial
  1
GLOBAL
  0
ACAD_PROXY_OBJECT
  5
6C
102
{ACAD_REACTORS
330
6B
102
}
330
6B
100
AcDbProxyObject
 90
      499
 91
      505
 93
      610
310
40901902A4063FBFFFFFE056BD1B81E855B9FC0AD7A3703D0AD73F4214DD185B99185C9900AD7A3703D0AC73F90141901A02B5E8DC0F42B1CFC02B5E8DC0F42B1CFE5764000000000000300FC0
340
14
340
0
340
11
340
0
 94
        0
1001
ACAD_MLEADERVER
1070
     2
  0
MLINESTYLE
  5
18
102
{ACAD_REACTORS
330
17
102
}
330
17
100
AcDbMlineStyle
  2
Standard
 70
     0
  3

 62
   256
 51
90.0
 52
90.0
 71
     2
 49
0.5
 62
   256
  6
BYLAYER
 49
-0.5
 62
   256
  6
BYLAYER
  0
ACAD_PROXY_OBJECT
  5
48
102
{ACAD_REACTORS
330
47
102
}
330
47
100
AcDbProxyObject
 90
      499
 91
      503
 93
       41
310
903313A31580
  0
ACAD_PROXY_OBJECT
  5
49
102
{ACAD_REACTORS
330
47
102
}
330
47
100
AcDbProxyObject
 90
      499
 91
      503
 93
      105
310
903313A324000000000000004000
  0
ACAD_PROXY_OBJECT
  5
4A
102
{ACAD_REACTORS
330
47
102
}
330
47
100
AcDbProxyObject
 90
      499
 91
      503
 93
      105
310
903313A344000000000000104000
  0
ACAD_PROXY_OBJECT
  5
4B
102
{ACAD_REACTORS
330
47
102
}
330
47
100
AcDbProxyObject
 90
      499
 91
      503
 93
      105
310
903313A354000000000000144000
  0
ACAD_PROXY_OBJECT
  5
4C
102
{ACAD_REACTORS
330
47
102
}
330
47
100
AcDbProxyObject
 90
      499
 91
      503
 93
      105
310
903313A384000000000000204000
  0
ACAD_PROXY_OBJECT
  5
4D
102
{ACAD_REACTORS
330
47
102
}
330
47
100
AcDbProxyObject
 90
      499
 91
      503
 93
      113
310
904313A31304000000000000244000
  0
ACAD_PROXY_OBJECT
  5
4E
102
{ACAD_REACTORS
330
47
102
}
330
47
100
AcDbProxyObject
 90
      499
 91
      503
 93
      113
310
904313A31364000000000000304000
  0
ACAD_PROXY_OBJECT
  5
4F
102
{ACAD_REACTORS
330
47
102
}
330
47
100
AcDbProxyObject
 90
      499
 91
      503
 93
      113
310
904313A32304000000000000344000
  0
ACAD_PROXY_OBJECT
  5
50
102
{ACAD_REACTORS
330
47
102
}
330
47
100
AcDbProxyObject
 90
      499
 91
      503
 93
      113
310
904313A333040000000000003E4000
  0
ACAD_PROXY_OBJECT
  5
51
102
{ACAD_REACTORS
330
47
102
}
330
47
100
AcDbProxyObject
 90
      499
 91
      503
 93
      113
310
904313A34304000000000000444000
  0
ACAD_PROXY_OBJECT
  5
52
102
{ACAD_REACTORS
330
47
102
}
330
47
100
AcDbProxyObject
 90
      499
 91
      503
 93
      113
310
904313A35304000000000000494000
  0
ACAD_PROXY_OBJECT
  5
53
102
{ACAD_REACTORS
330
47
102
}
330
47
100
AcDbProxyObject
 90
      499
 91
      503
 93
      121
310
905313A3130304000000000000594000
  0
ACAD_PROXY_OBJECT
  5
54
102
{ACAD_REACTORS
330
47
102
}
330
47
100
AcDbProxyObject
 90
      499
 91
      503
 93
      105
310
903323A310000000000000010100
  0
ACAD_PROXY_OBJECT
  5
55
102
{ACAD_REACTORS
330
47
102
}
330
47
100
AcDbProxyObject
 90
      499
 91
      503
 93
      105
310
903343A310000000000000410100
  0
ACAD_PROXY_OBJECT
  5
56
102
{ACAD_REACTORS
330
47
102
}
330
47
100
AcDbProxyObject
 90
      499
 91
      503
 93
      105
310
903383A310000000000000810100
  0
ACAD_PROXY_OBJECT
  5
57
102
{ACAD_REACTORS
330
47
102
}
330
47
100
AcDbProxyObject
 90
      499
 91
      503
 93
      113
310
90431303A310000000000000910100
  0
ACAD_PROXY_OBJECT
  5
58
102
{ACAD_REACTORS
330
47
102
}
330
47
100
AcDbProxyObject
 90
      499
 91
      503
 93
      121
310
9053130303A310000000000001650100
  0
ACAD_PROXY_OBJECT
  5
59
102
{ACAD_REACTORS
330
47
102
}
330
47
100
AcDbProxyObject
 90
      499
 91
      503
 93
      257
310
90E312F31323822203D2031272D3022000000000000200FC000000000000284000
  0
ACAD_PROXY_OBJECT
  5
5A
102
{ACAD_REACTORS
330
47
102
}
330
47
100
AcDbProxyObject
 90
      499
 91
      503
 93
      249
310
90D312F363422203D2031272D3022000000000000240FC000000000000284000
  0
ACAD_PROXY_OBJECT
  5
5B
102
{ACAD_REACTORS
330
47
102
}
330
47
100
AcDbProxyObject
 90
      499
 91
      503
 93
      249
310
90D312F333222203D2031272D3022000000000000280FC000000000000284000
  0
ACAD_PROXY_OBJECT
  5
5C
102
{ACAD_REACTORS
330
47
102
}
330
47
100
AcDbProxyObject
 90
      499
 91
      503
 93
      249
310
90D312F313622203D2031272D30220000000000002C0FC000000000000284000
  0
ACAD_PROXY_OBJECT
  5
5D
102
{ACAD_REACTORS
330
47
102
}
330
47
100
AcDbProxyObject
 90
      499
 91
      503
 93
      249
310
90D332F333222203D2031272D30220000000000002E0FC000000000000284000
  0
ACAD_PROXY_OBJECT
  5
5E
102
{ACAD_REACTORS
330
47
102
}
330
47
100
AcDbProxyObject
 90
      499
 91
      503
 93
      241
310
90C312F3822203D2031272D3022000000000000300FC000000000000284000
  0
ACAD_PROXY_OBJECT
  5
5F
102
{ACAD_REACTORS
330
47
102
}
330
47
100
AcDbProxyObject
 90
      499
 91
      503
 93
      249
310
90D332F313622203D2031272D3022000000000000320FC000000000000284000
  0
ACAD_PROXY_OBJECT
  5
60
102
{ACAD_REACTORS
330
47
102
}
330
47
100
AcDbProxyObject
 90
      499
 91
      503
 93
      241
310
90C312F3422203D2031272D3022000000000000340FC000000000000284000
  0
ACAD_PROXY_OBJECT
  5
61
102
{ACAD_REACTORS
330
47
102
}
330
47
100
AcDbProxyObject
 90
      499
 91
      503
 93
      241
310
90C332F3822203D2031272D3022000000000000360FC000000000000284000
  0
ACAD_PROXY_OBJECT
  5
62
102
{ACAD_REACTORS
330
47
102
}
330
47
100
AcDbProxyObject
 90
      499
 91
      503
 93
      241
310
90C312F3222203D2031272D3022000000000000380FC000000000000284000
  0
ACAD_PROXY_OBJECT
  5
63
102
{ACAD_REACTORS
330
47
102
}
330
47
100
AcDbProxyObject
 90
      499
 91
      503
 93
      241
310
90C332F3422203D2031272D30220000000000003A0FC000000000000284000
  0
ACAD_PROXY_OBJECT
  5
64
102
{ACAD_REACTORS
330
47
102
}
330
47
100
AcDbProxyObject
 90
      499
 91
      503
 93
      161
310
90A3122203D2031272D30224000000000000284000
  0
ACAD_PROXY_OBJECT
  5
65
102
{ACAD_REACTORS
330
47
102
}
330
47
100
AcDbProxyObject
 90
      499
 91
      503
 93
      257
310
90E312D312F3222203D2031272D30220000000000003E0FC000000000000284000
  0
ACAD_PROXY_OBJECT
  5
66
102
{ACAD_REACTORS
330
47
102
}
330
47
100
AcDbProxyObject
 90
      499
 91
      503
 93
      225
310
90A3322203D2031272D302200000000000002100000000000000284000
  0
ACAD_PROXY_OBJECT
  5
67
102
{ACAD_REACTORS
330
47
102
}
330
47
100
AcDbProxyObject
 90
      499
 91
      503
 93
      225
310
90A3622203D2031272D302200000000000006100000000000000284000
  0
ACAD_PROXY_OBJECT
  5
68
102
{ACAD_REACTORS
330
47
102
}
330
47
100
AcDbProxyObject
 90
      499
 91
      503
 93
      249
310
90D31272D3022203D2031272D30220000000000000A100000000000000284000
  0
ACAD_PROXY_OBJECT
  5
2F
102
{ACAD_REACTORS
330
2A
102
}
330
2A
100
AcDbProxyObject
 90
      499
 91
      501
 93
      436
310
42CC9915DA5C99599C985B595049028333333333333E33F0000000000000F90107901411070040501600405405064090741402480A0340
1001
ACAD
1000
AcDbSavedByObjectVersion
1070
     0
  0
ACAD_PROXY_OBJECT
  5
32
102
{ACAD_REACTORS
330
2A
102
}
330
2A
100
AcDbProxyObject
 90
      499
 91
      501
 93
      388
310
4150985CDA58D07406404333333333333E33F0000000000000F90107A41107004050150841D405064090741402480A0350
1001
ACAD
1000
AcDbSavedByObjectVersion
1070
     0
  0
ACAD_PROXY_OBJECT
  5
36
102
{ACAD_REACTORS
330
2A
102
}
330
2A
100
AcDbProxyObject
 90
      499
 91
      501
 93
      428
310
42109C9A59DA1D195B90C409028333333333333E33F0000000000000F9010790141107004050150841D405064090741402480A029950
1001
ACAD
1000
AcDbSavedByObjectVersion
1070
     0
  0
ACAD_PROXY_OBJECT
  5
3A
102
{ACAD_REACTORS
330
2A
102
}
330
2A
100
AcDbProxyObject
 90
      499
 91
      501
 93
      452
310
42D0DBDB1BDC90DA185B99D95104090240C333333333333E33F0000000000000F90108901411070040501508421405064090741402480A0350
1001
ACAD
1000
AcDbSavedByObjectVersion
1070
     0
  0
ACAD_PROXY_OBJECT
  5
34
102
{ACAD_REACTORS
330
2A
102
}
330
2A
100
AcDbProxyObject
 90
      499
 91
      501
 93
      500
310
4290DBDB98D95C1D1D585B10940D028333333333333E33F0000000000000F90107902409070040501000000000018199010841D405064090740C02480A0340
1001
ACAD
1000
AcDbSavedByObjectVersion
1070
     0
  0
ACAD_PROXY_OBJECT
  5
35
102
{ACAD_REACTORS
330
2A
102
}
330
2A
100
AcDbProxyObject
 90
      499
 91
      501
 93
      412
310
40D11A5B50B409028333333333333E33F0000000000000F9010790141107004050150841D405064090741402480A02677FFFFFD0
1001
ACAD
1000
AcDbSavedByObjectVersion
1070
     0
  0
ACAD_PROXY_OBJECT
  5
3D
102
{ACAD_REACTORS
330
2A
102
}
330
2A
100
AcDbProxyObject
 90
      499
 91
      501
 93
      452
310
43115919D950DBDB1BDC93D999916409028333333333333E33F0000000000000F9010790141107004050150841D405064090741402480A0350
1001
ACAD
1000
AcDbSavedByObjectVersion
1070
     0
  0
ACAD_PROXY_OBJECT
  5
39
102
{ACAD_REACTORS
330
2A
102
}
330
2A
100
AcDbProxyObject
 90
      499
 91
      501
 93
      444
310
42D19858D95C185D1D195C9B90F409028333333333333E33F0000000000000F9010790141107004050150841D405064090741402480A0350
1001
ACAD
1000
AcDbSavedByObjectVersion
1070
     0
  0
ACAD_PROXY_OBJECT
  5
2B
102
{ACAD_REACTORS
330
2A
102
}
330
2A
100
AcDbProxyObject
 90
      499
 91
      501
 93
      380
310
41119B185D240901404333333333333E33F0000000000000F9010740A907004050150841D405064090741402480A1B50
1001
ACAD
1000
AcDbSavedByObjectVersion
1070
     0
  0
ACAD_PROXY_OBJECT
  5
2C
102
{ACAD_REACTORS
330
2A
102
}
330
2A
100
AcDbProxyObject
 90
      499
 91
      501
 93
      468
310
43519B185D15DA5D1A115919D95CD0140901404333333333333E33F0000000000000F90107409019070040501600405405064090741402480A1B50
1001
ACAD
1000
AcDbSavedByObjectVersion
1070
     0
  0
ACAD_PROXY_OBJECT
  5
2D
102
{ACAD_REACTORS
330
2A
102
}
330
2A
100
AcDbProxyObject
 90
      499
 91
      501
 93
      404
310
41D1DBDD5C985D5910240902404333333333333E33F0000000000000F9010740A9070040501641D405064090741402480A1B50
1001
ACAD
1000
AcDbSavedByObjectVersion
1070
     0
  0
ACAD_PROXY_OBJECT
  5
2E
102
{ACAD_REACTORS
330
2A
102
}
330
2A
100
AcDbProxyObject
 90
      499
 91
      501
 93
      492
310
4411DBDD5C985D5915DA5D1A115919D95CD0340902404333333333333E33F0000000000000F90107409019070040501600405405064090741402480A1B50
1001
ACAD
1000
AcDbSavedByObjectVersion
1070
     0
  0
ACAD_PROXY_OBJECT
  5
31
102
{ACAD_REACTORS
330
2A
102
}
330
2A
100
AcDbProxyObject
 90
      499
 91
      501
 93
      476
310
41921A5919195B90640502408333333333333E33F0000000000000F901079024090700405020000000000001110200405405064090740C02480A0340
1001
ACAD
1000
AcDbSavedByObjectVersion
1070
     0
  0
ACAD_PROXY_OBJECT
  5
3B
102
{ACAD_REACTORS
330
2A
102
}
330
2A
100
AcDbProxyObject
 90
      499
 91
      501
 93
      428
310
42529A5D1D195C93D999914409028333333333333E33F0000000000000F9010790141107004050150A41D405064090741402480A0350
1001
ACAD
1000
AcDbSavedByObjectVersion
1070
     0
  0
ACAD_PROXY_OBJECT
  5
38
102
{ACAD_REACTORS
330
2A
102
}
330
2A
100
AcDbProxyObject
 90
      499
 91
      501
 93
      444
310
42D31A5B995C185D1D195C9B90E409028333333333333E33F0000000000000F9010790141107004050750841D405064090741402483A0350
1001
ACAD
1000
AcDbSavedByObjectVersion
1070
     0
  0
ACAD_PROXY_OBJECT
  5
3C
102
{ACAD_REACTORS
330
2A
102
}
330
2A
100
AcDbProxyObject
 90
      499
 91
      501
 93
      444
310
42D3DD995C9A185B99D3D999915409028333333333333E33F0000000000000F9010790141107004050150941D405064090741402480A0350
1001
ACAD
1000
AcDbSavedByObjectVersion
1070
     0
  0
ACAD_PROXY_OBJECT
  5
33
102
{ACAD_REACTORS
330
2A
102
}
330
2A
100
AcDbProxyObject
 90
      499
 91
      501
 93
      428
310
425499585B1A5CDD1A58D08409038333333333333E33F0000000000000F9010740A907004050150800405405064090740C02480A1B40
1001
ACAD
1000
AcDbSavedByObjectVersion
1070
     0
  0
ACAD_PROXY_OBJECT
  5
42
102
{ACAD_REACTORS
330
2A
102
}
330
2A
100
AcDbProxyObject
 90
      499
 91
      501
 93
      420
310
4194DA1859195911B40902404333333333333E33F0000000000000F9010740A41107004050150800405405064090840C02480A0B40
1001
ACAD
1000
AcDbSavedByObjectVersion
1070
     0
  0
ACAD_PROXY_OBJECT
  5
41
102
{ACAD_REACTORS
330
2A
102
}
330
2A
100
AcDbProxyObject
 90
      499
 91
      501
 93
      516
310
4454DA18591959081DDA5D1A08195919D95CD1A40902404333333333333E33F0000000000000F901074090142907004050250800405405064090740C02480A0B40
1001
ACAD
1000
AcDbSavedByObjectVersion
1070
     0
  0
ACAD_PROXY_OBJECT
  5
3E
102
{ACAD_REACTORS
330
2A
102
}
330
2A
100
AcDbProxyObject
 90
      499
 91
      501
 93
      532
310
4394DA1859195CC81BD98811DC985E5174090240C333333333333E33F0000000000000F901079024090741D01000000000000111010841D405064090740C02480A0340
1001
ACAD
1000
AcDbSavedByObjectVersion
1070
     0
  0
ACAD_PROXY_OBJECT
  5
3F
102
{ACAD_REACTORS
330
2A
102
}
330
2A
100
AcDbProxyObject
 90
      499
 91
      501
 93
      476
310
41D4DAD95D18DA1E51840502408333333333333E33F0000000000000F901079024090741D01000000000000111010B41D405064090741802480A0340
1001
ACAD
1000
AcDbSavedByObjectVersion
1070
     0
  0
ACAD_PROXY_OBJECT
  5
37
102
{ACAD_REACTORS
330
2A
102
}
330
2A
100
AcDbProxyObject
 90
      499
 91
      501
 93
      412
310
41D51A1A58DAD95B90D409028333333333333E33F0000000000000F9010790141107004050150C41D405064090741402480A0350
1001
ACAD
1000
AcDbSavedByObjectVersion
1070
     0
  0
ACAD_PROXY_OBJECT
  5
30
102
{ACAD_REACTORS
330
2A
102
}
330
2A
100
AcDbProxyObject
 90
      499
 91
      501
 93
      420
310
4255DA5C99599C985B595059028333333333333E33F0000000000000F90107901411070040501600405405064090740C02480A0340
1001
ACAD
1000
AcDbSavedByObjectVersion
1070
     0
  0
ACAD_PROXY_OBJECT
  5
40
102
{ACAD_REACTORS
330
2A
102
}
330
2A
100
AcDbProxyObject
 90
      499
 91
      501
 93
      404
310
41560B54985E51940902404000000000000E03F0000000000000F9010740501907004050150841D405064090740C02480A1B40
1001
ACAD
1000
AcDbSavedByObjectVersion
1070
     0
  0
XRECORD
  5
26B
102
{ACAD_REACTORS
330
261
102
}
330
261
100
AcDbXrecord
340
0
  0
XRECORD
  5
26A
102
{ACAD_REACTORS
330
261
102
}
330
261
100
AcDbXrecord
 90
        0
  0
XRECORD
  5
281
102
{ACAD_REACTORS
330
261
102
}
330
261
100
AcDbXrecord
1000
DSTYLE
1002
{
1070
   171
 70
     2
1070
   143
 40
25.4
1070
   274
 70
     2
1070
    41
 40
0.18
1070
   141
 40
0.09
1070
   271
 70
     4
1070
    43
 40
0.38
1070
   278
 70
    46
1070
    44
 40
0.18
1070
    42
 40
0.0625
1070
   147
 40
0.09
1070
    77
 70
     0
1070
   272
 70
     4
1070
    73
 70
     1
1070
   172
 70
     0
1070
    74
 70
     1
1070
   283
 70
     1
1070
   340
340
11
1070
   140
 40
0.18
1070
   284
 70
     0
1070
    78
 70
     0
1002
}
  0
XRECORD
  5
26C
102
{ACAD_REACTORS
330
261
102
}
330
261
100
AcDbXrecord
  1
{7AFB542A-8900-45E3-8263-A6C689929228}
  0
XRECORD
  5
264
102
{ACAD_REACTORS
330
261
102
}
330
261
100
AcDbXrecord
  1

  0
XRECORD
  5
269
102
{ACAD_REACTORS
330
261
102
}
330
261
100
AcDbXrecord
 90
        4
  0
XRECORD
  5
266
102
{ACAD_REACTORS
330
261
102
}
330
261
100
AcDbXrecord
340
1A
  0
XRECORD
  5
268
102
{ACAD_REACTORS
330
261
102
}
330
261
100
AcDbXrecord
 90
    10781
  0
XRECORD
  5
267
102
{ACAD_REACTORS
330
261
102
}
330
261
100
AcDbXrecord
340
19
  0
XRECORD
  5
26E
102
{ACAD_REACTORS
330
261
102
}
330
261
100
AcDbXrecord
 40
0.0
  0
XRECORD
  5
271
102
{ACAD_REACTORS
330
261
102
}
330
261
100
AcDbXrecord
340
0
  0
XRECORD
  5
277
102
{ACAD_REACTORS
330
261
102
}
330
261
100
AcDbXrecord
 10
0.0
 20
0.0
 30
0.0
  0
XRECORD
  5
273
102
{ACAD_REACTORS
330
261
102
}
330
261
100
AcDbXrecord
 10
0.0
 20
0.0
 30
0.0
  0
XRECORD
  5
276
102
{ACAD_REACTORS
330
261
102
}
330
261
100
AcDbXrecord
 10
0.0
 20
0.0
 30
0.0
  0
XRECORD
  5
274
102
{ACAD_REACTORS
330
261
102
}
330
261
100
AcDbXrecord
 10
0.0
 20
0.0
 30
0.0
  0
XRECORD
  5
275
102
{ACAD_REACTORS
330
261
102
}
330
261
100
AcDbXrecord
 10
0.0
 20
0.0
 30
0.0
  0
XRECORD
  5
272
102
{ACAD_REACTORS
330
261
102
}
330
261
100
AcDbXrecord
 10
0.0
 20
0.0
 30
0.0
  0
XRECORD
  5
26F
102
{ACAD_REACTORS
330
261
102
}
330
261
100
AcDbXrecord
340
0
  0
XRECORD
  5
270
102
{ACAD_REACTORS
330
261
102
}
330
261
100
AcDbXrecord
 70
     0
  0
XRECORD
  5
265
102
{ACAD_REACTORS
330
261
102
}
330
261
100
AcDbXrecord
  1

  0
XRECORD
  5
262
102
{ACAD_REACTORS
330
261
102
}
330
261
100
AcDbXrecord
 90
        1
  0
XRECORD
  5
263
102
{ACAD_REACTORS
330
261
102
}
330
261
100
AcDbXrecord
 90
       70
  0
XRECORD
  5
27A
102
{ACAD_REACTORS
330
261
102
}
330
261
100
AcDbXrecord
340
0
  0
XRECORD
  5
280
102
{ACAD_REACTORS
330
261
102
}
330
261
100
AcDbXrecord
 10
0.0
 20
0.0
 30
0.0
  0
XRECORD
  5
27C
102
{ACAD_REACTORS
330
261
102
}
330
261
100
AcDbXrecord
 10
0.0
 20
0.0
 30
0.0
  0
XRECORD
  5
27F
102
{ACAD_REACTORS
330
261
102
}
330
261
100
AcDbXrecord
 10
0.0
 20
0.0
 30
0.0
  0
XRECORD
  5
27D
102
{ACAD_REACTORS
330
261
102
}
330
261
100
AcDbXrecord
 10
0.0
 20
0.0
 30
0.0
  0
XRECORD
  5
27E
102
{ACAD_REACTORS
330
261
102
}
330
261
100
AcDbXrecord
 10
0.0
 20
0.0
 30
0.0
  0
XRECORD
  5
27B
102
{ACAD_REACTORS
330
261
102
}
330
261
100
AcDbXrecord
 10
0.0
 20
0.0
 30
0.0
  0
XRECORD
  5
278
102
{ACAD_REACTORS
330
261
102
}
330
261
100
AcDbXrecord
340
0
  0
XRECORD
  5
279
102
{ACAD_REACTORS
330
261
102
}
330
261
100
AcDbXrecord
 70
     0
  0
XRECORD
  5
26D
102
{ACAD_REACTORS
330
261
102
}
330
261
100
AcDbXrecord
  1
{FAEB1C32-E019-11D5-929B-00C0DF256EC4}
  0
DICTIONARYVAR
  5
28B
102
{ACAD_REACTORS
330
282
102
}
330
282
100
DictionaryVariables
280
     0
  1
1:1
  0
DICTIONARYVAR
  5
284
102
{ACAD_REACTORS
330
282
102
}
330
282
100
DictionaryVariables
280
     0
  1
Standard
  0
DICTIONARYVAR
  5
283
102
{ACAD_REACTORS
330
282
102
}
330
282
100
DictionaryVariables
280
     0
  1
Standard
  0
DICTIONARYVAR
  5
287
102
{ACAD_REACTORS
330
282
102
}
330
282
100
DictionaryVariables
280
     0
  1
2
  0
DICTIONARYVAR
  5
288
102
{ACAD_REACTORS
330
282
102
}
330
282
100
DictionaryVariables
280
     0
  1
1
  0
DICTIONARYVAR
  5
28C
102
{ACAD_REACTORS
330
282
102
}
330
282
100
DictionaryVariables
280
     0
  1
1
  0
DICTIONARY
  5
28F
330
45
100
AcDbDictionary
280
     1
  3
ACAD_XREC_ROUNDTRIP
360
290
  0
DICTIONARY
  5
28D
330
44
100
AcDbDictionary
280
     1
  3
ACAD_XREC_ROUNDTRIP
360
28E
  0
DICTIONARY
  5
291
330
46
100
AcDbDictionary
280
     1
  3
ACAD_XREC_ROUNDTRIP
360
292
  0
XRECORD
  5
290
102
{ACAD_REACTORS
330
28F
102
}
330
28F
100
AcDbXrecord
102
MATERIAL
148
0.0
149
0.0
149
0.0
 93
        0
 94
      127
282
     0
 72
     1
 77
     1
171
     1
175
     1
179
     1
273
     0
  0
XRECORD
  5
28E
102
{ACAD_REACTORS
330
28D
102
}
330
28D
100
AcDbXrecord
102
MATERIAL
148
0.0
149
0.0
149
0.0
 93
        0
 94
      127
282
     0
 72
     1
 77
     1
171
     1
175
     1
179
     1
273
     0
  0
XRECORD
  5
292
102
{ACAD_REACTORS
330
291
102
}
330
291
100
AcDbXrecord
102
MATERIAL
148
0.0
149
0.0
149
0.0
 93
        0
 94
      127
282
     0
 72
     1
 77
     1
171
     1
175
     1
179
     1
273
     0
  0
ENDSEC
  0
EOF
